<?xml version="1.0" encoding="UTF-8" standalone="no"?>
<svg
   id="Capa_2"
   viewBox="0 0 569.87 419.55"
   version="1.1"
   sodipodi:docname="laboratorio.svg"
   width="569.87"
   height="419.54999"
   inkscape:version="1.1.2 (0a00cf5339, 2022-02-04)"
   xmlns:inkscape="http://www.inkscape.org/namespaces/inkscape"
   xmlns:sodipodi="http://sodipodi.sourceforge.net/DTD/sodipodi-0.dtd"
   xmlns="http://www.w3.org/2000/svg"
   xmlns:svg="http://www.w3.org/2000/svg">
  <sodipodi:namedview
     id="namedview240"
     pagecolor="#ffffff"
     bordercolor="#666666"
     borderopacity="1.0"
     inkscape:showpageshadow="2"
     inkscape:pageopacity="0.0"
     inkscape:pagecheckerboard="0"
     inkscape:deskcolor="#d1d1d1"
     inkscape:zoom="3.4703312"
     inkscape:cx="141.77321"
     inkscape:cy="362.06918"
     inkscape:window-width="1600"
     inkscape:window-height="872"
     inkscape:window-x="0"
     inkscape:window-y="0"
     inkscape:window-maximized="1"
     inkscape:current-layer="Capa_2"
     inkscape:pageshadow="2"
     showgrid="false" />
  <defs
     id="defs1">
    <style
       id="style1">
      .cls-1 {
        fill: #0e7b41;
      }

      .cls-2 {
        fill: #c9e7f2;
      }

      .cls-3 {
        fill: #e7c2af;
      }

      .cls-4 {
        fill: #2e92b1;
      }

      .cls-5 {
        fill: #fff;
      }

      .cls-6 {
        fill: #5cacbb;
      }

      .cls-7 {
        fill: #74c8db;
      }

      .cls-8 {
        fill: #132336;
      }

      .cls-9 {
        fill: #ec8f72;
      }

      .cls-10 {
        fill: #5abdd1;
      }

      .cls-11 {
        fill: #77baba;
      }

      .cls-12 {
        fill: #e83e4d;
      }

      .cls-13 {
        fill: #1b324f;
      }

      .cls-14 {
        fill: #8fc8d0;
      }

      .cls-15 {
        fill: #f6ae91;
      }

      .cls-16 {
        fill: #e7f3fa;
      }
    </style>
  </defs>
  <path
     class="cls-13"
     d="m 197.99965,384.32413 c 2.52,-0.07 4.76,2.2 4.77,4.84 0.01,2.7 -2.05,4.75 -4.75,4.73 -2.73,-0.03 -4.66,-2.08 -4.59,-4.86 0.07,-2.53 2.14,-4.65 4.57,-4.71 z"
     id="path1" />
  <path
     class="cls-14"
     d="m 362.21965,105.74413 c 1.75,0.69 2.65,1.45 2.96,2.78 0.02,0.1 -0.42,0.45 -0.59,0.42 -1.41,-0.31 -1.97,-1.33 -2.37,-3.2 z"
     id="path2" />
  <path
     class="cls-7"
     d="m 164.05965,369.90413 c 0.24,1.22 0.61,2.3 1.31,3.3 h -6.66 c -0.39,-7.53 -2.72,-14.72 -3.94,-22.1 -0.39,-2.36 -0.97,-4.68 -1.47,-7.02 -0.95,-4.38 -1.74,-5.02 -6.31,-5.02 -29.61,0 -59.209997,0 -88.819997,-0.01 -1.1,0 -2.21,-0.07 -3.31,-0.11 2.08,-4.29 4.76,-5.63 9.35,-5.2 3.61,0.34 7.23,0.14 10.86,-0.41 2.19,-0.34 4.51,0.35 6.78,0.36 22.839997,0.03 45.689997,0.02 68.529997,0.02 5.82,0 6.64,0.68 7.77,6.34 1.98,9.95 3.99,19.89 5.91,29.85 z"
     id="path3" />
  <path
     class="cls-5"
     d="m 417.71965,381.06413 v 0 c -1.67,0.21 -3.33,0.25 -5,0.21 1.66,0.04 3.33,-0.01 5,-0.21 z"
     id="path4" />
  <path
     class="cls-4"
     d="m 451.09965,406.38413 c -0.78,0 -1.31,-0.47 -1.39,-1.26 -0.08,-0.79 0.32,-1.3 1.13,-1.48 0.87,0.15 1.47,0.68 1.57,1.51 0.11,0.83 -0.53,1.25 -1.31,1.23 z"
     id="path5" />
  <path
     class="cls-14"
     d="m 491.14965,184.17413 c -2.1,-0.49 -2.6,-1.87 -2.95,-3.32 -0.1,-0.46 0.42,-0.84 0.75,-0.62 1.25,0.86 2,2.07 2.2,3.94 z"
     id="path6" />
  <path
     class="cls-11"
     d="m 429.30965,156.69413 c -0.02,-0.85 0.79,-0.65 1.34,-0.46 0.96,0.31 2.15,0.23 2.67,1.37 -0.45,0.95 -1.26,0.85 -1.81,0.6 -0.8,-0.37 -2.18,-0.19 -2.2,-1.51 z"
     id="path7" />
  <path
     class="cls-10"
     d="m 446.61965,381.07413 c 0.03,-2.39 0.06,-4.77 0.08,-7.16 0.55,0 1.09,-0.01 1.63,-0.02 0.04,2.4 0.08,4.79 0.11,7.19 -0.61,-0.01 -1.21,-0.01 -1.82,-0.01 z"
     id="path8" />
  <path
     class="cls-11"
     d="m 106.70965,229.66413 c -1.46,0.57 -2.93,0.6 -4.88,-0.05 1.85,-1.36 3.31,-1.56 4.83,-0.73 0.13,0.07 0.13,0.75 0.05,0.78 z"
     id="path9" />
  <path
     class="cls-9"
     d="m 268.31965,273.96413 c -0.7,0.05 -1.39,0.16 -2.08,0.15 -1.6,-0.04 -3.49,-0.07 -4.3,-1.52 -0.97,-1.73 1.15,-2.47 1.96,-3.57 0.27,-0.37 0.55,-0.73 0.84,-1.09 l 1.3,1.01 c -0.86,0.64 -0.6,1.43 0.75,2.62 0.72,0.63 1.55,1.26 1.53,2.4 z"
     id="path10" />
  <path
     class="cls-11"
     d="m 73.619653,328.86413 c -1.41,-1.64 -1.81,-2.97 -1.14,-4.77 1.73,1.23 1.32,2.76 1.14,4.77 z"
     id="path11" />
  <path
     class="cls-11"
     d="m 481.73965,174.02413 c 2.18,-0.02 3.06,0.75 3.56,2.02 0.06,0.16 -0.27,0.68 -0.4,0.68 -1.52,-0.04 -2.03,-1.25 -3.16,-2.7 z"
     id="path12" />
  <path
     class="cls-11"
     d="m 399.51965,123.09413 c 0.08,-0.15 0.55,-0.17 0.78,-0.09 0.78,0.3 1.09,2.21 0.56,4.31 -0.39,-0.53 -0.63,-0.73 -0.71,-0.99 -0.34,-1.06 -1.37,-2 -0.63,-3.23 z"
     id="path13" />
  <path
     class="cls-14"
     d="m 494.91965,236.96413 c 0.46,-1.1 0.07,-2.74 1.65,-3.15 0.63,-0.16 0.56,0.62 0.64,1.24 -0.61,0.89 -0.06,2.56 -1.62,3.01 -0.45,0.12 -0.86,-0.65 -0.67,-1.1 z"
     id="path14" />
  <path
     class="cls-10"
     d="m 449.70965,405.12413 c 0.08,0.79 0.61,1.25 1.39,1.26 0.78,0.02 1.42,-0.4 1.31,-1.23 -0.1,-0.83 -0.7,-1.36 -1.57,-1.51 -0.81,0.18 -1.21,0.69 -1.13,1.48 z m 3.22,5.47 c -3.57,-0.4 -6.06,-2.91 -6.3,-6.42 -0.1,-1.38 -0.05,-2.78 -0.07,-4.17 h 13.3 c -0.21,1.87 0.18,3.75 -0.43,5.62 -0.98,3 -3.29,5 -5.91,5 -0.19,0 -0.39,-0.01 -0.59,-0.03 z"
     id="path15" />
  <path
     class="cls-14"
     d="m 102.08965,384.86413 c 0.3,0.22 0.6,0.44 0.9,0.67 -0.3,-0.23 -0.6,-0.45 -0.9,-0.67 z"
     id="path16" />
  <path
     class="cls-11"
     d="m 115.70965,227.79413 c -1.13,0.86 -2.39,1.39 -4.02,0.74 0.89,-1.76 2.25,-1.82 3.64,-1.65 0.41,0.05 0.7,0.66 0.38,0.91 z"
     id="path17" />
  <path
     class="cls-5"
     d="m 479.78965,377.40413 c -0.06,-2.3 -0.1,-4.6 -0.18,-6.89 -0.06,-1.71 -0.13,-3.41 -1.67,-4.6 -1.05,-0.82 -0.96,-1.95 -0.56,-3.02 0.43,-1.16 1.44,-1.57 2.64,-1.57 3.6,0 7.21,-0.12 10.81,0.05 3.07,0.14 3.86,1.99 2.05,4.5 -0.81,1.12 -1.1,2.31 -1.1,3.64 -0.01,2.51 -0.06,5.01 -0.09,7.51 -3.59,0.13 -7.22,-0.5 -10.76,0.56 z"
     id="path18" />
  <path
     class="cls-11"
     d="m 474.30965,287.46413 c 0,-0.92 -0.33,-2.38 1.01,-2.36 1.14,0.02 0.67,1.4 0.75,2.21 -0.19,0.82 0.39,2.15 -0.88,2.2 -1.38,0.06 -0.88,-1.27 -0.88,-2.05 z"
     id="path19" />
  <path
     class="cls-13"
     d="m 279.65965,412.96413 c -1.62,1.82 -3.34,3.53 -5.35,4.93 -0.21,0.05 -0.41,0.09 -0.59,0.12 h -1.05 c -0.69,-0.17 -0.89,-0.81 -0.42,-2.26 0.57,-1.78 1.38,-3.41 2.18,-5.07 0.68,-0.07 1.43,0.03 2.03,-0.23 2.7,-1.17 3.18,0.35 3.2,2.51 z"
     id="path20" />
  <path
     class="cls-7"
     d="m 398.39965,381.07413 c -0.81,-0.01 -1.61,-0.02 -2.42,-0.03 0.05,-2.39 0.11,-4.79 0.16,-7.19 0.67,-0.03 1.34,-0.07 2,-0.1 0.09,2.44 0.17,4.88 0.26,7.32 z"
     id="path21" />
  <path
     class="cls-16"
     d="m 340.20965,388.53413 c 8.46,-0.63 16.9,-1.63 25.41,-1.38 5.21,0.16 5.54,-0.57 4.69,-5.77 -1.59,-9.81 -2.94,-19.65 -4.43,-29.48 -1.13,-7.47 -2.32,-14.92 -3.45,-22.39 -0.13,-0.86 -0.02,-1.75 -0.02,-2.67 1.38,0.19 1.16,1.38 1.41,2.11 5.56,16.36 11.06,32.74 16.61,49.11 0.39,1.16 0.39,2.67 1.92,3.18 0.05,0.57 -0.34,1.46 0.24,1.65 2.75,0.92 1.82,3.06 1.78,4.92 -11.7,-0.23 -23.34,1.09 -35.03,1.29 -4.54,0.08 -9.08,1.19 -13.68,1.08 -0.83,-0.02 -1.79,0.36 -2.7,-0.71 2.44,-0.94 4.96,-0.77 7.25,-0.94 z"
     id="path22" />
  <path
     class="cls-13"
     d="m 343.51965,196.10413 c 12.6,14.12 21.56,30.32 26.16,48.78 1.11,4.43 1.24,9.06 2.05,13.5 0.6,3.25 0.99,6.52 1.38,9.77 1.08,8.92 -2.31,16.69 -6.73,24.13 -1.04,0.57 -1.94,0.05 -2.84,-0.37 -5.23,-2.45 -10.74,-4.03 -16.33,-5.39 -1.5,-1.21 -0.77,-2.7 -0.48,-4.11 0.68,-3.4 1.37,-6.74 0.83,-10.31 -1.04,-6.99 -4.92,-12.31 -9.54,-17.22 -3.2,-3.4 -6.66,-6.55 -10.01,-9.81 1.07,-5.83 0.7,-11.38 -3.22,-16.2 -3.69,-4.53 -5.87,-4.83 -10.67,-1.6 -0.27,-0.32 -0.53,-0.63 -0.8,-0.95 -0.48,-2.22 -1.81,-2.98 -3.97,-2.33 -2.19,-1.93 -4.84,-0.98 -7.3,-1.18 -4.21,0.83 -8.71,0.13 -12.65,2.39 -9.89,2.36 -19.82,4.39 -30.09,3.61 -2.89,-0.22 -5.63,-0.89 -7.91,-2.84 0.06,-1.34 -0.94,-1.68 -1.92,-1.9 -3.06,-0.69 -7.19,2.17 -7.64,5.31 -0.62,4.38 -0.36,8.72 1.34,12.84 2.12,5.17 3.64,10.59 6.45,15.47 0.62,1.08 1,2.2 0,3.32 -3.1,3.5 -6.21,7.01 -9.29,10.54 -0.87,1.01 -1.94,1.33 -3.2,1.24 -2.2,-6.11 -4.97,-11.99 -6.44,-18.37 -1.88,-8.16 -2.82,-16.34 -1.46,-24.65 0.24,-1.44 0.87,-2.9 1.63,-4.17 6.55,-10.9 13.09,-21.81 19.82,-32.6 2.18,-3.49 4.97,-6.65 8.43,-8.92 19.31,-12.7 39.59,-18.33 61.73,-7.52 9.21,4.5 16,12.06 22.67,19.54 z"
     id="path23" />
  <path
     class="cls-2"
     d="m 453.53965,412.96413 c -6.37,0.05 -12.74,0.09 -19.11,0.1 -2.15,0 -4.31,-0.01 -6.46,-0.03 l 0.03,-2.43 c 0.15,0 0.31,-0.01 0.46,-0.03 3.37,-0.43 5.57,-2.7 6.03,-6.39 0.17,-1.38 0.08,-2.79 0.11,-4.18 h 11.96 c 0.02,1.39 -0.03,2.79 0.07,4.17 0.24,3.51 2.73,6.02 6.3,6.42 0.2,0.02 0.4,0.03 0.59,0.03 z"
     id="path24" />
  <path
     class="cls-11"
     d="m 159.24965,162.70413 c 0.98,-0.11 0.54,1 0.67,1.63 -0.24,0.88 -0.01,2.13 -1.24,2.35 -0.92,0.17 -1.12,-0.67 -0.86,-1.39 0.35,-0.94 0.05,-2.45 1.43,-2.59 z"
     id="path25" />
  <path
     class="cls-11"
     d="m 90.179653,262.06413 c -0.39,2.61 -1.14,3.92 -2.93,4.86 -0.3,-2.32 1.02,-3.32 2.93,-4.86 z"
     id="path26" />
  <path
     class="cls-13"
     d="m 310.58965,365.11413 c 0.36,0.23 0.54,0.52 0.61,0.85 0.09,0.43 -0.02,0.9 -0.18,1.32 -1.03,2.59 -2.35,5.02 -3.98,7.29 -3.18,4.46 -6.35,8.93 -9.53,13.39 -2.51,4.06 -6.45,5.87 -11.08,7.17 0.34,-2.1 2.26,-3.04 2.48,-4.83 5.78,-6.61 10.49,-14.03 15.54,-21.18 1.34,-1.89 3.72,-2.14 4.78,-4.12 0.09,-0.17 1,-0.11 1.36,0.11 z"
     id="path27" />
  <path
     class="cls-13"
     d="m 296.47965,240.04413 c -0.39,0.39 -0.75,0.85 -1.08,1.38 v 0.02 c 0,0 -0.02,0.01 -0.02,0.01 h -0.01 c 0.35,-0.55 0.72,-1.02 1.11,-1.41 z"
     id="path28" />
  <path
     class="cls-7"
     d="m 157.28965,380.42413 c 1.18,-0.54 2.35,-0.7 3.48,0.11 -1.16,-0.04 -2.32,-0.08 -3.48,-0.11 z"
     id="path29" />
  <path
     class="cls-11"
     d="m 460.60965,164.07413 c -1.81,0.57 -3.13,0.36 -4.68,-1.32 2.06,-0.38 3.5,-0.44 4.68,1.32 z"
     id="path30" />
  <path
     class="cls-11"
     d="m 496.15965,335.76413 c 0.2,-0.51 0.73,-0.35 0.95,-0.06 0.88,1.15 0.98,2.42 0.43,3.97 -0.48,-0.26 -0.6,-0.29 -0.64,-0.36 -0.71,-1.08 -1.25,-2.23 -0.74,-3.55 z"
     id="path31" />
  <path
     class="cls-8"
     d="m 338.01965,254.88413 c 4.62,4.91 8.5,10.23 9.54,17.22 0.54,3.57 -0.15,6.91 -0.83,10.31 -0.29,1.41 -1.02,2.9 0.48,4.11 -2.1,0.64 -3.67,-1.53 -5.73,-1.07 -1.55,-1.62 -3.77,-1.46 -5.68,-2.15 -1.47,-0.75 -3.02,-1.07 -4.67,-0.84 -4.22,-0.99 -5.5,-4.79 -7.51,-7.88 -0.91,-3.63 -1.82,-7.25 -2.73,-10.88 -0.5,-3.41 0.65,-6.75 0.44,-10.14 -0.04,-0.68 0.32,-1.16 0.87,-1.46 2.88,-1.57 4.32,-4.32 5.81,-7.03 3.35,3.26 6.81,6.41 10.01,9.81 z"
     id="path32" />
  <path
     class="cls-6"
     d="m 224.71965,408.41413 c 0.91,-0.1 1.84,-0.38 2.64,0.36 -0.91,0.09 -1.85,0.39 -2.64,-0.36 z"
     id="path33" />
  <path
     class="cls-14"
     d="m 495.84965,197.16413 c 0.02,-0.11 0.64,-0.28 0.76,-0.17 1.21,1.08 1.48,2.42 0.95,4.08 -0.44,-0.13 -0.56,-0.12 -0.61,-0.18 -0.93,-1.08 -1.35,-2.32 -1.1,-3.73 z"
     id="path34" />
  <path
     class="cls-11"
     d="m 487.67965,313.79413 c -2.01,-0.49 -2.71,-1.63 -3.08,-3 -0.12,-0.48 0.39,-0.79 0.73,-0.62 1.31,0.67 1.8,1.92 2.35,3.62 z"
     id="path35" />
  <path
     class="cls-11"
     d="m 153.19965,193.99413 c -1.18,-1.99 0.08,-3.15 1.16,-4.77 0.4,1.99 0.45,3.47 -1.16,4.77 z"
     id="path36" />
  <path
     class="cls-15"
     d="m 291.99965,230.80413 c -5.04,3.05 -10.71,4.64 -16.06,6.98 -2.24,0.98 -4.41,2.29 -6.96,2.45 -0.11,-1.94 -0.97,-3.16 -2.53,-3.16 l -0.24,-2.98 c 3.15,-0.24 6.27,-0.91 9.4,-1.38 5.2,-0.77 10.36,-1.82 15.63,-2.13 0.25,0.08 0.51,0.15 0.76,0.22 z"
     id="path37" />
  <path
     class="cls-11"
     d="m 164.91965,144.20413 c 0.84,1.82 0.25,3.16 -0.93,4.32 -0.08,0.08 -0.69,-0.13 -0.7,-0.24 -0.13,-1.59 0.27,-2.98 1.63,-4.08 z"
     id="path38" />
  <path
     class="cls-11"
     d="m 158.14965,171.91413 c 0.75,1.64 0.06,2.98 -0.91,4.38 -0.41,-0.24 -0.55,-0.27 -0.57,-0.34 -0.38,-1.44 -0.63,-2.89 0.48,-4.15 0.29,-0.34 0.82,-0.27 1,0.11 z"
     id="path39" />
  <path
     class="cls-5"
     d="m 446.61965,346.59413 c 0.04,-1.95 -0.2,-3.66 -1.47,-5.33 -1.53,-1.99 -0.64,-4.23 1.8,-4.39 4.19,-0.27 8.42,-0.27 12.62,-0.08 2.31,0.1 3.35,3.04 1.72,4.73 -0.88,0.91 -1.53,1.8 -1.78,3.01 -0.01,0 -0.16,0.2 -0.16,0.2 l 0.13,0.23 c -0.04,2.84 -0.08,5.67 -0.12,8.51 -2.61,0.03 -5.23,0.06 -7.85,0.09 -1.08,0.01 -2.15,0.02 -3.23,0.04 -0.54,-0.04 -1.07,-0.07 -1.61,-0.1 -0.02,-2.3 -0.1,-4.61 -0.05,-6.91 z"
     id="path40" />
  <path
     class="cls-5"
     d="m 241.97965,346.87413 c 2.8,0.51 3.84,2.79 4.57,5.04 1.41,4.36 1.56,8.83 0.09,13.23 -2.2,6.61 -5.27,12.45 -9.73,17.02 l -2.72,-0.16 c 0.52,-0.61 0.82,-1.51 1.01,-2.8 1.61,-10.91 3.84,-21.7 6.78,-32.33 z"
     id="path41" />
  <path
     class="cls-15"
     d="m 271.29965,263.77413 c -1.01,0.39 -2.02,1.08 -3.02,-0.03 -0.37,-0.6 -0.74,-1.21 -1.1,-1.81 0.36,-0.41 0.73,-0.82 1.1,-1.23 1.68,0.33 2.69,1.35 3.08,3 z"
     id="path42" />
  <path
     class="cls-10"
     d="m 406.99965,367.62413 c 0.63,0.21 1.35,0.16 2.03,0.22 l 0.27,13.23 c -3.02,0.32 -6.05,0.37 -9.07,0 l 0.21,-27.39 c 2.9,-0.07 5.81,-0.14 8.71,-0.21 0.34,1.32 -0.34,2.81 0.63,4.03 -1.15,1.97 -0.19,4.17 -0.65,6.21 -1.68,-1.05 -3.12,-0.75 -3.89,1.06 -0.67,1.55 0.42,2.41 1.76,2.85 z m -2.5,9.3 c 0.76,0.01 1.35,-0.26 1.55,-1.1 -0.01,-0.7 -0.41,-1.11 -1.07,-1.19 -0.94,-0.12 -1.55,0.32 -1.63,1.28 -0.07,0.78 0.49,1.01 1.15,1.01 z"
     id="path43" />
  <path
     class="cls-2"
     d="m 102.81965,376.50413 c -1.08,2.71 -3.36,5.32 -0.73,8.36 -0.19,0.18 -0.37,0.36 -0.56,0.54 -2.43,-3.13 -2.19,-5.98 0.79,-9.46 0.17,0.19 0.33,0.37 0.5,0.56 z"
     id="path44" />
  <path
     class="cls-10"
     d="m 421.46965,353.46413 c 0.51,0.04 1.01,0.09 1.51,0.13 0.02,5.18 0.04,10.37 0.06,15.55 -0.53,-0.2 -1.06,-0.41 -1.59,-0.61 0.01,-5.02 0.02,-10.05 0.02,-15.07 z"
     id="path45" />
  <path
     class="cls-13"
     d="m 235.19965,340.08413 c -0.4,-1.41 -0.79,-3.06 -3.12,-2.9 -2.11,0.14 -3.48,1.26 -3.41,3.3 0.08,2 1.5,3.3 3.56,3.27 2.06,-0.02 2.9,-1.44 2.97,-3.67 z m 2.35,-1.05 c 0.34,2.23 -0.56,4.11 -1.68,5.93 -1.54,0.65 -3.06,1.36 -4.78,1.34 -1.56,-0.63 -3.06,-1.36 -4.15,-2.7 -0.29,-1.32 -0.58,-2.64 -0.86,-3.96 0.54,-1.8 1.45,-3.33 3.11,-4.34 4.44,-1.08 5.47,-0.62 8.36,3.73 z"
     id="path46" />
  <path
     class="cls-4"
     d="m 399.26965,405.21413 c 0.03,-0.91 0.76,-1.32 1.42,-1.58 0.99,0.18 1.29,0.76 1.3,1.53 0.03,0.87 -0.44,1.3 -1.29,1.25 -0.77,-0.03 -1.46,-0.35 -1.43,-1.2 z"
     id="path47" />
  <path
     class="cls-6"
     d="m 228.20965,317.99413 c -0.42,4.74 2.47,7.31 6.4,9.07 -0.29,1.91 -1.69,3.07 -2.94,4.33 -1.12,1.12 -2.31,2.19 -2.48,3.91 -1.66,1.01 -2.57,2.54 -3.11,4.34 -0.83,0.54 -1.76,0.97 -2.47,1.64 -0.96,0.9 -2.64,2.22 -1.13,3.33 l -1.34,1.71 c -2.37,-1.85 -4.74,-3.68 -7.12,-5.51 -0.66,-0.51 -1.51,-1.22 -0.94,-1.94 2.05,-2.62 0.23,-4.14 -1.41,-5.76 2.01,-3.72 5.15,-6.56 7.73,-9.83 2.88,-3.66 5.8,-7.28 8.73,-10.9 l 1.76,1.43 c -0.94,1.17 -1.54,2.59 -1.68,4.18 z"
     id="path48" />
  <path
     class="cls-5"
     d="m 412.59965,381.27413 c -0.7,-0.02 -1.41,-0.06 -2.11,-0.11 0.7,0.05 1.41,0.08 2.11,0.11 z"
     id="path49" />
  <path
     class="cls-14"
     d="m 368.58965,94.024134 c 0.83,-1.98 -2.23,-2.17 -1.78,-4.11 3.45,-0.51 3.1,4.26 6.14,4.18 -0.84,1.41 -2.11,0.87 -3.11,1.18 -1.16,0.35 -1.85,0.16 -1.25,-1.25 z"
     id="path50" />
  <path
     class="cls-11"
     d="m 451.55965,161.68413 q -1.94,1.02 -4.4,-0.58 c 1.81,-0.69 3.16,-0.43 4.4,0.58 z"
     id="path51" />
  <path
     class="cls-4"
     d="m 450.97965,356.56413 c 1.08,-0.11 2.07,0.08 2.15,1.37 0.06,1.09 -0.76,1.5 -1.74,1.59 -0.94,-0.88 -0.5,-1.94 -0.41,-2.96 z"
     id="path52" />
  <path
     class="cls-4"
     d="m 434.42965,359.62413 c -0.02,3.12 -0.03,6.25 -0.04,9.37 -0.65,-0.94 -1.61,-1.33 -2.64,-1.76 -1.74,-0.73 -2.02,-2.83 -0.4,-3.3 2.43,-0.71 2.61,-2.49 3.08,-4.31 z"
     id="path53" />
  <path
     class="cls-2"
     d="m 448.35965,369.72413 c -0.03,-5.38 -0.05,-10.75 -0.08,-16.12 1.08,-0.02 2.15,-0.03 3.23,-0.04 -0.7,0.91 -0.8,1.92 -0.53,3 -0.09,1.02 -0.53,2.08 0.41,2.96 -0.01,7.18 -0.02,14.36 -0.02,21.53 -0.98,0.01 -1.95,0.02 -2.93,0.03 -0.03,-2.4 -0.07,-4.79 -0.11,-7.19 z"
     id="path54" />
  <path
     class="cls-15"
     d="m 249.32965,232.40413 c 4.22,0.59 8.43,1.38 12.67,1.72 1.41,0.11 2.81,0.09 4.21,-0.03 l 0.24,2.98 c -0.36,0 -0.76,0.07 -1.19,0.2 -4.24,1.29 -7.96,3.34 -8.93,8.26 -1.29,0.9 -2.74,1.44 -4.27,1.8 -0.95,-3.35 -2.36,-6.58 -2.46,-10.13 0.06,-0.14 0.04,-0.27 -0.06,-0.38 -0.52,-1.46 -0.38,-2.94 -0.21,-4.42 z"
     id="path55" />
  <path
     class="cls-4"
     d="m 448.32965,373.89413 c -0.54,0.01 -1.08,0.02 -1.63,0.02 0.01,-1.42 0.02,-2.84 0.02,-4.26 0.55,0.02 1.09,0.04 1.64,0.07 z"
     id="path56" />
  <path
     class="cls-7"
     d="m 251.44965,343.61413 c -3.47,-4.78 -8.73,-4.65 -13.9,-4.58 -2.89,-4.35 -3.92,-4.81 -8.36,-3.73 0.17,-1.72 1.36,-2.79 2.48,-3.91 1.25,-1.26 2.65,-2.42 2.94,-4.33 7.59,-0.67 10.24,-3.75 9.38,-10.91 1.48,-0.61 1.23,-3.1 3.31,-3.06 2.33,0.08 3.17,2.64 5.25,3.13 9.97,8.28 13.78,19.54 15.11,31.85 1.18,10.81 -1.15,21.05 -6,30.75 -0.35,0.71 -0.52,1.5 -0.78,2.26 -0.31,0.22 -0.77,0.37 -0.93,0.68 -2.9,5.64 -6.78,10.6 -11.04,15.23 -4.47,4.85 -9.24,9.41 -15.53,11.94 -2.01,-0.05 -4.01,-0.11 -6.02,-0.16 -0.8,-0.74 -1.73,-0.46 -2.64,-0.36 -0.15,0.08 -0.28,0.06 -0.41,-0.05 -0.17,-2.75 -2.5,-3.97 -4.08,-5.7 -2.48,-2.72 -2.38,-3.28 1.08,-4.11 4.6,-1.12 9.15,-2.55 12.93,-5.41 10.84,-8.18 18.29,-18.72 20.6,-32.3 1.03,-6.03 0.35,-12.06 -3.39,-17.23 z"
     id="path57" />
  <path
     class="cls-11"
     d="m 96.91965,224.67413 c 0.39,1.49 1.41,2.55 0.65,3.9 -0.06,0.11 -0.63,0.12 -0.75,-0.02 -0.96,-1.08 -1.11,-2.24 0.1,-3.88 z"
     id="path58" />
  <path
     class="cls-13"
     d="m 295.37965,241.45413 -0.02,0.03 c 0,0 0.01,-0.02 0.01,-0.03 z"
     id="path59" />
  <path
     class="cls-16"
     d="m 383.98965,397.80413 c -0.05,-0.57 -0.12,-1.13 0.37,-1.57 0.07,0.57 0.52,1.23 -0.37,1.57 z"
     id="path60" />
  <path
     class="cls-11"
     d="m 162.05965,153.75413 c 0.52,1.56 -0.49,2.8 -1.08,4.4 -1.61,-1.72 -0.56,-2.99 0.11,-4.26 0.17,-0.33 0.83,-0.56 0.97,-0.14 z"
     id="path61" />
  <path
     class="cls-12"
     d="m 483.57965,380.51413 c -0.42,-3.61 3.02,-2.74 5.29,-2.85 2.47,-0.12 2.27,1.55 2.37,3.22 0.09,1.65 -0.56,3.39 0.48,4.94 4.03,6.96 8.07,13.93 12.1,20.89 0.4,0.68 0.82,1.35 1.2,2.05 2.45,4.5 2.37,5.12 -1.14,9.14 -9.1,0.58 -18.2,0.63 -27.3,0.05 q -0.01,-2.86 -3.47,-5.99 c 2.74,-1.75 3.09,-4.84 3.96,-7.51 2.56,-7.86 7.57,-14.98 6.51,-23.94 z"
     id="path62" />
  <path
     class="cls-6"
     d="m 187.59965,408.63413 c -0.2,0.03 -0.4,0.06 -0.6,0.1 0.16,-0.27 0.35,-0.37 0.6,-0.1 z"
     id="path63" />
  <path
     class="cls-11"
     d="m 148.57965,201.86413 c -0.03,-1.63 0.98,-2.65 2.35,-4.01 0.3,2.25 -0.29,3.52 -1.67,4.38 -0.12,0.07 -0.67,-0.23 -0.68,-0.37 z"
     id="path64" />
  <path
     class="cls-5"
     d="m 434.88965,220.30413 c 3.46,0.02 3.94,0.56 3.68,3.66 -0.12,1.49 -0.7,2.21 -2.21,2.16 -0.5,-0.02 -1.01,0.18 -1.49,0.12 -3.3,-0.4 -4.39,1.29 -3.96,4.26 0.4,2.8 -0.88,3.42 -3.42,3.28 -2.46,-0.13 -2.62,-1.49 -2.6,-3.4 0.05,-4.11 -0.01,-4.19 -3.95,-4.23 -2.06,-0.02 -3.79,0.12 -3.69,-2.83 0.1,-2.87 1.64,-3.31 3.94,-3.01 2.94,0.55 4.2,-0.63 3.74,-3.6 -0.4,-2.54 0.6,-3.58 3.25,-3.71 2.86,-0.15 2.73,1.48 2.72,3.4 -0.02,3.88 0.02,3.88 3.99,3.9 z"
     id="path65" />
  <path
     class="cls-15"
     d="m 306.62965,249.12413 c 3.54,2.07 6.87,0.48 8.51,-4.25 -2.73,1.36 -5.46,2.73 -8.51,4.25 z m 21.99,39.08 c -7.97,13.12 -23.82,13.9 -32.65,1.4 -1.95,-2.76 -4.34,-3.12 -7.13,-3.37 -6.58,-2.21 -12.41,-5.71 -17.6,-10.29 -0.9,-0.79 -1.7,-1.69 -2.92,-1.98 0.02,-1.14 -0.81,-1.77 -1.53,-2.4 -1.35,-1.19 -1.61,-1.98 -0.75,-2.62 0.34,-0.25 0.84,-0.47 1.52,-0.69 2.03,-0.66 4.22,-1.56 3.74,-4.48 l 0.06,-0.07 c 2.3,-0.65 4.6,-1.3 6.9,-1.96 3.08,-0.88 4.46,-3.02 3.69,-6.11 -0.34,-1.4 -0.46,-2.78 -0.34,-4.16 0.15,-1.81 0.63,-3.76 2.48,-4.45 1.81,-0.67 3.52,0.14 4.89,1.54 1.4,1.44 2.84,2.83 4.25,4.26 0.72,0.73 1.45,1.4 2.58,1.28 3.52,-0.37 6.25,-2.55 9.27,-4.05 1.95,-0.97 0.22,-2.73 0.63,-4.07 0.08,-0.29 0.16,-0.58 0.24,-0.86 1.21,-4.3 4.14,-5.74 9.98,-4.89 0.96,0.47 0.32,2.73 1.84,2.12 1.25,-0.49 0.25,-1.94 -0.02,-2.89 -1.16,-4.08 -2.41,-8.13 -3.63,-12.19 4.8,-3.23 6.98,-2.93 10.67,1.6 3.92,4.82 4.29,10.37 3.22,16.2 -1.49,2.71 -2.93,5.46 -5.81,7.03 -0.55,0.3 -0.91,0.78 -0.87,1.46 0.21,3.39 -0.94,6.73 -0.44,10.14 -0.16,0.11 -0.43,0.19 -0.48,0.34 -2.15,6.05 -4.37,12.05 -9.42,16.44 -0.32,0.28 -0.45,0.76 -0.05,1.02 0.28,0.18 0.77,0.17 1.12,0.08 4.55,-1.18 8.5,-3.36 11.56,-7 2.01,3.09 3.29,6.89 7.51,7.88 -0.37,2.12 -1.42,3.95 -2.51,5.74 z m -41.17,-19.26 c 6.82,0.53 13.64,-2.87 15.62,-7.72 -4.97,2.99 -9.9,5.24 -15.62,7.72 z m 5.92,-9.46 c 0.66,-0.73 1.04,-1.5 0.7,-2.45 -0.37,-1.05 -1.29,-1.13 -2.76,-1.1 -2.18,0.21 -4.54,1.19 -6.2,3.42 -0.94,1.28 -0.04,3.14 1.49,2.94 2.46,-0.33 4.95,-0.8 6.77,-2.81 z"
     id="path66" />
  <path
     class="cls-14"
     d="m 380.49965,96.914134 c -1.16,-0.17 -2.38,-0.41 -2.96,-1.56 -0.28,-0.55 0.32,-0.79 0.98,-0.8 0.92,0.44 2.28,0.4 2.85,1.58 0.28,0.6 -0.38,0.84 -0.87,0.78 z"
     id="path67" />
  <path
     class="cls-11"
     d="m 404.59965,135.61413 c -1.47,-1.15 -2.16,-2.26 -1.76,-4.16 1.67,0.95 2.36,2.06 1.76,4.16 z"
     id="path68" />
  <path
     class="cls-14"
     d="m 323.92965,101.59413 c 0.46,-1.27 1.92,-1.53 2.87,-2.159996 0.53,-0.05 1.08,-0.02 1,0.439996 -0.24,1.44 -1.43,2.01 -2.64,2.43 -0.54,0.19 -1.49,0.01 -1.23,-0.71 z"
     id="path69" />
  <path
     class="cls-10"
     d="m 404.36965,397.89413 c -2.79,0.01 -5.58,0.01 -8.36,0.02 v -14.29 c 4.43,-0.44 8.86,-1.05 13.28,0.04 v 14.24 c -0.4,0.01 -0.79,0.01 -1.19,0.01 -0.19,-1.2 0.45,-2.76 -1.17,-3.39 -0.82,-0.32 -1.82,-0.38 -2.53,0.34 -0.94,0.96 -0.54,2.02 -0.03,3.03 z"
     id="path70" />
  <path
     class="cls-1"
     d="m 399.15965,83.914134 c -2.2,0.33 -3.08,-0.59 -3.12,-2.82 -0.09,-4.37 -0.18,-4.52 -4.46,-4.65 -2.47,-0.08 -2.32,-1.54 -2.41,-3.2 -0.11,-1.96 0.89,-2.27 2.58,-2.28 4.13,-0.01 4.17,-0.08 4.31,-4.34 0.08,-2.18 0.59,-3.55 3.29,-3.5 2.72,0.05 2.74,1.55 2.71,3.53 -0.06,4.31 0,4.34 4.54,4.33 1.78,0 3.33,-0.19 3.33,2.51 0,2.7 -1.22,2.94 -3.35,2.92 -4.48,-0.05 -4.63,0.03 -4.48,4.75 0.07,2.39 -0.82,3.08 -2.94,2.75 z"
     id="path71" />
  <path
     class="cls-7"
     d="m 160.91965,380.56413 c 1.68,-0.36 3.35,-0.53 5.03,0.04 0.84,2.2 0.34,4.79 1.98,6.76 -0.06,0.49 -0.26,1.01 -0.18,1.47 1.03,5.56 2.09,11.11 3.18,16.66 0.26,1.34 1.24,1.62 2.47,1.6 3.5,-0.04 6.99,0.02 10.49,-0.03 0.46,0 1.01,0.13 1.51,0.13 l 0.02,1.56 c -6.51,0.09 -13.04,0.28 -19.55,-0.16 -0.55,-6.03 -2.28,-11.84 -3.25,-17.79 -0.56,-3.41 -1.53,-6.76 -1.7,-10.24 z"
     id="path72" />
  <path
     class="cls-9"
     d="m 267.55965,268.25413 c -0.68,0.22 -1.18,0.44 -1.52,0.69 l -1.3,-1.01 c 1.13,-1.43 2.36,-2.79 3.54,-4.19 1,1.11 2.01,0.42 3.02,0.03 0.48,2.92 -1.71,3.82 -3.74,4.48 z"
     id="path73" />
  <path
     class="cls-4"
     d="m 456.53965,394.08413 c 1.12,0.22 2.37,0.69 1.74,2.39 -0.17,0.44 -0.13,0.96 -0.18,1.44 -1.23,0.01 -2.46,0.01 -3.69,0.02 0.01,-0.69 0,-1.37 0.03,-2.06 0.04,-1.35 0.89,-2.03 2.1,-1.79 z"
     id="path74" />
  <path
     class="cls-11"
     d="m 92.629653,259.01413 c 0.01,-1.99 1.009997,-2.9 2.639997,-3.61 0.43,2.18 -0.71,3 -2.639997,3.61 z"
     id="path75" />
  <path
     class="cls-13"
     d="m 236.33965,323.35413 c 2.77,0.02 4.28,-1.46 4.28,-4.21 0.01,-2.49 -2.58,-5.45 -4.66,-5.34 -1.96,0.11 -4.41,2.97 -4.37,5.11 0.04,2.45 2.15,4.42 4.75,4.44 z m 6.89,-8.46 c 0.25,0.42 0.51,0.84 0.76,1.26 0.86,7.16 -1.79,10.24 -9.38,10.91 -3.93,-1.76 -6.82,-4.33 -6.4,-9.07 0.14,-1.59 0.74,-3.01 1.68,-4.18 1.2,-1.49 2.95,-2.56 4.99,-3 3.04,-0.65 6.5,1.05 8.35,4.08 z"
     id="path76" />
  <path
     class="cls-11"
     d="m 71.139653,314.69413 q 1.6,2.49 -0.09,3.88 c -0.3,-1.27 -0.29,-2.49 0.09,-3.88 z"
     id="path77" />
  <path
     class="cls-4"
     d="m 459.62965,363.08413 c 0.24,1.64 0.5,3.28 -0.37,4.84 -1.97,-0.02 -3.57,-0.96 -3.42,-2.91 0.15,-2.05 2.15,-1.97 3.79,-1.93 z"
     id="path78" />
  <path
     class="cls-14"
     d="m 103.55965,385.90413 c 1.7,0.86 3.65,-0.03 5.96,0.17 -2.75,1.11 -4.87,1.87 -6.99,0.08 0.16,-0.21 0.31,-0.4 0.47,-0.61 0.18,0.15 0.37,0.26 0.56,0.36 z"
     id="path79" />
  <path
     class="cls-14"
     d="m 343.24965,89.834134 c 0.37,-0.12 0.91,0.21 0.78,0.64 -0.45,1.43 -1.85,1.64 -2.9,2.11 -0.72,0.05 -1.21,-0.29 -1.01,-0.82 0.52,-1.38 1.93,-1.56 3.13,-1.93 z"
     id="path80" />
  <path
     class="cls-11"
     d="m 156.78965,182.34413 c -0.22,0.86 0.41,2.25 -0.98,2.43 -1,0.14 -0.71,-0.9 -0.74,-1.53 0.2,-0.92 -0.07,-2.26 1.12,-2.44 1.03,-0.15 0.74,0.98 0.6,1.54 z"
     id="path81" />
  <path
     class="cls-11"
     d="m 491.61965,322.60413 c -1.52,-1.83 -2.56,-3.06 -2,-5.17 1.68,1.16 2.53,2.49 2,5.17 z"
     id="path82" />
  <path
     class="cls-8"
     d="m 300.55965,223.78413 c 1.56,0.39 3.05,0.83 4.04,2.15 -1.96,1.16 -3.98,2.2 -6.06,3.04 -2.09,0.84 -4.26,1.48 -6.54,1.83 -0.25,-0.07 -0.51,-0.14 -0.76,-0.22 -1.64,-1.96 -0.77,-3.59 1.15,-5.38 h -2.99 c 3.94,-2.26 8.44,-1.56 12.65,-2.39 -0.47,0.3 -0.94,0.61 -1.49,0.97 z"
     id="path83" />
  <path
     class="cls-13"
     d="m 382.34965,381.24413 c 4.54,-0.06 9.09,-0.13 13.63,-0.2 0.81,0 1.61,0.02 2.42,0.03 h 1.83 c 3.02,0.37 6.05,0.32 9.07,0 0.4,0.03 0.8,0.07 1.19,0.09 0.7,0.05 1.41,0.09 2.11,0.11 h 0.12 c 1.67,0.04 3.33,0 5,-0.2 1.2,0 2.38,0.01 3.58,0.02 h 0.04 c 0.61,0.01 1.22,0.01 1.82,0.01 0.99,-0.01 1.97,-0.02 2.95,-0.04 2.81,0.44 5.63,0.3 8.44,0 4.02,0 8.04,0 12.07,0.01 0.61,0 1.21,0 1.82,0.01 0.98,-0.01 1.95,-0.02 2.93,-0.03 2.87,0.43 5.75,0.34 8.62,0.03 4.28,0.03 8.55,0.06 12.83,0.1 0.75,0.01 1.71,-0.25 1.99,0.8 0.23,0.83 -0.4,1.27 -1.07,1.54 -0.87,0.36 -1.18,1.01 -1.14,1.88 0.13,3.47 -0.4,6.96 0.48,10.39 -1.48,2.09 1.53,2.02 1.69,3.3 -2.55,1.94 -2.97,3.94 -1.64,7.56 -0.14,1.77 -1.46,3.54 -0.02,5.31 q 3.46,3.13 3.47,5.99 c -1.29,0.12 -2.58,0.33 -3.87,0.33 -29.39,0.02 -58.78,0.02 -88.17,0.01 -0.52,0 -0.97,-0.01 -1.36,-0.04 h -0.02 c -2.33,-0.18 -2.63,-0.98 -2.15,-3.65 0.16,-0.88 0.45,-1.66 1.45,-1.54 2.26,0.27 2.03,-1.21 2.02,-2.63 -0.02,-2.61 0.01,-5.22 -0.01,-7.83 -0.02,-1.22 0.46,-2.74 -1.65,-2.8 -0.62,-0.02 -0.71,-0.64 -0.58,-1.16 0.24,-0.94 1.21,-0.46 1.75,-0.84 0.89,-0.34 0.44,-1 0.37,-1.57 0,-2.8 0.01,-5.61 0.01,-8.42 0.04,-1.86 0.97,-4 -1.78,-4.92 -0.58,-0.19 -0.19,-1.08 -0.24,-1.65 z m 7.2,29.32 c -0.04,1.66 0.37,2.57 2.34,2.54 3.63,-0.05 7.26,-0.09 10.89,-0.11 5.15,-0.04 10.3,-0.05 15.46,-0.08 3.24,0.04 6.48,0.09 9.73,0.12 2.15,0.02 4.31,0.03 6.46,0.03 6.37,-0.01 12.74,-0.05 19.11,-0.1 3.63,-0.02 7.25,-0.05 10.88,-0.07 1.21,-0.09 3.05,1.14 3.21,-1.25 0.1,-1.45 0.45,-3 -0.39,-4.39 1.71,-6.78 1.19,-7.46 -5.58,-7.36 -0.6,0.01 -1.2,0.07 -1.8,0.11 h -25.26 c -4.47,0 -8.95,0.01 -13.42,0.01 -3.77,-0.01 -7.55,-0.03 -11.33,-0.04 -4.62,0.01 -9.25,0.02 -13.87,0.03 -1.1,-0.04 -2.21,0.03 -3.29,-0.14 -2.62,-0.4 -3.31,0.83 -3.16,3.22 0.15,2.49 0.07,4.99 0.02,7.48 z m 0.02,-18.7 c -0.54,5.94 -1.06,6.63 6.44,6.05 2.78,-0.01 5.57,-0.01 8.36,-0.02 1.24,0.01 2.49,0.01 3.73,0.02 0.4,0 0.79,0 1.19,-0.01 h 11.96 l 7.86,0.03 c 1.84,0 3.69,-0.01 5.53,-0.01 3.97,-0.01 7.95,-0.01 11.93,-0.02 2.61,0.01 5.22,0.02 7.84,0.03 1.23,-0.01 2.46,-0.01 3.69,-0.02 0.42,-0.01 0.84,-0.03 1.27,-0.05 2.09,0.05 4.18,0.05 6.26,0.18 1.52,0.09 2.16,-0.39 2.09,-2.01 -0.11,-2.49 0.02,-4.98 -0.01,-7.47 -0.07,-5.52 -1.09,-6.29 -6.72,-5.17 -0.39,0.08 -0.78,0.17 -1.17,0.25 -4.42,-0.93 -8.83,-0.58 -13.25,0 -4,-0.7 -8,-0.83 -11.99,0.01 -4.43,-0.64 -8.86,-1.13 -13.29,0.01 -4,-0.51 -8,-0.8 -12,0 -4.42,-1.09 -8.85,-0.48 -13.28,-0.04 -6.25,-1.01 -6.45,-0.85 -6.45,5.27 0,0.99 0.1,1.99 0.01,2.97 z"
     id="path84" />
  <path
     class="cls-13"
     d="m 224.30965,408.36413 c 0.13,0.11 0.26,0.13 0.41,0.05 0.79,0.75 1.73,0.45 2.64,0.36 2.01,0.05 4.01,0.11 6.02,0.16 v 9.57 c -1.44,0.68 -2.97,0.31 -4.45,0.31 -27.1,0.02 -54.2,0.02 -81.29,-0.01 -1.22,0 -2.67,0.56 -3.55,-0.9 0.03,-2.3 0.25,-4.61 0.04,-6.88 -0.18,-1.95 0.47,-2.33 2.29,-2.31 6.48,0.05 12.97,-0.07 19.45,-0.12 6.51,0.44 13.04,0.25 19.55,0.16 0.53,-0.01 1.05,-0.01 1.58,-0.02 0.2,-0.04 0.4,-0.07 0.6,-0.1 l 1.77,-0.06 c 11.65,0.35 23.3,0.49 34.94,-0.21 z"
     id="path85" />
  <path
     class="cls-11"
     d="m 72.459653,309.79413 c -0.29,0.46 -1,0.44 -1.25,-0.08 -0.79,-1.67 0.16,-2.99 0.84,-4.72 1.17,1.83 1.35,3.32 0.41,4.8 z"
     id="path86" />
  <path
     class="cls-14"
     d="m 497.80965,208.31413 c -0.09,-0.74 -0.2,-1.54 0.32,-2.2 1.18,0.22 1.18,1.14 1.3,1.84 0.17,0.95 0.36,2.4 -0.83,2.49 -1.26,0.09 -0.69,-1.35 -0.79,-2.13 z"
     id="path87" />
  <path
     class="cls-1"
     d="m 340.62965,336.38413 c -0.04,-3.06 2.59,-5.73 5.69,-5.77 3.2,-0.04 5.72,2.44 5.76,5.63 0.03,3.2 -2.43,5.73 -5.61,5.76 -3.12,0.04 -5.8,-2.54 -5.84,-5.62 z"
     id="path88" />
  <path
     class="cls-4"
     d="m 434.51965,397.43413 c 0.06,0.16 0.1,0.32 0.12,0.49 -1.84,0 -3.69,0.01 -5.53,0.01 0.03,-0.68 0.03,-1.37 0.09,-2.05 0.12,-1.21 1.08,-1.64 2.03,-1.82 1.06,-0.2 1.94,0.28 2.11,1.48 0.12,0.82 0.36,1.53 1.18,1.89 z"
     id="path89" />
  <path
     class="cls-11"
     d="m 110.41965,227.15413 c -0.01,0.15 -0.57,0.42 -0.65,0.36 -1.19,-0.99 -1.72,-2.27 -1.64,-3.76 0.21,-0.11 0.31,-0.2 0.35,-0.17 1.43,0.76 2.12,1.95 1.94,3.57 z"
     id="path90" />
  <path
     class="cls-9"
     d="m 291.30965,255.93413 c 1.47,-0.03 2.39,0.05 2.76,1.1 0.34,0.95 -0.04,1.72 -0.7,2.45 -1.82,2.01 -4.31,2.48 -6.77,2.81 -1.53,0.2 -2.43,-1.66 -1.49,-2.94 1.66,-2.23 4.02,-3.21 6.2,-3.42 z"
     id="path91" />
  <path
     class="cls-11"
     d="m 234.69965,101.51413 c 1.8,-1.1 3.33,-0.7 5.53,0.72 -2.29,0.19 -3.91,0.51 -5.53,-0.72 z"
     id="path92" />
  <path
     class="cls-10"
     d="m 424.43965,404.97413 c 0.03,0.92 0.6,1.42 1.56,1.41 0.79,-0.14 1.29,-0.62 1.25,-1.41 -0.04,-0.91 -0.6,-1.47 -1.56,-1.39 -0.8,0.06 -1.28,0.62 -1.25,1.39 z m 3.56,5.63 c -2.39,0 -5.32,-2.17 -6.4,-4.88 -0.22,-0.55 -0.28,-1.16 -0.42,-1.74 v -3.97 c 4.47,0 8.95,-0.01 13.42,-0.01 -0.03,1.39 0.06,2.8 -0.11,4.18 -0.46,3.69 -2.66,5.96 -6.03,6.39 -0.15,0.02 -0.31,0.03 -0.46,0.03 z"
     id="path93" />
  <path
     class="cls-11"
     d="m 75.369653,291.04413 c -0.44,-1.5 0.46,-2.56 1.3,-3.81 0.36,0.26 0.48,0.3 0.5,0.37 0.54,1.5 -0.05,2.68 -1.13,3.68 -0.09,0.08 -0.63,-0.1 -0.67,-0.24 z"
     id="path94" />
  <path
     class="cls-11"
     d="m 468.88965,167.28413 c -1.46,-0.27 -3.16,-0.24 -3.86,-2.15 0.45,-0.15 0.54,-0.21 0.64,-0.21 1.43,-0.03 2.75,0.26 3.63,1.51 0.26,0.37 -0.01,0.93 -0.41,0.85 z"
     id="path95" />
  <path
     class="cls-6"
     d="m 231.08965,346.30413 c -1.46,0.84 -2.93,1.68 -4.38,2.54 -1.15,0.68 -2.06,0.22 -2.99,-0.51 l -2.58,-2.01 1.34,-1.71 c 1.12,0.83 3.47,1.46 4.46,-1.01 1.09,1.34 2.59,2.07 4.15,2.7 z"
     id="path96" />
  <path
     class="cls-13"
     d="m 189.48965,318.48413 c 1.08,2.11 2.35,4.13 3.72,6.06 1.08,1.53 1.28,2.82 -0.18,4.14 -1.56,0.58 -3.16,0.86 -4.83,0.57 -1.6,-2.94 -3.2,-5.89 -4.8,-8.83 0.1,-1.73 1.7,-2.43 2.51,-3.67 1.68,-0.43 2.75,0.12 3.58,1.73 z"
     id="path97" />
  <path
     class="cls-14"
     d="m 307.96965,109.11413 c 1.4,0.44 3.34,-1.41 4.27,1.01 -0.66,0.21 -1.37,0.32 -1.96,0.65 -2.03,1.13 -2.4,0.08 -2.31,-1.66 z"
     id="path98" />
  <path
     class="cls-2"
     d="m 111.95965,374.52413 c -3.54,-1.45 -6.33,0.33 -9.14,1.98 -0.17,-0.19 -0.33,-0.37 -0.5,-0.56 2.89,-3.15 6.41,-3.72 9.64,-1.42 z"
     id="path99" />
  <path
     class="cls-14"
     d="m 319.91965,104.55413 c -0.55,1.4 -1.31,2.52 -2.94,2.46 -0.16,0 -0.49,-0.5 -0.43,-0.65 0.58,-1.49 1.91,-1.75 3.37,-1.81 z"
     id="path100" />
  <polygon
     class="cls-13"
     points="300.59,406.17 300.6,406.15 300.61,406.15 "
     id="polygon100"
     transform="translate(-5.2003472,-164.72587)" />
  <path
     class="cls-11"
     d="m 186.49965,114.67413 c 0.11,-0.03 0.49,0.46 0.44,0.61 -0.48,1.59 -1.83,2.08 -3.43,2.82 0,-0.62 -0.03,-0.74 0,-0.82 0.7,-1.2 1.5,-2.32 2.98,-2.61 z"
     id="path101" />
  <path
     class="cls-5"
     d="m 402.77965,412.99413 c -3.63,0.02 -7.26,0.06 -10.89,0.11 -1.97,0.03 -2.38,-0.88 -2.34,-2.54 0.05,-2.49 0.13,-4.99 -0.02,-7.48 -0.15,-2.39 0.54,-3.62 3.16,-3.22 1.08,0.17 2.19,0.1 3.29,0.14 0.02,1.2 0,2.4 0.07,3.6 0.22,4.18 3.01,7.08 6.71,7.01 z"
     id="path102" />
  <path
     class="cls-16"
     d="m 312.91965,229.53413 c 0.22,-1.06 -0.56,-2.24 0.4,-3.21 0.27,0.32 0.53,0.63 0.8,0.95 1.22,4.06 2.47,8.11 3.63,12.19 0.27,0.95 1.27,2.4 0.02,2.89 -1.52,0.61 -0.88,-1.65 -1.84,-2.12 -0.28,-3.77 -2.09,-7.11 -3.01,-10.7 z"
     id="path103" />
  <path
     class="cls-5"
     d="m 434.22965,336.78413 c 2.21,0.1 3.52,2.76 2.01,4.11 -2.02,1.8 -1.69,3.84 -1.69,5.99 0,2.15 -0.08,4.4 -0.13,6.6 -2.72,0.03 -5.45,0.06 -8.17,0.1 -1.09,0 -2.18,0.01 -3.27,0.01 -0.5,-0.04 -1,-0.09 -1.51,-0.13 -0.03,-2.3 -0.11,-4.6 -0.07,-6.9 0.03,-2.04 -0.11,-3.83 -1.71,-5.49 -1.61,-1.68 -0.49,-4.17 1.93,-4.29 4.19,-0.2 8.41,-0.18 12.61,0 z"
     id="path104" />
  <path
     class="cls-11"
     d="m 145.67965,206.40413 c 0.16,-0.05 0.65,0.34 0.62,0.42 -0.43,1.49 -1.45,2.4 -2.82,2.96 -0.19,-0.28 -0.31,-0.37 -0.29,-0.43 0.29,-1.44 1.04,-2.51 2.49,-2.95 z"
     id="path105" />
  <path
     class="cls-11"
     d="m 110.54965,232.31413 c 0.78,1.81 0.29,3.01 -0.54,4.27 q -1.17,-2.05 0.54,-4.27 z"
     id="path106" />
  <path
     class="cls-16"
     d="m 262.28965,248.24413 c 0,0 0.11,0.12 0.17,0.19 -0.25,0.09 -0.5,0.18 -0.74,0.27 l -0.05,-0.05 c 0.2,-0.14 0.4,-0.29 0.62,-0.41 z"
     id="path107" />
  <path
     class="cls-13"
     d="m 273.71965,418.01413 c -0.42,0.06 -0.78,0.07 -1.05,0 z"
     id="path108" />
  <path
     class="cls-11"
     d="m 252.93965,105.63413 c 1.63,-1.84 3.14,0.26 4.64,0.06 -1.62,1.58 -3.09,0.89 -4.64,-0.06 z"
     id="path109" />
  <path
     class="cls-8"
     d="m 237.13965,272.79413 c 1.26,0.09 2.33,-0.23 3.2,-1.24 3.08,-3.53 6.19,-7.04 9.29,-10.54 1,-1.12 0.62,-2.24 0,-3.32 -2.81,-4.88 -4.33,-10.3 -6.45,-15.47 -1.7,-4.12 -1.96,-8.46 -1.34,-12.84 0.45,-3.14 4.58,-6 7.64,-5.31 0.98,0.22 1.98,0.56 1.92,1.9 -1.31,-0.42 -2.09,-0.05 -2.2,1.42 -0.11,1.68 -0.28,3.35 0.13,5.01 -0.17,1.48 -0.31,2.96 0.21,4.42 l -0.11,0.2 0.17,0.18 c 0.1,3.55 1.51,6.78 2.46,10.13 -2.07,0.83 -2.35,2.2 -1.19,3.99 0.59,0.9 1.18,1.8 1.77,2.71 0.08,0.58 -0.05,1.43 0.28,1.69 0.58,0.45 1.11,-0.24 1.4,-0.71 0.5,-0.78 0.92,-1.56 1.94,-1.71 0.39,0.24 0.79,0.48 1.18,0.72 2.8,3.19 6.06,5.8 9.74,7.91 0.36,0.6 0.73,1.21 1.1,1.81 -1.18,1.4 -2.41,2.76 -3.54,4.19 -0.29,0.36 -0.57,0.72 -0.84,1.09 -0.81,1.1 -2.93,1.84 -1.96,3.57 0.81,1.45 2.7,1.48 4.3,1.52 0.69,0.01 1.38,-0.1 2.08,-0.15 1.22,0.29 2.02,1.19 2.92,1.98 5.19,4.58 11.02,8.08 17.6,10.29 -0.08,0.09 -0.11,0.2 -0.07,0.32 -1.28,0.52 -2.81,0.53 -3.72,1.81 -4.02,0.43 -7.41,2.78 -11.26,3.72 -0.47,-0.37 -0.98,-0.7 -1.41,-1.11 -4.11,-3.85 -7.78,-8.05 -10.75,-12.86 -0.79,-1.27 -2.42,-3.03 -3.46,-1.79 -2.26,2.69 -6.04,4.62 -5.56,9.12 0.15,1.45 0.72,3.31 -1.27,4.25 -1.14,-0.66 -2.29,-1.32 -3.43,-1.98 -5.25,-4.34 -10.49,-8.67 -15.73,-13.01 1.41,-1.26 3.43,-0.94 4.96,-1.91 z"
     id="path110" />
  <path
     class="cls-2"
     d="m 167.92965,387.36413 c -1.64,-1.97 -1.14,-4.56 -1.98,-6.76 7.01,-0.01 14.03,-0.03 21.05,-0.04 -1.68,2.69 -4,4.84 -6.02,7.24 -4.3,-1.5 -8.65,-1.65 -13.05,-0.44 z"
     id="path111" />
  <path
     class="cls-4"
     d="m 406.99965,367.62413 c -1.34,-0.44 -2.43,-1.3 -1.76,-2.85 0.77,-1.81 2.21,-2.11 3.89,-1.06 0.17,1.38 0.25,2.76 -0.1,4.13 -0.68,-0.06 -1.4,-0.01 -2.03,-0.22 z"
     id="path112" />
  <path
     class="cls-9"
     d="m 303.06965,261.22413 c -1.98,4.85 -8.8,8.25 -15.62,7.72 5.72,-2.48 10.65,-4.73 15.62,-7.72 z"
     id="path113" />
  <path
     class="cls-13"
     d="m 296.47965,240.04413 c 1.45,-1.44 3.27,-1.81 5.71,-0.68 -2.39,0.7 -4.44,1.82 -6.78,2.06 h -0.01 c 0.33,-0.53 0.69,-0.99 1.08,-1.38 z"
     id="path114" />
  <path
     class="cls-13"
     d="m 421.29965,381.09413 c -1.2,-0.01 -2.38,-0.02 -3.58,-0.02 v 0 c 1.2,0 2.38,0.01 3.58,0.02 z"
     id="path115" />
  <path
     class="cls-4"
     d="m 425.99965,406.38413 c -0.96,0.01 -1.53,-0.49 -1.56,-1.41 -0.03,-0.77 0.45,-1.33 1.25,-1.39 0.96,-0.08 1.52,0.48 1.56,1.39 0.04,0.79 -0.46,1.27 -1.25,1.41 z"
     id="path116" />
  <path
     class="cls-13"
     d="m 268.86965,246.94413 c 2.22,-0.04 4.8,3.43 4.66,6.42 -0.07,1.53 -0.43,3.06 -2.45,3.12 -2.26,0.07 -4.63,-3.3 -4.58,-6.94 0.06,-1.11 0.3,-2.57 2.37,-2.6 z"
     id="path117" />
  <path
     class="cls-5"
     d="m 409.12965,363.71413 c 0.46,-2.04 -0.5,-4.24 0.65,-6.21 0.92,0.42 1.09,1.27 1.41,2.14 2.57,7.03 4.78,14.14 6.53,21.42 -1.67,0.2 -3.34,0.25 -5,0.21 h -0.12 c -0.7,-0.03 -1.41,-0.06 -2.11,-0.11 -0.39,-0.02 -0.79,-0.06 -1.19,-0.09 l -0.27,-13.23 c 0.35,-1.37 0.27,-2.75 0.1,-4.13 z"
     id="path118" />
  <path
     class="cls-8"
     d="m 235.95965,313.80413 c 2.08,-0.11 4.67,2.85 4.66,5.34 0,2.75 -1.51,4.23 -4.28,4.21 -2.6,-0.02 -4.71,-1.99 -4.75,-4.44 -0.04,-2.14 2.41,-5 4.37,-5.11 z"
     id="path119" />
  <path
     class="cls-13"
     d="m 267.71965,256.91413 c 1.62,1.23 1.83,2.31 0.56,3.79 -0.37,0.41 -0.74,0.82 -1.1,1.23 -3.68,-2.11 -6.94,-4.72 -9.74,-7.91 1.24,-0.93 1.64,-2.86 3.55,-3.01 2.23,1.98 4.36,4.1 6.73,5.9 z"
     id="path120" />
  <path
     class="cls-10"
     d="m 456.53965,394.08413 c -1.21,-0.24 -2.06,0.44 -2.1,1.79 -0.03,0.69 -0.02,1.37 -0.03,2.06 -2.62,-0.01 -5.23,-0.02 -7.84,-0.03 v -14.26 c 4.42,-0.58 8.83,-0.93 13.25,0 l -0.45,14.22 c -0.43,0.02 -0.85,0.04 -1.27,0.05 0.05,-0.48 0.01,-1 0.18,-1.44 0.63,-1.7 -0.62,-2.17 -1.74,-2.39 z"
     id="path121" />
  <path
     class="cls-10"
     d="m 455.06965,376.92413 c 0.75,0.02 1.32,-0.26 1.55,-1.06 -0.03,-0.8 -0.51,-1.2 -1.28,-1.28 -0.76,-0.07 -1.38,0.13 -1.45,1.02 -0.06,0.82 0.33,1.29 1.18,1.32 z m -4.09,-20.36 c -0.27,-1.08 -0.17,-2.09 0.53,-3 2.62,-0.03 5.24,-0.06 7.85,-0.09 0.81,3.18 0.41,6.4 0.27,9.61 -1.64,-0.04 -3.64,-0.12 -3.79,1.93 -0.15,1.95 1.45,2.89 3.42,2.91 1.26,4.33 0.24,8.78 0.73,13.16 -2.87,0.31 -5.75,0.4 -8.62,-0.03 0,-7.17 0.01,-14.35 0.02,-21.53 0.98,-0.09 1.8,-0.5 1.74,-1.59 -0.08,-1.29 -1.07,-1.48 -2.15,-1.37 z"
     id="path122" />
  <path
     class="cls-14"
     d="m 370.16965,108.73413 c 0.2,-1.41 1.24,-2.16 2.39,-2.73 0.5,-0.24 1.11,0.1 0.93,0.67 -0.39,1.28 -1.46,2.03 -2.51,2.69 -0.5,0.02 -0.87,-0.16 -0.81,-0.63 z"
     id="path123" />
  <path
     class="cls-14"
     d="m 389.10965,102.11413 c 0.18,0.35 -0.32,0.86 -0.69,0.72 -1.47,-0.54 -2.43,-1.61 -2.97,-3.22 0.32,-0.159996 0.41,-0.239996 0.49,-0.229996 1.76,0.09 2.49,1.419996 3.17,2.729996 z"
     id="path124" />
  <path
     class="cls-16"
     d="m 279.65965,412.96413 c 1.11,1.17 2.53,1.72 4.03,1.22 1.74,-0.58 2.82,-0.72 2.81,1.65 0,0.69 0.68,1.38 1.04,2.08 -1.24,0.02 -2.48,0.07 -3.71,0.12 l -8.38,-0.02 c -0.38,-0.03 -0.76,-0.07 -1.14,-0.12 2.01,-1.4 3.73,-3.11 5.35,-4.93 z"
     id="path125" />
  <path
     class="cls-11"
     d="m 423.51965,155.13413 c -1.01,-0.51 -2.45,-0.52 -2.77,-1.93 -0.12,-0.54 0.36,-0.88 1.09,-0.7 0.99,0.54 2.49,0.68 2.8,2.15 0.12,0.56 -0.65,0.71 -1.12,0.48 z"
     id="path126" />
  <path
     class="cls-10"
     d="m 459.64965,344.76413 -0.17,0.2 -0.13,-0.23 c 0,0 0.15,-0.2 0.16,-0.2 z"
     id="path127" />
  <path
     class="cls-8"
     d="m 232.07965,337.18413 c 2.33,-0.16 2.72,1.49 3.12,2.9 -0.07,2.23 -0.91,3.65 -2.97,3.67 -2.06,0.03 -3.48,-1.27 -3.56,-3.27 -0.07,-2.04 1.3,-3.16 3.41,-3.3 z"
     id="path128" />
  <path
     class="cls-10"
     d="m 189.79965,312.61413 c 5.37,8.54 10.59,17.18 15.88,25.77 l -0.69,0.18 c -3.62,-2.59 -6.77,-5.81 -10.66,-8.06 -0.18,-0.78 -0.58,-1.42 -1.3,-1.82 1.46,-1.32 1.26,-2.61 0.18,-4.14 -1.37,-1.93 -2.64,-3.95 -3.72,-6.06 -0.83,-1.61 -1.9,-2.16 -3.58,-1.73 -0.24,-0.77 -0.52,-1.52 -1.21,-2.01 -0.57,-4.38 -2.22,-8.56 -2.36,-13.02 0.12,0.05 0.21,0.02 0.29,-0.08 2.91,3.31 4.85,7.27 7.17,10.97 z"
     id="path129" />
  <path
     class="cls-1"
     d="m 493.90965,127.70413 c -1.84,0.13 -2.79,-0.31 -2.78,-2.42 0.02,-2.12 0.63,-3.2 2.95,-3.04 2.29,0.16 4.61,0.02 6.91,0.11 1.64,0.06 2.38,-0.54 2.35,-2.25 -0.04,-2.5 0.17,-5.01 0.08,-7.51 -0.08,-2.45 1.15,-3.06 3.34,-3.11 2.25,-0.04 2.69,1.05 2.6,2.99 -0.11,2.3 -0.02,4.61 0,6.92 0.01,2.05 0.88,3.11 3.12,3 2.5,-0.13 5.01,0.05 7.52,-0.03 2.23,-0.07 2.3,1.39 2.39,2.98 0.11,1.84 -0.73,2.51 -2.52,2.34 -1.3,-0.12 -2.61,-0.02 -3.91,-0.02 -6.86,0.37 -6.67,-1.4 -6.63,6.63 0.01,1.1 -0.02,2.21 0.01,3.31 0.03,1.67 0.16,3.22 -2.33,3.23 -2.29,0 -3.67,-0.57 -3.59,-3.17 0.07,-2.1 -0.3,-4.23 -0.04,-6.3 0.38,-3.09 -0.96,-3.94 -3.75,-3.73 -1.9,0.15 -3.82,-0.06 -5.72,0.07 z"
     id="path130" />
  <path
     class="cls-6"
     d="m 193.42965,389.03413 c -0.07,2.78 1.86,4.83 4.59,4.86 2.7,0.02 4.76,-2.03 4.75,-4.73 0,-2.64 -2.25,-4.91 -4.77,-4.84 -2.43,0.06 -4.5,2.18 -4.57,4.71 z m 44.12,-50 c 5.17,-0.07 10.43,-0.2 13.9,4.58 3.74,5.17 4.42,11.2 3.39,17.23 -2.31,13.58 -9.76,24.12 -20.6,32.3 -3.78,2.86 -8.33,4.29 -12.93,5.41 -3.46,0.83 -3.56,1.39 -1.08,4.11 1.58,1.73 3.91,2.95 4.08,5.7 -11.64,0.7 -23.29,0.56 -34.94,0.21 0.42,-1.12 0.69,-2.24 0.67,-3.47 -0.06,-3.79 0.11,-7.57 -0.05,-11.35 -0.24,-5.65 0.66,-10.55 6.88,-12.63 0.15,-0.05 0.23,-0.31 0.34,-0.48 2.13,-0.4 4.27,-0.31 6.4,-0.01 0.17,1.58 0.08,3.27 1.85,4.12 1.8,3.54 4.18,6.37 8.5,6.63 3.31,0.2 6.58,-0.03 9.77,-1.09 5.4,-1.79 9.71,-4.58 13.18,-8.13 4.46,-4.57 7.53,-10.41 9.73,-17.02 1.47,-4.4 1.32,-8.87 -0.09,-13.23 -0.73,-2.25 -1.77,-4.53 -4.57,-5.04 -1.59,-2.06 -3.95,-1.65 -6.11,-1.91 1.12,-1.82 2.02,-3.7 1.68,-5.93 z"
     id="path131" />
  <path
     class="cls-11"
     d="m 201.50965,105.12413 c 0.75,-0.18 1.27,0.14 1.08,0.68 -0.44,1.29 -1.76,1.51 -2.86,1.92 -0.48,0.18 -1.24,0.06 -1.1,-0.54 0.36,-1.48 1.89,-1.55 2.88,-2.06 z"
     id="path132" />
  <path
     class="cls-12"
     d="m 473.12965,406.65413 c -1.33,-3.62 -0.91,-5.62 1.64,-7.56 -0.16,-1.28 -3.17,-1.21 -1.69,-3.3 3.33,-4.65 6.99,-9.16 6.16,-15.5 -0.12,-0.93 0.35,-1.93 0.55,-2.89 l 1.14,0.18 c 1.11,8.89 -1.77,16.75 -6.08,24.31 -0.8,1.41 0,3.56 -1.72,4.76 z"
     id="path133" />
  <path
     class="cls-11"
     d="m 409.31965,143.94413 c -1.21,-0.39 -1.77,-1.56 -2.3,-2.68 -0.27,-0.55 0.27,-1.1 0.72,-0.97 1.38,0.37 1.66,1.76 2.23,2.84 0.21,0.41 0.02,0.74 -0.65,0.81 z"
     id="path134" />
  <path
     class="cls-1"
     d="m 497.58965,357.94413 c 0.24,0.37 0.77,0.31 0.97,-0.1 0.64,-1.32 0.6,-2.68 0.06,-4.02 -0.07,-0.2 -0.33,-0.32 -0.58,-0.55 -0.14,0.43 -0.23,0.7 -0.31,0.98 -0.33,1.22 -0.95,2.46 -0.14,3.69 z m -0.05,-18.27 c 0.55,-1.55 0.45,-2.82 -0.43,-3.97 -0.22,-0.29 -0.75,-0.45 -0.95,0.06 -0.51,1.32 0.03,2.47 0.74,3.55 0.04,0.07 0.16,0.1 0.64,0.36 z m -2.41,-9.03 c 0.51,-1.78 0.05,-3.05 -0.96,-4.17 -0.1,-0.1 -0.71,0.01 -0.76,0.15 -0.57,1.35 0.39,2.37 0.86,3.5 0.06,0.13 0.3,0.19 0.86,0.52 z m -1.87,44.86 c 0.05,0.12 0.59,0.17 0.74,0.05 0.88,-0.71 1.24,-1.72 1.36,-2.8 0.03,-0.34 -0.18,-0.7 -0.47,-1.7 -0.54,0.87 -0.8,1.15 -0.91,1.49 -0.32,0.97 -1.3,1.8 -0.72,2.96 z m -1.64,-52.9 c 0.53,-2.68 -0.32,-4.01 -2,-5.17 -0.56,2.11 0.48,3.34 2,5.17 z m -7.02,-11.81 c 0.37,1.37 1.07,2.51 3.08,3 -0.55,-1.7 -1.04,-2.95 -2.35,-3.62 -0.34,-0.17 -0.85,0.14 -0.73,0.62 z m -2.86,-136.77 c 1.13,1.45 1.64,2.66 3.16,2.7 0.13,0 0.46,-0.52 0.4,-0.68 -0.5,-1.27 -1.38,-2.04 -3.56,-2.02 z m -3.04,128.18 c -0.27,2.28 0.79,3.22 3.1,4.03 -0.76,-2.02 -1.75,-2.99 -3.1,-4.03 z m -2.48,-22.05 c 0.02,0.05 0.13,0.09 0.38,0.27 0.9,-1.06 1.58,-2.17 1.21,-3.65 -0.1,-0.42 -0.57,-0.54 -0.92,-0.2 -1.06,1.03 -0.94,2.3 -0.67,3.58 z m 2.17,-109.64 c -1.49,-1.14 -2.4,-2.29 -4.1,-2 -0.13,0.03 -0.33,0.6 -0.25,0.68 0.99,1.09 1.97,2.31 4.35,1.32 z m -4.06,125.35 c 0.14,1.05 0.3,2.28 1.47,2.62 0.65,0.18 0.8,-0.66 0.76,-1.52 -0.77,-0.53 0.2,-2.4 -1.59,-2.47 -0.8,-0.03 -0.71,0.83 -0.64,1.37 z m -345.48,-74.37 c -0.04,0.3 0.5,0.63 0.92,0.43 1.12,-0.54 2.4,-0.89 3.08,-2.46 -0.5,-0.11 -0.97,-0.38 -1.32,-0.26 -1.2,0.37 -2.44,0.84 -2.68,2.29 z m 14.34,-12.14 c -0.02,0.06 0.1,0.15 0.29,0.43 1.37,-0.56 2.39,-1.47 2.82,-2.96 0.03,-0.08 -0.46,-0.47 -0.62,-0.42 -1.45,0.44 -2.2,1.51 -2.49,2.95 z m 5.39,-7.49 c 0.01,0.14 0.56,0.44 0.68,0.37 1.38,-0.86 1.97,-2.13 1.67,-4.38 -1.37,1.36 -2.38,2.38 -2.35,4.01 z m -77.369997,107.85 c 0.25,0.52 0.96,0.54 1.25,0.08 0.94,-1.48 0.76,-2.97 -0.41,-4.8 -0.68,1.73 -1.63,3.05 -0.84,4.72 z m 1.27,14.38 c -0.67,1.8 -0.27,3.13 1.14,4.77 0.18,-2.01 0.59,-3.54 -1.14,-4.77 z m 2.89,-33.05 c 0.04,0.14 0.58,0.32 0.67,0.24 1.08,-1 1.67,-2.18 1.13,-3.68 -0.02,-0.07 -0.14,-0.11 -0.5,-0.37 -0.84,1.25 -1.74,2.31 -1.3,3.81 z m 2.87,-8.55 c -0.05,0.15 0.07,0.37 0.23,1.07 1.71,-1.1 2.29,-2.48 2.39,-4.11 0.01,-0.16 -0.52,-0.53 -0.62,-0.48 -1.38,0.75 -1.55,2.22 -2,3.52 z m 4.21,-8.6 c -0.14,0.42 0.36,0.59 0.84,0.6 1.16,-0.7 1.48,-1.94 1.77,-3.17 0.08,-0.37 -0.31,-0.95 -0.63,-0.78 -1.3,0.68 -1.58,2.09 -1.98,3.35 z m 14.369997,-45.34 c 0.12,0.14 0.69,0.13 0.75,0.02 0.76,-1.35 -0.26,-2.41 -0.65,-3.9 -1.21,1.64 -1.06,2.8 -0.1,3.88 z m 188.17,-116.71 c -2.01,0.43 -3.12,-1.36 -4.47,0.05 -0.13,0.14 0.06,0.9 0.26,0.99 1.21,0.52 2.43,0.65 4.21,-1.04 z m -13.7,-1.87 c 0.66,1.97 2.5,1.25 3.75,1.73 0.01,0.01 0.38,-0.56 0.3,-0.7 -0.69,-1.24 -2.09,-0.95 -3.16,-1.37 -0.19,-0.07 -0.52,0.19 -0.89,0.34 z m -8.87,-1.87 c 1.2,0.81 2.2,1.82 3.74,1.16 0.1,-0.04 0.15,-0.63 0.03,-0.74 -1.08,-0.96 -2.21,-1.75 -3.77,-0.42 z m -157.75,136.52 c -0.02,0.1 0.51,0.45 0.67,0.39 1.71,-0.68 2.07,-2.2 2.54,-4.46 -1.95,1.26 -2.93,2.41 -3.21,4.07 z m -2.84,-15.01 c 1.95,0.65 3.42,0.62 4.88,0.05 0.08,-0.03 0.08,-0.71 -0.05,-0.78 -1.52,-0.83 -2.98,-0.63 -4.83,0.73 z m 7.94,-2.1 c 0.08,0.06 0.64,-0.21 0.65,-0.36 0.18,-1.62 -0.51,-2.81 -1.94,-3.57 -0.04,-0.03 -0.14,0.06 -0.35,0.17 -0.08,1.49 0.45,2.77 1.64,3.76 z m 1.92,1.02 c 1.63,0.65 2.89,0.12 4.02,-0.74 0.32,-0.25 0.03,-0.86 -0.38,-0.91 -1.39,-0.17 -2.75,-0.11 -3.64,1.65 z m 317.62,-71.84 c 0.02,1.32 1.4,1.14 2.2,1.51 0.55,0.25 1.36,0.35 1.81,-0.6 -0.52,-1.14 -1.71,-1.06 -2.67,-1.37 -0.55,-0.19 -1.36,-0.39 -1.34,0.46 z m -8.56,-3.49 c 0.32,1.41 1.76,1.42 2.77,1.93 0.47,0.23 1.24,0.08 1.12,-0.48 -0.31,-1.47 -1.81,-1.61 -2.8,-2.15 -0.73,-0.18 -1.21,0.16 -1.09,0.7 z m -7.74,-5.21 c 0.75,1.47 1.87,2.46 4.01,2.34 -1.06,-1.5 -1.77,-2.99 -3.65,-3.03 -0.12,0 -0.43,0.55 -0.36,0.69 z m -5.99,-6.73 c 0.53,1.12 1.09,2.29 2.3,2.68 0.67,-0.07 0.86,-0.4 0.65,-0.81 -0.57,-1.08 -0.85,-2.47 -2.23,-2.84 -0.45,-0.13 -0.99,0.42 -0.72,0.97 z m -199.98,-37.43 c 2.25,0.72 3.61,0.03 5.22,-1.3 -2.04,-0.48 -3.55,-0.52 -5.22,1.3 z m 9.43,-2.52 c 1.39,1.47 2.68,0.92 3.93,0.26 0.44,-0.23 0.39,-0.85 0.11,-1.02 -1.42,-0.87 -2.6,-0.07 -4.04,0.76 z m 0.56,21.86 c 0.8,0.05 1.62,-0.18 2.4,-0.08 2.35,0.29 2.84,-0.88 2.89,-2.98 0.06,-2.4 -1.41,-2.22 -2.94,-2.2 -5.69,0.08 -4.78,-0.3 -4.65,-4.74 0.08,-2.45 -0.82,-3.12 -3.12,-3.09 -2.16,0.03 -3.01,0.66 -2.95,2.96 0.13,4.51 -0.19,4.79 -4.67,4.83 -1.95,0.01 -2.95,0.51 -3.02,2.65 -0.09,2.32 1.16,2.52 3,2.59 4.6,0.17 4.71,0.24 4.7,5 0,2.22 0.89,2.88 2.65,2.63 3.12,0.02 3.3,-0.15 3.36,-2.98 0,-0.71 0.08,-1.42 0,-2.11 -0.22,-1.8 0.5,-2.62 2.35,-2.48 z m 81.6,-10.43 c -0.31,0.63 0.44,0.95 1.2,0.92 0.99,-0.66 2.7,0.12 3.32,-1.34 0.29,-0.68 -0.6,-1.11 -1.12,-0.88 -1.13,0.52 -2.74,-0.03 -3.4,1.3 z m -112.13,1.93 c -1.48,0.29 -2.28,1.41 -2.98,2.61 -0.04,0.08 0,0.2 0,0.82 1.6,-0.74 2.95,-1.23 3.43,-2.82 0.05,-0.15 -0.33,-0.64 -0.44,-0.61 z m 184.05,18.94 c 1.09,0 2.48,0.65 3.23,-0.78 1.4,-2.69 -0.12,-5.15 -3.17,-5.17 q -3.97,-0.04 -4.12,-4.22 c -0.09,-2.65 -1.37,-3.83 -3.64,-3.39 -2.01,0.39 -2.15,2.21 -2.11,3.52 0.09,3.37 -1.17,4.6 -4.55,4.15 -2.05,-0.28 -3.07,0.93 -2.97,3.12 0.1,2.13 0.96,2.96 3.16,2.85 3.37,-0.17 4.36,-0.9 4.08,4.04 -0.14,2.44 0.79,3.74 3.46,3.7 2.8,-0.03 2.62,-1.85 2.54,-3.71 -0.21,-4.05 -0.12,-4.08 4.09,-4.11 z m -215.48,49.63 c 0.03,0.63 -0.26,1.67 0.74,1.53 1.39,-0.18 0.76,-1.57 0.98,-2.43 0.14,-0.56 0.43,-1.69 -0.6,-1.54 -1.19,0.18 -0.92,1.52 -1.12,2.44 z m 1.6,-7.29 c 0.02,0.07 0.16,0.1 0.57,0.34 0.97,-1.4 1.66,-2.74 0.91,-4.38 -0.18,-0.38 -0.71,-0.45 -1,-0.11 -1.11,1.26 -0.86,2.71 -0.48,4.15 z m 4.42,-22.06 c -0.67,1.27 -1.72,2.54 -0.11,4.26 0.59,-1.6 1.6,-2.84 1.08,-4.4 -0.14,-0.42 -0.8,-0.19 -0.97,0.14 z m 2.2,-5.61 c 0.01,0.11 0.62,0.32 0.7,0.24 1.18,-1.16 1.77,-2.5 0.93,-4.32 -1.36,1.1 -1.76,2.49 -1.63,4.08 z m 0.76,99.38 c 2.02,-0.34 1.87,-2.03 1.87,-3.55 0.01,-1.69 -1.25,-1.55 -2.33,-1.57 -2.9,-0.03 -5.81,-0.04 -8.72,-0.01 -1.59,0.01 -2.33,-0.58 -2.25,-2.33 0.12,-2.7 -0.02,-5.41 0.05,-8.11 0.04,-1.67 -0.14,-2.99 -2.24,-3.14 -2.02,-0.16 -3.17,0.46 -3.49,2.66 -0.38,2.7 -0.32,5.4 -0.23,8.09 0.07,2.15 -0.84,2.87 -2.82,2.84 -2.61,-0.05 -5.21,0.06 -7.82,-0.03 -1.88,-0.07 -2.4,0.79 -2.4,2.53 0,1.74 0.32,2.93 2.43,2.86 2.4,-0.07 4.81,0.07 7.21,-0.03 2.48,-0.11 3.63,0.64 3.42,3.41 -0.19,2.56 -0.19,5.15 0.4,7.75 0.49,2.19 1.68,2.39 3.44,2.29 2.01,-0.11 2.11,-1.45 2.08,-2.95 -0.02,-1.6 0,-3.21 0,-4.81 q 0,-5.93 6.04,-5.44 c 1.79,-0.14 3.6,-0.17 5.36,-0.46 z m 300.98,-82.53 c 0.7,1.91 2.4,1.88 3.86,2.15 0.4,0.08 0.67,-0.48 0.41,-0.85 -0.88,-1.25 -2.2,-1.54 -3.63,-1.51 -0.1,0 -0.19,0.06 -0.64,0.21 z m -9.1,-2.38 c 1.55,1.68 2.87,1.89 4.68,1.32 -1.18,-1.76 -2.62,-1.7 -4.68,-1.32 z m -8.77,-1.65 q 2.46,1.6 4.4,0.58 c -1.24,-1.01 -2.59,-1.27 -4.4,-0.58 z m -8.89,-1.86 c 0.46,1.23 1.82,0.91 2.77,1.29 0.47,0.19 1.21,-0.18 1.09,-0.63 -0.41,-1.51 -2.06,-0.65 -2.88,-1.35 -0.67,-0.16 -1.17,0.19 -0.98,0.69 z m -3.4,67 c 0.48,0.06 0.99,-0.14 1.49,-0.12 1.51,0.05 2.09,-0.67 2.21,-2.16 0.26,-3.1 -0.22,-3.64 -3.68,-3.66 -3.97,-0.02 -4.01,-0.02 -3.99,-3.9 0.01,-1.92 0.14,-3.55 -2.72,-3.4 -2.65,0.13 -3.65,1.17 -3.25,3.71 0.46,2.97 -0.8,4.15 -3.74,3.6 -2.3,-0.3 -3.84,0.14 -3.94,3.01 -0.1,2.95 1.63,2.81 3.69,2.83 3.94,0.04 4,0.12 3.95,4.23 -0.02,1.91 0.14,3.27 2.6,3.4 2.54,0.14 3.82,-0.48 3.42,-3.28 -0.43,-2.97 0.66,-4.66 3.96,-4.26 z m -30.27,-90.63 c 0.6,-2.1 -0.09,-3.21 -1.76,-4.16 -0.4,1.9 0.29,3.01 1.76,4.16 z m -3.74,-8.3 c 0.53,-2.1 0.22,-4.01 -0.56,-4.31 -0.23,-0.08 -0.7,-0.06 -0.78,0.09 -0.74,1.23 0.29,2.17 0.63,3.23 0.08,0.26 0.32,0.46 0.71,0.99 z m -4.71,-11.31 c 0.51,0.88 0.41,2.37 1.77,2.43 0.76,0.03 0.59,-0.91 0.41,-1.41 -0.36,-0.96 -0.45,-2.16 -1.9,-2.54 -0.43,0.43 -0.57,1 -0.28,1.52 z m -59.61,-2.72 c 11.35,0.73 22.66,-0.08 33.9,-0.91 10.72,-0.8 21.43,-1.42 32.11,-0.88 21.41,1.07 42.11,5.11 60.04,17.96 15.49,11.11 22.62,26.56 23.87,45.37 0.71,10.63 -2.34,20.36 -5.15,30.25 -4.29,15.07 -0.19,27.89 9.67,39.67 7.56,9.03 16.61,16.4 25.05,24.45 20.88,19.94 35.05,43.54 39.25,72.44 1.71,11.79 0.45,23.49 -2.57,35.05 -3.41,13.07 -8.24,25.42 -16.34,36.36 -1.13,1.52 -2.87,2.53 -3.58,4.4 -0.32,0.87 -1.19,0.54 -1.84,0.56 -9.03,0.32 -18.05,0.37 -27.07,-0.1 3.51,-4.02 3.59,-4.64 1.14,-9.14 -0.38,-0.7 -0.8,-1.37 -1.2,-2.05 -4.03,-6.96 -8.07,-13.93 -12.1,-20.89 0.22,-2.93 0.23,-5.87 -0.03,-8.8 0.03,-2.5 0.08,-5 0.09,-7.51 0,-1.33 0.29,-2.52 1.1,-3.64 1.81,-2.51 1.02,-4.36 -2.05,-4.5 -3.6,-0.17 -7.21,-0.05 -10.81,-0.05 -1.2,0 -2.21,0.41 -2.64,1.57 -0.4,1.07 -0.49,2.2 0.56,3.02 1.54,1.19 1.61,2.89 1.67,4.6 0.08,2.29 0.12,4.59 0.18,6.89 -0.2,0.96 -0.67,1.96 -0.55,2.89 0.83,6.34 -2.83,10.85 -6.16,15.5 -0.88,-3.43 -0.35,-6.92 -0.48,-10.39 -0.04,-0.87 0.27,-1.52 1.14,-1.88 0.67,-0.27 1.3,-0.71 1.07,-1.54 -0.28,-1.05 -1.24,-0.79 -1.99,-0.8 -4.28,-0.04 -8.55,-0.07 -12.83,-0.1 -0.49,-4.38 0.53,-8.83 -0.73,-13.16 0.87,-1.56 0.61,-3.2 0.37,-4.84 0.14,-3.21 0.54,-6.43 -0.27,-9.61 0.04,-2.84 0.08,-5.67 0.12,-8.51 l 0.17,-0.2 -0.14,-0.23 c 0.25,-1.21 0.9,-2.1 1.78,-3.01 1.63,-1.69 0.59,-4.63 -1.72,-4.73 -4.2,-0.19 -8.43,-0.19 -12.62,0.08 -2.44,0.16 -3.33,2.4 -1.8,4.39 1.27,1.67 1.51,3.38 1.47,5.33 -0.05,2.3 0.03,4.61 0.05,6.91 0.02,5.38 0.03,10.77 0.05,16.15 0,1.42 -0.01,2.84 -0.02,4.26 -0.02,2.39 -0.05,4.77 -0.08,7.16 -4.03,-0.01 -8.05,-0.01 -12.07,-0.01 -0.05,-4.02 -0.11,-8.05 -0.16,-12.07 0.01,-3.12 0.02,-6.25 0.04,-9.37 0,-2.05 -0.01,-4.09 -0.01,-6.14 0.05,-2.2 0.13,-4.4 0.13,-6.6 0,-2.2 -0.33,-4.19 1.69,-5.99 1.51,-1.35 0.2,-4.01 -2.01,-4.11 -4.2,-0.18 -8.42,-0.2 -12.61,0 -2.42,0.12 -3.54,2.61 -1.93,4.29 1.6,1.66 1.74,3.45 1.71,5.49 -0.04,2.3 0.04,4.6 0.07,6.9 0,5.02 -0.01,10.05 -0.02,15.07 -0.03,4.19 -0.07,8.38 -0.11,12.56 h -0.04 c -1.2,-0.01 -2.38,-0.02 -3.58,-0.03 -1.75,-7.28 -3.96,-14.39 -6.53,-21.42 -0.32,-0.87 -0.49,-1.72 -1.41,-2.14 -0.97,-1.22 -0.29,-2.71 -0.63,-4.03 0.03,-2.3 0.13,-4.6 0.06,-6.9 -0.07,-2.06 0.16,-3.83 1.71,-5.49 1.59,-1.7 0.48,-4.04 -1.92,-4.32 -1.58,-0.19 -3.22,-0.18 -4.8,-0.02 -2.33,0.23 -3.64,-0.76 -4.7,-2.81 -3.85,-7.44 -8.05,-14.68 -12.45,-21.81 -4.8,-7.8 -10.92,-14.21 -19.09,-18.54 -0.59,-0.31 -1.06,-0.86 -1.58,-1.3 4.42,-7.44 7.81,-15.21 6.73,-24.13 -0.39,-3.25 -0.78,-6.52 -1.38,-9.77 -0.81,-4.44 -0.94,-9.07 -2.05,-13.5 -4.6,-18.46 -13.56,-34.66 -26.16,-48.78 -6.67,-7.48 -13.46,-15.04 -22.67,-19.54 -22.14,-10.81 -42.42,-5.18 -61.73,7.52 -3.46,2.27 -6.25,5.43 -8.43,8.92 -6.73,10.79 -13.27,21.7 -19.82,32.6 -0.76,1.27 -1.39,2.73 -1.63,4.17 -1.36,8.31 -0.42,16.49 1.46,24.65 1.47,6.38 4.24,12.26 6.44,18.37 -1.53,0.97 -3.55,0.65 -4.96,1.91 -0.54,0.44 -1.18,0.79 -1.6,1.32 -5.3,6.53 -10.52,13.11 -15.85,19.61 -5.65,6.87 -11.04,13.96 -17.05,20.54 -3.7,-4.69 -6.39,-10.03 -9.72,-14.96 -0.68,-1.01 -0.95,-2.73 -2.61,-2.44 -1.42,0.25 -2.33,1.42 -2.72,2.87 -0.08,0.1 -0.17,0.13 -0.29,0.08 -1.96,0.21 -3.35,1.3 -4.4,2.9 -0.1,0 -0.2,0 -0.3,0.02 -8.35,1.45 -6.76,0.64 -5.46,7.66 0.49,2.69 1.54,3.88 4.41,2.77 1.36,-0.52 2.9,-0.57 4.36,-0.84 1.17,0.76 2.42,0.94 3.75,0.51 0.69,0.49 0.97,1.24 1.21,2.01 -0.81,1.24 -2.41,1.94 -2.51,3.67 -1.61,1 -3.2,2.01 -4.82,2.98 -0.97,0.58 -1.62,1.31 -0.93,2.41 1.42,2.26 2.12,5.43 4.48,6.51 1.95,0.88 3.62,-1.89 5.57,-2.74 0.18,-0.08 0.34,-0.22 0.5,-0.33 1.67,0.29 3.27,0.01 4.83,-0.57 0.72,0.4 1.12,1.04 1.3,1.82 -0.91,1.48 -1.2,3.14 -1.36,4.83 -1.3,0.83 -1.95,2.26 -3.01,3.28 -1.42,1.35 -1.08,2.36 0.31,3.36 7.12,5.11 4.67,6.47 10.5,-0.81 0.06,-0.08 0.1,-0.17 0.15,-0.26 1.74,-0.12 3.12,-0.86 4.07,-2.34 l 0.69,-0.18 c 4.15,-0.82 4.48,-1.49 2.45,-4.83 -0.81,-1.35 -1.55,-2.74 -2.33,-4.11 2.69,0.04 3.62,2.92 5.87,3.67 1.64,1.62 3.46,3.14 1.41,5.76 -0.57,0.72 0.28,1.43 0.94,1.94 2.38,1.83 4.75,3.66 7.12,5.51 l 2.58,2.01 c 0.93,0.73 1.84,1.19 2.99,0.51 1.45,-0.86 2.92,-1.7 4.38,-2.54 1.72,0.02 3.24,-0.69 4.78,-1.34 2.16,0.26 4.52,-0.15 6.11,1.91 -2.94,10.63 -5.17,21.42 -6.78,32.33 -0.19,1.29 -0.49,2.19 -1.01,2.8 -0.69,0.8 -1.77,1.09 -3.52,1.07 -7.18,-0.08 -14.38,0.33 -21.56,0.56 -1.31,0.04 -2.55,0.38 -3.65,1.12 -1.77,-0.85 -1.68,-2.54 -1.85,-4.12 4.48,-0.43 4.69,-0.72 4.51,-5.08 -0.16,-3.8 -3.04,-2.13 -4.68,-2.15 -12.69,-0.18 -25.38,-0.16 -38.07,-0.2 -0.7,-1 -1.07,-2.08 -1.31,-3.3 -1.92,-9.96 -3.93,-19.9 -5.91,-29.85 -1.13,-5.66 -1.95,-6.34 -7.77,-6.34 -22.84,0 -45.69,0.01 -68.529997,-0.02 -2.27,-0.01 -4.59,-0.7 -6.78,-0.36 -3.63,0.55 -7.25,0.75 -10.86,0.41 -4.59,-0.43 -7.27,0.91 -9.35,5.2 -1.36,1.57 -3.09,3.04 -2.62,5.42 3.25,16.28 6.65,32.53 9.8,48.83 1.34,6.93 3.46,13.74 3.78,20.86 -31.04,-14.06 -53.39,-36.01 -62.17,-69.75 -4.56000024,-17.52 -2.3300002,-34.93 2.97,-52.02 12.18,-39.3 35.35,-70.22 70.19,-92.38 13.84,-8.81 27.829997,-17.45 40.309997,-28.24 12.68,-10.97 22.17,-23.88 25,-40.84 1.31,-7.82 1.64,-15.73 2.1,-23.63 0.63,-10.879996 1.25,-21.769996 4.87,-32.179996 8.12,-23.4 30.35,-35.26 54.34,-29.06 14.26,3.68 26.7,10.89 38.54,19.4 11.25,8.08 21.57,17.32 32.73,25.5 9.9,7.24 20.27,13.589996 31.96,17.539996 0.46,0.16 0.87,0.48 1.31,0.72 -0.09,1.74 0.28,2.79 2.31,1.66 0.59,-0.33 1.3,-0.44 1.96,-0.65 7.99,1.94 16.11,2.63 24.3,3.16 z m 151.12,142.25 c 1.17,-1.5 2.02,-2.67 2.25,-4.6 -2.2,0.97 -2.85,2.23 -2.25,4.6 z m -2.02,4.6 c 0.1,-0.64 -0.16,-1.24 -0.69,-1.05 -1.31,0.49 -1.66,1.84 -2.12,3.01 -0.2,0.5 0.05,1.14 0.66,0.95 1.39,-0.45 1.58,-1.88 2.15,-2.91 z m -9.57,27.18 c -0.08,-0.81 0.39,-2.19 -0.75,-2.21 -1.34,-0.02 -1.01,1.44 -1.01,2.36 0,0.78 -0.5,2.11 0.88,2.05 1.27,-0.05 0.69,-1.38 0.88,-2.2 z m -223.13,-181.68 c 1.55,0.95 3.02,1.64 4.64,0.06 -1.5,0.2 -3.01,-1.9 -4.64,-0.06 z m -18.24,-4.12 c 1.62,1.23 3.24,0.91 5.53,0.72 -2.2,-1.42 -3.73,-1.82 -5.53,-0.72 z m -4.49,-0.83 c -1.66,-0.76 -2.97,-0.91 -4.39,0.12 1.5,0.94 2.83,1.13 4.39,-0.12 z m -27.62,5.12 c 0.19,-0.54 -0.33,-0.86 -1.08,-0.68 -0.99,0.51 -2.52,0.58 -2.88,2.06 -0.14,0.6 0.62,0.72 1.1,0.54 1.1,-0.41 2.42,-0.63 2.86,-1.92 z m -28.46,23.86 c 0.06,-0.46 -0.12,-0.84 -0.6,-0.78 -1.32,0.16 -1.58,1.38 -2.06,2.3 -0.26,0.5 0.14,1.14 0.69,0.97 1.15,-0.35 1.53,-1.48 1.97,-2.49 z m -4.63,7.45 c -0.09,-0.4 -0.16,-0.99 -0.62,-0.84 -1.49,0.48 -1.77,1.93 -2.25,3.17 -0.13,0.35 0.15,0.88 0.61,0.78 1.65,-0.36 1.57,-2.03 2.26,-3.11 z m -9.58,27.22 c -0.13,-0.63 0.31,-1.74 -0.67,-1.63 -1.38,0.14 -1.08,1.65 -1.43,2.59 -0.26,0.72 -0.06,1.56 0.86,1.39 1.23,-0.22 1,-1.47 1.24,-2.35 z m -6.72,29.66 c 1.61,-1.3 1.56,-2.78 1.16,-4.77 -1.08,1.62 -2.34,2.78 -1.16,4.77 z m -13.26,19.77 c 0.04,-0.14 -0.34,-0.61 -0.46,-0.58 -1.37,0.29 -2.28,1.14 -2.76,2.46 -0.03,0.09 -0.05,0.18 -0.17,0.65 1.81,-0.37 2.92,-1.05 3.39,-2.53 z m -15.33,10.38 c 0.13,-0.54 -0.46,-0.76 -1.09,-0.71 -0.9,0.52 -2.31,0.42 -2.76,1.75 -0.2,0.6 0.3,0.98 0.83,0.82 1.15,-0.36 2.65,-0.32 3.02,-1.86 z m -14.6,12.44 c 0.83,-1.26 1.32,-2.46 0.54,-4.27 q -1.71,2.22 -0.54,4.27 z m -10.59,15.56 c 1.28,-0.41 2.08,-1.41 2.6,-2.55 0,-0.69 -0.34,-1.01 -0.92,-0.84 -1.24,0.36 -1.88,1.36 -2.37,2.45 -0.28,0.61 0.29,1.07 0.69,0.94 z m -6.789997,6.87 c 1.929997,-0.61 3.069997,-1.43 2.639997,-3.61 -1.63,0.71 -2.629997,1.62 -2.639997,3.61 z m -5.38,7.91 c 1.79,-0.94 2.54,-2.25 2.93,-4.86 -1.91,1.54 -3.23,2.54 -2.93,4.86 z m -16.2,51.65 q 1.69,-1.39 0.09,-3.88 c -0.38,1.39 -0.39,2.61 -0.09,3.88 z"
     id="path135" />
  <path
     class="cls-7"
     d="m 396.18965,369.24413 c -0.06,-4.46 -0.13,-8.91 -0.18,-13.37 -0.01,-1.49 0.42,-2.59 2.26,-2.2 0,5.38 -0.03,10.76 -0.04,16.14 -0.59,-0.5 -1.26,-0.75 -2.04,-0.57 z"
     id="path136" />
  <path
     class="cls-14"
     d="m 102.08965,384.86413 c 0.3,0.22 0.6,0.44 0.9,0.67 h 0.01 c -0.16,0.22 -0.31,0.41 -0.47,0.62 -0.33,-0.25 -0.67,-0.5 -1,-0.75 0.19,-0.18 0.37,-0.36 0.56,-0.54 z"
     id="path137" />
  <path
     class="cls-7"
     d="m 335.79965,283.30413 c 1.91,0.69 4.13,0.53 5.68,2.15 -1.85,8.82 -4.7,17.36 -7.09,26.02 -5.44,19.75 -11.07,39.45 -16.62,59.17 -0.27,0.94 -0.56,1.88 -1.07,3.59 -1.22,-3.22 -2.36,-6.18 -3.45,-9.05 -0.68,-1.78 -1.33,-3.52 -1.98,-5.27 -8.39,-22.6 -16.77,-45.21 -25.14,-67.82 -0.45,-1.21 -0.72,-2.49 -1.08,-3.73 0.91,-1.28 2.44,-1.29 3.72,-1.81 0.71,1.43 1.39,2.87 2.14,4.28 4.26,7.97 10.68,12.9 19.89,13.2 11.12,0.36 21.86,-8.74 25,-20.73 z"
     id="path138" />
  <path
     class="cls-11"
     d="m 280.77965,112.88413 c -0.2,-0.09 -0.39,-0.85 -0.26,-0.99 1.35,-1.41 2.46,0.38 4.47,-0.05 -1.78,1.69 -3,1.56 -4.21,1.04 z"
     id="path139" />
  <path
     class="cls-11"
     d="m 101.09965,248.75413 c 0.58,-0.17 0.92,0.15 0.92,0.84 -0.52,1.14 -1.32,2.14 -2.6,2.55 -0.4,0.13 -0.97,-0.33 -0.69,-0.94 0.49,-1.09 1.13,-2.09 2.37,-2.45 z"
     id="path140" />
  <path
     class="cls-11"
     d="m 494.26965,330.12413 c -0.47,-1.13 -1.43,-2.15 -0.86,-3.5 0.05,-0.14 0.66,-0.25 0.76,-0.15 1.01,1.12 1.47,2.39 0.96,4.17 -0.56,-0.33 -0.8,-0.39 -0.86,-0.52 z"
     id="path141" />
  <path
     class="cls-4"
     d="m 404.39965,394.86413 c 0.71,-0.72 1.71,-0.66 2.53,-0.34 1.62,0.63 0.98,2.19 1.17,3.39 -1.24,-0.01 -2.49,-0.01 -3.73,-0.02 -0.51,-1.01 -0.91,-2.07 0.03,-3.03 z"
     id="path142" />
  <path
     class="cls-11"
     d="m 80.859653,279.45413 c -0.1,1.63 -0.68,3.01 -2.39,4.11 -0.16,-0.7 -0.28,-0.92 -0.23,-1.07 0.45,-1.3 0.62,-2.77 2,-3.52 0.1,-0.05 0.63,0.32 0.62,0.48 z"
     id="path143" />
  <path
     class="cls-10"
     d="m 430.15965,374.60413 c -0.82,0 -1.37,0.36 -1.5,1.16 -0.13,0.73 0.27,1.13 0.99,1.16 0.86,0.04 1.65,-0.17 1.67,-1.22 0.01,-0.69 -0.52,-1.01 -1.16,-1.1 z m 4.23,-5.61 c 0.05,4.02 0.11,8.05 0.16,12.07 -2.81,0.3 -5.63,0.44 -8.44,0 -0.95,-7.18 0.51,-14.37 0.01,-21.55 1.02,-0.09 1.82,-0.51 1.73,-1.64 -0.11,-1.33 -1.14,-1.47 -2.23,-1.38 -0.31,-1.08 0.33,-1.96 0.63,-2.91 2.72,-0.04 5.45,-0.07 8.17,-0.1 0,2.05 0.01,4.09 0.01,6.14 -0.47,1.82 -0.65,3.6 -3.08,4.31 -1.62,0.47 -1.34,2.57 0.4,3.3 1.03,0.43 1.99,0.82 2.64,1.76 z"
     id="path144" />
  <path
     class="cls-11"
     d="m 489.90965,250.93413 c -0.23,1.93 -1.08,3.1 -2.25,4.6 -0.6,-2.37 0.05,-3.63 2.25,-4.6 z"
     id="path145" />
  <path
     class="cls-14"
     d="m 363.58965,97.024134 c 0.53,-0.14 0.92,0.22 0.85,0.99 -0.74,0.99 -1.06,2.509996 -2.47,2.999996 -0.5,0.18 -0.83,-0.45 -0.57,-1.02 0.53,-1.139996 0.72,-2.569996 2.19,-2.969996 z"
     id="path146" />
  <path
     class="cls-11"
     d="m 493.99965,375.55413 c -0.15,0.12 -0.69,0.07 -0.74,-0.05 -0.58,-1.16 0.4,-1.99 0.72,-2.96 0.11,-0.34 0.37,-0.62 0.91,-1.49 0.29,1 0.5,1.36 0.47,1.7 -0.12,1.08 -0.48,2.09 -1.36,2.8 z"
     id="path147" />
  <path
     class="cls-6"
     d="m 295.96965,289.60413 c 8.83,12.5 24.68,11.72 32.65,-1.4 1.09,-1.79 2.14,-3.62 2.51,-5.74 1.65,-0.23 3.2,0.09 4.67,0.84 -3.14,11.99 -13.88,21.09 -25,20.73 -9.21,-0.3 -15.63,-5.23 -19.89,-13.2 -0.75,-1.41 -1.43,-2.85 -2.14,-4.28 -0.04,-0.12 0,-0.23 0.07,-0.32 2.79,0.25 5.18,0.61 7.13,3.37 z"
     id="path148" />
  <path
     class="cls-11"
     d="m 132.84965,219.46413 c -0.68,1.57 -1.96,1.92 -3.08,2.46 -0.42,0.2 -0.96,-0.13 -0.92,-0.43 0.24,-1.45 1.48,-1.92 2.68,-2.29 0.35,-0.12 0.82,0.15 1.32,0.26 z"
     id="path149" />
  <path
     class="cls-11"
     d="m 107.87965,240.55413 c -0.47,2.26 -0.83,3.78 -2.54,4.46 -0.16,0.06 -0.69,-0.29 -0.67,-0.39 0.28,-1.66 1.26,-2.81 3.21,-4.07 z"
     id="path150" />
  <path
     class="cls-11"
     d="m 266.18965,108.52413 c 0.12,0.11 0.07,0.7 -0.03,0.74 -1.54,0.66 -2.54,-0.35 -3.74,-1.16 1.56,-1.33 2.69,-0.54 3.77,0.42 z"
     id="path151" />
  <path
     class="cls-14"
     d="m 358.42965,86.934134 c 1.55,-0.67 2.7,0.37 4.42,1.01 -0.55,0.36 -0.62,0.45 -0.7,0.45 -1.32,0.06 -2.72,0.57 -3.88,-0.47 -0.32,-0.28 -0.24,-0.81 0.16,-0.99 z"
     id="path152" />
  <path
     class="cls-14"
     d="m 372.57965,98.244134 c -0.11,-0.42 -0.11,-1.18 0.54,-1.12 1.48,0.15 1.09,1.62 1.55,2.46 0.02,0.669996 -0.18,1.519996 -0.78,1.339996 -1.19,-0.37 -1.07,-1.689996 -1.31,-2.679996 z"
     id="path153" />
  <path
     class="cls-5"
     d="m 230.66965,383.07413 c 1.75,0.02 2.83,-0.27 3.52,-1.07 l 2.72,0.16 c -3.47,3.55 -7.78,6.34 -13.18,8.13 -3.19,1.06 -6.46,1.29 -9.77,1.09 -4.32,-0.26 -6.7,-3.09 -8.5,-6.63 1.1,-0.74 2.34,-1.08 3.65,-1.12 7.18,-0.23 14.38,-0.64 21.56,-0.56 z"
     id="path154" />
  <path
     class="cls-3"
     d="m 258.07965,249.29413 c -0.03,1.6 -1.48,2.55 -1.82,4.01 -1.02,0.15 -1.44,0.93 -1.94,1.71 -0.29,0.47 -0.82,1.16 -1.4,0.71 -0.33,-0.26 -0.2,-1.11 -0.28,-1.69 1.82,-1.59 2.91,-3.98 5.42,-4.77 -0.01,0.01 -0.01,0.02 -0.01,0.03 z"
     id="path155" />
  <path
     class="cls-11"
     d="m 481.79965,306.23413 c -2.31,-0.81 -3.37,-1.75 -3.1,-4.03 1.35,1.04 2.34,2.01 3.1,4.03 z"
     id="path156" />
  <path
     class="cls-4"
     d="m 403.34965,375.91413 c 0.08,-0.96 0.69,-1.4 1.63,-1.28 0.66,0.08 1.06,0.49 1.07,1.19 -0.2,0.84 -0.79,1.11 -1.55,1.1 -0.66,0 -1.22,-0.23 -1.15,-1.01 z"
     id="path157" />
  <path
     class="cls-11"
     d="m 272.17965,109.63413 c 1.07,0.42 2.47,0.13 3.16,1.37 0.08,0.14 -0.29,0.71 -0.3,0.7 -1.25,-0.48 -3.09,0.24 -3.75,-1.73 0.37,-0.15 0.7,-0.41 0.89,-0.34 z"
     id="path158" />
  <path
     class="cls-9"
     d="m 302.04965,222.81413 c 2.46,0.2 5.11,-0.75 7.3,1.18 -1.35,1.22 -3.06,1.56 -4.75,1.94 -0.99,-1.32 -2.48,-1.76 -4.04,-2.15 0.55,-0.36 1.02,-0.67 1.49,-0.97 z"
     id="path159" />
  <path
     class="cls-15"
     d="m 473.10965,411.96413 c -1.44,-1.77 -0.12,-3.54 0.02,-5.31 1.72,-1.2 0.92,-3.35 1.72,-4.76 4.31,-7.56 7.19,-15.42 6.08,-24.31 3.54,-1.06 7.17,-0.43 10.76,-0.56 0.26,2.93 0.25,5.87 0.03,8.8 -1.04,-1.55 -0.39,-3.29 -0.48,-4.94 -0.1,-1.67 0.1,-3.34 -2.37,-3.22 -2.27,0.11 -5.71,-0.76 -5.29,2.85 1.06,8.96 -3.95,16.08 -6.51,23.94 -0.87,2.67 -1.22,5.76 -3.96,7.51 z"
     id="path160" />
  <path
     class="cls-11"
     d="m 439.24965,158.55413 c 0.82,0.7 2.47,-0.16 2.88,1.35 0.12,0.45 -0.62,0.82 -1.09,0.63 -0.95,-0.38 -2.31,-0.06 -2.77,-1.29 -0.19,-0.5 0.31,-0.85 0.98,-0.69 z"
     id="path161" />
  <path
     class="cls-10"
     d="m 434.57965,383.65413 c -0.02,4.59 -0.04,9.19 -0.06,13.78 -0.82,-0.36 -1.06,-1.07 -1.18,-1.89 -0.17,-1.2 -1.05,-1.68 -2.11,-1.48 -0.95,0.18 -1.91,0.61 -2.03,1.82 -0.06,0.68 -0.06,1.37 -0.09,2.05 l -7.86,-0.03 c 0.02,-4.74 0.03,-9.49 0.04,-14.24 4.43,-1.14 8.86,-0.65 13.29,-0.01 z"
     id="path162" />
  <path
     class="cls-3"
     d="m 266.49965,249.54413 c -0.05,3.64 2.32,7.01 4.58,6.94 2.02,-0.06 2.38,-1.59 2.45,-3.12 0.14,-2.99 -2.44,-6.46 -4.66,-6.42 -2.07,0.03 -2.31,1.49 -2.37,2.6 z m 28.86,-8.04 0.03,-0.06 0.02,-0.02 c 2.34,-0.24 4.39,-1.36 6.78,-2.06 -2.44,-1.13 -4.26,-0.76 -5.71,0.68 -0.39,0.39 -0.76,0.86 -1.11,1.41 0,0 0,0.02 -0.01,0.03 z m -15.22,7.35 c 1.26,-4.6 3.01,-5.55 7.34,-3.51 0.88,0.41 1.66,1.08 2.44,1.69 1.43,1.12 2.82,2.28 4.23,3.42 -1.49,-3.68 -4.18,-6.08 -7.59,-7.6 -3.49,-1.57 -7.22,0.13 -7.77,3.91 -0.49,3.46 -0.1,7.04 -0.1,10.57 0.27,0.01 0.53,0.02 0.8,0.02 0.77,-2.77 -0.11,-5.68 0.65,-8.5 z m 21.63,-18.85 c 3.79,-1.63 7.43,-0.42 11.15,-0.47 0.92,3.59 2.73,6.93 3.01,10.7 -5.84,-0.85 -8.77,0.59 -9.98,4.89 -0.08,0.28 -0.16,0.57 -0.24,0.86 -0.41,1.34 1.32,3.1 -0.63,4.07 -3.02,1.5 -5.75,3.68 -9.27,4.05 -1.13,0.12 -1.86,-0.55 -2.58,-1.28 -1.41,-1.43 -2.85,-2.82 -4.25,-4.26 -1.37,-1.4 -3.08,-2.21 -4.89,-1.54 -1.85,0.69 -2.33,2.64 -2.48,4.45 -0.12,1.38 0,2.76 0.34,4.16 0.77,3.09 -0.61,5.23 -3.69,6.11 -2.3,0.66 -4.6,1.31 -6.9,1.96 -0.39,-1.65 -1.4,-2.67 -3.08,-3 1.27,-1.48 1.06,-2.56 -0.56,-3.79 -2.37,-1.8 -4.5,-3.92 -6.73,-5.9 -0.1,-0.87 0.33,-1.59 0.73,-2.31 0.24,-0.09 0.49,-0.18 0.74,-0.27 -0.06,-0.07 -0.16,-0.2 -0.17,-0.19 -0.22,0.12 -0.42,0.27 -0.62,0.41 -1.2,0.21 -2.39,0.42 -3.59,0.64 v -0.04 c 0,0 -0.01,0 -0.02,0.01 0.19,-1.53 1.6,-1.63 2.62,-2.06 12.9,-5.41 25.86,-10.69 38.73,-16.19 0.79,-0.34 1.57,-0.67 2.36,-1.01 z"
     id="path163" />
  <path
     class="cls-2"
     d="m 460.98965,383.39413 c 5.63,-1.12 6.65,-0.35 6.72,5.17 0.03,2.49 -0.1,4.98 0.01,7.47 0.07,1.62 -0.57,2.1 -2.09,2.01 -2.08,-0.13 -4.17,-0.13 -6.26,-0.18 l 0.45,-14.22 c 0.39,-0.08 0.78,-0.17 1.17,-0.25 z"
     id="path164" />
  <path
     class="cls-16"
     d="m 275.44965,418.01413 8.38,0.02 c -2.8,0.11 -5.59,0.23 -8.38,-0.02 z"
     id="path165" />
  <path
     class="cls-14"
     d="m 102.99965,385.53413 c 0.18,0.14 0.37,0.26 0.56,0.37 -0.19,-0.1 -0.38,-0.21 -0.56,-0.36 v 0 z"
     id="path166" />
  <path
     class="cls-13"
     d="m 184.69965,314.74413 c -1.33,0.43 -2.58,0.25 -3.75,-0.51 -2.16,-2.84 -1.47,-6.57 -3.01,-9.61 1.05,-1.6 2.44,-2.69 4.4,-2.9 0.14,4.46 1.79,8.64 2.36,13.02 z"
     id="path167" />
  <path
     class="cls-2"
     d="m 434.57965,383.65413 c 3.99,-0.84 7.99,-0.71 11.99,-0.01 v 14.26 c -3.98,0.01 -7.96,0.01 -11.93,0.02 -0.02,-0.17 -0.06,-0.33 -0.12,-0.49 0.02,-4.59 0.04,-9.19 0.06,-13.78 z"
     id="path168" />
  <path
     class="cls-10"
     d="m 309.34965,223.99413 c 2.16,-0.65 3.49,0.11 3.97,2.33 -0.96,0.97 -0.18,2.15 -0.4,3.21 -3.72,0.05 -7.36,-1.16 -11.15,0.47 -0.79,0.34 -1.57,0.67 -2.36,1.01 l -0.87,-2.04 c 2.08,-0.84 4.1,-1.88 6.06,-3.04 1.69,-0.38 3.4,-0.72 4.75,-1.94 z"
     id="path169" />
  <path
     class="cls-5"
     d="m 217.02965,123.17413 c -1.85,-0.14 -2.57,0.68 -2.35,2.48 0.08,0.69 0,1.4 0,2.11 -0.06,2.83 -0.24,3 -3.36,2.98 -1.76,0.25 -2.65,-0.41 -2.65,-2.63 0.01,-4.76 -0.1,-4.83 -4.7,-5 -1.84,-0.07 -3.09,-0.27 -3,-2.59 0.07,-2.14 1.07,-2.64 3.02,-2.65 4.48,-0.04 4.8,-0.32 4.67,-4.83 -0.06,-2.3 0.79,-2.93 2.95,-2.96 2.3,-0.03 3.2,0.64 3.12,3.09 -0.13,4.44 -1.04,4.82 4.65,4.74 1.53,-0.02 3,-0.2 2.94,2.2 -0.05,2.1 -0.54,3.27 -2.89,2.98 -0.78,-0.1 -1.6,0.13 -2.4,0.08 z"
     id="path170" />
  <path
     class="cls-13"
     d="m 258.16965,276.32413 c 1.04,-1.24 2.67,0.52 3.46,1.79 2.97,4.81 6.64,9.01 10.75,12.86 0.43,0.41 0.94,0.74 1.41,1.11 -5.52,2.63 -10.47,6.05 -14.79,10.36 -0.3,0.29 -0.58,0.58 -0.87,0.88 -2.88,-2.7 -5,-6.17 -8.39,-8.36 -0.17,-1.14 0.57,-1.89 1.24,-2.62 0.76,-0.83 1.09,-1.65 0.36,-2.65 1.99,-0.94 1.42,-2.8 1.27,-4.25 -0.48,-4.5 3.3,-6.43 5.56,-9.12 z"
     id="path171" />
  <path
     class="cls-10"
     d="m 446.71965,369.65413 c -0.02,-5.38 -0.03,-10.77 -0.05,-16.15 0.54,0.03 1.07,0.06 1.61,0.1 0.03,5.37 0.05,10.74 0.08,16.12 -0.55,-0.03 -1.09,-0.05 -1.64,-0.07 z"
     id="path172" />
  <path
     class="cls-16"
     d="m 98.45965,380.74413 c -0.01,6.12 4.47,10.72 10.42,10.72 5.78,0 10.62,-4.68 10.66,-10.29 0.04,-5.68 -4.77,-10.77 -10.24,-10.83 -5.94,-0.08 -10.83,4.62 -10.84,10.4 z m 64.16,10.06 c 0.97,5.95 2.7,11.76 3.25,17.79 -6.48,0.05 -12.97,0.17 -19.45,0.12 -1.82,-0.02 -2.47,0.36 -2.29,2.31 0.21,2.27 -0.01,4.58 -0.04,6.88 -23.98,0 -47.97,-0.07 -71.959997,0.08 -3.26,0.02 -5.41,-0.66 -6.31,-3.93 -0.32,-7.12 -2.44,-13.93 -3.78,-20.86 -3.15,-16.3 -6.55,-32.55 -9.8,-48.83 -0.47,-2.38 1.26,-3.85 2.62,-5.42 1.1,0.04 2.21,0.11 3.31,0.11 29.61,0.01 59.209997,0.01 88.819997,0.01 4.57,0 5.36,0.64 6.31,5.02 0.5,2.34 1.08,4.66 1.47,7.02 1.22,7.38 3.55,14.57 3.94,22.1 -4.8,0.03 -9.62,0.2 -14.42,0.06 -2.26,-0.07 -2.84,0.87 -2.57,2.81 0.25,1.83 -1.02,4.52 2.65,4.41 4.31,-0.12 8.62,-0.05 12.92,-0.06 1.16,0.03 2.32,0.07 3.48,0.11 l 0.15,0.03 c 0.17,3.48 1.14,6.83 1.7,10.24 z"
     id="path173" />
  <path
     class="cls-11"
     d="m 413.36965,147.30413 c 1.88,0.04 2.59,1.53 3.65,3.03 -2.14,0.12 -3.26,-0.87 -4.01,-2.34 -0.07,-0.14 0.24,-0.69 0.36,-0.69 z"
     id="path174" />
  <path
     class="cls-14"
     d="m 393.80965,110.40413 c -1.65,-1.44 -2.36,-2.75 -1.7,-5.12 0.96,1.8 2.69,2.7 1.7,5.12 z"
     id="path175" />
  <path
     class="cls-11"
     d="m 220.39965,101.57413 c -1.25,0.66 -2.54,1.21 -3.93,-0.26 1.44,-0.83 2.62,-1.63 4.04,-0.76 0.28,0.17 0.33,0.79 -0.11,1.02 z"
     id="path176" />
  <path
     class="cls-14"
     d="m 351.62965,86.884134 c 0.59,-0.19 1.5,0.29 1.35,0.78 -0.42,1.36 -1.93,1 -2.81,1.46 -0.69,-0.08 -1.67,0.06 -1.48,-0.71 0.34,-1.42 1.88,-1.17 2.94,-1.53 z"
     id="path177" />
  <polygon
     class="cls-14"
     points="108.19,550.26 108.2,550.26 108.2,550.27 "
     id="polygon177"
     transform="translate(-5.2003472,-164.72587)" />
  <path
     class="cls-11"
     d="m 302.02965,111.44413 c 0.52,-0.23 1.41,0.2 1.12,0.88 -0.62,1.46 -2.33,0.68 -3.32,1.34 -0.76,0.03 -1.51,-0.29 -1.2,-0.92 0.66,-1.33 2.27,-0.78 3.4,-1.3 z"
     id="path178" />
  <path
     class="cls-11"
     d="m 82.449653,273.89413 c 0.4,-1.26 0.68,-2.67 1.98,-3.35 0.32,-0.17 0.71,0.41 0.63,0.78 -0.29,1.23 -0.61,2.47 -1.77,3.17 -0.48,-0.01 -0.98,-0.18 -0.84,-0.6 z"
     id="path179" />
  <path
     class="cls-8"
     d="m 200.76965,341.16413 c -5.83,7.28 -3.38,5.92 -10.5,0.81 -1.39,-1 -1.73,-2.01 -0.31,-3.36 1.06,-1.02 1.71,-2.45 3.01,-3.28 3.32,0.9 5.4,3.56 7.95,5.57 -0.05,0.09 -0.09,0.18 -0.15,0.26 z"
     id="path180" />
  <path
     class="cls-13"
     d="m 165.94965,380.60413 c -1.68,-0.57 -3.35,-0.4 -5.03,-0.04 l -0.15,-0.03 c -1.13,-0.81 -2.3,-0.65 -3.48,-0.11 -4.3,0.01 -8.61,-0.06 -12.92,0.06 -3.67,0.11 -2.4,-2.58 -2.65,-4.41 -0.27,-1.94 0.31,-2.88 2.57,-2.81 4.8,0.14 9.62,-0.03 14.42,-0.06 h 6.66 c 12.69,0.04 25.38,0.02 38.07,0.2 1.64,0.02 4.52,-1.65 4.68,2.15 0.18,4.36 -0.03,4.65 -4.51,5.08 -2.13,-0.3 -4.27,-0.39 -6.4,0.01 -3.4,-0.81 -6.81,-0.42 -10.21,-0.08 -7.02,0.01 -14.04,0.03 -21.05,0.04 z"
     id="path181" />
  <path
     class="cls-16"
     d="m 248.90965,396.99413 c 4.26,-4.63 8.14,-9.59 11.04,-15.23 0.16,-0.31 0.62,-0.46 0.93,-0.68 0.26,3.67 1.01,7.4 0.64,11.01 -0.35,3.31 -0.48,6.59 -0.38,9.86 0.15,4.84 -1.08,9.51 -1.24,14.29 -0.06,1.51 -0.89,1.66 -1.82,1.66 -0.24,0 -0.48,-0.01 -0.72,-0.01 -6.32,0.02 -12.64,0.03 -18.95,0 -1.72,-0.01 -3.4,0.04 -5.03,0.61 v -9.57 c 6.29,-2.53 11.06,-7.09 15.53,-11.94 z"
     id="path182" />
  <path
     class="cls-11"
     d="m 396.14965,116.00413 c -0.29,-0.52 -0.15,-1.09 0.28,-1.52 1.45,0.38 1.54,1.58 1.9,2.54 0.18,0.5 0.35,1.44 -0.41,1.41 -1.36,-0.06 -1.26,-1.55 -1.77,-2.43 z"
     id="path183" />
  <path
     class="cls-4"
     d="m 396.18965,369.24413 c 0.78,-0.18 1.45,0.07 2.04,0.57 -0.03,1.31 -0.06,2.62 -0.09,3.94 -0.66,0.03 -1.33,0.07 -2,0.1 0.02,-1.53 0.03,-3.07 0.05,-4.61 z"
     id="path184" />
  <path
     class="cls-11"
     d="m 169.49965,137.11413 c -0.69,1.08 -0.61,2.75 -2.26,3.11 -0.46,0.1 -0.74,-0.43 -0.61,-0.78 0.48,-1.24 0.76,-2.69 2.25,-3.17 0.46,-0.15 0.53,0.44 0.62,0.84 z"
     id="path185" />
  <path
     class="cls-11"
     d="m 225.81965,100.80413 c 1.42,-1.03 2.73,-0.88 4.39,-0.12 -1.56,1.25 -2.89,1.06 -4.39,0.12 z"
     id="path186" />
  <path
     class="cls-5"
     d="m 165.91965,244.11413 c 0,1.52 0.15,3.21 -1.87,3.55 -1.76,0.29 -3.57,0.32 -5.36,0.46 q -6.04,-0.49 -6.04,5.44 c 0,1.6 -0.02,3.21 0,4.81 0.03,1.5 -0.07,2.84 -2.08,2.95 -1.76,0.1 -2.95,-0.1 -3.44,-2.29 -0.59,-2.6 -0.59,-5.19 -0.4,-7.75 0.21,-2.77 -0.94,-3.52 -3.42,-3.41 -2.4,0.1 -4.81,-0.04 -7.21,0.03 -2.11,0.07 -2.43,-1.1 -2.43,-2.86 0,-1.76 0.52,-2.6 2.4,-2.53 2.61,0.09 5.21,-0.02 7.82,0.03 1.98,0.03 2.89,-0.69 2.82,-2.84 -0.09,-2.69 -0.15,-5.39 0.23,-8.09 0.32,-2.2 1.47,-2.82 3.49,-2.66 2.1,0.15 2.28,1.47 2.24,3.14 -0.07,2.7 0.07,5.41 -0.05,8.11 -0.08,1.75 0.66,2.34 2.25,2.33 2.91,-0.03 5.82,-0.02 8.72,0.01 1.08,0.02 2.34,-0.12 2.33,1.57 z"
     id="path187" />
  <path
     class="cls-13"
     d="m 295.38965,241.44413 -0.03,0.06 v -0.02 l 0.02,-0.03 h 0.01 z"
     id="path188" />
  <path
     class="cls-11"
     d="m 139.47965,213.18413 c 0.12,-0.03 0.5,0.44 0.46,0.58 -0.47,1.48 -1.58,2.16 -3.39,2.53 0.12,-0.47 0.14,-0.56 0.17,-0.65 0.48,-1.32 1.39,-2.17 2.76,-2.46 z"
     id="path189" />
  <path
     class="cls-7"
     d="m 219.39965,323.28413 c -2.58,3.27 -5.72,6.11 -7.73,9.83 -2.25,-0.75 -3.18,-3.63 -5.87,-3.67 -3.01,-4.24 -5.63,-8.72 -8.12,-13.27 6.01,-6.58 11.4,-13.67 17.05,-20.54 5.33,-6.5 10.55,-13.08 15.85,-19.61 0.42,-0.53 1.06,-0.88 1.6,-1.32 5.24,4.34 10.48,8.67 15.73,13.01 -1.58,3.4 -4.52,5.74 -6.78,8.6 -4.28,5.4 -8.65,10.73 -13,16.07 -2.93,3.62 -5.85,7.24 -8.73,10.9 z"
     id="path190" />
  <path
     class="cls-8"
     d="m 187.69965,329.58413 c -1.95,0.85 -3.62,3.62 -5.57,2.74 -2.36,-1.08 -3.06,-4.25 -4.48,-6.51 -0.69,-1.1 -0.04,-1.83 0.93,-2.41 1.62,-0.97 3.21,-1.98 4.82,-2.98 1.6,2.94 3.2,5.89 4.8,8.83 -0.16,0.11 -0.32,0.25 -0.5,0.33 z"
     id="path191" />
  <path
     class="cls-5"
     d="m 409.28965,383.66413 c 4,-0.8 8,-0.51 12,0 -0.01,4.75 -0.02,9.5 -0.04,14.24 h -11.96 z"
     id="path192" />
  <path
     class="cls-13"
     d="m 256.32965,245.53413 c 0.97,-4.92 4.69,-6.97 8.93,-8.26 0.43,-0.13 0.83,-0.2 1.19,-0.2 1.56,0 2.42,1.22 2.53,3.16 -3.88,2.57 -8.18,4.15 -12.65,5.3 z"
     id="path193" />
  <path
     class="cls-11"
     d="m 476.21965,280.15413 c -0.27,-1.28 -0.39,-2.55 0.67,-3.58 0.35,-0.34 0.82,-0.22 0.92,0.2 0.37,1.48 -0.31,2.59 -1.21,3.65 -0.25,-0.18 -0.36,-0.22 -0.38,-0.27 z"
     id="path194" />
  <path
     class="cls-15"
     d="m 309.93965,391.19413 c 3.66,1.04 5.29,3.33 5.91,6.72 0.83,4.5 1.52,9.03 2.34,13.53 0.78,4.26 -0.46,6.64 -5.38,6.55 -8.42,-0.15 -16.84,-0.07 -25.27,-0.08 -0.36,-0.7 -1.04,-1.39 -1.04,-2.08 0.01,-2.37 -1.07,-2.23 -2.81,-1.65 -1.5,0.5 -2.92,-0.05 -4.03,-1.22 -0.02,-2.16 -0.5,-3.68 -3.2,-2.51 -0.6,0.26 -1.35,0.16 -2.03,0.23 -3.01,-2.09 -2.92,-5.61 0.3,-8.27 1.14,-0.94 2.44,-1.72 3.73,-2.45 1.42,-0.8 2.19,-1.99 2.48,-3.53 0.95,-4.92 2.82,-6.37 7.97,-6.13 -0.22,1.79 -2.14,2.73 -2.48,4.83 4.63,-1.3 8.57,-3.11 11.08,-7.17 4.2,0.85 8.3,2.06 12.43,3.23 z"
     id="path195" />
  <path
     class="cls-14"
     d="m 335.07965,94.524134 c 0.52,-0.04 0.61,0.36 0.61,0.81 -0.65,0.87 -1.54,1.44 -2.63,1.6 -0.56,0.07 -1.04,-0.35 -0.66,-0.88 0.63,-0.88 1.57,-1.44 2.68,-1.53 z"
     id="path196" />
  <path
     class="cls-14"
     d="m 494.37965,192.01413 c -1.19,-0.4 -1.28,-1.61 -1.65,-2.58 -0.22,-0.58 0.1,-0.91 0.76,-0.99 1.22,0.48 1.5,1.66 1.78,2.77 0.13,0.52 -0.33,1 -0.89,0.8 z"
     id="path197" />
  <path
     class="cls-9"
     d="m 310.98965,280.48413 c 5.05,-4.39 7.27,-10.39 9.42,-16.44 0.05,-0.15 0.32,-0.23 0.48,-0.34 0.91,3.63 1.82,7.25 2.73,10.88 -3.06,3.64 -7.01,5.82 -11.56,7 -0.35,0.09 -0.84,0.1 -1.12,-0.08 -0.4,-0.26 -0.27,-0.74 0.05,-1.02 z"
     id="path198" />
  <path
     class="cls-2"
     d="m 398.26965,353.67413 c 0.72,0 1.45,0.01 2.17,0.01 l -0.21,27.39 h -1.83 c -0.09,-2.44 -0.17,-4.88 -0.26,-7.32 0.03,-1.32 0.06,-2.63 0.09,-3.94 0.01,-5.38 0.03,-10.76 0.04,-16.14 z"
     id="path199" />
  <path
     class="cls-14"
     d="m 116.29965,384.44413 c -0.57,-3.25 -2.97,-4.37 -8.06,-3.57 2.63,-2.55 6.21,0.84 8.71,-1.85 0.64,2.21 -0.69,3.69 -0.65,5.42 z"
     id="path200" />
  <path
     class="cls-4"
     d="m 425.61965,356.49413 c 1.09,-0.09 2.12,0.05 2.23,1.38 0.09,1.13 -0.71,1.55 -1.73,1.64 -0.94,-0.88 -0.54,-1.98 -0.5,-3.02 z"
     id="path201" />
  <path
     class="cls-7"
     d="m 190.03965,405.10413 c 0.02,1.23 -0.25,2.35 -0.67,3.47 l -1.77,0.06 c -0.25,-0.27 -0.44,-0.17 -0.6,0.1 -0.53,0.01 -1.05,0.01 -1.58,0.02 l -0.02,-1.56 c 0.51,0 0.96,-0.14 1.21,-0.71 0.52,-1.19 -0.84,-1.68 -1.52,-2.26 -3.37,-2.87 -5.64,-6.25 -5.19,-10.86 0.18,-1.87 0.71,-3.71 1.08,-5.56 2.02,-2.4 4.34,-4.55 6.02,-7.24 3.4,-0.34 6.81,-0.73 10.21,0.08 -0.11,0.17 -0.19,0.43 -0.34,0.48 -6.22,2.08 -7.12,6.98 -6.88,12.63 0.16,3.78 -0.01,7.56 0.05,11.35 z"
     id="path202" />
  <path
     class="cls-9"
     d="m 259.30965,228.81413 c 10.27,0.78 20.2,-1.25 30.09,-3.61 h 2.99 c -1.92,1.79 -2.79,3.42 -1.15,5.38 -5.27,0.31 -10.43,1.36 -15.63,2.13 -3.13,0.47 -6.25,1.14 -9.4,1.38 -1.4,0.12 -2.8,0.14 -4.21,0.03 -4.24,-0.34 -8.45,-1.13 -12.67,-1.72 -0.41,-1.66 -0.24,-3.33 -0.13,-5.01 0.11,-1.47 0.89,-1.84 2.2,-1.42 2.28,1.95 5.02,2.62 7.91,2.84 z"
     id="path203" />
  <path
     class="cls-11"
     d="m 475.79965,298.48413 c -1.17,-0.34 -1.33,-1.57 -1.47,-2.62 -0.07,-0.54 -0.16,-1.4 0.64,-1.37 1.79,0.07 0.82,1.94 1.59,2.47 0.04,0.86 -0.11,1.7 -0.76,1.52 z"
     id="path204" />
  <path
     class="cls-2"
     d="m 427.96965,413.03413 c -3.25,-0.03 -6.49,-0.08 -9.73,-0.12 0.77,-3.04 1.2,-6.2 2.94,-8.93 0.14,0.58 0.2,1.19 0.42,1.74 1.08,2.71 4.01,4.88 6.4,4.88 z"
     id="path205" />
  <path
     class="cls-4"
     d="m 428.65965,375.76413 c 0.13,-0.8 0.68,-1.16 1.5,-1.16 0.64,0.09 1.17,0.41 1.16,1.1 -0.02,1.05 -0.81,1.26 -1.67,1.22 -0.72,-0.03 -1.12,-0.43 -0.99,-1.16 z"
     id="path206" />
  <path
     class="cls-8"
     d="m 180.94965,314.23413 c -1.46,0.27 -3,0.32 -4.36,0.84 -2.87,1.11 -3.92,-0.08 -4.41,-2.77 -1.3,-7.02 -2.89,-6.21 5.46,-7.66 0.1,-0.02 0.2,-0.01 0.3,-0.02 1.54,3.04 0.85,6.77 3.01,9.61 z"
     id="path207" />
  <path
     class="cls-2"
     d="m 423.15965,381.10413 c -0.04,-3.99 -0.08,-7.97 -0.12,-11.96 -0.02,-5.18 -0.04,-10.37 -0.06,-15.55 1.09,0 2.18,-0.01 3.27,-0.01 -0.3,0.95 -0.94,1.83 -0.63,2.91 -0.04,1.04 -0.44,2.14 0.5,3.02 0.5,7.18 -0.96,14.37 -0.01,21.55 -0.98,0.02 -1.96,0.03 -2.95,0.04 z"
     id="path208" />
  <path
     class="cls-5"
     d="m 389.55965,388.89413 c 0,-6.12 0.2,-6.28 6.45,-5.27 v 14.29 c -7.5,0.58 -6.98,-0.11 -6.44,-6.05 0.09,-0.98 -0.01,-1.98 -0.01,-2.97 z"
     id="path209" />
  <path
     class="cls-11"
     d="m 173.52965,128.88413 c 0.48,-0.06 0.66,0.32 0.6,0.78 -0.44,1.01 -0.82,2.14 -1.97,2.49 -0.55,0.17 -0.95,-0.47 -0.69,-0.97 0.48,-0.92 0.74,-2.14 2.06,-2.3 z"
     id="path210" />
  <path
     class="cls-1"
     d="m 102.81965,376.50413 c 2.81,-1.65 5.6,-3.43 9.14,-1.98 -3.23,-2.3 -6.75,-1.73 -9.64,1.42 -2.98,3.48 -3.22,6.33 -0.79,9.46 0.33,0.25 0.67,0.5 1,0.75 2.12,1.79 4.24,1.03 6.99,-0.08 -2.31,-0.2 -4.26,0.69 -5.96,-0.17 -0.19,-0.11 -0.38,-0.23 -0.56,-0.37 h -0.01 c -0.3,-0.23 -0.6,-0.45 -0.9,-0.67 -2.63,-3.04 -0.35,-5.65 0.73,-8.36 z m 6.48,-6.16 c 5.47,0.06 10.28,5.15 10.24,10.83 -0.04,5.61 -4.88,10.28 -10.66,10.29 -5.95,0 -10.43,-4.6 -10.42,-10.72 0.01,-5.78 4.9,-10.48 10.84,-10.4 z m 7.65,8.68 c -2.5,2.69 -6.08,-0.7 -8.71,1.85 5.09,-0.8 7.49,0.32 8.06,3.57 -0.04,-1.73 1.29,-3.21 0.65,-5.42 z"
     id="path211" />
  <path
     class="cls-15"
     d="m 185.08965,404.22413 c 0.68,0.58 2.04,1.07 1.52,2.26 -0.25,0.57 -0.7,0.71 -1.21,0.71 -0.51,0 -1.05,-0.13 -1.51,-0.13 -3.5,0.05 -6.99,-0.01 -10.49,0.03 -1.23,0.02 -2.21,-0.26 -2.47,-1.6 -1.09,-5.55 -2.15,-11.1 -3.18,-16.66 -0.08,-0.46 0.12,-0.98 0.18,-1.47 4.4,-1.21 8.75,-1.06 13.05,0.44 -0.37,1.85 -0.9,3.69 -1.08,5.56 -0.45,4.61 1.82,7.99 5.19,10.86 z"
     id="path212" />
  <path
     class="cls-16"
     d="m 280.13965,248.85413 c -0.76,2.82 0.12,5.73 -0.65,8.5 -0.27,0 -0.53,-0.01 -0.8,-0.02 0,-3.53 -0.39,-7.11 0.1,-10.57 0.55,-3.78 4.28,-5.48 7.77,-3.91 3.41,1.52 6.1,3.92 7.59,7.6 -1.41,-1.14 -2.8,-2.3 -4.23,-3.42 -0.78,-0.61 -1.56,-1.28 -2.44,-1.69 -4.33,-2.04 -6.08,-1.09 -7.34,3.51 z"
     id="path213" />
  <path
     class="cls-5"
     d="m 311.26965,359.91413 c 0.65,1.75 1.3,3.49 1.98,5.27 l -2.05,0.78 c -0.07,-0.33 -0.25,-0.62 -0.61,-0.85 -0.36,-0.22 -1.27,-0.28 -1.36,-0.11 -1.06,1.98 -3.44,2.23 -4.78,4.12 -5.05,7.15 -9.76,14.57 -15.54,21.18 -5.15,-0.24 -7.02,1.21 -7.97,6.13 -0.29,1.54 -1.06,2.73 -2.48,3.53 -1.29,0.73 -2.59,1.51 -3.73,2.45 -3.22,2.66 -3.31,6.18 -0.3,8.27 -0.8,1.66 -1.61,3.29 -2.18,5.07 -0.47,1.45 -0.27,2.09 0.42,2.26 l -12.16,-0.03 -2.43,-0.08 c 0.93,0 1.76,-0.15 1.82,-1.66 0.16,-4.78 1.39,-9.45 1.24,-14.29 -0.1,-3.27 0.03,-6.55 0.38,-9.86 0.37,-3.61 -0.38,-7.34 -0.64,-11.01 0.26,-0.76 0.43,-1.55 0.78,-2.26 4.85,-9.7 7.18,-19.94 6,-30.75 -1.33,-12.31 -5.14,-23.57 -15.11,-31.85 0.33,-3.68 2.1,-6.75 3.87,-9.81 0.59,-1.02 1.18,-2.04 1.72,-3.09 0.28,-0.3 0.57,-0.59 0.86,-0.88 4.32,-4.31 9.27,-7.73 14.79,-10.36 3.85,-0.94 7.24,-3.29 11.26,-3.72 0.36,1.24 0.63,2.52 1.08,3.73 8.37,22.61 16.75,45.22 25.14,67.82 z"
     id="path214" />
  <path
     class="cls-11"
     d="m 497.58965,357.94413 c -0.81,-1.23 -0.19,-2.47 0.14,-3.69 0.08,-0.28 0.17,-0.55 0.31,-0.98 0.25,0.23 0.51,0.35 0.58,0.55 0.54,1.34 0.58,2.7 -0.06,4.02 -0.2,0.41 -0.73,0.47 -0.97,0.1 z"
     id="path215" />
  <path
     class="cls-9"
     d="m 249.59965,237.20413 -0.17,-0.18 0.11,-0.2 c 0.1,0.11 0.12,0.24 0.06,0.38 z"
     id="path216" />
  <path
     class="cls-10"
     d="m 260.67965,247.20413 c -1.02,0.43 -2.43,0.53 -2.62,2.06 -2.51,0.79 -3.6,3.18 -5.42,4.77 -0.59,-0.91 -1.18,-1.81 -1.77,-2.71 -1.16,-1.79 -0.88,-3.16 1.19,-3.99 1.53,-0.36 2.98,-0.9 4.27,-1.8 4.47,-1.15 8.77,-2.73 12.65,-5.3 2.55,-0.16 4.72,-1.47 6.96,-2.45 5.35,-2.34 11.02,-3.93 16.06,-6.98 2.28,-0.35 4.45,-0.99 6.54,-1.83 l 0.87,2.04 c -12.87,5.5 -25.83,10.78 -38.73,16.19 z"
     id="path217" />
  <path
     class="cls-7"
     d="m 226.07965,339.64413 c 0.28,1.32 0.57,2.64 0.86,3.96 -0.99,2.47 -3.34,1.84 -4.46,1.01 -1.51,-1.11 0.17,-2.43 1.13,-3.33 0.71,-0.67 1.64,-1.1 2.47,-1.64 z"
     id="path218" />
  <path
     class="cls-13"
     d="m 187.95965,301.21413 c 3.33,4.93 6.02,10.27 9.72,14.96 2.49,4.55 5.11,9.03 8.12,13.27 0.78,1.37 1.52,2.76 2.33,4.11 2.03,3.34 1.7,4.01 -2.45,4.83 -5.29,-8.59 -10.51,-17.23 -15.88,-25.77 -2.32,-3.7 -4.26,-7.66 -7.17,-10.97 0.39,-1.45 1.3,-2.62 2.72,-2.87 1.66,-0.29 1.93,1.43 2.61,2.44 z"
     id="path219" />
  <path
     class="cls-11"
     d="m 482.82965,262.09413 c 0.46,-1.17 0.81,-2.52 2.12,-3.01 0.53,-0.19 0.79,0.41 0.69,1.05 -0.57,1.03 -0.76,2.46 -2.15,2.91 -0.61,0.19 -0.86,-0.45 -0.66,-0.95 z"
     id="path220" />
  <path
     class="cls-13"
     d="m 194.32965,330.50413 c 3.89,2.25 7.04,5.47 10.66,8.06 -0.95,1.48 -2.33,2.22 -4.07,2.34 -2.55,-2.01 -4.63,-4.67 -7.95,-5.57 0.16,-1.69 0.45,-3.35 1.36,-4.83 z"
     id="path221" />
  <path
     class="cls-2"
     d="m 249.73965,294.96413 c 3.39,2.19 5.51,5.66 8.39,8.36 -0.53,1.05 -1.12,2.07 -1.71,3.09 -1.77,3.06 -3.54,6.13 -3.87,9.81 -2.08,-0.49 -2.92,-3.05 -5.25,-3.13 -1.29,-1.96 -3.16,-3.3 -4.98,-4.71 -1,-0.77 -2.52,-1.82 -1.53,-3.16 2.7,-3.65 5.1,-7.6 8.95,-10.26 z"
     id="path222" />
  <path
     class="cls-11"
     d="m 207.03965,103.83413 c 1.67,-1.82 3.18,-1.78 5.22,-1.3 -1.61,1.33 -2.97,2.02 -5.22,1.3 z"
     id="path223" />
  <path
     class="cls-5"
     d="m 362.84965,120.05413 c 2.27,-0.44 3.55,0.74 3.64,3.39 q 0.15,4.18 4.12,4.22 c 3.05,0.02 4.57,2.48 3.17,5.17 -0.75,1.43 -2.14,0.77 -3.23,0.78 -4.21,0.03 -4.3,0.06 -4.09,4.11 0.08,1.86 0.26,3.68 -2.54,3.71 -2.67,0.04 -3.6,-1.26 -3.46,-3.7 0.28,-4.94 -0.71,-4.21 -4.08,-4.04 -2.2,0.11 -3.06,-0.72 -3.16,-2.85 -0.1,-2.19 0.92,-3.4 2.97,-3.12 3.38,0.45 4.64,-0.78 4.55,-4.15 -0.04,-1.31 0.1,-3.13 2.11,-3.52 z"
     id="path224" />
  <path
     class="cls-6"
     d="m 249.73965,294.96413 c -3.85,2.66 -6.25,6.61 -8.95,10.26 -0.99,1.34 0.53,2.39 1.53,3.16 1.82,1.41 3.69,2.75 4.98,4.71 -2.08,-0.04 -1.83,2.45 -3.31,3.06 -0.25,-0.42 -0.51,-0.84 -0.76,-1.26 -1.85,-3.03 -5.31,-4.73 -8.35,-4.08 -2.04,0.44 -3.79,1.51 -4.99,3 l -1.76,-1.43 c 4.35,-5.34 8.72,-10.67 13,-16.07 2.26,-2.86 5.2,-5.2 6.78,-8.6 1.14,0.66 2.29,1.32 3.43,1.98 0.73,1 0.4,1.82 -0.36,2.65 -0.67,0.73 -1.41,1.48 -1.24,2.62 z"
     id="path225" />
  <path
     class="cls-6"
     d="m 421.44965,368.53413 c 0.53,0.2 1.06,0.41 1.59,0.61 0.04,3.99 0.08,7.97 0.12,11.96 -0.6,0 -1.21,0 -1.82,-0.01 0.04,-4.18 0.08,-8.37 0.11,-12.56 z"
     id="path226" />
  <path
     class="cls-10"
     d="m 399.26965,405.21413 c -0.03,0.85 0.66,1.17 1.43,1.2 0.85,0.05 1.32,-0.38 1.29,-1.25 -0.01,-0.77 -0.31,-1.35 -1.3,-1.53 -0.66,0.26 -1.39,0.67 -1.42,1.58 z m 3.49,5.4 c -3.7,0.07 -6.49,-2.83 -6.71,-7.01 -0.07,-1.2 -0.05,-2.4 -0.07,-3.6 4.62,-0.01 9.25,-0.02 13.87,-0.03 -0.84,1.04 -0.57,2.27 -0.59,3.45 -0.1,4.18 -2.76,7.12 -6.5,7.19 z"
     id="path227" />
  <path
     class="cls-4"
     d="m 456.61965,375.86413 c -0.23,0.8 -0.8,1.08 -1.55,1.06 -0.85,-0.03 -1.24,-0.5 -1.18,-1.32 0.07,-0.89 0.69,-1.09 1.45,-1.02 0.77,0.08 1.25,0.48 1.28,1.28 z"
     id="path228" />
  <path
     class="cls-3"
     d="m 258.07965,249.25413 v 0.04 h -0.03 z"
     id="path229" />
  <path
     class="cls-2"
     d="m 461.65965,399.89413 c 6.77,-0.1 7.29,0.58 5.58,7.36 -1.68,1.51 -2.53,3.43 -2.82,5.64 -3.63,0.02 -7.25,0.05 -10.88,0.07 l -0.02,-2.34 c 2.62,0 4.93,-2 5.91,-5 0.61,-1.87 0.22,-3.75 0.43,-5.62 0.6,-0.04 1.2,-0.1 1.8,-0.11 z"
     id="path230" />
  <path
     class="cls-5"
     d="m 421.17965,400.01413 v 3.97 c -1.74,2.73 -2.17,5.89 -2.94,8.93 -5.16,0.03 -10.31,0.04 -15.46,0.08 l -0.02,-2.38 c 3.74,-0.07 6.4,-3.01 6.5,-7.19 0.02,-1.18 -0.25,-2.41 0.59,-3.45 3.78,0.01 7.56,0.03 11.33,0.04 z"
     id="path231" />
  <path
     class="cls-9"
     d="m 315.13965,244.87413 c -1.64,4.73 -4.97,6.32 -8.51,4.25 3.05,-1.52 5.78,-2.89 8.51,-4.25 z"
     id="path232" />
  <path
     class="cls-14"
     d="m 497.99965,229.69413 c -1.11,-2.08 -1.12,-3.53 -0.12,-4.9 0.09,-0.12 0.7,-0.1 0.76,0.02 0.84,1.59 0.15,2.97 -0.64,4.88 z"
     id="path233" />
  <path
     class="cls-11"
     d="m 478.38965,170.51413 c -2.38,0.99 -3.36,-0.23 -4.35,-1.32 -0.08,-0.08 0.12,-0.65 0.25,-0.68 1.7,-0.29 2.61,0.86 4.1,2 z"
     id="path234" />
  <path
     class="cls-3"
     d="m 258.07965,249.25413 -0.03,0.04 c 0,0 0,-0.02 0.01,-0.03 0.01,-0.01 0.01,-0.01 0.02,-0.01 z"
     id="path235" />
  <path
     class="cls-16"
     d="m 260.98965,251.01413 c -1.91,0.15 -2.31,2.08 -3.55,3.01 -0.39,-0.24 -0.79,-0.48 -1.18,-0.72 0.34,-1.46 1.79,-2.41 1.82,-4.01 1.2,-0.22 2.39,-0.43 3.59,-0.64 l 0.05,0.05 c -0.4,0.72 -0.83,1.44 -0.73,2.31 z"
     id="path236" />
  <path
     class="cls-12"
     d="m 464.41965,412.89413 c 0.29,-2.21 1.14,-4.13 2.82,-5.64 0.84,1.39 0.49,2.94 0.39,4.39 -0.16,2.39 -2,1.16 -3.21,1.25 z"
     id="path237" />
  <path
     class="cls-1"
     d="m 309.62965,32.074134 c -0.34,2.55 0.81,3.36 3.26,3.2 2.16,-0.13 4.41,0.07 4.55,3.03 0.09,2.04 -0.87,2.92 -3.08,2.9 -4.39,-0.04 -4.39,0.09 -4.71,4.37 -0.15,2.02 -0.33,3.98 -3.18,3.15 -2.26,0.49 -2.79,-0.6 -2.85,-2.61 -0.12,-4.39 -0.21,-4.47 -4.38,-4.95 -2.14,-0.24 -3.36,-1.19 -3.37,-3.37 -0.01,-2.41 1.66,-2.56 3.52,-2.57 4.12,-0.04 4.18,-0.08 4.24,-4.3 0.02,-1.79 0.4,-2.81 2.49,-2.77 1.8,0.04 3.5,-0.16 3.36,2.43 -0.02,0.49 0.22,1.01 0.15,1.49 z"
     id="path238" />
  <path
     class="cls-5"
     d="m 341.47965,285.45413 c 2.06,-0.46 3.63,1.71 5.73,1.07 5.59,1.36 11.1,2.94 16.33,5.39 0.9,0.42 1.8,0.94 2.84,0.37 0.52,0.44 0.99,0.99 1.58,1.3 8.17,4.33 14.29,10.74 19.09,18.54 4.4,7.13 8.6,14.37 12.45,21.81 1.06,2.05 2.37,3.04 4.7,2.81 1.58,-0.16 3.22,-0.17 4.8,0.02 2.4,0.28 3.51,2.62 1.92,4.32 -1.55,1.66 -1.78,3.43 -1.71,5.49 0.07,2.3 -0.03,4.6 -0.06,6.9 -2.9,0.07 -5.81,0.14 -8.71,0.21 -0.72,0 -1.45,-0.01 -2.17,-0.01 -1.84,-0.39 -2.27,0.71 -2.26,2.2 0.05,4.46 0.12,8.91 0.18,13.37 -0.02,1.54 -0.03,3.08 -0.05,4.61 -0.05,2.4 -0.11,4.8 -0.16,7.19 -4.54,0.07 -9.09,0.14 -13.63,0.2 -1.53,-0.51 -1.53,-2.02 -1.92,-3.18 -5.55,-16.37 -11.05,-32.75 -16.61,-49.11 -0.25,-0.73 -0.03,-1.92 -1.41,-2.11 0,0.92 -0.11,1.81 0.02,2.67 1.13,7.47 2.32,14.92 3.45,22.39 1.49,9.83 2.84,19.67 4.43,29.48 0.85,5.2 0.52,5.93 -4.69,5.77 -8.51,-0.25 -16.95,0.75 -25.41,1.38 -2.29,0.17 -4.81,0 -7.25,0.94 0.91,1.07 1.87,0.69 2.7,0.71 4.6,0.11 9.14,-1 13.68,-1.08 11.69,-0.2 23.33,-1.52 35.03,-1.29 0,2.81 -0.01,5.62 -0.01,8.42 -0.49,0.44 -0.42,1 -0.37,1.57 -0.54,0.38 -1.51,-0.1 -1.75,0.84 -0.13,0.52 -0.04,1.14 0.58,1.16 2.11,0.06 1.63,1.58 1.65,2.8 0.02,2.61 -0.01,5.22 0.01,7.83 0.01,1.42 0.24,2.9 -2.02,2.63 -1,-0.12 -1.29,0.66 -1.45,1.54 -0.48,2.67 -0.18,3.47 2.15,3.65 l -99.33,-0.22 c 1.23,-0.05 2.47,-0.1 3.71,-0.12 8.43,0.01 16.85,-0.07 25.27,0.08 4.92,0.09 6.16,-2.29 5.38,-6.55 -0.82,-4.5 -1.51,-9.03 -2.34,-13.53 -0.62,-3.39 -2.25,-5.68 -5.91,-6.72 -4.13,-1.17 -8.23,-2.38 -12.43,-3.23 3.18,-4.46 6.35,-8.93 9.53,-13.39 1.63,-2.27 2.95,-4.7 3.98,-7.29 0.16,-0.42 0.27,-0.89 0.18,-1.32 l 2.05,-0.78 c 1.09,2.87 2.23,5.83 3.45,9.05 0.51,-1.71 0.8,-2.65 1.07,-3.59 5.55,-19.72 11.18,-39.42 16.62,-59.17 2.39,-8.66 5.24,-17.2 7.09,-26.02 z m -0.85,50.93 c 0.04,3.08 2.72,5.66 5.84,5.62 3.18,-0.03 5.64,-2.56 5.61,-5.76 -0.04,-3.19 -2.56,-5.67 -5.76,-5.63 -3.1,0.04 -5.73,2.71 -5.69,5.77 z"
     id="path239" />
  <path
     class="cls-11"
     d="m 124.60965,224.14413 c -0.37,1.54 -1.87,1.5 -3.02,1.86 -0.53,0.16 -1.03,-0.22 -0.83,-0.82 0.45,-1.33 1.86,-1.23 2.76,-1.75 0.63,-0.05 1.22,0.17 1.09,0.71 z"
     id="path240" />
</svg>
