<?xml version="1.0" encoding="UTF-8"?>
<svg id="Capa_1" xmlns="http://www.w3.org/2000/svg" viewBox="0 0 603.31 539.67">
  <defs>
    <style>
      .cls-1 {
        fill: #8990c7;
      }

      .cls-1, .cls-2, .cls-3, .cls-4, .cls-5, .cls-6, .cls-7, .cls-8, .cls-9, .cls-10, .cls-11, .cls-12 {
        fill-rule: evenodd;
      }

      .cls-2 {
        opacity: .2;
      }

      .cls-2, .cls-13, .cls-14 {
        isolation: isolate;
      }

      .cls-2, .cls-9, .cls-15 {
        fill: #00913f;
      }

      .cls-3 {
        fill: #222045;
      }

      .cls-4 {
        fill: #fff;
      }

      .cls-5 {
        fill: #c5cfd6;
      }

      .cls-6 {
        fill: #2e3676;
      }

      .cls-7 {
        fill: #5c63ab;
      }

      .cls-8 {
        fill: #b18b67;
      }

      .cls-10 {
        fill: #f4ceb7;
      }

      .cls-16 {
        fill: none;
        stroke: #00913f;
      }

      .cls-12 {
        fill: #dde3e9;
      }

      .cls-14 {
        fill: #e8e8e8;
        opacity: .89;
      }

      .cls-17 {
        opacity: .5;
      }
    </style>
  </defs>
  <ellipse id="Elipse_1" class="cls-14" cx="296.21" cy="476.47" rx="296.21" ry="63.2"/>
  <g id="Head_Front_Rad">
    <g id="Head">
      <path id="Trazado_2" class="cls-10" d="M368.37,98.52c-4.41-5.48-6.46-12.49-5.7-19.48,2.92-20.77,31.67-14.15,36.58-3.22,4.92,10.93,2.38,37.61-5.06,38.98-2.97.55-9.04-1.73-15.09-5.97l2,28.33-23.42-1.64,10.69-37.01Z"/>
    </g>
    <path id="hair" class="cls-3" d="M352.95,71.38c-.66-.87-1.11-1.87-1.33-2.94-.31-1.08-.57-2.18-.75-3.29-.55-2.24.01-4.6,1.52-6.35,1.4-1.2,3.19-1.83,5.03-1.77,1.18,0,2.34.23,3.43.68,1.08.44,1.98,1.23,3.01,1.75.12-2.39.85-4.71,2.12-6.74,1.21-1.77,3.18-2.86,5.32-2.97,2.17-.11,4.32.48,6.12,1.68.46.3.92.6,1.36.94.35.32.75.58,1.18.76.49.15.76-.12,1.11-.46.41-.4.86-.75,1.35-1.05,2.08-1.41,4.74-1.68,7.06-.71,1.09.49,2.03,1.27,2.7,2.26.59.9.96,2.28,1.81,2.94.36.28.65-.04,1.02-.26.55-.34,1.07-.71,1.62-1.03.76-.46,1.6-.77,2.47-.92,1.28-.2,3-.01,3.25,1.66.04.64,0,1.28-.14,1.9-.12.85-.24,1.7-.37,2.55-.09.64-.22,1.27-.38,1.89-.18.41-.25.86-.22,1.31.16.44,1.01.26,1.36.29.71.06,1.4.27,2.04.6.54.24.96.69,1.17,1.25.08.36.07.74-.04,1.09-.07.37-.07.75-.01,1.12.97-.4,4.35-1.21,4.64.51.01.6-.17,1.19-.53,1.66-.49.8-1.06,1.54-1.7,2.23-1.28,1.42-2.75,2.66-4.37,3.68,1.32.68,1.83,2.31,1.14,3.62-.19.36-.45.67-.77.91-.73.5-1.63.7-2.5.54-.33-.08-.66-.13-1-.15-.15.06-.31.1-.47.12-1.26-.07-2.51-.32-3.7-.74-2.1-.62-3.99-1.79-5.49-3.38-.3-.41-.77-.66-1.28-.7-.49-.03-.98.07-1.47.05-1.27-.2-2.49-.64-3.6-1.28-.22,1.68-.74,3.31-1.54,4.8-.63,1.16-1.77,1.25-2.89,1.28-3.58.09-7.13-.54-10.69-.78,3.4,1.02,6.94,1.59,10.29,2.75,1.52.52.26,1.48-.45,2.16-1.17,1.15-2.11,2.53-2.75,4.04-1.51-2.43-4.27-3.78-7.11-3.49-2.82.61-4.61,3.4-4,6.22.08.37.2.74.36,1.09,1.13,1.52,2.68,2.67,4.46,3.32-1.15,1.43-2.06,3.03-2.69,4.75-.36.85-1.04,1.53-1.89,1.89-.34.02-.66.13-.95.31-.33.29-.42.64-.83.89-1.74,1.01-3.95.68-5.33-.79-1.01-1.42-.83-3.37.44-4.58-1.61-.81-4.56-1.91-3.73-4.44-3.57-.49-11.88-6.92-6.77-10.84-2.53-1.68-4.71-5.5-2.79-8.6,1.67-2.21,4.34-3.43,7.1-3.24"/>
  </g>
  <path id="Leg" class="cls-10" d="M338.47,220.74l72.67,121.49,54.48,102.71h11.74l-91.29-224.2h-47.6Z"/>
  <g id="Accessories_Shoe_Flat-Sneaker">
    <path id="shoe" class="cls-11" d="M458.44,440.21c-.9,2.08-1.45,4.3-1.64,6.56.09,2.59.38,5.17.88,7.72h55.16c1.43-4.74.61-7.3-2.48-7.68s-5.65-.72-7.7-1.02l-25.64-11.43c-.49-.22-1.07,0-1.29.49h0s-.01.03-.01.03l-1.65,4c-2.16,1.15-4.54,1.83-6.98,2-2.1-.18-4.15-.78-6.02-1.76h0c-.98-.45-2.14-.02-2.59.96-.01.04-.03.09-.05.13Z"/>
  </g>
  <path id="Pant" class="cls-7" d="M450.49,428.5l22.64-6.84c-9.92-29.64-22.07-62.26-36.46-97.86-14.39-35.6-29.85-69.95-46.37-103.06h-63.92c17.02,39.26,36.53,77.39,58.41,114.16,19.56,32.78,41.52,64.07,65.7,93.6Z"/>
  <path id="Leg-2" class="cls-10" d="M333.69,220.74c-6.85,42.69-20.09,97.24-21.34,98.92-.83,1.12-30.79,11.16-89.89,30.12l2.54,10.35c70.47-10.17,107.6-18.05,111.39-23.67,5.69-8.41,34.1-74.88,45.1-115.73h-47.81Z"/>
  <path id="Pant-2" class="cls-1" d="M243.24,340.84l4.47,16.67c52.7,4.62,85,1.28,96.88-10.02,11.89-11.3,25.43-53.55,40.62-126.74h-60.94c-9.63,59.93-15.02,91.16-16.16,93.68s-22.76,11.32-64.88,26.42Z"/>
  <g id="Accessories_Shoe_Flat-Sneaker-2">
    <path id="shoe-2" class="cls-11" d="M225.36,345.48c-2.21-.52-4.48-.68-6.74-.48-2.54.54-5.03,1.28-7.45,2.21l9.58,54.32c4.92.59,7.29-.67,7.13-3.78-.16-3.11-.27-5.69-.32-7.75l6.8-27.23c.13-.52-.19-1.05-.71-1.19,0,0,0,0,0,0h-.03s-4.23-.93-4.23-.93c-1.5-1.93-2.58-4.15-3.18-6.52-.19-2.1.04-4.22.69-6.23h0c.27-1.04-.36-2.11-1.4-2.38-.05-.01-.09-.02-.14-.03Z"/>
  </g>
  <path id="Skin" class="cls-10" d="M425.75,211.11l26.74,27.98c6.99,3.12,13.52,7.18,19.41,12.08,1.11,1.44,2.27,4.15-3.14,2.77-5.41-1.39-11.15-2.6-12.24-.87s1.84,4.56-.14,6.81c-1.32,1.51-5.38-3.56-12.21-15.18l-28.19-17.98,9.75-15.59ZM288.39,177.2l16.42,6.06c-26.58,35.59-40.77,54.39-42.57,56.39-4.04,4.5-2.47,14.16-2.11,19.17-7.29.52-2.84-9.62-12.09-8.82-8.44.73-16.14,4.82-22.6-3.36-.8-1.01-1.05-3.8,2.34-4.67,8.45-2.18,21.15-6.74,23.44-8.93,3.12-2.99,15.51-21.6,37.17-55.84Z"/>
  <path id="Back-Arm" class="cls-5" d="M432.48,214.82c4.41.55,8.67,1.98,12.52,4.19,2.13,1.16,2.92,3.84,1.75,5.97-.65,1.19-1.81,2.02-3.15,2.24.77.8,1.55,1.6,2.33,2.39l-10.54,14.45c-29.75-22.01-58.24-39.68-67.47-68.99-3.1-9.84,3.88-40.16,5.4-51.38l11.05-2.41c9.13,32.21,23.54,64.11,48.11,93.53Z"/>
  <path id="Shirt" class="cls-4" d="M318.88,220.84c29.69,8.67,53.52,12.87,71.5,12.61,2.23-.03,3.77-9.33,3.22-12.05-8.59-42.24-13.73-72.95-8.89-100.38-3.11.98-8.15.33-15.11-1.97-24.16,24.89-38.7,55.77-50.72,101.79Z"/>
  <path id="Coat-Front" class="cls-12" d="M312.43,224.52c-.89-1.19-1.12-2.75-.61-4.14l1-2.76c.66-1.83,2.45-3,4.39-2.89.58-1.39,1.11-2.77,1.59-4.16,4.07-11.69,2.83-24.08,5.02-35.64-17.82,10.49-35.74,30.85-53.75,61.1l-17.25-8.56c1.15-2.46,2.32-4.88,3.5-7.26-1.88-1.56-3.38-7.46-1.45-8.06,1.99-.62,4.06-.95,6.14-.98,25.54-47.3,59.29-79.23,101.26-95.8l10.95,1.93c-10.75,42.08,17.38,143.04-12.11,219.84-29.72,1.34-67.02-25.72-109.55-16.85,7.12-31.76,43.37-64.16,60.86-95.77Z"/>
  <path id="Shade-Lapel" class="cls-5" d="M366.09,117.04l-7.66,14.4,7.99,13.22-10.63,7.41,15.27,41.33-20.16-42.11,10.48-7.51-7.1-11.69,11.81-15.05Z"/>
  <path id="Buttons" class="cls-5" d="M362.09,206.7c-2.13-.38-3.55-2.41-3.17-4.53s2.41-3.55,4.53-3.17c2.13.38,3.54,2.4,3.17,4.53-.37,2.13-2.4,3.55-4.53,3.17,0,0,0,0,0,0ZM363,229.7c-2.13-.38-3.55-2.4-3.17-4.53s2.4-3.55,4.53-3.17,3.55,2.4,3.17,4.53c0,0,0,0,0,0-.38,2.12-2.41,3.54-4.53,3.17ZM360.05,252.03c-2.13-.37-3.55-2.4-3.18-4.53.37-2.13,2.4-3.55,4.53-3.18,2.13.37,3.55,2.4,3.18,4.53,0,0,0,0,0,0-.38,2.13-2.4,3.55-4.53,3.17h0Z"/>
  <g id="Elipse_2">
    <circle class="cls-15" cx="343.38" cy="156.68" r="3.77"/>
    <circle class="cls-16" cx="343.38" cy="156.68" r="2.83"/>
  </g>
  <g id="Symbols">
    <g id="Scene_Plants" class="cls-13">
      <path id="Leaf-Top" class="cls-2" d="M581.16,279.42c1.13-.56,2.64.09,2.01,1.57-.67,1.59-3.16,1.61-4.57,1.58.14,0,.59-1.46.75-1.68.47-.63,1.1-1.13,1.81-1.46ZM568.16,308.31c-.39.33-.03.03,0,0ZM582.48,286.78c.6.45.72,1.29.27,1.89-.04.05-.08.1-.12.14-.78.61-1.79.84-2.75.63-.41-.03-2.57-.2-2.06-.55-.07.03-.14.06-.21.1-.05.17-.1.34-.15.51l.04.02-.04-.02c-.52,1.71-1.27,3.34-2.23,4.84.36-.14.73-.24,1.12-.3,1.13-.14,3.5.73,2.24,2.22-1.21,1.43-3.1-.1-4.47-.31-1.35,1.85-2.8,3.62-4.35,5.32.1.03.18.09.22.18.58-.36,1.2-.65,1.84-.88.83-.17,2.52-.28,3.14.45.77.9-.06,1.63-.96,1.8-1.48.07-2.95-.21-4.3-.81-.15.03-.3-.02-.4-.13l-.08-.03c-1.56,1.7-3.18,3.34-4.79,4.95h.05c.41-.28.87-.49,1.36-.62,1.14-.38,2.4-.18,3.37.53.93.7,1.13,2.02.43,2.95-.04.06-.09.11-.14.17-1.89,1.81-4.67-2.32-5.63-2.49-1.64,1.62-3.37,3.13-5.13,4.61.2-.06.41-.1.62-.12,1.72-.16,5.77,1.93,3.65,3.98-1.84,1.8-3.97-1.66-5.46-2.86-1.66,1.38-3.32,2.75-4.94,4.17.88-.25,1.81-.25,2.68.02.98.29,2.56,1.02,1.94,2.33s-2.53.73-3.51.31c-.83-.49-1.69-.94-2.57-1.34-2.6,2.36-4.8,5.14-6.51,8.21-1.05,1.96-1.87,4.04-2.44,6.19-.59,1.76-.9,3.6-.93,5.46-.39-3.79.26-7.61,1.88-11.06,1.25-2.89,2.99-5.54,5.16-7.83-.53-1.59-5.02-3.88-2.34-5.36,1.43-.78,2.89.51,3.2,1.89.13,1.04-.03,2.09-.46,3.05.67-.71,1.36-1.39,2.09-2.06.99-.92,2.01-1.81,3.03-2.68-1.69-1.57-3.28-6.06-1.02-6.79,3.34-1.08,1.73,5.04,1.5,6.19-.06,0-.12-.02-.16-.06.02.1.04.22.07.33,1.96-1.67,3.95-3.31,5.88-5.02-.24-.28-.46-.57-.67-.87-.5-.57-.94-1.2-1.3-1.87-.54-1.08-1.06-2.79.37-3.42,1.56-.69,2.29,1.25,2.3,2.41-.05.79-.16,1.57-.33,2.34-.04.24.1,1.35-.23.87.01.13.02.26,0,.39.35-.31.69-.62,1.03-.93-.02-.04-.03-.09-.03-.13,0-.22.17-.41.39-.42.07,0,.13.01.19.04.45-.42.89-.85,1.33-1.29.93-.93,1.87-1.88,2.8-2.85-.2-.18-.12-.41-.31-.59s-.56-.28-.78-.45c-.56-.46-1.02-1.02-1.36-1.66-.55-1.01-1.27-3.13.35-3.61,1.67-.5,2.51,1.54,2.62,2.82-.05,1.1-.15,2.19-.31,3.28,1.73-1.81,3.43-3.68,4.96-5.59-.76-.26-1.46-.68-2.06-1.21-.65-.63-1.69-2.02-.54-2.76,1.02-.65,2.27.29,2.71,1.21.18.72.29,1.45.34,2.19.64-.81,1.24-1.62,1.81-2.44.38-.54.73-1.1,1.06-1.67-.09-.06-.17-.13-.22-.22-1.7-.29-3.86-2.9-1.86-3.82.95-.43,1.98.46,2.44,1.19.16.49.29.99.37,1.49.94-1.89,1.69-3.88,2.23-5.92-.16-.03-.28-.17-.3-.33-.83-.39-1.54-.99-2.05-1.74-.36-.55-1-1.82.05-2.13,1.37-.4,2.22,1.66,2.33,2.68,0,.12.01.46,0,.78.05,0,.09,0,.14,0,.31-1.27.57-2.55.76-3.83-.75-.24-.88-4.12-.38-4.67,1.11-1.24,1.89.55,1.83,1.49-.12,1.1-.53,2.14-1.19,3.02-.06.1-.05.09-.06-.04,0,.06-.03.11-.06.15.05.56.07,1.13.06,1.7-.09,1.49-.26,2.97-.52,4.44-.06.36-.13.71-.21,1.06.53-.43,1.11-.8,1.72-1.1.89-.54,1.98-.59,2.92-.13h0ZM541.17,338.17c.02.45.16.88.39,1.27-.17-.41-.3-.83-.39-1.27Z"/>
      <g id="Plant-Left" class="cls-17">
        <path id="Leaf" class="cls-9" d="M570.88,328.01c1.35-1.93,3.86-6.83,5.77-7.51,1.23-.44.87,4.15.88,5.02,0,3.38-.22,6.76-.68,10.11-.85,5.95-3.04,11.63-6.41,16.6-1.58,2.79-3.78,5.18-6.43,6.99-1.27.75-2.79.89-4.04,1.55-1.46.76-.66.15-1.32,1.66-.79,2.29-1.33,4.66-1.62,7.07-1.94,10.32-6.62,64.86-5.81,75.35.07.93-1.22,1.15-1.29.02-.34-6.02,2.64-47.72,4.14-61.35,1.5-13.64,3.02-25.68,4.55-30.4,2.19-6.18,4.86-12.18,7.97-17.94,1.27-2.48,2.71-4.87,4.3-7.16Z"/>
        <path id="Leaf-2" class="cls-9" d="M580.91,394.88c1.4-1.08,3.42-.82,4.5.58,1.08,1.4.82,3.42-.58,4.5-1.36,1.05-3.31.84-4.41-.47-.67.82-1.3,1.68-1.91,2.4-1.84,2.21-3.58,4.47-5.25,6.78-3.46,4.8-6.41,9.88-9.52,14.86-3.06,4.91-6.09,9.86-8.87,14.9-2.35,4.27-5.47,9.29-6.28,13.97,1.22-9.93,5.85-19.47,11.36-28.22,5.47-8.68,11.74-18.16,20.2-25.01-.98-1.33-.7-3.21.63-4.19.04-.03.08-.06.13-.09Z"/>
        <path id="Leaf-3" class="cls-9" d="M514.14,370.67c1.97.38,5.19,4.84,6.81,6.54,1.91,2.02,3.69,4.16,5.33,6.41,3.57,4.86,6.72,10,9.43,15.38,4.42,8.72,7.94,17.87,10.49,27.3,1.54,5.87,2.6,11.86,3.17,17.91.11,1.13,1.3,9.87-.41,10.11-1.54.21-1.06-6.64-1.13-7.57-.95-10.47-3.25-20.77-6.86-30.65-.66-2.34-1.56-4.6-2.69-6.74-.88-1.4,0-.91-1.55-1.44-1.32-.45-2.83-.34-4.19-.9-2.88-1.38-5.4-3.41-7.38-5.92-4.08-4.41-7.12-9.68-8.87-15.43-.97-3.24-1.72-6.55-2.24-9.9-.12-.87-1.18-5.35.08-5.11Z"/>
        <path id="Leaf-4" class="cls-9" d="M521.92,296.55c7.53,12.98,13.39,26.86,17.45,41.31,2.38,8.68,4.05,17.57,5.71,26.4,2.83,13.61,4.72,27.4,5.68,41.27.69,14,2.08,30.15-2.52,43.64,2.29-13.69.11-28.27-.28-42.04-.19-6.58-.72-13.09-1.42-19.62-.68-6.34-1.79-12.65-2.83-18.95-.5-3.07-1.03-6.13-1.57-9.18-.16-.91-.23-3.62-.81-4.24s-3.55-.88-4.49-1.34c-1.89-.98-3.64-2.2-5.21-3.64-3.02-2.8-5.6-6.03-7.67-9.59-4.59-8.19-6.86-17.48-6.57-26.86.02-1.79,2.89-21.04,1.74-21.3.07-.08.13-.17.19-.25.88,1.46,1.75,2.93,2.6,4.41Z"/>
        <path id="Leaf-5" class="cls-9" d="M601.97,342.95c.12-.16.86-1.32.48-1.24.75-.15-1.05,1.27.85.4-.9.85-.38,1.96-.38,3.11-.03,1.86-.24,3.72-.64,5.54-.53,2.88-1.4,5.69-2.58,8.37-2.7,6.04-6.96,11.26-12.33,15.13-2.49,1.56-5.24,2.66-8.11,3.25-1.88.52-2.02,1.49-3.02,3.31-2.08,3.79-4.11,7.57-5.93,11.48-2.18,4.68-4.3,9.36-6.3,14.12-6.94,15.97-12,32.7-15.09,49.83.22-10.28,1.99-20.46,5.23-30.22,2.23-7,4.88-13.86,7.95-20.53.92-1.75,1.63-3.6,2.13-5.51,0-1.3-.26-2.59-.75-3.79-1.12-5.32-1.14-10.81-.06-16.13,1.13-5.72,4.43-8.38,10-9.19,2.2-.06,4.39-.41,6.49-1.06,2.03-.94,2.87-4.05,4.03-6.05,3.1-5.41,6.8-10.45,11.04-15.02,1.17-1.25,2.43-2.41,3.77-3.47,1.15-.66,2.23-1.45,3.21-2.34Z"/>
        <path id="Base" class="cls-9" d="M539.52,445.32h19.76c.89,0,1.61.72,1.61,1.61,0,.08,0,.16-.02.23l-1.53,10.36c-.47,3.16-3.18,5.5-6.37,5.5h-7.16c-3.19,0-5.9-2.34-6.37-5.5l-1.53-10.36c-.13-.88.48-1.7,1.36-1.83.08-.01.16-.02.24-.02Z"/>
      </g>
    </g>
  </g>
  <g id="Grupo_1">
    <g id="humaaans_standing-11">
      <g id="A-Human_Standing">
        <g id="Head_Front_Short-Beard">
          <g id="Head-2">
            <path id="Trazado_1" class="cls-8" d="M217.65,43.76c-5.53-6.49-9.27-14.45-8.65-23.36,1.8-25.69,37.56-20.04,44.51-7.07,6.96,12.97,6.13,45.85-2.86,48.17-3.58.92-11.22-1.34-18.99-6.02l4.88,34.51h-28.81l9.92-46.22Z"/>
          </g>
          <path id="Hair-2" class="cls-3" d="M233.1,23.24c1.1,15.36,4.02,23.04,8.75,23.04,7.1,0,13.12-4.51,16.23-4.51,2.26,0,1.76,2.84.26,4.95-1.24,1.74-7.29,3.41-7.29,6.11s4.78.61,4.78,2.21c0,2.64.84,7.61-3.75,7.61s-17.95-1.7-20.23-8.58c-1.47-4.45-2.42-13.66-2.85-27.64-3.95-.47-7.54,2.35-8.01,6.3-.03.28-.05.56-.05.85,0,1.94.78,3.8,2.17,5.15-1.66,2.36-3.53,4.81-5.67,7.34-8.04-4.82-14.67-19.58-6.81-33.14,1.92-5.94,7.49-9.79,13.57-11.2,4.33-1.87,9.16-2.23,13.71-1.01,8.08.69,15.3,3.16,17.34,4.62,0,7.65-1.48,9.92-14.15,9.72-3.3,2.02-6.05,4.83-7.99,8.18Z"/>
        </g>
        <g id="Bottom_Standing_Skinny-Jeans">
          <path id="Leg-3" class="cls-3" d="M198.14,189.61l43.52,152.71,31.75,112.55h23.16l-33.74-265.26h-64.68Z"/>
          <path id="Leg-4" class="cls-6" d="M186.5,189.61c-1.01,78.71-4.44,121.63-5.49,128.78s-17.04,52.64-47.94,136.47h23.99c39.34-80.42,61.3-125.91,65.88-136.47,4.58-10.57,18.72-53.49,40.01-128.78h-76.45Z"/>
          <g id="Accessories_Shoe_Flat-Pointy">
            <path id="Shoe-3" class="cls-3" d="M130.92,476.47l1.2-25.21h25.21c11.95,8.4,27.55,15.2,46.81,20.4v4.8h-45.62l-15.6-2.4v2.4h-12Z"/>
          </g>
          <g id="Accessories_Shoe_Flat-Pointy-2">
            <path id="Shoe-4" class="cls-3" d="M270.15,476.47l1.2-25.21h25.21c11.95,8.4,27.55,15.2,46.81,20.4v4.8h-45.62l-15.6-2.4v2.4h-12Z"/>
          </g>
        </g>
        <g id="Body_Lab-Coat">
          <path id="Skin-2" class="cls-8" d="M299.39,169.94l36.22,30.72c8.93,2.91,17.42,7.03,25.23,12.25,1.54,1.61,3.31,4.78-3.46,3.77s-13.94-1.75-15.04.51,2.83,5.32.71,8.32c-1.41,2-7.03-3.66-16.84-16.97l-36.72-18.32,9.9-20.28ZM135.32,156.64l21.26,3.09c-22.82,49.51-35.05,75.69-36.7,78.55-3.71,6.43.65,17.63,2.36,23.56-8.62,2.49-5.86-10.82-16.76-7.5-9.94,3.03-18.15,9.9-28,1.73-1.22-1-2.23-4.29,1.61-6.2,9.59-4.77,23.66-13.49,25.85-16.71,2.99-4.39,13.12-29.9,30.38-76.51Z"/>
          <path id="Coat-Back" class="cls-5" d="M224.17,69.98l13.17-4.36c17.87,44.64,44.52,87.83,89.04,124.31l-11.01,19c-39.13-23.05-76.17-40.96-91.21-75.55-5.04-11.61-.41-49.52,0-63.4Z"/>
          <path id="Shirt-2" class="cls-4" d="M178.93,195.61c37.73,4,67.43,4,89.1,0,2.68-.5,3.11-4.99,1.86-8.04-19.39-47.5-32.68-88.95-32.68-121.95-3.56,1.79-9.78,2.06-18.68.81-23.9,34.01-34.89,73.02-39.61,129.19Z"/>
          <path id="Coat-Front-2" class="cls-12" d="M212.6,63.58h9.96c2.32,13.64,9.64,198.36,32.22,258.78h-122.19c2.64-55.36,23.55-121.85,44.71-177.49-18.72,17.13-35.03,46.15-48.94,87.07l-22.89-5.88c17.02-73.33,52.01-127.22,104.97-161.69l.34-.79h.88l.98-.62-.04.61Z"/>
        </g>
      </g>
    </g>
    <g id="Elipse_3">
      <circle class="cls-15" cx="208.3" cy="106.16" r="3.77"/>
      <circle class="cls-16" cx="208.3" cy="106.16" r="2.83"/>
    </g>
  </g>
</svg>