<?xml version="1.0" encoding="UTF-8" standalone="no"?>
<svg
   id="Capa_1"
   viewBox="0 0 622.13 610.55"
   version="1.1"
   sodipodi:docname="login_admin.svg"
   width="622.13"
   height="610.54999"
   inkscape:version="1.3 (0e150ed6c4, 2023-07-21)"
   xmlns:inkscape="http://www.inkscape.org/namespaces/inkscape"
   xmlns:sodipodi="http://sodipodi.sourceforge.net/DTD/sodipodi-0.dtd"
   xmlns="http://www.w3.org/2000/svg"
   xmlns:svg="http://www.w3.org/2000/svg">
  <sodipodi:namedview
     id="namedview1"
     pagecolor="#ffffff"
     bordercolor="#666666"
     borderopacity="1.0"
     inkscape:showpageshadow="2"
     inkscape:pageopacity="0.0"
     inkscape:pagecheckerboard="0"
     inkscape:deskcolor="#d1d1d1"
     inkscape:zoom="0.86758281"
     inkscape:cx="323.88839"
     inkscape:cy="354.43302"
     inkscape:window-width="1600"
     inkscape:window-height="877"
     inkscape:window-x="-8"
     inkscape:window-y="-8"
     inkscape:window-maximized="1"
     inkscape:current-layer="Capa_1" />
  <defs
     id="defs1">
    <style
       id="style1">&#10;      .cls-1, .cls-2 {&#10;        fill: #c5cfd6;&#10;      }&#10;&#10;      .cls-3 {&#10;        fill: #f2f2f2;&#10;      }&#10;&#10;      .cls-4, .cls-2, .cls-5, .cls-6 {&#10;        fill-rule: evenodd;&#10;      }&#10;&#10;      .cls-4, .cls-7 {&#10;        fill: #afb9c5;&#10;      }&#10;&#10;      .cls-8 {&#10;        fill: none;&#10;        stroke: #cccbcb;&#10;        stroke-width: 8px;&#10;      }&#10;&#10;      .cls-9 {&#10;        fill: #f6ea54;&#10;      }&#10;&#10;      .cls-5 {&#10;        fill: #8ac5cb;&#10;      }&#10;&#10;      .cls-6 {&#10;        fill: #dde3e9;&#10;      }&#10;&#10;      .cls-10 {&#10;        fill: #e8e8e8;&#10;        isolation: isolate;&#10;        opacity: .89;&#10;      }&#10;    </style>
  </defs>
  <ellipse
     id="Elipse_1"
     class="cls-10"
     cx="310.32941"
     cy="524.98792"
     rx="297.34991"
     ry="63.447712"
     style="stroke-width:1.05342" />
  <g
     id="Symbols"
     inkscape:export-filename="..\..\..\..\..\..\Users\nilton\Downloads\dfs.svg"
     inkscape:export-xdpi="115.27"
     inkscape:export-ydpi="115.27"
     transform="matrix(1.0534237,0,0,1.0534237,-5.5502345,-144.35753)">
    <g
       id="Scene_Home">
      <g
         id="Big-Leaf-Plant">
        <g
           id="Big-Ass-Leaf">
          <path
             id="leaf"
             class="cls-6"
             d="M 85.69,433.02 C 88.19,432.63 90.74,432.9 93.1,433.8 97.99,435.88 99.38,441.65 99.31,446.35 99.24,451.4 98.16,456.93 102.01,461 103.78,462.87 105.97,464.3 107.71,466.21 109.54,468.24 111.03,470.56 112.1,473.08 114.36,477.7 114.76,483 113.24,487.91 111.65,492.16 107.64,495.99 108.51,500.82 109.41,505.85 114.49,509.71 117.67,513.46 121.27,517.71 124.57,523.13 125.12,528.7 125.42,534.15 123.48,539.48 119.75,543.47 112.36,551.38 101.94,555.74 91.12,555.46 86.54,555.45 81.35,555.24 77.39,552.78 76.3,552.08 75.41,551.12 74.8,549.98 74.13,548.98 73.28,548.13 72.28,547.46 70.14,545.81 68.48,543.6 67.5,541.08 63.59,531.39 66.72,519.39 72.21,510.78 73.71,509 74.34,506.64 73.94,504.34 73.09,501.82 71.84,499.45 70.23,497.33 68.7,495.25 67.32,493.06 66.09,490.78 64.99,488.38 64.55,485.73 64.81,483.11 65.32,478.1 67.28,473.34 70.43,469.42 73.38,465.53 76.86,461.81 76.86,456.71 76.86,451.32 73.26,446.5 74.8,441.01 75.38,438.61 76.79,436.5 78.77,435.04 80.9,433.86 83.26,433.17 85.69,433.02 Z" />
          <path
             id="middle-thing"
             class="cls-2"
             d="M 84.08,441.66 C 84.2,440.98 84.85,440.53 85.53,440.66 85.58,440.66 85.62,440.68 85.67,440.69 86.57,440.94 86.54,441.77 86.52,442.51 86.48,444.77 86.75,447.03 87.33,449.22 88.7,453.74 90.34,458.17 92.24,462.49 94.04,466.8 94.55,471.55 93.71,476.15 92.79,480.56 91.34,484.85 90.39,489.27 89.56,493.16 88.67,497.26 89.94,501.14 91.16,504.87 93.85,507.92 95.8,511.29 99.67,518.24 101.75,526.05 101.84,534 102.04,537.71 101.76,541.44 100.99,545.08 100.5,547.17 99.83,550 98.04,551.44 97.23,552.23 95.93,552.21 95.14,551.39 95.13,551.38 95.11,551.36 95.1,551.35 94.45,550.43 95.02,548.99 95.23,548.01 96.07,543.74 96.36,539.39 96.09,535.05 95.98,530.84 95.3,526.67 94.07,522.64 92.79,518.97 91.02,515.5 88.79,512.32 86.34,509.16 84.48,505.58 83.31,501.75 82.61,497.75 82.9,493.64 84.15,489.78 85.23,485.64 86.64,481.62 88.11,477.59 89.58,473.86 89.98,469.79 89.25,465.84 87.7,457.73 83.55,450.12 84.09,441.66 Z" />
        </g>
        <g
           id="Big-Ass-Leaf-2">
          <path
             id="leaf-2"
             class="cls-6"
             d="M 150.99,442.87 C 154.12,443.71 156.98,445.36 159.27,447.65 163.91,452.65 162.48,460.2 159.92,465.72 157.16,471.65 152.99,477.63 155.34,484.45 156.42,487.58 158.24,490.42 159.27,493.58 160.35,496.94 160.86,500.46 160.78,503.99 160.67,510.46 158.95,517.36 154.28,522.12 150.17,526.31 143.44,528.77 141.91,534.93 140.31,541.36 144.23,548.56 145.97,554.64 147.95,561.53 148.95,569.67 146.65,576.54 144.13,583.14 139.04,588.43 132.55,591.21 119.93,597.04 105.29,596.14 92.64,590.49 87.27,588.1 81.29,585.15 77.95,580.18 77.04,578.78 76.5,577.18 76.39,575.51 76.14,573.99 75.59,572.54 74.77,571.23 73.13,568.15 72.36,564.68 72.54,561.2 73.08,547.69 83.08,535.13 94.07,527.8 96.67,526.06 98.96,524.29 99.5,521.09 99.83,517.67 99.61,514.22 98.85,510.87 98.16,507.61 97.7,504.31 97.46,500.98 97.44,497.56 98.32,494.2 100.01,491.24 103.26,485.58 108.06,480.98 113.84,477.97 119.36,474.91 125.4,472.31 128.1,466.28 130.97,459.9 129.27,452.33 133.98,446.64 135.92,444.11 138.69,442.34 141.81,441.65 144.92,441.36 148.06,441.77 150.99,442.86 Z" />
          <path
             id="middle-thing-2"
             class="cls-2"
             d="M 144.73,453.43 C 145.22,452.7 146.2,452.5 146.93,452.99 146.99,453.03 147.04,453.07 147.09,453.11 148,453.87 147.54,454.85 147.13,455.72 145.89,458.38 145.03,461.2 144.56,464.09 143.48,470.14 143.72,476.27 143.36,482.38 143.21,488.43 141.32,494.31 137.93,499.32 134.54,504.06 130.6,508.38 127.18,513.11 124.17,517.28 120.99,521.68 120.44,526.93 119.9,531.99 121.47,537 121.97,542.02 122.85,552.29 121.19,562.61 117.14,572.08 115.43,576.58 113.15,580.84 110.35,584.75 108.68,586.97 106.42,589.96 103.57,590.74 102.22,591.24 100.72,590.55 100.22,589.2 100.21,589.16 100.19,589.13 100.18,589.09 99.9,587.65 101.32,586.26 102.08,585.2 105.3,580.58 107.93,575.58 109.88,570.3 111.95,565.26 113.34,559.96 114,554.56 114.43,549.55 114.17,544.51 113.23,539.57 112.35,534.47 111.38,529.32 112.36,524.18 113.63,519.08 116.12,514.37 119.61,510.45 123.04,506.11 126.8,502.09 130.61,498.08 134.29,494.42 136.89,489.81 138.1,484.76 140.54,474.34 139.68,463.14 144.73,453.41 Z" />
        </g>
        <g
           id="Big-Ass-Leaf-3">
          <path
             id="leaf-3"
             class="cls-2"
             d="M 56.38,481.22 C 61.37,481.36 66.02,483.76 69.03,487.74 72.64,492.22 73.37,497.69 74.83,503.03 75.46,505.77 76.92,508.25 79.01,510.13 81.01,511.77 83.55,512.11 85.94,512.9 90.74,514.51 94.5,518.28 96.11,523.08 97.97,528.83 96,534.63 96.34,540.45 96.65,545.8 101.93,549.14 106.17,551.7 110.36,554.23 114.13,556.6 115.39,561.52 116.96,566.82 116.94,572.46 115.32,577.74 112.24,586.34 103.22,590.12 94.5,590.71 86.59,591.25 76.64,590.41 70.7,584.67 67.35,581.19 65.65,576.46 66.03,571.65 66.18,568.67 66.67,565.73 67.48,562.86 68.14,560.85 68.63,558.78 68.96,556.69 69.51,551.09 64.34,550.02 59.93,548.48 54.59,546.63 50.19,542.76 47.69,537.69 45,533.02 44.25,527.48 45.6,522.27 46.39,519.58 47.79,517.11 49.7,515.06 50.54,514.15 51.73,513.38 52.49,512.42 53.07,511.49 53.18,510.34 52.8,509.31 51.67,504.46 48.15,500.44 46.89,495.59 45.75,491.23 46.42,485.79 50.42,482.97 52.18,481.79 54.27,481.18 56.39,481.21 Z" />
          <path
             id="middle-thing-3"
             class="cls-4"
             d="M 63.31,493.86 C 68.7,499.61 70.17,507.4 70.6,514.96 70.84,519.2 70.6,523.67 71.84,527.78 73.12,531.16 75.23,534.17 77.98,536.53 83.16,541.65 88.94,546.85 90.45,554.25 91.34,558.59 90.74,563.08 91.97,567.37 93.15,571.34 95,575.07 97.45,578.41 99.38,581.07 101.89,583.1 103.99,585.57 104.63,586.33 105.55,587.44 105.29,588.51 104.98,589.76 103.39,590.16 102.26,589.96 99.63,589.5 97.41,586.99 95.69,585.16 93.18,582.53 91.03,579.58 89.29,576.39 87.29,572.85 85.89,568.99 85.14,564.99 84.45,560.82 84.79,556.48 83.22,552.48 80.57,545.75 74.15,541.78 69.51,536.53 63.72,529.99 64.59,521.86 65.18,513.82 65.51,509.4 65.83,504.41 63.6,500.38 62.75,498.84 60.85,497.4 60.48,495.65 60.15,494.05 61.98,492.43 63.32,493.86 Z" />
        </g>
        <path
           id="Base"
           class="cls-5"
           d="M 69.07,588.28 C 69.07,621.14 74.43,638.36 102.74,638.36 131.05,638.36 136.41,621.14 136.41,588.28 Z" />
      </g>
    </g>
  </g>
  <path
     id="Icon_feather-tool"
     class="cls-7"
     d="M 174.62736,519.74186 C 173.03669,520.38445 173.03669,521.39574 174.62736,522.03832 L 181.32714,524.66135 C 183.23383,525.28287 185.28801,525.28287 187.18417,524.66135 L 202.96446,518.46722 C 207.27296,522.20687 205.23985,526.58911 197.85535,529.49656 190.47085,532.40401 179.24136,533.19408 169.72894,531.5086 L 140.80193,542.85398 C 136.72518,544.21289 132.32186,544.21289 128.24511,542.85398 124.77935,541.49506 124.77935,539.2934 128.24511,537.93449 L 157.17213,526.58911 C 152.86363,522.84946 154.89673,518.46722 162.28124,515.55977 169.66574,512.65232 180.87416,511.86225 190.39711,513.54773 L 174.65896,519.72079 Z"
     style="stroke-width:1.05342" />
  <g
     id="Scene_Home-2"
     transform="matrix(1.0534237,0,0,1.0534237,-5.5502345,-144.35753)">
    <path
       id="Body"
       class="cls-8"
       d="M 397.05,222.86 416.24,203.66 C 419.47,200.44 424.7,200.44 427.93,203.66 V 203.66 L 479.01,254.76 C 482.11,257.86 483.85,262.06 483.85,266.45 V 604.92" />
    <rect
       id="Lamp-Base"
       class="cls-7"
       x="452.84"
       y="603.89001"
       width="60.959999"
       height="7.23"
       rx="3.6199999"
       ry="3.6199999" />
    <path
       id="Lamp"
       class="cls-2"
       d="M 408.59,211.59 V 211.59 C 421.91,224.91 421.91,246.49 408.59,259.81 V 259.81 C 408.59,259.81 388.13,280.27 388.13,280.27 L 339.91,232.05 360.37,211.59 C 373.69,198.27 395.27,198.27 408.59,211.59 Z" />
    <ellipse
       id="Lamp-2"
       class="cls-9"
       cx="364.82999"
       cy="255.61"
       rx="6.7199998"
       ry="34.099998"
       transform="rotate(-45,364.83342,255.60105)" />
  </g>
  <g
     id="Symbols-2"
     transform="matrix(1.0534237,0,0,1.0534237,-5.5502345,-144.35753)">
    <g
       id="Scene_Home-3">
      <g
         id="Clock">
        <circle
           id="Clock-Frame"
           class="cls-3"
           cx="161.42"
           cy="251.53999"
           r="95.290001" />
        <circle
           id="Time"
           cx="85.910004"
           cy="251.53999"
           r="5.3899999" />
        <circle
           id="Time-2"
           cx="161.42"
           cy="327.06"
           r="5.3899999" />
        <circle
           id="Time-3"
           cx="161.42"
           cy="176.03"
           r="5.3899999" />
        <circle
           id="Time-4"
           cx="236.92999"
           cy="251.53999"
           r="5.3899999" />
        <path
           id="Hand"
           class="cls-4"
           d="M 96.69,251.54 159.62,247.94 V 255.13 L 96.69,251.53 Z" />
        <path
           id="Hand-2"
           class="cls-4"
           d="M 193.24,219.72 165.27,252.77 160.18,247.68 193.23,219.71 Z" />
        <circle
           id="Time-5"
           class="cls-1"
           cx="161.42"
           cy="251.53999"
           r="7.1900001" />
      </g>
    </g>
  </g>
</svg>
