<?xml version="1.0" encoding="UTF-8"?>
<svg id="Capa_1" xmlns="http://www.w3.org/2000/svg" viewBox="0 0 582.13 789.55">
  <defs>
    <style>
      .cls-1, .cls-2 {
        fill: #c5cfd6;
      }

      .cls-3 {
        fill: #f2f2f2;
      }

      .cls-4, .cls-2, .cls-5, .cls-6 {
        fill-rule: evenodd;
      }

      .cls-4, .cls-7 {
        fill: #afb9c5;
      }

      .cls-8 {
        fill: none;
        stroke: #cccbcb;
        stroke-width: 8px;
      }

      .cls-9 {
        fill: #f6ea54;
      }

      .cls-5 {
        fill: #8ac5cb;
      }

      .cls-6 {
        fill: #dde3e9;
      }

      .cls-10 {
        fill: #e8e8e8;
        isolation: isolate;
        opacity: .89;
      }
    </style>
  </defs>
  <ellipse id="Elipse_1" class="cls-10" cx="299.86" cy="635.4" rx="282.27" ry="60.23"/>
  <g id="Symbols">
    <g id="Scene_Home">
      <g id="Big-Leaf-Plant">
        <g id="Big-Ass-Leaf">
          <path id="leaf" class="cls-6" d="M85.69,433.02c2.5-.39,5.05-.12,7.41.78,4.89,2.08,6.28,7.85,6.21,12.55-.07,5.05-1.15,10.58,2.7,14.65,1.77,1.87,3.96,3.3,5.7,5.21,1.83,2.03,3.32,4.35,4.39,6.87,2.26,4.62,2.66,9.92,1.14,14.83-1.59,4.25-5.6,8.08-4.73,12.91.9,5.03,5.98,8.89,9.16,12.64,3.6,4.25,6.9,9.67,7.45,15.24.3,5.45-1.64,10.78-5.37,14.77-7.39,7.91-17.81,12.27-28.63,11.99-4.58-.01-9.77-.22-13.73-2.68-1.09-.7-1.98-1.66-2.59-2.8-.67-1-1.52-1.85-2.52-2.52-2.14-1.65-3.8-3.86-4.78-6.38-3.91-9.69-.78-21.69,4.71-30.3,1.5-1.78,2.13-4.14,1.73-6.44-.85-2.52-2.1-4.89-3.71-7.01-1.53-2.08-2.91-4.27-4.14-6.55-1.1-2.4-1.54-5.05-1.28-7.67.51-5.01,2.47-9.77,5.62-13.69,2.95-3.89,6.43-7.61,6.43-12.71,0-5.39-3.6-10.21-2.06-15.7.58-2.4,1.99-4.51,3.97-5.97,2.13-1.18,4.49-1.87,6.92-2.02Z"/>
          <path id="middle-thing" class="cls-2" d="M84.08,441.66c.12-.68.77-1.13,1.45-1,.05,0,.09.02.14.03.9.25.87,1.08.85,1.82-.04,2.26.23,4.52.81,6.71,1.37,4.52,3.01,8.95,4.91,13.27,1.8,4.31,2.31,9.06,1.47,13.66-.92,4.41-2.37,8.7-3.32,13.12-.83,3.89-1.72,7.99-.45,11.87,1.22,3.73,3.91,6.78,5.86,10.15,3.87,6.95,5.95,14.76,6.04,22.71.2,3.71-.08,7.44-.85,11.08-.49,2.09-1.16,4.92-2.95,6.36-.81.79-2.11.77-2.9-.05-.01-.01-.03-.03-.04-.04-.65-.92-.08-2.36.13-3.34.84-4.27,1.13-8.62.86-12.96-.11-4.21-.79-8.38-2.02-12.41-1.28-3.67-3.05-7.14-5.28-10.32-2.45-3.16-4.31-6.74-5.48-10.57-.7-4-.41-8.11.84-11.97,1.08-4.14,2.49-8.16,3.96-12.19,1.47-3.73,1.87-7.8,1.14-11.75-1.55-8.11-5.7-15.72-5.16-24.18Z"/>
        </g>
        <g id="Big-Ass-Leaf-2">
          <path id="leaf-2" class="cls-6" d="M150.99,442.87c3.13.84,5.99,2.49,8.28,4.78,4.64,5,3.21,12.55.65,18.07-2.76,5.93-6.93,11.91-4.58,18.73,1.08,3.13,2.9,5.97,3.93,9.13,1.08,3.36,1.59,6.88,1.51,10.41-.11,6.47-1.83,13.37-6.5,18.13-4.11,4.19-10.84,6.65-12.37,12.81-1.6,6.43,2.32,13.63,4.06,19.71,1.98,6.89,2.98,15.03.68,21.9-2.52,6.6-7.61,11.89-14.1,14.67-12.62,5.83-27.26,4.93-39.91-.72-5.37-2.39-11.35-5.34-14.69-10.31-.91-1.4-1.45-3-1.56-4.67-.25-1.52-.8-2.97-1.62-4.28-1.64-3.08-2.41-6.55-2.23-10.03.54-13.51,10.54-26.07,21.53-33.4,2.6-1.74,4.89-3.51,5.43-6.71.33-3.42.11-6.87-.65-10.22-.69-3.26-1.15-6.56-1.39-9.89-.02-3.42.86-6.78,2.55-9.74,3.25-5.66,8.05-10.26,13.83-13.27,5.52-3.06,11.56-5.66,14.26-11.69,2.87-6.38,1.17-13.95,5.88-19.64,1.94-2.53,4.71-4.3,7.83-4.99,3.11-.29,6.25.12,9.18,1.21Z"/>
          <path id="middle-thing-2" class="cls-2" d="M144.73,453.43c.49-.73,1.47-.93,2.2-.44.06.04.11.08.16.12.91.76.45,1.74.04,2.61-1.24,2.66-2.1,5.48-2.57,8.37-1.08,6.05-.84,12.18-1.2,18.29-.15,6.05-2.04,11.93-5.43,16.94-3.39,4.74-7.33,9.06-10.75,13.79-3.01,4.17-6.19,8.57-6.74,13.82-.54,5.06,1.03,10.07,1.53,15.09.88,10.27-.78,20.59-4.83,30.06-1.71,4.5-3.99,8.76-6.79,12.67-1.67,2.22-3.93,5.21-6.78,5.99-1.35.5-2.85-.19-3.35-1.54-.01-.04-.03-.07-.04-.11-.28-1.44,1.14-2.83,1.9-3.89,3.22-4.62,5.85-9.62,7.8-14.9,2.07-5.04,3.46-10.34,4.12-15.74.43-5.01.17-10.05-.77-14.99-.88-5.1-1.85-10.25-.87-15.39,1.27-5.1,3.76-9.81,7.25-13.73,3.43-4.34,7.19-8.36,11-12.37,3.68-3.66,6.28-8.27,7.49-13.32,2.44-10.42,1.58-21.62,6.63-31.35Z"/>
        </g>
        <g id="Big-Ass-Leaf-3">
          <path id="leaf-3" class="cls-2" d="M56.38,481.22c4.99.14,9.64,2.54,12.65,6.52,3.61,4.48,4.34,9.95,5.8,15.29.63,2.74,2.09,5.22,4.18,7.1,2,1.64,4.54,1.98,6.93,2.77,4.8,1.61,8.56,5.38,10.17,10.18,1.86,5.75-.11,11.55.23,17.37.31,5.35,5.59,8.69,9.83,11.25,4.19,2.53,7.96,4.9,9.22,9.82,1.57,5.3,1.55,10.94-.07,16.22-3.08,8.6-12.1,12.38-20.82,12.97-7.91.54-17.86-.3-23.8-6.04-3.35-3.48-5.05-8.21-4.67-13.02.15-2.98.64-5.92,1.45-8.79.66-2.01,1.15-4.08,1.48-6.17.55-5.6-4.62-6.67-9.03-8.21-5.34-1.85-9.74-5.72-12.24-10.79-2.69-4.67-3.44-10.21-2.09-15.42.79-2.69,2.19-5.16,4.1-7.21.84-.91,2.03-1.68,2.79-2.64.58-.93.69-2.08.31-3.11-1.13-4.85-4.65-8.87-5.91-13.72-1.14-4.36-.47-9.8,3.53-12.62,1.76-1.18,3.85-1.79,5.97-1.76Z"/>
          <path id="middle-thing-3" class="cls-4" d="M63.31,493.86c5.39,5.75,6.86,13.54,7.29,21.1.24,4.24,0,8.71,1.24,12.82,1.28,3.38,3.39,6.39,6.14,8.75,5.18,5.12,10.96,10.32,12.47,17.72.89,4.34.29,8.83,1.52,13.12,1.18,3.97,3.03,7.7,5.48,11.04,1.93,2.66,4.44,4.69,6.54,7.16.64.76,1.56,1.87,1.3,2.94-.31,1.25-1.9,1.65-3.03,1.45-2.63-.46-4.85-2.97-6.57-4.8-2.51-2.63-4.66-5.58-6.4-8.77-2-3.54-3.4-7.4-4.15-11.4-.69-4.17-.35-8.51-1.92-12.51-2.65-6.73-9.07-10.7-13.71-15.95-5.79-6.54-4.92-14.67-4.33-22.71.33-4.42.65-9.41-1.58-13.44-.85-1.54-2.75-2.98-3.12-4.73-.33-1.6,1.5-3.22,2.84-1.79Z"/>
        </g>
        <path id="Base" class="cls-5" d="M69.07,588.28c0,32.86,5.36,50.08,33.67,50.08s33.67-17.22,33.67-50.08h-67.34Z"/>
      </g>
    </g>
  </g>
  <path id="Icon_feather-tool" class="cls-7" d="M171.04,630.42c-1.51.61-1.51,1.57,0,2.18l6.36,2.49c1.81.59,3.76.59,5.56,0l14.98-5.88c4.09,3.55,2.16,7.71-4.85,10.47s-17.67,3.51-26.7,1.91l-27.46,10.77c-3.87,1.29-8.05,1.29-11.92,0-3.29-1.29-3.29-3.38,0-4.67l27.46-10.77c-4.09-3.55-2.16-7.71,4.85-10.47s17.65-3.51,26.69-1.91l-14.94,5.86-.03.02Z"/>
  <g id="Scene_Home-2">
    <path id="Body" class="cls-8" d="M397.05,222.86l19.19-19.2c3.23-3.22,8.46-3.22,11.69,0h0l51.08,51.1c3.1,3.1,4.84,7.3,4.84,11.69v338.47"/>
    <rect id="Lamp-Base" class="cls-7" x="452.84" y="603.89" width="60.96" height="7.23" rx="3.62" ry="3.62"/>
    <path id="Lamp" class="cls-2" d="M408.59,211.59h0c13.32,13.32,13.32,34.9,0,48.22h0s-20.46,20.46-20.46,20.46l-48.22-48.22,20.46-20.46c13.32-13.32,34.9-13.32,48.22,0Z"/>
    <ellipse id="Lamp-2" class="cls-9" cx="364.83" cy="255.61" rx="6.72" ry="34.1" transform="translate(-73.88 332.84) rotate(-45)"/>
  </g>
  <g id="Symbols-2">
    <g id="Scene_Home-3">
      <g id="Clock">
        <circle id="Clock-Frame" class="cls-3" cx="161.42" cy="251.54" r="95.29"/>
        <circle id="Time" cx="85.91" cy="251.54" r="5.39"/>
        <circle id="Time-2" cx="161.42" cy="327.06" r="5.39"/>
        <circle id="Time-3" cx="161.42" cy="176.03" r="5.39"/>
        <circle id="Time-4" cx="236.93" cy="251.54" r="5.39"/>
        <path id="Hand" class="cls-4" d="M96.69,251.54l62.93-3.6v7.19l-62.93-3.6Z"/>
        <path id="Hand-2" class="cls-4" d="M193.24,219.72l-27.97,33.05-5.09-5.09,33.05-27.97Z"/>
        <circle id="Time-5" class="cls-1" cx="161.42" cy="251.54" r="7.19"/>
      </g>
    </g>
  </g>
</svg>