<svg width="834" height="364" viewBox="0 0 834 364" fill="none" xmlns="http://www.w3.org/2000/svg">
<g opacity="0.4">
<path d="M87.8105 38.0953C88.2871 34.6377 83.4158 31.7941 79.7321 31.5033C77.9872 31.3579 76.1695 31.6245 74.5135 31.0509C70.9267 29.7988 69.4968 25.1618 65.9908 23.6915C63.3815 22.5848 60.3359 23.5704 57.8316 24.8467C55.3273 26.1231 52.7826 27.7307 49.9552 27.9084C47.4832 28.07 44.8093 27.1491 42.6847 28.3528C41.069 29.2575 40.2612 31.1075 38.7586 32.1981C37.256 33.2886 35.4142 33.4906 33.6208 33.5875C31.8274 33.6845 29.9532 33.7087 28.3213 34.46C26.6895 35.2113 25.3243 36.9401 25.6716 38.7092L87.8105 38.0953Z" fill="#EBEBEB"/>
<path d="M470.408 30.3482C470.885 26.8906 466.006 24.0471 462.33 23.7482C460.585 23.6108 458.767 23.8774 457.119 23.3039C453.533 22.0517 452.095 17.4147 448.597 15.9364C445.979 14.8377 442.942 15.8152 440.429 17.0916C437.917 18.368 435.389 19.9756 432.553 20.1614C430.13 20.3149 427.407 19.402 425.282 20.6057C423.667 21.5024 422.859 23.3604 421.356 24.451C419.854 25.5416 418.02 25.7435 416.219 25.8405C414.417 25.9374 412.559 25.9616 410.919 26.7048C409.279 27.4481 407.93 29.193 408.269 30.9541L470.408 30.3482Z" fill="#EBEBEB"/>
<path d="M222.879 122.07C223.202 119.736 219.906 117.805 217.426 117.611C216.239 117.514 215.003 117.692 213.888 117.304C211.464 116.456 210.495 113.321 208.128 112.32C206.351 111.576 204.315 112.239 202.594 113.127C200.873 114.016 199.185 115.082 197.262 115.204C195.598 115.309 193.789 114.687 192.327 115.502C191.236 116.116 190.671 117.369 189.669 118.104C188.625 118.75 187.415 119.078 186.187 119.049C184.966 119.02 183.75 119.217 182.6 119.631C182.031 119.854 181.549 120.256 181.226 120.775C180.903 121.295 180.756 121.905 180.807 122.514L222.879 122.07Z" fill="#F5F5F5"/>
<path d="M555.951 75.5059C556.266 73.1713 552.97 71.2486 550.49 71.0467C549.302 70.9497 548.066 71.1355 546.96 70.7397C544.536 69.9318 543.559 66.757 541.192 65.7553C539.423 65.0121 537.379 65.6745 535.666 66.5632C533.953 67.4518 532.249 68.5181 530.334 68.6393C528.662 68.7443 526.853 68.1304 525.39 68.9463C524.3 69.5522 523.775 70.8043 522.733 71.5475C521.686 72.1881 520.477 72.5134 519.251 72.4846C518.029 72.4554 516.812 72.6554 515.664 73.0743C515.096 73.2977 514.615 73.698 514.292 74.2159C513.969 74.7338 513.821 75.3419 513.871 75.9502L555.951 75.5059Z" fill="#F5F5F5"/>
<path d="M571.833 252.245H310.546C296.834 252.245 283.683 246.798 273.987 237.102C264.291 227.406 258.844 214.256 258.844 200.544V95.4844C258.842 92.4312 257.629 89.5036 255.471 87.3439C253.313 85.1842 250.386 83.9689 247.333 83.9646H154.73C152.741 83.9668 150.833 84.7581 149.426 86.1651C148.019 87.5721 147.228 89.4797 147.226 91.4694V130.334C147.211 142.657 142.307 154.47 133.59 163.181C124.874 171.891 113.057 176.787 100.735 176.793H12.1875V137.839H100.735C102.724 137.837 104.632 137.046 106.039 135.639C107.446 134.232 108.237 132.324 108.239 130.334V91.4694C108.254 79.1524 113.154 67.3442 121.863 58.6347C130.573 49.9253 142.381 45.0257 154.698 45.0107H247.357C260.742 45.0193 273.577 50.3393 283.043 59.8026C292.51 69.2659 297.834 82.0991 297.847 95.4844V200.576C297.853 203.948 299.196 207.179 301.581 209.563C303.966 211.946 307.198 213.287 310.57 213.291H571.833V252.245Z" fill="#EBEBEB"/>
<path d="M168.592 91.4289C167.348 91.4268 166.157 90.9313 165.278 90.0514C164.4 89.1714 163.906 87.9788 163.906 86.7354V38.6045C163.906 37.3618 164.4 36.17 165.279 35.2913C166.157 34.4127 167.349 33.919 168.592 33.919C169.835 33.919 171.028 34.4124 171.908 35.2909C172.788 36.1693 173.283 37.3611 173.285 38.6045V86.7596C173.279 88.0002 172.782 89.1878 171.902 90.0628C171.022 90.9378 169.832 91.4289 168.592 91.4289Z" fill="#E0E0E0"/>
<path d="M155.924 111.803C155.924 113.045 155.43 114.237 154.552 115.116C153.673 115.994 152.481 116.488 151.239 116.488H103.108C101.864 116.488 100.672 115.995 99.7916 115.116C98.9116 114.238 98.4162 113.046 98.4141 111.803C98.4141 111.187 98.5355 110.577 98.7715 110.008C99.0075 109.439 99.3533 108.922 99.7893 108.487C100.225 108.051 100.743 107.707 101.312 107.472C101.881 107.237 102.492 107.116 103.108 107.117H151.239C152.481 107.117 153.673 107.611 154.552 108.49C155.43 109.368 155.924 110.56 155.924 111.803Z" fill="#E0E0E0"/>
<path d="M71.1679 188.248C69.9252 188.248 68.7335 187.754 67.8548 186.876C66.9761 185.997 66.4824 184.805 66.4824 183.563V135.432C66.4824 134.188 66.9758 132.996 67.8543 132.116C68.7327 131.236 69.9245 130.74 71.1679 130.738C71.7839 130.738 72.3938 130.86 72.9628 131.096C73.5318 131.331 74.0487 131.677 74.4839 132.113C74.919 132.549 75.264 133.067 75.499 133.636C75.734 134.205 75.8544 134.816 75.8533 135.432V183.563C75.8533 184.805 75.3597 185.997 74.481 186.876C73.6023 187.754 72.4105 188.248 71.1679 188.248Z" fill="#E0E0E0"/>
<path d="M304.389 115.349C304.389 116.592 303.895 117.785 303.017 118.665C302.138 119.544 300.947 120.04 299.703 120.042H251.572C250.328 120.042 249.134 119.548 248.254 118.667C247.373 117.787 246.879 116.593 246.879 115.349C246.881 114.105 247.376 112.913 248.256 112.035C249.136 111.156 250.329 110.663 251.572 110.663H299.703C300.319 110.663 300.928 110.784 301.496 111.02C302.065 111.255 302.581 111.6 303.016 112.035C303.452 112.471 303.797 112.987 304.032 113.556C304.268 114.124 304.389 114.733 304.389 115.349Z" fill="#E0E0E0"/>
<path d="M304.389 194.411C304.389 195.655 303.895 196.847 303.017 197.727C302.138 198.607 300.947 199.103 299.703 199.105H251.572C250.328 199.105 249.134 198.61 248.254 197.73C247.373 196.85 246.879 195.656 246.879 194.411C246.881 193.168 247.376 191.976 248.256 191.098C249.136 190.219 250.329 189.726 251.572 189.726H299.703C300.319 189.726 300.928 189.847 301.496 190.083C302.065 190.318 302.581 190.663 303.016 191.098C303.452 191.533 303.797 192.05 304.032 192.618C304.268 193.187 304.389 193.796 304.389 194.411Z" fill="#E0E0E0"/>
<path d="M435.67 202.757C436.285 202.756 436.895 202.876 437.464 203.111C438.033 203.346 438.55 203.692 438.985 204.127C439.421 204.562 439.766 205.079 440.001 205.648C440.236 206.217 440.356 206.827 440.355 207.442V255.598C440.356 256.213 440.236 256.823 440.001 257.392C439.766 257.961 439.421 258.478 438.985 258.913C438.55 259.348 438.033 259.693 437.464 259.928C436.895 260.164 436.285 260.284 435.67 260.283C434.427 260.283 433.235 259.789 432.357 258.911C431.478 258.032 430.984 256.84 430.984 255.598V207.442C430.984 206.2 431.478 205.008 432.357 204.129C433.235 203.251 434.427 202.757 435.67 202.757Z" fill="#E0E0E0"/>
<path d="M530.025 202.757C531.268 202.757 532.46 203.251 533.338 204.129C534.217 205.008 534.711 206.2 534.711 207.442V255.598C534.711 256.84 534.217 258.032 533.338 258.911C532.46 259.789 531.268 260.283 530.025 260.283C529.41 260.284 528.8 260.164 528.231 259.928C527.662 259.693 527.145 259.348 526.71 258.913C526.275 258.478 525.929 257.961 525.694 257.392C525.459 256.823 525.339 256.213 525.34 255.598V207.442C525.339 206.827 525.459 206.217 525.694 205.648C525.929 205.079 526.275 204.562 526.71 204.127C527.145 203.692 527.662 203.346 528.231 203.111C528.8 202.876 529.41 202.756 530.025 202.757Z" fill="#E0E0E0"/>
<path d="M242.195 93.2219C241.58 93.2219 240.971 93.1007 240.402 92.8653C239.834 92.6298 239.317 92.2847 238.882 91.8496C238.447 91.4145 238.102 90.898 237.866 90.3295C237.631 89.7611 237.51 89.1518 237.51 88.5365V40.4056C237.509 39.79 237.629 39.1802 237.864 38.6113C238.099 38.0423 238.444 37.5254 238.88 37.0901C239.315 36.6548 239.832 36.3097 240.401 36.0746C240.97 35.8395 241.58 35.719 242.195 35.7201C243.438 35.7201 244.63 36.2137 245.508 37.0924C246.387 37.9711 246.881 39.1629 246.881 40.4056V88.5365C246.881 89.1518 246.759 89.7611 246.524 90.3295C246.289 90.898 245.943 91.4145 245.508 91.8496C245.073 92.2847 244.557 92.6298 243.988 92.8653C243.42 93.1007 242.811 93.2219 242.195 93.2219Z" fill="#E0E0E0"/>
<path d="M521.033 313.188C522.205 313.744 523.251 314.532 524.109 315.503C524.967 316.475 525.619 317.611 526.026 318.842C526.827 321.309 527.053 323.925 526.688 326.493C526.123 331.461 523.303 336.478 520.266 340.444C516.081 336.793 515.12 330.427 514.837 327.163C514.385 322.017 516.695 312.428 521.033 313.196" fill="#007940"/>
<path d="M525.128 348.636C524.84 347.217 524.934 345.747 525.4 344.376C525.865 343.006 526.686 341.783 527.777 340.832C528.887 339.894 530.174 339.188 531.562 338.757C532.95 338.325 534.41 338.176 535.856 338.32C537.189 338.417 538.627 338.804 539.386 339.935C539.714 340.468 539.892 341.079 539.902 341.705C539.912 342.33 539.753 342.947 539.443 343.49C538.809 344.573 537.9 345.471 536.809 346.091C533.182 348.361 529.264 349.896 525.168 348.668" fill="#007940"/>
<path d="M519.764 363.847C519.778 363.504 519.826 363.163 519.909 362.829C520.038 362.11 520.208 361.214 520.418 360.067C520.882 356.997 521.843 354.023 523.262 351.261C524.735 348.498 526.918 346.178 529.587 344.54C530.398 344.06 531.263 343.678 532.164 343.401C532.407 343.32 532.655 343.255 532.907 343.207C533.077 343.207 533.166 343.159 533.174 343.207C531.969 343.625 530.81 344.167 529.716 344.823C527.139 346.493 525.027 348.789 523.577 351.495C522.184 354.234 521.204 357.163 520.668 360.188C520.41 361.343 520.208 362.28 520.046 362.918C519.973 363.234 519.878 363.544 519.764 363.847Z" fill="#263238"/>
<path d="M519.918 320.644C519.955 320.789 519.971 320.938 519.966 321.088C519.966 321.419 520.015 321.839 520.047 322.364C520.104 323.479 520.168 325.087 520.233 327.082C520.362 331.057 520.467 336.558 520.435 342.633C520.403 348.708 520.265 354.209 520.096 358.192C520.015 360.179 519.942 361.787 519.869 362.902C519.869 363.427 519.805 363.847 519.781 364.178C519.78 364.328 519.761 364.477 519.724 364.622C519.712 364.475 519.712 364.326 519.724 364.178C519.724 363.844 519.724 363.416 519.724 362.894C519.724 361.738 519.789 360.139 519.837 358.184C519.934 354.201 520.039 348.708 520.071 342.633C520.104 336.558 520.031 331.065 519.966 327.082C519.966 325.127 519.918 323.528 519.894 322.373C519.894 321.847 519.894 321.419 519.894 321.088C519.891 320.94 519.899 320.791 519.918 320.644Z" fill="#263238"/>
<path d="M517.89 351.657C517.384 348.646 516.167 345.798 514.34 343.351C512.514 340.904 510.131 338.927 507.388 337.584C505.991 336.914 504.157 336.478 503.018 337.52C501.879 338.562 502.129 340.428 502.695 341.874C503.922 344.874 506.01 347.443 508.696 349.257C511.381 351.072 514.544 352.05 517.785 352.069" fill="#007940"/>
<path d="M508.075 342.294C508.381 342.398 508.679 342.527 508.963 342.682C509.309 342.84 509.644 343.02 509.965 343.223C510.405 343.469 510.831 343.738 511.242 344.031C511.75 344.368 512.238 344.735 512.704 345.129C513.251 345.569 513.772 346.041 514.263 346.543C516.556 348.824 518.251 351.634 519.199 354.726C519.402 355.398 519.567 356.08 519.692 356.77C519.809 357.368 519.893 357.972 519.942 358.58C520.015 359.137 519.99 359.646 520.015 360.082C520.028 360.463 520.015 360.843 519.974 361.221C519.973 361.545 519.937 361.867 519.869 362.183C519.788 362.183 519.934 360.801 519.683 358.604C519.619 358.007 519.522 357.413 519.393 356.827C519.261 356.15 519.091 355.481 518.884 354.823C518.394 353.32 517.744 351.874 516.945 350.51C516.119 349.162 515.152 347.905 514.061 346.761C513.582 346.264 513.078 345.792 512.55 345.347C512.099 344.952 511.627 344.579 511.137 344.233C509.303 342.94 508.043 342.367 508.075 342.294Z" fill="#263238"/>
<path d="M244.363 299.705L256.287 312.347V364.623H269.067V312.347L281.5 300.254L244.363 299.705Z" fill="#E0E0E0"/>
<path d="M244.363 299.705L281.524 300.093H281.928L281.637 300.375L269.212 312.493L269.269 312.356C269.269 324.425 269.269 338.069 269.269 352.465C269.269 356.585 269.269 360.656 269.269 364.631V364.841H256.085V364.655C256.085 343.183 256.15 324.796 256.166 312.38V312.461L244.363 299.705L256.376 312.267V312.315C256.376 324.732 256.424 343.118 256.457 364.59L256.255 364.388H269.035L268.825 364.598V352.457C268.825 338.061 268.825 324.417 268.825 312.347V312.267L268.881 312.21L281.338 300.133L281.451 300.424L244.363 299.705Z" fill="#263238"/>
<path d="M269.067 312.518C266.934 312.731 264.788 312.801 262.645 312.728C260.502 312.801 258.356 312.731 256.223 312.518C258.357 312.31 260.502 312.24 262.645 312.308C264.788 312.24 266.933 312.31 269.067 312.518Z" fill="#263238"/>
<path d="M528.501 303H527.765L-5 299.398L-4.17009 234.502L498.659 237.91C500.759 237.923 502.841 237.648 504.786 237.102C506.731 236.556 508.5 235.749 509.991 234.728C511.482 233.707 512.666 232.492 513.473 231.153C514.281 229.814 514.697 228.378 514.697 226.927V177.407C514.697 170.131 516.771 162.926 520.801 156.204C524.831 149.481 530.739 143.373 538.186 138.228C553.226 127.838 573.624 122 594.894 122H834V186.904H624.56C622.473 186.904 620.406 187.188 618.478 187.74C616.55 188.292 614.798 189.102 613.323 190.121C611.848 191.141 610.678 192.352 609.88 193.685C609.083 195.017 608.673 196.445 608.675 197.887V247.593C608.675 262.285 600.229 276.376 585.194 286.766C570.159 297.156 549.767 302.996 528.501 303Z" fill="#455A64"/>
<path d="M82.7725 306.927C81.6155 306.927 80.5059 306.468 79.6878 305.65C78.8698 304.832 78.4102 303.722 78.4102 302.565V235.878C78.4102 234.72 78.8695 233.61 79.6874 232.791C80.5052 231.971 81.6148 231.51 82.7725 231.508C83.3464 231.508 83.9147 231.621 84.445 231.84C84.9752 232.06 85.457 232.382 85.8628 232.788C86.2686 233.194 86.5906 233.675 86.8102 234.206C87.0298 234.736 87.1429 235.304 87.1429 235.878V302.565C87.1407 303.723 86.6793 304.832 85.86 305.65C85.0406 306.468 83.9302 306.927 82.7725 306.927Z" fill="#455A64"/>
<path d="M82.7719 306.927C83.3251 306.901 83.8706 306.786 84.3876 306.587C85.1029 306.294 85.727 305.815 86.1956 305.201C86.6642 304.586 86.9603 303.857 87.0534 303.09C87.1019 299.05 87.0534 293.137 87.0534 285.866C87.0534 278.596 87.0534 269.928 87.0534 260.315C87.0534 255.508 87.0534 250.459 87.0534 245.224V237.243C87.0715 236.574 87.0526 235.906 86.9969 235.239C86.9022 234.594 86.6527 233.982 86.2698 233.454C85.7895 232.783 85.12 232.27 84.3469 231.981C83.5738 231.692 82.7321 231.64 81.9293 231.832C81.1265 232.023 80.3991 232.45 79.8398 233.057C79.2805 233.664 78.9147 234.424 78.7892 235.239C78.7321 235.903 78.7159 236.569 78.7408 237.235C78.7408 239.927 78.7408 242.588 78.7408 245.216C78.7408 250.451 78.7408 255.5 78.7408 260.315C78.7408 269.928 78.7408 278.588 78.6923 285.875C78.6438 293.161 78.6115 299.042 78.6923 303.09C78.7845 303.858 79.0812 304.588 79.5515 305.204C80.0218 305.819 80.6485 306.297 81.3662 306.587C81.8831 306.787 82.4286 306.901 82.9819 306.927H82.5699C82.1599 306.901 81.7566 306.811 81.3743 306.66C80.7564 306.423 80.2029 306.044 79.7586 305.553C79.1293 304.886 78.7252 304.039 78.6034 303.13C78.5065 299.042 78.5388 293.169 78.4984 285.891C78.458 278.612 78.4984 269.944 78.4984 260.331C78.4984 255.484 78.4984 250.467 78.4984 245.232V237.251C78.4774 236.564 78.4963 235.876 78.555 235.191C78.6592 234.478 78.9365 233.801 79.3628 233.22C79.7852 232.629 80.3423 232.148 80.9879 231.816C81.6335 231.484 82.3489 231.311 83.0748 231.311C83.8007 231.311 84.5162 231.484 85.1617 231.816C85.8073 232.148 86.3644 232.629 86.7868 233.22C87.2096 233.8 87.4867 234.473 87.5947 235.183C87.6532 235.87 87.6721 236.561 87.6512 237.251C87.6512 239.949 87.6512 242.615 87.6512 245.232C87.6512 250.467 87.6512 255.516 87.6512 260.323C87.6512 269.936 87.6512 278.596 87.6027 285.875C87.5543 293.153 87.6027 299.034 87.4977 303.122C87.3787 304.03 86.9775 304.878 86.3506 305.545C85.9064 306.036 85.3529 306.415 84.7349 306.652C84.3523 306.801 83.9491 306.891 83.5393 306.919L82.7719 306.927Z" fill="#263238"/>
<path d="M428.154 205.511C427.87 206.01 427.49 206.448 427.036 206.799C426.582 207.151 426.063 207.409 425.509 207.559C424.955 207.709 424.377 207.748 423.808 207.674C423.238 207.6 422.689 207.414 422.192 207.127L351.167 166.105C350.669 165.82 350.232 165.44 349.881 164.986C349.531 164.532 349.273 164.013 349.123 163.459C348.973 162.905 348.933 162.327 349.007 161.758C349.08 161.189 349.266 160.64 349.552 160.143C349.837 159.645 350.217 159.208 350.671 158.857C351.125 158.506 351.644 158.248 352.197 158.098C352.751 157.948 353.329 157.909 353.898 157.982C354.467 158.056 355.016 158.241 355.513 158.527L426.522 199.525C427.025 199.808 427.466 200.189 427.821 200.644C428.176 201.099 428.436 201.621 428.588 202.177C428.74 202.734 428.78 203.315 428.705 203.888C428.631 204.46 428.443 205.012 428.154 205.511Z" fill="#455A64"/>
<path d="M428.154 205.511C428.447 204.937 428.626 204.312 428.679 203.669C428.727 203.033 428.631 202.394 428.399 201.8C428.167 201.206 427.804 200.671 427.338 200.236C426.915 199.862 426.445 199.544 425.94 199.291L408.168 189.088L381.8 173.917L366.233 164.95L358.001 160.2L355.909 158.988C355.263 158.536 354.512 158.258 353.728 158.18C352.949 158.118 352.168 158.277 351.475 158.639C350.783 159.002 350.207 159.553 349.814 160.229C349.422 160.904 349.228 161.677 349.256 162.458C349.283 163.239 349.531 163.997 349.971 164.643C350.425 165.283 351.034 165.797 351.74 166.137L353.841 167.349L362.073 172.107L377.623 181.098L403.951 196.35L421.723 206.666C422.197 206.974 422.707 207.221 423.242 207.402C423.715 207.546 424.21 207.606 424.704 207.579C425.484 207.536 426.238 207.282 426.885 206.844C427.389 206.485 427.82 206.032 428.154 205.511C428.079 205.659 427.995 205.802 427.903 205.939C427.618 206.337 427.269 206.684 426.869 206.965C426.216 207.431 425.448 207.71 424.648 207.773C424.138 207.813 423.626 207.758 423.137 207.612C422.587 207.437 422.062 207.19 421.578 206.876L403.805 196.682L377.43 181.502L361.863 172.535L353.59 167.753L351.49 166.541C350.73 166.169 350.075 165.614 349.583 164.926C349.09 164.214 348.809 163.376 348.773 162.511C348.738 161.646 348.949 160.788 349.383 160.038C349.817 159.289 350.455 158.678 351.223 158.277C351.991 157.877 352.857 157.703 353.72 157.776C354.561 157.846 355.371 158.124 356.078 158.584L358.171 159.796L366.403 164.546L381.953 173.545L408.273 188.789L426.005 199.105C426.52 199.37 426.998 199.701 427.427 200.091C427.793 200.446 428.096 200.861 428.323 201.319C428.672 202.039 428.82 202.84 428.751 203.637C428.702 204.122 428.577 204.597 428.38 205.043C428.316 205.204 428.24 205.361 428.154 205.511Z" fill="#263238"/>
<path d="M515.706 191.722C514.549 191.722 513.438 191.262 512.619 190.444C511.799 189.627 511.338 188.517 511.336 187.359V120.688C511.336 119.529 511.796 118.418 512.616 117.598C513.436 116.779 514.547 116.318 515.706 116.318C516.864 116.32 517.974 116.782 518.791 117.601C519.609 118.42 520.069 119.531 520.069 120.688V187.375C520.064 188.53 519.603 189.635 518.785 190.45C517.968 191.264 516.86 191.722 515.706 191.722Z" fill="#455A64"/>
<path d="M515.707 191.721C516.26 191.695 516.805 191.581 517.322 191.382C518.04 191.091 518.667 190.614 519.137 189.998C519.608 189.383 519.904 188.653 519.996 187.884C519.996 183.845 519.996 177.932 519.996 170.669C519.996 163.407 519.996 154.722 519.948 145.109C519.948 140.303 519.948 135.254 519.948 130.019C519.948 127.401 519.948 124.736 519.948 122.037C519.973 121.369 519.956 120.7 519.899 120.034C519.799 119.389 519.547 118.777 519.164 118.249C518.78 117.713 518.273 117.277 517.687 116.976C517.1 116.675 516.451 116.518 515.792 116.518C515.132 116.518 514.483 116.675 513.896 116.976C513.31 117.277 512.803 117.713 512.419 118.249C512.035 118.779 511.785 119.394 511.692 120.042C511.632 120.705 511.613 121.372 511.635 122.037C511.635 124.73 511.635 127.393 511.635 130.027C511.635 135.254 511.635 140.311 511.635 145.117C511.635 154.73 511.635 163.399 511.587 170.677C511.538 177.956 511.514 183.853 511.587 187.892C511.68 188.66 511.976 189.388 512.445 190.003C512.913 190.618 513.537 191.097 514.253 191.39C514.77 191.589 515.315 191.703 515.868 191.729H515.448C515.04 191.694 514.638 191.605 514.253 191.463C513.636 191.22 513.083 190.838 512.637 190.348C512.009 189.68 511.606 188.833 511.482 187.925C511.385 183.837 511.417 177.964 511.385 170.685C511.353 163.407 511.385 154.739 511.336 145.125C511.336 140.319 511.336 135.262 511.336 130.035V122.045C511.315 121.358 511.334 120.67 511.393 119.985C511.502 119.274 511.779 118.598 512.201 118.014C512.623 117.424 513.18 116.943 513.826 116.611C514.471 116.279 515.187 116.106 515.913 116.106C516.639 116.106 517.354 116.279 518 116.611C518.645 116.943 519.202 117.424 519.625 118.014C520.051 118.592 520.328 119.267 520.433 119.977C520.491 120.665 520.51 121.356 520.489 122.045V130.027C520.489 135.262 520.489 140.311 520.489 145.117C520.489 154.73 520.489 163.391 520.449 170.677C520.408 177.964 520.449 183.829 520.344 187.916C520.218 188.824 519.815 189.671 519.189 190.34C518.742 190.83 518.19 191.211 517.573 191.455C517.188 191.597 516.786 191.686 516.377 191.721H515.707Z" fill="#263238"/>
<path d="M311.9 306.927C310.742 306.927 309.632 306.468 308.812 305.65C307.993 304.832 307.531 303.723 307.529 302.565V235.878C307.529 234.719 307.99 233.607 308.809 232.788C309.629 231.968 310.741 231.508 311.9 231.508C313.057 231.51 314.167 231.971 314.985 232.791C315.803 233.61 316.262 234.72 316.262 235.878V302.565C316.262 303.722 315.802 304.832 314.984 305.65C314.166 306.468 313.057 306.927 311.9 306.927Z" fill="#455A64"/>
<path d="M311.9 306.927C312.439 306.897 312.971 306.783 313.475 306.588C314.193 306.297 314.819 305.819 315.29 305.204C315.76 304.589 316.057 303.859 316.149 303.09C316.197 299.051 316.149 293.137 316.149 285.867C316.149 278.596 316.149 269.928 316.1 260.315C316.1 255.508 316.1 250.459 316.1 245.224V237.243C316.118 236.575 316.099 235.906 316.044 235.239C315.949 234.594 315.7 233.982 315.317 233.454C314.932 232.919 314.426 232.483 313.839 232.182C313.253 231.881 312.603 231.724 311.944 231.724C311.285 231.724 310.635 231.881 310.049 232.182C309.462 232.483 308.956 232.919 308.571 233.454C308.184 233.983 307.932 234.599 307.836 235.248C307.78 235.911 307.761 236.577 307.78 237.243V245.224C307.78 250.459 307.78 255.508 307.78 260.323C307.78 269.936 307.78 278.596 307.739 285.883C307.699 293.169 307.658 299.05 307.739 303.098C307.832 303.865 308.128 304.594 308.597 305.209C309.066 305.824 309.69 306.302 310.405 306.596C310.922 306.794 311.467 306.909 312.021 306.935H311.601C311.193 306.908 310.793 306.818 310.413 306.668C309.795 306.432 309.241 306.053 308.797 305.562C308.171 304.894 307.769 304.046 307.65 303.138C307.545 299.051 307.578 293.178 307.545 285.899C307.513 278.62 307.545 269.952 307.497 260.339C307.497 255.492 307.497 250.475 307.497 245.24C307.497 242.623 307.497 239.963 307.497 237.259C307.474 236.572 307.496 235.884 307.561 235.199C307.669 234.487 307.946 233.811 308.369 233.228C308.793 232.638 309.35 232.157 309.997 231.825C310.643 231.493 311.359 231.32 312.085 231.32C312.812 231.32 313.528 231.493 314.174 231.825C314.82 232.157 315.378 232.638 315.801 233.228C316.228 233.806 316.505 234.48 316.609 235.191C316.668 235.879 316.687 236.569 316.666 237.259V245.24C316.666 250.475 316.666 255.524 316.666 260.331C316.666 269.944 316.666 278.604 316.666 285.883C316.666 293.161 316.666 299.042 316.561 303.13C316.439 304.039 316.035 304.887 315.406 305.554C314.963 306.046 314.409 306.425 313.79 306.66C313.408 306.811 313.004 306.901 312.594 306.927H311.9Z" fill="#263238"/>
<path d="M218.544 306.927C217.387 306.927 216.276 306.468 215.457 305.65C214.637 304.832 214.176 303.723 214.174 302.565V235.878C214.174 234.719 214.634 233.607 215.454 232.788C216.273 231.968 217.385 231.508 218.544 231.508C219.702 231.51 220.811 231.971 221.629 232.791C222.447 233.61 222.907 234.72 222.907 235.878V302.565C222.907 303.722 222.447 304.832 221.629 305.65C220.811 306.468 219.701 306.927 218.544 306.927Z" fill="#455A64"/>
<path d="M218.546 306.927C219.086 306.896 219.617 306.782 220.121 306.587C220.839 306.297 221.466 305.819 221.936 305.204C222.406 304.588 222.703 303.858 222.795 303.09C222.836 299.05 222.795 293.137 222.795 285.866C222.795 278.596 222.795 269.928 222.747 260.315C222.747 255.508 222.747 250.459 222.747 245.224C222.747 242.607 222.747 239.941 222.747 237.243C222.772 236.575 222.755 235.905 222.698 235.239C222.543 234.261 222.045 233.369 221.293 232.724C220.542 232.079 219.585 231.722 218.595 231.717C217.936 231.72 217.286 231.878 216.7 232.179C216.113 232.479 215.606 232.913 215.218 233.446C214.834 233.976 214.584 234.591 214.491 235.239C214.431 235.903 214.412 236.569 214.434 237.235C214.434 239.927 214.434 242.588 214.434 245.216C214.434 250.451 214.434 255.5 214.434 260.315C214.434 269.928 214.434 278.588 214.386 285.875C214.337 293.161 214.313 299.042 214.386 303.09C214.479 303.857 214.775 304.586 215.244 305.201C215.712 305.815 216.336 306.294 217.052 306.587C217.569 306.786 218.114 306.901 218.667 306.927H218.247C217.837 306.899 217.434 306.809 217.052 306.66C216.434 306.423 215.88 306.044 215.436 305.553C214.81 304.884 214.406 304.038 214.281 303.13C214.184 299.042 214.216 293.169 214.184 285.891C214.151 278.612 214.184 269.944 214.135 260.331C214.135 255.484 214.135 250.467 214.135 245.232V237.251C214.114 236.564 214.133 235.876 214.192 235.191C214.3 234.479 214.577 233.803 215 233.22C215.422 232.629 215.979 232.148 216.625 231.816C217.27 231.484 217.986 231.311 218.712 231.311C219.438 231.311 220.153 231.484 220.799 231.816C221.444 232.148 222.001 232.629 222.424 233.22C222.85 233.798 223.127 234.472 223.232 235.183C223.29 235.87 223.309 236.561 223.288 237.251V245.232C223.288 250.467 223.288 255.516 223.288 260.323C223.288 269.936 223.288 278.596 223.248 285.875C223.207 293.153 223.248 299.034 223.143 303.122C223.017 304.03 222.614 304.876 221.987 305.545C221.543 306.036 220.99 306.415 220.372 306.652C219.989 306.801 219.586 306.891 219.176 306.919L218.546 306.927Z" fill="#263238"/>
<g opacity="0.3">
<path d="M367.322 166.089C367.322 166.089 397.834 171.041 424.331 198.169L367.322 166.089Z" fill="black"/>
</g>
<g opacity="0.3">
<path d="M316.262 238.091C316.262 238.091 326.909 267.109 316.262 303.526V238.091Z" fill="black"/>
</g>
<g opacity="0.3">
<path d="M223.046 238.091C223.046 238.091 233.547 264.944 222.908 301.337L223.046 238.091Z" fill="black"/>
</g>
<g opacity="0.3">
<path d="M86.7367 238.091C86.7367 238.091 97.2386 264.944 86.6074 301.337L86.7367 238.091Z" fill="black"/>
</g>
<g opacity="0.3">
<path d="M520.07 120.688C520.07 120.688 530.718 149.705 520.07 186.123V120.688Z" fill="black"/>
</g>
<path d="M15.6172 299.058L27.662 311.83V364.622H40.5632V311.83L53.125 299.624L15.6172 299.058Z" fill="#E0E0E0"/>
<path d="M15.6172 299.058L53.125 299.454H53.529L53.2381 299.737L40.6924 311.968L40.749 311.83C40.749 324.021 40.749 337.794 40.749 352.335C40.749 356.504 40.749 360.607 40.749 364.622V364.832H27.452V364.655C27.452 342.964 27.5166 324.4 27.5409 311.863V311.951L15.6172 299.058L27.7347 311.749V311.798C27.7347 324.336 27.7832 342.9 27.8155 364.59L27.6136 364.388H40.539L40.3289 364.598V352.335C40.3289 337.794 40.3289 324.021 40.3289 311.83V311.749L40.3855 311.693L52.9635 299.503L53.0766 299.785L15.6172 299.058Z" fill="#263238"/>
<path d="M40.5621 312.008C38.4145 312.215 36.2559 312.285 34.0994 312.218C31.9429 312.285 29.7843 312.215 27.6367 312.008C29.784 311.797 31.9429 311.727 34.0994 311.798C36.2559 311.727 38.4148 311.797 40.5621 312.008Z" fill="#263238"/>
<path d="M446.871 186.083L459.506 199.477V364.623H473.029V199.477L486.803 186.083H446.871Z" fill="#E0E0E0"/>
<path d="M446.871 186.123L486.803 186.002H487.109L486.891 186.212L473.158 199.622V199.517C473.158 237.591 473.199 291.433 473.223 351.051V364.873H459.296V364.655C459.344 290.52 459.393 228.551 459.417 199.509V199.566L446.871 186.123L459.562 199.461C459.562 228.543 459.627 290.472 459.683 364.607L459.473 364.397H473.005L472.795 364.607V351.011C472.795 291.392 472.843 237.55 472.859 199.477V199.412L472.908 199.372L486.697 185.994L486.778 186.204L446.871 186.123Z" fill="#263238"/>
<path d="M473.027 199.654C468.5 199.934 463.959 199.934 459.432 199.654C463.959 199.374 468.5 199.374 473.027 199.654Z" fill="#263238"/>
<path d="M307.545 301.878C307.545 301.991 288.601 301.967 265.238 301.813C241.876 301.66 222.924 301.45 222.924 301.337C222.924 301.224 241.868 301.248 265.238 301.393C288.609 301.539 307.545 301.757 307.545 301.878Z" fill="#263238"/>
<path d="M420.8 67.7504C416.055 78.67 415.124 90.8693 418.158 102.382C419.029 105.63 420.214 108.784 421.697 111.802C421.822 112.046 421.996 112.262 422.208 112.436C422.419 112.611 422.664 112.741 422.928 112.817C423.191 112.894 423.468 112.916 423.74 112.883C424.013 112.849 424.275 112.76 424.512 112.622C424.749 112.483 424.955 112.298 425.118 112.077C425.281 111.856 425.397 111.604 425.46 111.337C425.522 111.07 425.529 110.793 425.481 110.523C425.432 110.252 425.33 109.995 425.178 109.766C422.201 103.548 420.581 96.7684 420.427 89.8766C420.272 82.9848 421.586 76.139 424.282 69.7942C424.536 69.3287 424.603 68.7837 424.469 68.2704C424.336 67.757 424.012 67.314 423.563 67.0314C423.099 66.7635 422.549 66.6895 422.032 66.8257C421.514 66.9619 421.071 67.2972 420.8 67.7585V67.7504Z" fill="#E0E0E0"/>
<path d="M422.869 102.56L431.327 90.2084C431.593 89.7456 431.667 89.1966 431.533 88.6798C431.398 88.163 431.066 87.7197 430.608 87.4456C430.142 87.1881 429.595 87.1199 429.081 87.2553C428.566 87.3908 428.124 87.7193 427.845 88.1726L419.379 100.492C419.113 100.956 419.04 101.506 419.176 102.022C419.312 102.539 419.646 102.982 420.106 103.255C420.572 103.512 421.119 103.581 421.633 103.445C422.148 103.31 422.59 102.981 422.869 102.528V102.56Z" fill="#E0E0E0"/>
<path d="M418.848 90.184C422.616 90.4259 426.397 90.38 430.157 90.0466C430.693 90.0466 431.207 89.8339 431.585 89.4551C431.964 89.0764 432.177 88.5627 432.177 88.027C432.177 87.4914 431.964 86.9777 431.585 86.599C431.207 86.2202 430.693 86.0074 430.157 86.0074C426.397 86.3408 422.616 86.3867 418.848 86.1448C418.313 86.1469 417.8 86.3604 417.422 86.7387C417.044 87.1169 416.83 87.6294 416.828 88.1644C416.84 88.6961 417.057 89.2027 417.433 89.5788C417.809 89.9549 418.316 90.1716 418.848 90.184Z" fill="#E0E0E0"/>
<path d="M419.686 74.4472C422.559 78.5615 425.181 82.8454 427.538 87.2757C427.811 87.7353 428.253 88.0692 428.77 88.2052C429.287 88.3413 429.837 88.2685 430.301 88.0027C430.755 87.7256 431.085 87.283 431.221 86.7679C431.356 86.2527 431.287 85.7051 431.028 85.2399C428.668 80.8087 426.046 76.5223 423.175 72.4034C422.896 71.9515 422.452 71.6246 421.938 71.4907C421.424 71.3569 420.877 71.4262 420.413 71.6844C419.953 71.9573 419.619 72.4 419.483 72.9169C419.347 73.4338 419.42 73.9835 419.686 74.4472Z" fill="#E0E0E0"/>
<path d="M344.897 327.082L342.716 351.932C342.716 351.932 367.242 362.498 367.322 367.135L318.949 364.655L320.759 325.79L344.897 327.082Z" fill="#455A64"/>
<path d="M327.877 349.064C327.405 349.183 326.994 349.471 326.722 349.873C326.449 350.275 326.334 350.763 326.398 351.245C326.498 351.721 326.776 352.142 327.176 352.419C327.575 352.697 328.066 352.812 328.547 352.74C329.049 352.613 329.485 352.305 329.773 351.876C330.061 351.446 330.18 350.925 330.106 350.413C329.832 349.484 328.571 348.7 327.683 349.12" fill="#E0E0E0"/>
<path d="M318.852 365.648L319.029 361.876L365.496 364.582C365.496 364.582 367.605 365.632 367.281 367.135L318.852 365.648Z" fill="#E0E0E0"/>
<path d="M343.515 351.73C343.515 351.964 342.304 352.012 341.092 352.707C339.88 353.402 339.218 354.371 339.008 354.266C338.798 354.161 339.218 352.812 340.688 351.996C342.158 351.18 343.572 351.512 343.515 351.73Z" fill="#263238"/>
<path d="M348.475 354.088C348.516 354.322 347.474 354.669 346.617 355.623C345.761 356.576 345.478 357.626 345.244 357.602C345.01 357.578 344.929 356.237 346.011 355.065C347.094 353.894 348.483 353.862 348.475 354.088Z" fill="#263238"/>
<path d="M351.036 360.308C350.826 360.308 350.551 359.145 351.23 357.885C351.908 356.625 353.031 356.172 353.12 356.366C353.209 356.56 352.49 357.23 351.957 358.273C351.424 359.315 351.278 360.292 351.036 360.308Z" fill="#263238"/>
<path d="M343.386 346.01C343.273 346.22 342.206 345.84 340.865 345.856C339.524 345.872 338.442 346.252 338.353 346.042C338.264 345.832 339.282 345.04 340.865 345.04C342.449 345.04 343.507 345.832 343.386 346.01Z" fill="#263238"/>
<path d="M337.432 77.267C337.295 80.1913 337.045 83.3823 335.009 85.515C333.296 87.3407 330.679 87.9385 328.207 88.302C326.817 88.5427 325.4 88.5862 323.998 88.4313C322.588 88.2729 321.271 87.6473 320.258 86.654C319.761 86.1514 319.405 85.5274 319.225 84.8441C319.045 84.1609 319.047 83.4423 319.232 82.7603C318.447 82.891 317.64 82.8051 316.9 82.5119C316.16 82.2187 315.514 81.7292 315.031 81.0961C314.562 80.4552 314.235 79.7216 314.072 78.9443C313.909 78.1669 313.914 77.3638 314.086 76.5884C314.449 75.0206 315.297 73.6072 316.509 72.5492C315.805 71.9649 315.309 71.1689 315.093 70.2795C314.878 69.3902 314.955 68.4551 315.314 67.6133C316.34 64.5839 318.545 64.0831 320.33 64.6243C320.039 64.2084 319.855 63.7268 319.796 63.2225C319.736 62.7183 319.801 62.2071 319.987 61.7344C320.172 61.2617 320.472 60.8423 320.859 60.5135C321.246 60.1847 321.708 59.9568 322.205 59.85L325.315 59.2926L337.432 77.267Z" fill="#263238"/>
<path d="M362.953 56.0611C363.32 55.3598 363.499 54.5749 363.471 53.7837C363.443 52.9924 363.21 52.2221 362.794 51.5482C362.379 50.8743 361.795 50.3201 361.101 49.94C360.406 49.56 359.625 49.3671 358.833 49.3803L351.74 50.996L354.794 62.9601C354.983 64.1347 355.505 65.2307 356.296 66.1187C356.733 66.472 357.236 66.7329 357.776 66.8856C358.317 67.0384 358.882 67.0798 359.439 67.0073C360.662 66.8998 361.826 66.4339 362.785 65.6679C363.744 64.9018 364.455 63.8698 364.831 62.7011C365.206 61.5324 365.228 60.2789 364.894 59.0978C364.56 57.9166 363.885 56.8603 362.953 56.0611Z" fill="#263238"/>
<path d="M343.514 106.244C340.629 106.468 337.771 105.553 335.551 103.696C333.332 101.839 331.928 99.187 331.639 96.3077L328.052 60.254C326.783 50.5599 331.34 41.8191 341.026 40.8093L341.922 40.7689C346.293 40.5721 350.577 42.0279 353.922 44.8466C357.268 47.6652 359.43 51.6402 359.977 55.9805C361.036 64.3497 362.094 73.6156 362.248 78.1314C362.546 87.47 353.281 89.3361 353.281 89.3361C353.281 89.3361 354.355 95.4918 354.597 98.2223C355.139 104.362 349.653 105.767 343.514 106.244Z" fill="#B56760"/>
<path d="M353.089 89.1823C348.776 89.3634 344.501 88.3067 340.77 86.1367C340.77 86.1367 344.203 92.8014 353.477 91.5411L353.089 89.1823Z" fill="#8A4A43"/>
<path d="M358.001 63.9778C358.019 64.3257 357.901 64.6669 357.672 64.9293C357.443 65.1916 357.121 65.3545 356.773 65.3834C356.604 65.4047 356.433 65.392 356.269 65.346C356.105 65.3 355.952 65.2216 355.818 65.1154C355.685 65.0093 355.574 64.8775 355.493 64.7279C355.411 64.5783 355.361 64.4139 355.344 64.2444C355.326 63.8965 355.444 63.5552 355.673 63.2929C355.902 63.0305 356.224 62.8676 356.571 62.8387C356.741 62.8174 356.912 62.8301 357.076 62.8761C357.24 62.9222 357.393 63.0006 357.527 63.1067C357.66 63.2129 357.771 63.3446 357.852 63.4942C357.934 63.6438 357.984 63.8083 358.001 63.9778Z" fill="#263238"/>
<path d="M357.967 59.769C357.806 59.9467 356.764 59.2439 355.334 59.3166C353.904 59.3893 352.91 60.1244 352.717 59.979C352.523 59.8336 352.789 59.5832 353.234 59.2277C353.835 58.7709 354.563 58.5113 355.318 58.4845C356.064 58.4462 356.802 58.6472 357.426 59.0581C357.879 59.3812 358.048 59.6882 357.967 59.769Z" fill="#263238"/>
<path d="M344.476 64.8744C344.496 65.2215 344.38 65.5627 344.152 65.8253C343.924 66.0879 343.602 66.2511 343.256 66.28C343.086 66.3013 342.914 66.2883 342.749 66.2418C342.585 66.1953 342.431 66.1162 342.298 66.0092C342.165 65.9022 342.054 65.7695 341.973 65.6189C341.892 65.4684 341.842 65.3031 341.826 65.1329C341.808 64.7806 341.931 64.4357 342.167 64.1737C342.403 63.9118 342.734 63.7541 343.086 63.7353C343.421 63.7037 343.755 63.8057 344.015 64.019C344.275 64.2323 344.441 64.5397 344.476 64.8744Z" fill="#263238"/>
<path d="M343.944 60.9808C343.782 61.1585 342.74 60.4638 341.31 60.5284C339.881 60.593 338.887 61.3362 338.693 61.1908C338.499 61.0454 338.766 60.795 339.21 60.4395C339.813 59.9859 340.54 59.7267 341.294 59.6963C342.04 59.6608 342.778 59.8616 343.403 60.2699C343.896 60.593 344.025 60.9081 343.944 60.9808Z" fill="#263238"/>
<path d="M349.548 71.7734C350.294 71.5046 351.07 71.3282 351.859 71.2483C352.222 71.1918 352.57 71.1029 352.618 70.8525C352.632 70.4731 352.531 70.0985 352.327 69.7781C351.94 68.9056 351.519 67.9927 351.116 67.0314C349.435 63.1296 348.199 59.9144 348.353 59.8497C348.506 59.7851 350.009 62.8953 351.689 66.7971L352.852 69.5519C353.105 69.9828 353.197 70.4895 353.111 70.9817C353.064 71.1144 352.987 71.2345 352.886 71.3326C352.785 71.4307 352.663 71.5042 352.529 71.5472C352.33 71.6112 352.124 71.6492 351.915 71.6603C351.134 71.7972 350.339 71.8352 349.548 71.7734Z" fill="#263238"/>
<path d="M348.8 75.6187C348.732 75.2788 348.569 74.965 348.33 74.7135C348.091 74.462 347.787 74.2829 347.451 74.1969C347.049 74.1215 346.633 74.1752 346.263 74.3504C346.082 74.4431 345.922 74.5719 345.793 74.7289C345.664 74.8859 345.568 75.0678 345.512 75.2633C345.504 75.3249 345.504 75.3874 345.512 75.4491C345.451 75.5554 345.415 75.6742 345.407 75.7964C345.358 76.1616 345.398 76.533 345.521 76.88C345.645 77.227 345.849 77.5396 346.118 77.7918C346.446 78.0761 346.871 78.2236 347.305 78.2038C347.717 78.1664 348.099 77.9727 348.372 77.6625C348.596 77.3779 348.751 77.0453 348.825 76.6908C348.899 76.3362 348.891 75.9693 348.8 75.6187Z" fill="#8A4A43"/>
<path d="M345.407 72.9529C345.641 72.9529 345.714 74.4878 347.096 75.5299C348.477 76.572 350.133 76.3377 350.149 76.5478C350.165 76.7578 349.794 76.8628 349.099 76.9194C348.187 76.9713 347.286 76.6995 346.554 76.1519C345.848 75.6309 345.376 74.8534 345.238 73.9869C345.149 73.3406 345.302 72.9448 345.407 72.9529Z" fill="#263238"/>
<path d="M343.895 56.0125C343.765 56.4084 342.327 56.2872 340.663 56.5619C338.999 56.8365 337.65 57.3697 337.432 57.0223C337.327 56.8608 337.545 56.4811 338.078 56.0853C338.785 55.5804 339.602 55.2508 340.461 55.1239C341.318 54.9845 342.195 55.0482 343.022 55.3097C343.644 55.5278 343.967 55.8267 343.895 56.0125Z" fill="#263238"/>
<path d="M357.167 54.5097C356.925 54.849 355.923 54.5582 354.743 54.5905C353.564 54.6228 352.562 54.9136 352.32 54.5905C352.207 54.4289 352.32 54.0977 352.78 53.7827C353.355 53.3873 354.034 53.171 354.731 53.1609C355.428 53.1508 356.113 53.3475 356.698 53.7261C357.119 54.0169 357.272 54.3482 357.167 54.5097Z" fill="#263238"/>
<path d="M328.934 66.9584C328.772 66.8938 322.471 65.3427 322.924 71.7246C323.376 78.1066 329.709 76.2889 329.709 76.1031C329.709 75.9173 328.934 66.9584 328.934 66.9584Z" fill="#B56760"/>
<path d="M327.576 73.8335C327.576 73.8335 327.471 73.9142 327.294 74.0193C327.044 74.1453 326.756 74.174 326.486 74.1001C325.799 73.9062 325.145 72.8802 325.024 71.7331C324.97 71.1868 325.036 70.6354 325.218 70.1174C325.261 69.914 325.353 69.7243 325.487 69.5652C325.621 69.406 325.792 69.2821 325.985 69.2046C326.11 69.1604 326.246 69.1613 326.37 69.2071C326.494 69.2528 326.598 69.3405 326.664 69.455C326.761 69.6246 326.728 69.762 326.769 69.77C326.809 69.7781 326.898 69.6489 326.825 69.3904C326.775 69.2364 326.675 69.103 326.542 69.0107C326.451 68.9499 326.347 68.9085 326.239 68.8891C326.131 68.8696 326.019 68.8725 325.912 68.8976C325.655 68.9697 325.421 69.1062 325.232 69.2942C325.042 69.4823 324.904 69.7156 324.83 69.972C324.603 70.5464 324.52 71.1676 324.587 71.7816C324.725 73.0579 325.476 74.2051 326.413 74.407C326.588 74.4446 326.769 74.4416 326.943 74.3981C327.117 74.3547 327.278 74.2721 327.415 74.1566C327.576 73.995 327.601 73.8335 327.576 73.8335Z" fill="#8A4A43"/>
<path d="M337.435 52.0217C336.564 51.394 335.51 51.073 334.438 51.1089C331.65 50.9971 328.887 51.6717 326.464 53.0558C325.149 53.7134 324.071 54.7635 323.378 56.0609C323.052 56.7148 322.935 57.4534 323.043 58.1762C323.152 58.899 323.48 59.5708 323.984 60.1001C323.101 60.735 322.479 61.6699 322.235 62.73C321.991 63.79 322.142 64.9027 322.658 65.8599C323.175 66.8172 324.023 67.5534 325.043 67.9311C326.063 68.3087 327.186 68.3019 328.201 67.9119C328.288 68.3957 328.497 68.8494 328.807 69.2308C329.117 69.6122 329.519 69.9087 329.975 70.0927C330.431 70.2766 330.926 70.342 331.414 70.2827C331.902 70.2235 332.367 70.0415 332.765 69.7537C333.18 69.4429 333.538 69.0631 333.824 68.6308C334.922 67.0152 334.809 63.9939 334.316 62.0712C334.951 61.9987 335.561 61.7838 336.101 61.4424C336.641 61.1011 337.097 60.6423 337.435 60.1001C338.099 59.0009 338.498 57.7615 338.598 56.481C338.784 54.8734 338.63 53.0477 337.435 52.0217Z" fill="#263238"/>
<path d="M333.328 34.3707C332.899 34.4919 322.704 38.4099 321.21 46.6822C319.715 54.9544 320.854 57.184 320.854 57.184C320.482 57.5071 320.158 57.8826 319.893 58.2989C319.53 58.8724 320.539 61.2555 321.872 60.7789C331.51 54.6959 343.644 52.442 357.296 50.8668L367.677 49.2026C370.641 49.1138 371.554 48.1928 370.213 47.6435C369.187 47.2153 360.43 45.115 360.43 45.115L358.637 44.1698L353.459 38.8461C353.459 38.8461 353.871 37.9414 352.716 37.4001C351.56 36.8589 341.761 31.9068 333.328 34.3707Z" fill="#007940"/>
<g opacity="0.3">
<path d="M324.377 40.4211C324.377 40.4211 335.477 36.907 340.93 38.6115L340.291 38.4015L345.413 39.8071C346.277 40.0495 347.287 40.2595 348.014 39.7344C345.577 38.3057 342.895 37.3415 340.106 36.8908C335.113 35.9861 327.463 36.3981 324.377 40.4211Z" fill="black"/>
</g>
<path d="M324.225 40.5023C324.51 40.2095 324.818 39.9394 325.146 39.6945C326.028 39.0018 326.988 38.4136 328.005 37.9415C329.517 37.2413 331.123 36.765 332.772 36.5278C334.794 36.1857 336.866 36.2849 338.846 36.8186C339.858 37.1181 340.85 37.4768 341.819 37.893C342.748 38.305 343.669 38.6443 344.517 39.0563C345.291 39.4875 346.102 39.8471 346.941 40.1307C347.675 40.3459 348.45 40.3874 349.203 40.2519C351.998 39.8803 353.63 39.0482 353.476 38.8948C353.445 38.9973 353.38 39.0859 353.291 39.1452C353.038 39.3148 352.767 39.4557 352.483 39.5653C351.437 39.9466 350.354 40.2174 349.251 40.3731C348.478 40.5178 347.682 40.4819 346.925 40.2681C346.089 39.9812 345.278 39.6245 344.501 39.2017C343.693 38.7897 342.74 38.4504 341.803 38.0465C340.844 37.6295 339.859 37.2733 338.855 36.9802C336.897 36.4596 334.852 36.3578 332.852 36.6813C331.216 36.9136 329.62 37.3731 328.11 38.0465C327.096 38.5068 326.134 39.0756 325.242 39.743C324.927 39.9773 324.685 40.1711 324.532 40.3085C324.434 40.3802 324.331 40.445 324.225 40.5023Z" fill="#263238"/>
<g opacity="0.3">
<path d="M320.709 50.1073C322.594 49.711 324.429 49.104 326.178 48.2977C328.263 47.4899 330.347 46.8194 332.391 45.9308C333.95 45.2602 335.8 44.5897 336.688 43.2649C336.823 43.652 336.857 44.0671 336.788 44.4711C336.719 44.8752 336.548 45.2551 336.292 45.5753C335.337 46.43 334.245 47.1182 333.061 47.6111C328.545 49.5983 325.379 50.9393 320.523 52.0218C320.543 51.3883 320.605 50.7567 320.709 50.1315" fill="black"/>
</g>
<path d="M321.42 45.7696C320.216 46.5209 319.473 47.0136 319.602 48.1204C319.707 49.0413 320.055 50.1319 320.984 50.1642C321.262 50.1525 321.536 50.0896 321.792 49.9784L335.452 45.0748C335.936 44.9563 336.363 44.6701 336.656 44.267C336.794 43.9122 336.787 43.5173 336.635 43.168C336.484 42.8186 336.201 42.543 335.848 42.4009C335.139 42.1328 334.367 42.0766 333.626 42.2393C329.405 42.8517 325.286 44.031 321.38 45.7453" fill="#007940"/>
<path d="M336.479 44.5251C336.634 44.3322 336.732 44.1 336.762 43.8546C336.798 43.5259 336.741 43.1937 336.598 42.8955C336.456 42.5972 336.233 42.3446 335.954 42.1662C335.031 41.7698 334.001 41.6959 333.03 41.9562C331.907 42.1743 330.679 42.4409 329.403 42.764C327.21 43.2812 325.069 43.995 323.005 44.8967C322.197 45.2441 321.591 45.5672 321.163 45.7934L320.67 46.0519C320.614 46.0877 320.554 46.1174 320.492 46.1408C320.541 46.0962 320.595 46.0581 320.654 46.0277L321.13 45.7288C321.55 45.4864 322.164 45.1471 322.948 44.7836C325.006 43.8432 327.152 43.1072 329.354 42.5863C330.639 42.2632 331.875 42.0127 332.998 41.7785C334.005 41.5157 335.073 41.6099 336.019 42.0451C336.311 42.239 336.542 42.5121 336.685 42.8325C336.829 43.1529 336.877 43.5074 336.827 43.8546C336.798 44.0423 336.723 44.22 336.609 44.3716C336.536 44.4847 336.479 44.5332 336.479 44.5251Z" fill="#263238"/>
<path d="M355.093 40.5588L346.215 41.6737L347.33 44.0568L356.927 42.4411L355.093 40.5588Z" fill="white"/>
<path d="M342.852 50.4062C342.852 50.4062 346.705 49.2187 351.487 47.8616C356.27 46.5044 360.147 45.438 360.164 45.438C360.18 45.438 356.31 46.6256 351.536 47.9908C346.761 49.3561 342.868 50.4062 342.852 50.4062Z" fill="#263238"/>
<path d="M404.719 71.6525L382.745 95.4837L356.418 100.573L364.092 123.435L388.101 115.219C392.53 113.737 396.361 110.864 399.023 107.028C404.678 98.6181 414.372 81.1284 414.372 81.1284L404.719 71.6525Z" fill="#007940"/>
<path d="M390.096 87.5103L402.746 101.219L406.43 95.0798L394.765 82.4452L390.096 87.5103Z" fill="white"/>
<path d="M409.83 65.917C409.83 65.917 420.219 57.4993 422.352 57.2731C424.485 57.0469 425.939 56.4653 427.401 57.7255C428.863 58.9857 431.747 62.5725 432.086 63.6954C432.426 64.8183 431.674 67.2984 431.674 67.2984C431.029 66.1365 430.168 65.1083 429.138 64.269C428.33 63.6631 425.252 62.7745 424.808 65.6908C424.532 67.2947 424.532 68.9339 424.808 70.5378L426.528 70.2954L427.659 73.8661L416.293 74.3508L413.288 80.0056L404.717 71.6526L409.83 65.917Z" fill="#B56760"/>
<g opacity="0.3">
<path d="M356.73 100.573C356.73 100.573 362.781 103.32 365.39 109.5C368 115.68 366.416 122.635 366.416 122.635L356.73 100.573Z" fill="black"/>
</g>
<path d="M326.374 275.793C322.577 293.492 318.4 348.151 318.4 348.151L345.107 349.039L354.729 293.88C354.729 293.88 359.075 274.492 361.733 263.853C364.1 254.337 372.057 180.937 372.057 180.937L325.8 182.019C325.8 182.019 324.031 186.22 322.835 197.505C321.866 206.666 321.914 211.788 322.633 216.32C323.059 218.986 324.042 221.532 325.517 223.792L328.951 231.2L326.374 275.793Z" fill="#007940"/>
<path d="M462.163 104.378H453.898V118.183H462.163V104.378Z" fill="#E0E0E0"/>
<path d="M471.47 117.772H445.732V121.536H471.47V117.772Z" fill="#E0E0E0"/>
<path d="M444.704 82.6145H433.928V88.3663H444.704V82.6145Z" fill="#E0E0E0"/>
<path d="M471.477 70.7959H443.873V104.895H471.477V70.7959Z" fill="#E0E0E0"/>
<path d="M463.292 92.7647C466.397 89.6604 466.397 84.6273 463.292 81.523C460.188 78.4187 455.155 78.4186 452.051 81.523C448.946 84.6273 448.946 89.6604 452.051 92.7647C455.155 95.8691 460.188 95.869 463.292 92.7647Z" fill="white"/>
<path d="M465.621 87.1465C465.564 87.1465 465.621 86.4356 465.281 85.2319C464.811 83.5275 463.788 82.0274 462.373 80.9666C461.336 80.192 460.122 79.6887 458.841 79.5025C457.56 79.3163 456.253 79.453 455.038 79.9002C453.605 80.4218 452.361 81.3618 451.467 82.5984C450.497 83.9177 449.973 85.5127 449.973 87.1505C449.973 88.7884 450.497 90.3834 451.467 91.7027C452.364 92.9339 453.607 93.8703 455.038 94.3928C456.253 94.84 457.56 94.9767 458.841 94.7905C460.122 94.6043 461.336 94.101 462.373 93.3265C463.788 92.2657 464.811 90.7655 465.281 89.0611C465.596 87.8574 465.564 87.1465 465.621 87.1465C465.641 87.3155 465.641 87.4864 465.621 87.6554C465.629 87.8636 465.616 88.0721 465.58 88.2775C465.559 88.5504 465.514 88.8208 465.443 89.0853C465.091 90.5943 464.31 91.9689 463.193 93.0428C462.076 94.1167 460.672 94.8438 459.15 95.136C457.717 95.412 456.236 95.3004 454.86 94.8129C454.116 94.5509 453.416 94.1778 452.784 93.7061C452.114 93.2261 451.527 92.6393 451.047 91.9693C449.999 90.571 449.432 88.8702 449.432 87.1223C449.432 85.3744 449.999 83.6736 451.047 82.2753C451.528 81.6077 452.114 81.0237 452.784 80.5465C453.413 80.0689 454.113 79.6952 454.86 79.4397C456.234 78.946 457.716 78.8316 459.15 79.1085C460.672 79.4008 462.076 80.1278 463.193 81.2017C464.31 82.2756 465.091 83.6503 465.443 85.1592C465.514 85.4237 465.559 85.6941 465.58 85.9671C465.615 86.1724 465.629 86.3809 465.621 86.5891C465.646 86.774 465.646 86.9616 465.621 87.1465Z" fill="#263238"/>
<path d="M443.872 70.7958C444.03 70.7843 444.189 70.7843 444.348 70.7958H445.794L451.36 70.7393L471.467 70.6262H471.677V70.8362C471.677 80.5949 471.677 92.3247 471.718 104.935C471.774 104.887 471.241 105.42 471.467 105.194H456.991H443.855H443.621V104.967C443.621 94.8047 443.702 86.2659 443.734 80.2313C443.734 77.2666 443.734 74.9239 443.791 73.292C443.791 72.4842 443.791 71.9025 443.791 71.4744C443.77 71.2702 443.77 71.0646 443.791 70.8604C443.791 70.8604 443.791 70.9251 443.791 71.0382C443.791 71.1513 443.791 71.3209 443.791 71.5229C443.791 71.9645 443.791 72.5865 443.791 73.389C443.791 75.0046 443.791 77.4281 443.847 80.3767C443.847 86.3709 443.92 94.8693 443.96 104.967L443.742 104.741H456.878H471.338C471.564 104.523 471.031 105.056 471.088 104.992C471.088 92.3812 471.088 80.6514 471.088 70.8927L471.298 71.1028L451.32 70.9978L445.713 70.9412H444.227C444.106 70.8978 443.988 70.8493 443.872 70.7958Z" fill="#263238"/>
<path d="M471.058 117.772C471.058 117.909 465.403 118.022 458.342 118.022C451.282 118.022 445.627 117.909 445.627 117.772C445.627 117.635 451.322 117.522 458.342 117.522C465.362 117.522 471.058 117.635 471.058 117.772Z" fill="#263238"/>
<path d="M456.848 86.8641L459.061 87.5507L459.893 81.6616L456.848 86.8641Z" fill="#007940"/>
<path d="M428.443 109.096C430.867 107.028 431.675 105.347 432.685 101.542C433.881 97.0111 434.607 92.3684 434.85 87.688C435.286 78.0667 433.428 71.6444 432.426 68.9058C431.971 67.6475 431.268 66.4936 430.358 65.5129C429.276 64.3738 427.7 63.2671 426.02 63.9618C422.966 65.214 425.212 68.8089 426.02 69.8429C427.472 72.7142 428.387 75.8273 428.718 79.028C429.324 86.6217 427.91 99.0947 426.747 103.029C425.584 106.963 425.576 107.981 425.576 107.981C425.576 107.981 427.7 109.451 427.935 109.5C428.125 109.394 428.297 109.257 428.443 109.096Z" fill="#E0E0E0"/>
<path d="M428.443 109.096C428.443 109.096 428.395 109.152 428.29 109.257L428.072 109.435C428.025 109.477 427.97 109.51 427.91 109.532C427.833 109.52 427.759 109.492 427.692 109.451C427.175 109.168 426.448 108.643 425.495 108.037C425.614 106.974 425.822 105.923 426.117 104.895C426.424 103.707 426.852 102.399 427.11 100.904C427.729 97.3996 428.158 93.8641 428.395 90.3133C428.54 88.3018 428.645 86.1691 428.662 83.9476C428.73 81.642 428.584 79.3352 428.225 77.0567C428.001 75.866 427.696 74.692 427.312 73.5426C426.95 72.3563 426.482 71.2046 425.915 70.1012C425.099 69.0573 424.545 67.8328 424.299 66.5306C424.243 66.1769 424.267 65.8153 424.367 65.4717C424.468 65.1281 424.643 64.811 424.881 64.5433C425.122 64.2836 425.414 64.0748 425.737 63.9294C426.05 63.7607 426.393 63.6537 426.747 63.6143C427.665 63.5459 428.576 63.816 429.308 64.3737C430.017 64.88 430.644 65.4931 431.166 66.1913C432.139 67.5698 432.845 69.1177 433.25 70.7556C434.125 73.7816 434.688 76.8891 434.93 80.0295C435.354 85.3415 435.082 90.6861 434.122 95.9278C433.727 98.1574 433.266 100.161 432.773 101.898C432.381 103.38 431.805 104.807 431.061 106.147C430.562 106.99 429.944 107.757 429.227 108.425L428.653 108.926C428.524 109.031 428.451 109.087 428.443 109.079C428.435 109.071 428.702 108.837 429.162 108.36C429.848 107.679 430.438 106.907 430.915 106.066C431.628 104.702 432.171 103.256 432.531 101.76C433 100.032 433.436 98.0282 433.816 95.7985C434.738 90.5822 434.985 85.2687 434.551 79.9892C434.302 76.8779 433.737 73.8002 432.862 70.804C432.468 69.2139 431.783 67.7103 430.843 66.369C430.344 65.7087 429.747 65.1285 429.074 64.6483C428.426 64.1498 427.619 63.9056 426.803 63.9617C426.498 63.9945 426.202 64.085 425.931 64.2283C425.654 64.353 425.404 64.5315 425.196 64.7534C425.001 64.9801 424.858 65.2462 424.776 65.5334C424.694 65.8206 424.674 66.1222 424.719 66.4175C424.958 67.656 425.49 68.8193 426.27 69.8104C426.853 70.9422 427.335 72.1236 427.708 73.3407C428.089 74.51 428.394 75.7027 428.621 76.9113C428.977 79.2144 429.118 81.5457 429.041 83.8748C429.041 86.1126 428.896 88.2452 428.734 90.2648C428.478 93.8259 428.022 97.3698 427.369 100.88C427.094 102.39 426.634 103.707 426.319 104.879C426.014 105.888 425.79 106.92 425.648 107.965V107.9C426.585 108.562 427.264 109.063 427.797 109.37L427.959 109.451C428.013 109.435 428.062 109.408 428.104 109.37L428.33 109.209C428.365 109.168 428.403 109.13 428.443 109.096Z" fill="#263238"/>
<path d="M330.436 92.4622L329.669 97.0346C326.93 102.019 320.467 111.802 321.324 126.771C322.438 145.351 324.143 180.323 324.143 180.323L324.062 180.807C323.848 182.112 323.963 183.45 324.396 184.7C324.829 185.95 325.567 187.072 326.542 187.965L368.784 188.878C371.288 188.458 373.53 187.081 375.037 185.039C376.545 182.996 377.199 180.447 376.862 177.931L370.206 128.33L357.369 99.0461L356.166 96.5337L354.72 95.6613L330.436 92.4622Z" fill="#007940"/>
<path d="M321.623 131.869L322.633 150.554L372.274 150.206L371.208 132.135L321.623 131.869Z" fill="white"/>
<path d="M352.969 95.4836C352.965 95.9025 352.935 96.3206 352.88 96.7358C352.782 97.8666 352.747 99.002 352.775 100.137V100.331L352.589 100.29C350.109 99.7975 346.741 99.2078 343.024 98.715C339.09 98.1899 335.512 97.8183 332.927 97.5032C331.634 97.3578 330.584 97.2205 329.865 97.1236C329.488 97.0897 329.115 97.0221 328.75 96.9216C329.126 96.8806 329.505 96.8806 329.881 96.9216L332.951 97.172C335.552 97.4063 339.131 97.7294 343.081 98.2545C346.805 98.7554 350.182 99.3855 352.654 99.951L352.468 100.104C352.464 98.9583 352.545 97.8134 352.71 96.6792C352.748 96.2718 352.835 95.8704 352.969 95.4836Z" fill="#263238"/>
<path d="M369.559 127.732C369.345 127.373 369.164 126.994 369.018 126.601C368.678 125.794 368.21 124.735 367.685 123.467C366.562 120.817 364.987 117.166 363.209 113.151L358.588 102.916L357.191 99.8055C357.003 99.4324 356.848 99.0431 356.73 98.6422C356.964 98.9916 357.169 99.359 357.344 99.7409C357.708 100.452 358.233 101.494 358.855 102.794C360.115 105.38 361.812 108.983 363.589 113.006C365.366 117.029 366.901 120.696 367.959 123.378C368.484 124.719 368.896 125.802 369.171 126.561C369.331 126.941 369.461 127.332 369.559 127.732Z" fill="#263238"/>
<path d="M371.361 187.278C371.21 187.329 371.052 187.359 370.893 187.367L369.544 187.52C368.372 187.649 366.668 187.803 364.559 187.964C360.351 188.296 354.526 188.619 348.088 188.716C341.649 188.813 335.8 188.675 331.584 188.473C329.475 188.376 327.771 188.28 326.599 188.183L325.242 188.069C325.083 188.071 324.926 188.049 324.773 188.005C324.929 187.987 325.086 187.987 325.242 188.005H326.607L331.6 188.166C335.817 188.288 341.641 188.376 348.08 188.28C354.518 188.183 360.334 187.908 364.543 187.649L369.528 187.342L370.885 187.262C371.044 187.256 371.203 187.262 371.361 187.278Z" fill="#263238"/>
<path d="M416.157 110.437L422.353 103.724C422.623 103.432 422.951 103.199 423.315 103.039C423.679 102.879 424.072 102.796 424.469 102.795H426.626C426.626 102.795 425.948 106.317 428.501 106.616C429.214 106.699 429.935 106.548 430.554 106.185C431.173 105.822 431.658 105.267 431.934 104.604C431.934 104.604 435.747 106.317 435.351 108.869C434.955 111.422 433.784 112.392 433.784 112.392C433.784 112.392 434.769 114.549 433.986 116.116C433.446 117.11 432.629 117.927 431.635 118.467C430.859 119.454 429.932 120.313 428.888 121.011C427.717 121.601 419.025 122.037 419.025 122.037L411.447 129.809L405.873 117.578L416.157 110.437Z" fill="#B56760"/>
<g opacity="0.3">
<path d="M330.115 121.545C330.115 121.545 329.639 125.414 334.776 133.113C339.914 140.812 348.186 154.246 359.545 157.186C370.903 160.127 373.068 159.19 373.068 159.19L371.194 145.214L330.115 121.545Z" fill="black"/>
</g>
<path d="M328.135 112.86C328.562 119.883 331.689 126.468 336.86 131.238C344.776 138.662 360.158 154.868 370.118 155.086C384.312 155.393 413.661 130.245 413.661 130.245L407.586 114.355L371.193 131.804L352.499 107.431C350.972 105.405 349.028 103.729 346.798 102.517C344.569 101.305 342.105 100.584 339.574 100.403C336.561 100.225 333.394 100.799 330.971 103.118C328.547 105.436 327.949 109.136 328.135 112.86Z" fill="#007940"/>
<path d="M389.031 123.249L396.423 143.315L402.619 138.937L396.003 119.977L389.031 123.249Z" fill="white"/>
<path d="M328.136 112.86C328.136 112.86 328.088 112.44 328.08 111.632C328.055 110.446 328.153 109.26 328.371 108.094C328.603 106.527 329.25 105.051 330.244 103.818C331.238 102.585 332.544 101.641 334.026 101.082C335.316 100.584 336.682 100.311 338.065 100.274C341.288 100.171 344.475 100.98 347.258 102.609C348.829 103.517 350.256 104.655 351.491 105.985C352.135 106.691 352.742 107.43 353.309 108.199L355.102 110.533L371.364 131.683L371.13 131.626L407.523 114.161L407.725 114.064L407.813 114.274C409.187 117.893 410.657 121.722 412.135 125.583L413.88 130.156L413.937 130.293L413.824 130.39C407.955 135.32 401.825 139.932 395.462 144.204C392.376 146.248 389.282 148.179 386.147 149.859C383.102 151.566 379.906 152.989 376.599 154.108C374.993 154.639 373.336 154.999 371.655 155.183C370.827 155.251 369.994 155.251 369.167 155.183C368.345 155.081 367.533 154.905 366.743 154.657C363.78 153.639 360.98 152.197 358.43 150.376C353.864 147.141 349.543 143.571 345.505 139.696C343.639 137.951 341.894 136.263 340.238 134.664L337.814 132.345C337.007 131.594 336.263 130.883 335.569 130.14C333.196 127.626 331.309 124.696 330.003 121.496C329.172 119.469 328.608 117.342 328.322 115.17C328.217 114.427 328.177 113.862 328.161 113.474C328.145 113.086 328.161 112.9 328.161 112.9C328.161 112.9 328.161 113.094 328.225 113.474C328.29 113.854 328.314 114.419 328.427 115.162C328.748 117.318 329.335 119.427 330.172 121.439C331.508 124.63 333.426 127.545 335.827 130.035C336.522 130.77 337.289 131.473 338.073 132.224L340.496 134.534C342.152 136.15 343.905 137.766 345.78 139.543C349.809 143.386 354.112 146.932 358.657 150.15C361.184 151.943 363.956 153.363 366.888 154.367C367.651 154.601 368.432 154.771 369.223 154.876C370.03 154.941 370.84 154.941 371.647 154.876C373.295 154.693 374.92 154.335 376.494 153.809C379.753 152.675 382.903 151.247 385.905 149.544C389.031 147.856 392.109 145.925 395.187 143.889C401.534 139.621 407.648 135.015 413.501 130.091L413.444 130.325C412.887 128.879 412.297 127.328 411.699 125.761C410.213 121.884 408.751 118.046 407.369 114.451L407.66 114.565L371.275 131.998L371.138 132.062L371.041 131.941L354.827 110.743L353.034 108.409C352.444 107.601 351.879 106.882 351.249 106.203C350.046 104.887 348.658 103.752 347.129 102.835C344.391 101.225 341.256 100.416 338.081 100.5C336.722 100.542 335.381 100.815 334.115 101.308C332.659 101.851 331.375 102.772 330.394 103.976C329.413 105.18 328.77 106.624 328.532 108.158C328.303 109.316 328.184 110.493 328.177 111.672C328.177 112.076 328.177 112.383 328.177 112.585C328.177 112.787 328.136 112.86 328.136 112.86Z" fill="#263238"/>
<path d="M370.634 139.511C370.592 138.264 370.654 137.015 370.82 135.779C370.84 134.532 370.965 133.289 371.191 132.062C371.37 133.306 371.37 134.568 371.191 135.811C371.175 137.064 370.988 138.309 370.634 139.511Z" fill="#263238"/>
<g opacity="0.3">
<path d="M329.913 97.043C329.775 97.0915 354.148 101.987 354.148 101.987L352.936 96.1705L352.589 100.145C352.589 100.145 331.779 96.4533 329.913 97.043Z" fill="black"/>
</g>
<path d="M323.854 174.49C323.829 174.332 323.815 174.173 323.814 174.013C323.814 173.65 323.814 173.205 323.757 172.632C323.757 171.428 323.652 169.699 323.547 167.558C323.337 163.277 322.885 157.364 322.344 150.844C321.802 144.325 321.398 138.396 321.269 134.106C321.196 131.965 321.172 130.228 321.188 129.025C321.188 128.459 321.188 128.007 321.188 127.643C321.185 127.481 321.198 127.318 321.229 127.159C321.265 127.317 321.281 127.48 321.277 127.643C321.277 127.999 321.277 128.451 321.334 129.025C321.334 130.22 321.431 131.957 321.544 134.098C321.754 138.379 322.206 144.285 322.739 150.812C323.273 157.339 323.685 163.253 323.814 167.542C323.887 169.691 323.919 171.428 323.895 172.624C323.895 173.189 323.895 173.65 323.895 174.013C323.904 174.173 323.89 174.334 323.854 174.49Z" fill="#263238"/>
<path d="M169.894 355.769L192.675 347.973C192.675 347.973 208.25 368.516 212.605 367.49L199.081 322.769L163.076 333.448L169.894 355.769Z" fill="#455A64"/>
<path d="M186.561 334.765C186.562 334.296 186.736 333.845 187.049 333.496C187.362 333.147 187.792 332.926 188.258 332.875C188.728 332.858 189.186 333.022 189.539 333.333C189.892 333.644 190.113 334.078 190.156 334.547C190.152 335.045 189.965 335.524 189.629 335.893C189.294 336.261 188.834 336.492 188.338 336.542C187.847 336.505 187.389 336.281 187.058 335.915C186.727 335.55 186.549 335.072 186.561 334.579" fill="#E0E0E0"/>
<path d="M200.013 322.47L196.523 323.496L209.796 366.424C209.796 366.424 211.258 368.153 212.599 367.507L200.013 322.47Z" fill="#E0E0E0"/>
<path d="M192.668 348.79C192.886 348.709 192.668 347.594 193.032 346.302C193.395 345.009 194.155 344.169 194.009 343.991C193.864 343.814 192.701 344.524 192.264 346.092C191.828 347.659 192.482 348.895 192.668 348.79Z" fill="#263238"/>
<path d="M196.062 352.893C196.288 352.893 196.377 351.819 197.072 350.793C197.767 349.767 198.688 349.266 198.607 349.048C198.526 348.83 197.258 349.048 196.41 350.357C195.561 351.665 195.82 352.95 196.062 352.893Z" fill="#263238"/>
<path d="M202.452 353.854C202.452 353.644 201.257 353.669 200.223 354.59C199.189 355.51 199.035 356.682 199.245 356.714C199.455 356.746 199.9 355.906 200.756 355.187C201.612 354.468 202.525 354.081 202.452 353.854Z" fill="#263238"/>
<path d="M187.28 349.985C187.45 349.832 186.844 348.927 186.561 347.667C186.278 346.406 186.367 345.324 186.149 345.243C185.931 345.162 185.422 346.35 185.785 347.828C186.149 349.307 187.175 350.114 187.28 349.985Z" fill="#263238"/>
<path d="M167.125 295.028C166.244 294.785 127.662 336.179 126.782 343.021C125.901 349.864 127.307 355.826 131.871 359.687C136.435 363.548 188.347 350.922 188.347 350.922L183.435 329.175L202.201 322.858L185.431 292.16L167.125 295.028Z" fill="#007940"/>
<g opacity="0.3">
<path d="M157.996 304.205L156.76 305.53C156.76 305.53 178.878 328.731 185.664 328.416L196.521 324.74L159.781 302.193L157.996 304.205Z" fill="black"/>
</g>
<path d="M183.567 329.732C183.567 329.845 175.545 332.309 165.577 335.242C155.608 338.174 147.497 340.452 147.465 340.339C147.433 340.226 155.487 337.762 165.455 334.838C175.424 331.913 183.535 329.619 183.567 329.732Z" fill="#263238"/>
<path d="M135.376 332.124L142.873 355.914C142.873 355.914 121.206 371.53 122.168 376.062L168.82 363.177L158.658 325.629L135.376 332.124Z" fill="#455A64"/>
<path d="M156.746 349.912C157.233 349.925 157.698 350.118 158.052 350.453C158.406 350.789 158.622 351.244 158.66 351.73C158.665 352.216 158.484 352.685 158.153 353.042C157.823 353.398 157.368 353.614 156.883 353.645C156.369 353.632 155.878 353.429 155.505 353.076C155.132 352.722 154.903 352.243 154.863 351.73C154.928 350.761 155.986 349.727 156.931 349.937" fill="#E0E0E0"/>
<path d="M169.126 364.154L168.141 360.511L123.354 373.186C123.354 373.186 121.528 374.664 122.167 376.062L169.126 364.154Z" fill="#E0E0E0"/>
<path d="M142.048 355.89C142.121 356.116 143.292 355.89 144.609 356.326C145.925 356.762 146.798 357.546 146.984 357.392C147.17 357.239 146.467 356.027 144.851 355.542C143.235 355.057 141.935 355.696 142.048 355.89Z" fill="#263238"/>
<path d="M137.718 359.267C137.718 359.501 138.817 359.615 139.859 360.366C140.901 361.117 141.402 362.07 141.628 361.982C141.855 361.893 141.628 360.584 140.328 359.671C139.027 358.758 137.662 359.049 137.718 359.267Z" fill="#263238"/>
<path d="M136.557 365.891C136.775 365.891 136.783 364.655 135.846 363.573C134.909 362.49 133.714 362.28 133.673 362.498C133.633 362.716 134.481 363.201 135.224 364.114C135.968 365.027 136.323 365.932 136.557 365.891Z" fill="#263238"/>
<path d="M140.943 350.276C141.096 350.462 142.058 349.856 143.366 349.59C144.675 349.323 145.79 349.452 145.863 349.218C145.935 348.984 144.732 348.41 143.197 348.782C141.662 349.153 140.781 350.115 140.943 350.276Z" fill="#263238"/>
<g opacity="0.3">
<path d="M169.153 355.243L166.285 343.958L168.426 342.964L155.371 307.436L152.883 309.609L163.142 342.148L166.81 355.736L169.153 355.243Z" fill="black"/>
</g>
<path d="M138.357 267.295C135.826 266.75 133.208 266.748 130.676 267.29C128.145 267.832 125.757 268.905 123.671 270.438C120.165 273.071 117.208 277.288 118.185 283.912C120.294 298.647 139.124 348.943 139.124 348.943L165.169 341.107C165.323 341.059 165.468 340.63 165.387 340.768C165.169 341.107 152.171 299.213 152.462 299.705C152.753 300.198 178.757 321.162 189.533 325.015C194.359 326.766 199.62 326.918 204.538 325.448C209.457 323.979 213.772 320.967 216.846 316.856C219.367 313.326 219.545 297.815 216.846 289.616C216.846 289.616 141.661 268.305 140.255 267.804C139.634 267.594 139 267.424 138.357 267.295Z" fill="#007940"/>
<path d="M137.291 282.62C141.454 285.434 144.969 289.103 147.603 293.382C150.237 297.661 151.93 302.452 152.567 307.436" fill="#007940"/>
<path d="M217.251 316.185L216.936 316.678C216.734 317.009 216.37 317.486 215.902 318.059C214.443 319.747 212.754 321.221 210.885 322.438C209.528 323.331 208.092 324.099 206.595 324.732C204.797 325.47 202.918 325.994 200.997 326.291C198.774 326.615 196.515 326.615 194.292 326.291C191.781 325.916 189.346 325.144 187.078 324.005C185.882 323.431 184.654 322.769 183.451 322.106C182.247 321.444 181.027 320.709 179.767 319.909C178.507 319.109 177.263 318.342 176.002 317.486C174.742 316.629 173.442 315.773 172.141 314.868C166.939 311.257 161.486 307.17 155.831 302.67L153.714 300.949C153.359 300.65 153.011 300.368 152.648 300.044L152.373 299.786C152.494 299.786 152.05 299.786 152.64 299.786C152.696 299.576 152.64 299.729 152.64 299.689V299.77L152.68 299.931L152.874 300.594L154.546 305.982L158.093 317.162C160.516 324.783 163.042 332.711 165.67 340.945L165.735 341.139L165.541 341.196L139.149 349.137L138.963 349.193L138.89 349.015C137.186 344.427 135.401 339.54 133.631 334.579C129.859 324.013 126.272 313.656 123.13 303.558C121.514 298.51 120.068 293.517 118.905 288.557C118.581 287.321 118.363 286.069 118.137 284.825C117.886 283.584 117.775 282.318 117.806 281.052C117.838 278.539 118.592 276.088 119.979 273.992C121.373 272.036 123.16 270.393 125.226 269.169C127.292 267.945 129.591 267.166 131.975 266.883C134.252 266.577 136.566 266.692 138.802 267.222L140.417 267.642L142.033 268.111L145.167 269.048L168.207 275.922L201.562 285.899L210.602 288.638L212.953 289.357L213.761 289.615C213.761 289.615 213.486 289.551 212.953 289.397L210.602 288.719L201.514 286.061L168.11 276.205L145.046 269.379L141.936 268.45L140.32 267.973L138.705 267.569C136.51 267.056 134.241 266.949 132.008 267.254C129.709 267.55 127.49 268.297 125.48 269.452C123.409 270.624 121.63 272.251 120.278 274.21C118.938 276.248 118.212 278.629 118.186 281.068C118.155 282.307 118.267 283.546 118.517 284.76C118.743 285.996 118.953 287.232 119.276 288.468C120.439 293.404 121.926 298.388 123.509 303.429C126.668 313.527 130.263 323.876 134.011 334.442C135.78 339.394 137.566 344.282 139.27 348.862L139.012 348.741L165.404 340.808L165.266 341.066L157.713 317.284C156.507 313.471 155.335 309.747 154.199 306.111L152.535 300.715L152.341 300.044L152.292 299.875V299.778C152.292 299.721 152.252 299.842 152.292 299.6C152.721 299.721 152.583 299.544 152.616 299.6L152.85 299.81L153.892 300.691L156 302.411C161.655 306.919 167.084 311.015 172.27 314.634C173.571 315.539 174.847 316.427 176.116 317.259C177.384 318.091 178.636 318.875 179.872 319.683C181.108 320.491 182.344 321.169 183.54 321.888C184.735 322.607 185.963 323.213 187.143 323.787C189.383 324.927 191.791 325.701 194.276 326.081C196.48 326.404 198.72 326.404 200.924 326.081C202.83 325.797 204.695 325.29 206.482 324.57C207.974 323.951 209.405 323.194 210.756 322.308C212.628 321.114 214.325 319.665 215.797 318.003C216.273 317.413 216.645 316.977 216.855 316.645C217.065 316.314 217.251 316.185 217.251 316.185Z" fill="#263238"/>
<path d="M140.596 288.169C141.355 288.488 142.076 288.892 142.745 289.373C144.403 290.458 145.96 291.691 147.398 293.056C148.84 294.424 150.136 295.938 151.267 297.572C151.695 298.202 152.019 298.727 152.22 299.099C152.344 299.285 152.437 299.489 152.495 299.705C152.439 299.705 151.938 298.945 151.025 297.742C149.836 296.181 148.526 294.717 147.107 293.363C145.681 292.015 144.167 290.762 142.575 289.615C141.886 289.173 141.226 288.691 140.596 288.169Z" fill="#263238"/>
<path d="M149.488 285.269C149.871 285.884 150.178 286.543 150.401 287.232C151.031 288.866 151.536 290.546 151.912 292.257C152.292 293.964 152.546 295.698 152.671 297.443C152.764 298.164 152.764 298.895 152.671 299.616C152.523 298.91 152.423 298.195 152.372 297.475C152.211 296.15 151.944 294.333 151.5 292.346C151.124 290.654 150.663 288.982 150.118 287.337C149.852 286.666 149.641 285.974 149.488 285.269Z" fill="#263238"/>
<path d="M171.19 177.237L178.961 213.097C180.286 219.196 180.981 228.446 171.238 230.061C162.683 230.869 158.854 223.389 157.626 217.693C157.045 214.995 156.552 212.749 156.471 212.475C156.471 212.475 147.157 213.598 144.539 204.703C143.271 200.406 141.389 191.342 139.781 183.126C138.95 178.868 139.751 174.453 142.026 170.759C144.301 167.065 147.884 164.362 152.06 163.189L152.917 162.946C162.352 160.919 169.404 167.777 171.19 177.237Z" fill="#FFBE9D"/>
<path d="M156.479 212.507C160.597 211.338 164.294 209.014 167.134 205.81C167.134 205.81 166.173 213.339 157.044 215.044L156.479 212.507Z" fill="#EB996E"/>
<path d="M142.358 187.222C142.568 187.367 143.747 186.729 145.46 186.713C147.173 186.697 148.465 187.27 148.643 187.117C148.821 186.963 148.514 186.794 147.956 186.527C147.153 186.172 146.281 185.998 145.403 186.018C144.561 186.024 143.731 186.226 142.98 186.608C142.431 186.931 142.261 187.165 142.358 187.222Z" fill="#263238"/>
<path d="M156.525 184.847C156.767 184.847 157.543 183.797 159.07 183.021C160.596 182.246 161.986 182.213 162.083 181.971C162.18 181.729 161.832 181.745 161.21 181.753C160.338 181.798 159.486 182.032 158.714 182.44C157.95 182.819 157.286 183.373 156.775 184.055C156.476 184.508 156.412 184.831 156.525 184.847Z" fill="#263238"/>
<path d="M156.971 187.472C157.041 187.729 157.209 187.949 157.438 188.084C157.667 188.22 157.94 188.261 158.199 188.199C158.331 188.178 158.457 188.13 158.57 188.059C158.683 187.987 158.781 187.893 158.856 187.783C158.932 187.673 158.984 187.548 159.01 187.417C159.036 187.286 159.035 187.151 159.007 187.02C158.935 186.764 158.767 186.546 158.538 186.411C158.31 186.275 158.038 186.233 157.779 186.293C157.647 186.314 157.52 186.362 157.407 186.433C157.294 186.505 157.197 186.599 157.122 186.709C157.046 186.819 156.994 186.944 156.968 187.075C156.942 187.206 156.943 187.342 156.971 187.472Z" fill="#263238"/>
<path d="M143.931 190.494C144.002 190.751 144.169 190.97 144.398 191.106C144.627 191.241 144.9 191.283 145.159 191.221C145.287 191.195 145.408 191.144 145.516 191.071C145.624 190.998 145.716 190.904 145.787 190.795C145.859 190.686 145.908 190.564 145.932 190.436C145.956 190.308 145.954 190.177 145.927 190.049C145.858 189.791 145.691 189.571 145.462 189.435C145.232 189.299 144.958 189.258 144.699 189.322C144.571 189.347 144.449 189.398 144.341 189.47C144.232 189.543 144.14 189.637 144.068 189.746C143.997 189.855 143.948 189.978 143.924 190.106C143.901 190.235 143.903 190.366 143.931 190.494Z" fill="#263238"/>
<path d="M154.361 195.01C153.573 194.983 152.786 195.059 152.018 195.236C151.654 195.293 151.307 195.317 151.21 195.099C151.079 194.744 151.059 194.358 151.153 193.992C151.242 193.055 151.339 192.069 151.436 191.035C151.808 186.835 151.977 183.417 151.808 183.409C151.638 183.401 151.202 186.786 150.83 190.987C150.741 192.021 150.661 193.006 150.588 193.952C150.49 194.435 150.561 194.937 150.79 195.373C150.875 195.482 150.984 195.57 151.109 195.631C151.234 195.691 151.371 195.722 151.509 195.721C151.719 195.723 151.928 195.695 152.131 195.64C152.898 195.525 153.647 195.313 154.361 195.01Z" fill="#263238"/>
<path d="M155.492 177.884C155.702 178.182 156.865 177.69 158.335 177.463C159.806 177.237 161.066 177.318 161.163 176.963C161.211 176.793 160.92 176.526 160.355 176.332C159.631 176.094 158.86 176.036 158.109 176.163C157.357 176.276 156.644 176.573 156.033 177.027C155.581 177.391 155.395 177.73 155.492 177.884Z" fill="#263238"/>
<path d="M141.661 183.627C141.879 183.869 142.994 183.32 144.423 182.981C145.853 182.642 147.073 182.585 147.17 182.27C147.17 182.124 146.92 181.923 146.362 181.809C145.633 181.674 144.882 181.702 144.165 181.89C143.438 182.061 142.756 182.383 142.161 182.835C141.741 183.199 141.564 183.506 141.661 183.627Z" fill="#263238"/>
<path d="M172.311 184.079C172.448 183.966 177.965 180.541 179.452 186.697C180.938 192.852 174.484 193.103 174.427 192.933C174.371 192.764 172.311 184.079 172.311 184.079Z" fill="#FFBE9D"/>
<path d="M175.73 190.162C175.73 190.162 175.86 190.21 176.061 190.243C176.344 190.293 176.634 190.229 176.869 190.065C177.459 189.661 177.75 188.498 177.507 187.383C177.395 186.851 177.163 186.351 176.829 185.921C176.724 185.743 176.577 185.593 176.401 185.485C176.225 185.376 176.025 185.312 175.819 185.299C175.688 185.296 175.56 185.338 175.457 185.42C175.353 185.501 175.282 185.615 175.254 185.743C175.213 185.937 175.254 186.05 175.254 186.074C175.254 186.099 175.1 186.002 175.084 185.735C175.083 185.575 175.134 185.419 175.229 185.291C175.297 185.205 175.381 185.133 175.477 185.08C175.572 185.027 175.678 184.995 175.787 184.984C176.052 184.973 176.316 185.029 176.553 185.148C176.79 185.267 176.994 185.444 177.144 185.662C177.54 186.128 177.817 186.682 177.952 187.278C178.218 188.53 177.871 189.847 177.047 190.324C176.892 190.412 176.72 190.464 176.543 190.478C176.366 190.492 176.188 190.467 176.021 190.404C175.779 190.283 175.714 190.162 175.73 190.162Z" fill="#EB996E"/>
<path d="M156.695 199.048C156.598 198.903 157.737 198.289 158.359 196.98C158.614 196.405 158.794 195.8 158.893 195.179C158.981 194.694 159.062 194.371 159.127 194.371C159.191 194.371 159.24 194.686 159.248 195.179C159.247 195.86 159.098 196.532 158.812 197.15C158.517 197.776 158.056 198.31 157.479 198.693C157.043 199 156.728 199.048 156.695 199.048Z" fill="#263238"/>
<path d="M130.886 179.087C130.639 179.259 130.441 179.492 130.313 179.765C130.186 180.037 130.132 180.339 130.159 180.638C130.233 181.075 130.449 181.476 130.773 181.778C131.097 182.08 131.511 182.267 131.952 182.311C132.395 182.335 132.836 182.245 133.233 182.05C133.63 181.854 133.971 181.56 134.222 181.196C133.973 181.472 133.768 181.785 133.616 182.125C133.474 182.483 133.465 182.881 133.591 183.246C133.716 183.611 133.968 183.919 134.301 184.114C134.634 184.309 135.026 184.379 135.405 184.31C135.785 184.242 136.128 184.04 136.371 183.74C136.751 184.16 137.058 184.605 137.381 185.041L137.454 185.122C137.656 185.396 137.858 185.663 138.092 185.93L141.073 189.573C140.685 187.004 139.732 183.441 139.352 180.864C141.255 180.416 143.048 179.587 144.623 178.43C146.198 177.272 147.524 175.809 148.521 174.127C149.604 172.301 150.298 170.144 151.971 168.844C154.136 167.172 157.165 167.454 159.879 167.81L159.75 167.737C161.201 168.078 162.572 168.695 163.789 169.555C164.246 174.706 165.805 179.698 168.362 184.193C168.749 184.863 169.703 186.22 170.462 186.35C171.973 186.608 172.078 185.114 172.74 184.185C173.381 183.521 174.244 183.116 175.164 183.046C175.431 180.794 175.56 178.528 175.551 176.26L175.971 173.885L175.164 171.461C173.427 169.531 175.971 167.842 174.735 165.548C173.499 163.254 171.649 160.992 169.081 160.628H169.032C166.705 160.208 164.056 160.733 162.569 162.583C161.471 159.449 158.126 157.47 154.806 157.284C151.486 157.098 146.542 158.625 143.771 160.459C141.622 161.872 139.732 164.255 137.591 167.64C136.678 169.07 136.307 173.335 135.636 174.911L130.886 179.087Z" fill="#263238"/>
<path d="M157.829 153.131C158.29 153.131 169.615 153.721 173.735 161.379C177.855 169.038 177.484 171.671 177.484 171.671C177.954 171.877 178.392 172.149 178.784 172.479C179.334 172.931 179.108 175.605 177.629 175.565C166.174 172.665 153.475 174.345 139.499 177.181L128.715 178.853C125.758 179.717 124.562 179.095 125.71 178.126C126.582 177.374 134.547 172.471 134.547 172.471L136.018 170.96L139.41 164.045C139.311 163.921 139.239 163.778 139.199 163.624C139.159 163.471 139.151 163.311 139.176 163.154C139.201 162.997 139.258 162.848 139.345 162.715C139.431 162.581 139.544 162.468 139.677 162.381C140.646 161.492 148.717 153.406 157.829 153.131Z" fill="#007940"/>
<path d="M136.014 170.976C136.014 170.976 136.159 170.976 136.434 170.904L137.629 170.677C138.663 170.451 140.174 170.209 142.048 169.934C146.93 169.275 151.861 169.047 156.783 169.256C161.706 169.482 166.612 169.989 171.478 170.774C173.352 171.057 174.863 171.316 175.905 171.485L177.108 171.679L177.528 171.736L177.116 171.639L175.913 171.413C174.879 171.219 173.368 170.944 171.502 170.605C166.634 169.794 161.722 169.281 156.791 169.07C151.857 168.864 146.914 169.11 142.024 169.805C138.284 170.37 136.014 170.976 136.014 170.976Z" fill="#263238"/>
<g opacity="0.3">
<path d="M168.595 156.233C168.595 156.233 156.518 156.338 151.679 159.772L152.244 159.36L147.64 162.397C146.832 162.906 145.943 163.447 145.055 163.156C146.999 160.964 149.333 159.151 151.937 157.808C156.583 155.296 164.273 153.244 168.595 156.233Z" fill="black"/>
</g>
<path d="M168.787 156.233C168.409 156.036 168.018 155.866 167.616 155.724C166.521 155.321 165.382 155.05 164.223 154.916C162.505 154.709 160.765 154.755 159.061 155.054C156.96 155.369 154.951 156.132 153.171 157.291C152.267 157.909 151.404 158.583 150.586 159.311C149.779 160.014 148.971 160.644 148.292 161.331C147.667 161.998 146.986 162.612 146.256 163.164C145.599 163.599 144.849 163.876 144.067 163.972C141.183 164.505 139.309 164.215 139.406 164.013C139.472 164.102 139.565 164.168 139.673 164.198C139.977 164.287 140.292 164.335 140.61 164.344C141.776 164.389 142.943 164.307 144.091 164.101C144.899 164 145.671 163.709 146.345 163.253C147.087 162.703 147.779 162.09 148.413 161.419C149.1 160.749 149.908 160.111 150.7 159.416C151.514 158.697 152.372 158.028 153.268 157.413C155.03 156.266 157.016 155.509 159.093 155.191C160.78 154.885 162.502 154.825 164.207 155.013C165.359 155.136 166.494 155.385 167.591 155.757C167.979 155.894 168.27 156.007 168.472 156.088C168.674 156.169 168.787 156.233 168.787 156.233Z" fill="#263238"/>
<g opacity="0.3">
<path d="M175.332 164.595C173.224 164.942 171.527 164.667 169.362 164.595C167.044 164.49 164.774 164.473 162.463 164.263C160.719 164.094 158.675 164.029 157.374 163.011C157.362 163.436 157.459 163.858 157.658 164.234C157.856 164.61 158.148 164.929 158.505 165.16C159.724 165.696 161.023 166.023 162.35 166.129C167.464 166.63 170.994 166.937 176.084 166.428C175.857 165.807 175.587 165.202 175.276 164.619" fill="black"/>
</g>
<path d="M173.242 160.547C174.671 160.903 175.56 161.153 175.794 162.276C175.988 163.221 175.988 164.409 175.091 164.74C174.808 164.82 174.512 164.847 174.219 164.821L159.169 164.377C158.657 164.418 158.146 164.281 157.723 163.989C157.473 163.687 157.35 163.299 157.382 162.908C157.414 162.517 157.597 162.154 157.893 161.896C158.506 161.403 159.25 161.1 160.033 161.024C164.395 160.272 168.837 160.111 173.242 160.547Z" fill="#007940"/>
<path d="M157.989 164.159C157.771 164.023 157.597 163.826 157.488 163.593C157.348 163.276 157.3 162.926 157.35 162.583C157.4 162.24 157.546 161.918 157.771 161.654C158.551 160.965 159.542 160.561 160.582 160.507C161.762 160.37 163.062 160.224 164.427 160.127C166.756 159.936 169.097 159.952 171.423 160.176C172.312 160.265 173.039 160.386 173.524 160.467L174.089 160.572H174.291C174.231 160.539 174.165 160.518 174.097 160.507L173.54 160.37C173.047 160.265 172.328 160.127 171.431 160.022C169.1 159.759 166.749 159.727 164.411 159.926C163.046 160.022 161.745 160.168 160.566 160.313C159.487 160.374 158.464 160.812 157.674 161.549C157.439 161.831 157.291 162.174 157.246 162.538C157.202 162.902 157.264 163.271 157.423 163.601C157.516 163.775 157.646 163.927 157.803 164.045C157.916 164.134 157.981 164.167 157.989 164.159Z" fill="#263238"/>
<path d="M138.342 166.226L147.463 164.473L147.131 167.188L137.146 168.674L138.342 166.226Z" fill="white"/>
<path d="M153.577 171.986C153.577 171.93 149.393 172.051 144.239 172.237C139.085 172.422 134.908 172.632 134.908 172.681C134.908 172.729 139.093 172.616 144.247 172.422C149.401 172.229 153.577 172.035 153.577 171.986Z" fill="#263238"/>
<path d="M43.4222 234.521H36.3537V219.107C36.3408 216.899 37.2045 214.775 38.7554 213.203C40.3063 211.631 42.4176 210.739 44.6259 210.722H52.0176V217.895H44.6259C44.3059 217.897 43.9998 218.026 43.7743 218.253C43.5488 218.48 43.4222 218.787 43.4222 219.107V234.521Z" fill="#E0E0E0"/>
<path d="M47.0964 219.971C46.8697 219.089 46.9961 218.153 47.4486 217.363C47.9012 216.572 48.6443 215.989 49.5199 215.738C53.1714 214.664 58.8343 213.315 60.3773 214.72C62.7119 216.853 68.286 221.991 68.286 221.991L80.1612 224.835L80.8721 235.482L59.9734 229.496C59.9734 229.496 54.3185 229.803 54.7951 226.757C54.7951 226.757 51.9596 225.642 52.3716 223.922C52.7836 222.201 55.1102 221.789 55.1102 221.789L54.6012 218.743L47.1287 220.052L47.0964 219.971Z" fill="#FFBE9D"/>
<path d="M50.5693 222.226C54.5178 222.226 57.7186 219.025 57.7186 215.076C57.7186 211.128 54.5178 207.927 50.5693 207.927C46.6208 207.927 43.4199 211.128 43.4199 215.076C43.4199 219.025 46.6208 222.226 50.5693 222.226Z" fill="white"/>
<path d="M50.5709 222.63C49.077 222.63 47.6166 222.187 46.3745 221.357C45.1324 220.527 44.1642 219.347 43.5925 217.967C43.0208 216.587 42.8713 215.068 43.1627 213.603C43.4542 212.138 44.1735 210.792 45.2299 209.735C46.2862 208.679 47.6321 207.96 49.0973 207.668C50.5625 207.377 52.0812 207.526 53.4614 208.098C54.8415 208.67 56.0212 209.638 56.8512 210.88C57.6811 212.122 58.1241 213.583 58.1241 215.076C58.1241 217.08 57.3283 219.001 55.9118 220.417C54.4953 221.834 52.5741 222.63 50.5709 222.63ZM50.5709 208.331C49.2367 208.331 47.9326 208.727 46.8233 209.468C45.714 210.209 44.8494 211.262 44.3389 212.495C43.8283 213.728 43.6948 215.084 43.955 216.392C44.2153 217.701 44.8577 218.903 45.8011 219.846C46.7445 220.79 47.9464 221.432 49.2549 221.692C50.5634 221.953 51.9197 221.819 53.1522 221.308C54.3848 220.798 55.4383 219.933 56.1795 218.824C56.9207 217.715 57.3163 216.411 57.3163 215.076C57.3142 213.288 56.6028 211.574 55.3382 210.309C54.0737 209.044 52.3592 208.333 50.5709 208.331Z" fill="#E0E0E0"/>
<path d="M59.8515 219.285L50.4159 216.861C50.4159 216.861 47.8874 216.15 49.2042 218.889C50.5209 221.628 54.4793 221.014 55.9981 222.637C57.5168 224.261 58.3812 227 64.6742 228.018" fill="#FFBE9D"/>
<path d="M64.6744 228.01C64.2556 227.994 63.8392 227.94 63.4303 227.848C62.3126 227.639 61.2265 227.286 60.199 226.798C59.4837 226.447 58.8204 225.998 58.2279 225.465C57.5646 224.844 56.9639 224.16 56.4345 223.421C56.1636 223.04 55.8336 222.705 55.457 222.428C55.0458 222.169 54.5997 221.97 54.1321 221.838C53.0895 221.577 52.0642 221.25 51.0623 220.861C50.5463 220.621 50.0761 220.293 49.6729 219.891C49.3191 219.473 49.0453 218.994 48.865 218.477C48.77 218.217 48.7076 217.946 48.6792 217.67C48.6712 217.52 48.6959 217.37 48.7517 217.23C48.8075 217.091 48.893 216.965 49.0024 216.862C49.234 216.685 49.5192 216.594 49.8102 216.603C50.0668 216.605 50.3222 216.64 50.5696 216.708L55.4166 218.009L58.6479 218.93C59.0562 219.018 59.4541 219.148 59.8355 219.318C59.4204 219.273 59.0097 219.195 58.6075 219.083L55.3035 218.275L50.408 217.056C50.21 216.983 49.9988 216.953 49.7885 216.969C49.5782 216.984 49.3736 217.044 49.1882 217.145C48.9135 217.363 49.0024 217.896 49.1882 218.34C49.3612 218.808 49.6186 219.241 49.9475 219.616C50.3149 219.975 50.7412 220.267 51.2078 220.481C52.1911 220.868 53.1974 221.195 54.221 221.458C54.7276 221.6 55.2098 221.818 55.6509 222.105C56.057 222.409 56.4139 222.774 56.7091 223.187C57.2178 223.916 57.7939 224.594 58.4298 225.215C59.0086 225.73 59.6522 226.167 60.3444 226.515C61.3494 227.014 62.4058 227.401 63.495 227.671C63.8971 227.75 64.2917 227.863 64.6744 228.01Z" fill="#EB996E"/>
<path d="M50.5221 215.076L51.5803 214.462L48.4863 210.285L50.5221 215.076Z" fill="#007940"/>
<path d="M44.9226 210.084C44.9711 210.132 44.5753 210.504 44.1714 211.247C43.6452 212.22 43.3313 213.294 43.2504 214.397C43.1522 215.505 43.2786 216.62 43.622 217.677C43.8137 218.103 43.9783 218.54 44.1148 218.986C43.7552 218.653 43.4785 218.241 43.307 217.782C42.8606 216.702 42.6832 215.529 42.7899 214.365C42.87 213.196 43.2422 212.065 43.8725 211.077C44.4137 210.358 44.8984 210.043 44.9226 210.084Z" fill="#263238"/>
<path d="M80.0804 223.566L120.101 228.009L154.183 220.052L154.498 248.262C154.498 248.262 117.265 246.945 114.834 246.743C112.402 246.541 79.2402 242.179 79.2402 242.179L80.0804 223.566Z" fill="#007940"/>
<path d="M87.8194 224.422L87.6094 243.309L94.7345 244.238L94.888 225.206L87.8194 224.422Z" fill="white"/>
<path d="M177.037 202.894L180.026 205.406L200.028 212.127L211.572 229.173C211.572 229.173 216.944 279.905 216.653 284.348C216.362 288.791 216.879 289.615 216.879 289.615L156.009 272.319L152.777 244.635L154.183 220.052L157.132 215.447L160.484 220.916L166.389 212.668L177.037 202.894Z" fill="#007940"/>
<path d="M213.413 247.058L152.486 244.74L153.609 254.66L214.544 258.432L213.413 247.058Z" fill="white"/>
<path d="M150.523 232.614C150.584 232.736 150.622 232.867 150.636 233.002C150.701 233.317 150.774 233.688 150.871 234.149C151.073 235.143 151.323 236.572 151.614 238.382C152.187 241.969 152.834 246.945 153.48 252.438C154.126 257.932 154.716 262.94 155.225 266.503C155.467 268.248 155.677 269.686 155.831 270.752C155.887 271.212 155.944 271.56 155.984 271.907C156.006 272.044 156.006 272.183 155.984 272.319C155.937 272.191 155.902 272.058 155.879 271.923C155.815 271.616 155.734 271.237 155.645 270.776C155.443 269.783 155.193 268.353 154.902 266.543C154.328 262.956 153.674 257.988 153.036 252.487C152.398 246.985 151.792 241.985 151.291 238.43C151.04 236.677 150.838 235.248 150.685 234.181C150.62 233.713 150.572 233.333 150.531 233.018C150.511 232.884 150.508 232.748 150.523 232.614Z" fill="#263238"/>
<path d="M160.518 220.949C160.644 220.744 160.79 220.552 160.954 220.375L162.263 218.857L166.924 213.614L167.053 213.468L167.198 213.598L171.375 217.354L171.722 217.669H171.415C173.928 214.381 176.198 211.433 177.878 209.316L179.857 206.836C180.1 206.519 180.37 206.225 180.665 205.955C180.485 206.301 180.271 206.629 180.027 206.933C179.534 207.595 178.912 208.46 178.153 209.494C176.537 211.659 174.315 214.632 171.803 217.92L171.666 218.105L171.496 217.952C171.391 217.847 171.27 217.742 171.149 217.637L166.996 213.856H167.271L162.497 218.986L161.107 220.44C160.934 220.635 160.736 220.806 160.518 220.949Z" fill="#263238"/>
<path d="M159.747 221.369C158.728 220.567 157.847 219.604 157.138 218.518H157.469C157.243 218.817 157.008 219.148 156.782 219.495C156.227 220.346 155.735 221.237 155.312 222.161L155.191 222.428L155.029 222.202C154.603 221.693 154.245 221.13 153.963 220.529C154.465 220.962 154.91 221.456 155.288 222H155.005C155.397 221.032 155.89 220.109 156.475 219.245C156.701 218.897 156.944 218.558 157.178 218.251L157.356 218.033L157.509 218.259C158.721 220.093 159.828 221.297 159.747 221.369Z" fill="#263238"/>
<path d="M114.414 241.339L136.937 259.604L142.373 253.077L120.376 234.504L114.414 241.339Z" fill="#263238"/>
<path d="M117.283 237.938C117.283 237.938 115.086 235.207 110.077 232.986C107.087 231.665 103.713 231.5 100.609 232.525L100.311 231.782C103.614 230.653 107.222 230.817 110.409 232.243C115.611 234.561 117.824 237.324 117.913 237.445L117.283 237.938Z" fill="#263238"/>
<path d="M132.105 244.409C132.105 244.409 136.459 244.958 137.961 245.734C139.464 246.509 143.818 249.409 143.818 249.409L152.616 251.074L150.515 265.615L144.626 262.69L131.66 263.983C131.66 263.983 128.833 263.337 128.833 261.317C128.159 260.908 127.585 260.354 127.15 259.696C126.716 259.038 126.432 258.292 126.32 257.512C126.32 257.512 122.847 252.956 122.532 252.075C122.217 251.195 123.986 249.119 123.986 249.119C123.986 249.119 127.686 252.253 129.94 252.746C132.193 253.239 134.229 252.35 134.423 250.904C134.811 247.955 132.105 244.409 132.105 244.409Z" fill="#E0E0E0"/>
<g opacity="0.3">
<path d="M155.533 269.468C155.533 269.468 185.059 280.058 194.963 279.428C203.357 278.895 207.485 274.961 208.147 269.468C208.809 263.974 209.763 240.644 209.763 240.644L193.921 268.11L155.371 266.907L155.533 269.468Z" fill="black"/>
</g>
<path d="M203.462 267.989C205.586 261.922 207.921 250.217 207.921 250.217L211.605 230.78C211.729 225.709 210.029 220.761 206.814 216.837C204.391 213.945 201.014 211.465 196.506 211.489C186.949 211.53 187.289 229.14 187.289 229.14L184.688 254.361L147.301 248.327L144.926 266.301L188.896 275.793C190.737 276.25 192.655 276.301 194.517 275.943C196.38 275.584 198.142 274.825 199.681 273.717C201.5 272.242 202.821 270.242 203.462 267.989Z" fill="#007940"/>
<path d="M197.563 213.081C197.563 213.146 196.795 213.17 195.624 213.485C194.096 213.878 192.68 214.62 191.486 215.651C190.292 216.683 189.353 217.976 188.741 219.431C188.265 220.545 188.135 221.297 188.063 221.289C188.057 220.61 188.194 219.939 188.467 219.318C189.024 217.774 189.97 216.4 191.212 215.328C192.454 214.255 193.951 213.521 195.559 213.194C196.212 213.017 196.894 212.979 197.563 213.081Z" fill="#263238"/>
<path d="M156.856 249.854L155.531 268.563L163.19 270.211L164.369 251.082L156.856 249.854Z" fill="white"/>
<path d="M211.605 230.813C211.605 230.813 211.605 230.967 211.532 231.282C211.459 231.597 211.403 232.089 211.298 232.639C211.08 233.859 210.757 235.62 210.345 237.882C209.933 240.144 209.408 242.939 208.818 246.162C208.511 247.778 208.212 249.506 207.832 251.332C207.453 253.158 207.024 255.081 206.58 257.092C206.136 259.104 205.611 261.22 205.021 263.401C204.73 264.492 204.407 265.599 204.06 266.721C203.722 267.877 203.292 269.003 202.775 270.09C202.235 271.227 201.499 272.261 200.602 273.144C199.647 274.013 198.555 274.72 197.371 275.236C194.867 276.295 192.103 276.576 189.438 276.044L154.701 268.563L144.934 266.455L144.74 266.415V266.221C145.548 260.016 146.356 253.998 147.115 248.246V248.044H147.317L184.752 254.248L184.583 254.378C185.391 246.55 186.093 240.257 186.554 235.894C186.796 233.737 186.982 232.065 187.111 230.91C187.176 230.353 187.224 229.924 187.265 229.618C187.305 229.311 187.329 229.173 187.329 229.173C187.329 229.173 187.329 229.327 187.329 229.618C187.329 229.908 187.265 230.353 187.216 230.918C187.103 232.073 186.942 233.754 186.74 235.911C186.303 240.273 185.673 246.574 184.898 254.402V254.555H184.744L147.35 248.521L147.576 248.343C146.824 254.103 146.033 260.113 145.217 266.326L145.055 266.091L154.822 268.2L189.559 275.705C192.154 276.213 194.841 275.932 197.274 274.897C198.432 274.408 199.497 273.725 200.424 272.877C201.3 272.028 202.016 271.03 202.541 269.929C203.049 268.859 203.473 267.752 203.809 266.616C204.165 265.502 204.488 264.403 204.779 263.312C205.376 261.139 205.893 259.039 206.394 257.027C206.895 255.016 207.291 253.093 207.679 251.276C208.067 249.458 208.374 247.729 208.689 246.122C209.311 242.89 209.852 240.127 210.304 237.849C210.757 235.571 211.112 233.81 211.338 232.623C211.459 232.041 211.548 231.589 211.613 231.274C211.678 230.959 211.605 230.813 211.605 230.813Z" fill="#263238"/>
<path d="M189.032 260.783C188.118 259.755 187.306 258.641 186.609 257.455L185.033 255.032C184.814 254.718 184.5 254.483 184.137 254.361C184.137 254.361 184.25 254.288 184.484 254.361C184.799 254.448 185.081 254.628 185.292 254.878C185.793 255.476 186.342 256.324 186.98 257.302C187.778 258.391 188.465 259.558 189.032 260.783Z" fill="#263238"/>
<g opacity="0.3">
<path d="M161.793 219.511L166.866 216.385L172.448 222.306L179.719 207.119L171.552 217.823L167.036 213.743L161.793 219.511Z" fill="black"/>
</g>
<path d="M33.1837 210.843H23.9824V234.392H33.1837V210.843Z" fill="#E0E0E0"/>
<path d="M28.7902 212.216C35.3308 212.216 40.633 206.853 40.633 200.236C40.633 193.62 35.3308 188.256 28.7902 188.256C22.2495 188.256 16.9473 193.62 16.9473 200.236C16.9473 206.853 22.2495 212.216 28.7902 212.216Z" fill="white"/>
<path d="M28.7907 212.62C26.336 212.646 23.9291 211.942 21.8756 210.596C19.8221 209.251 18.2147 207.326 17.2575 205.066C16.3004 202.805 16.0366 200.311 16.4998 197.9C16.9629 195.49 18.1321 193.271 19.8588 191.526C21.5855 189.781 23.7918 188.589 26.1975 188.1C28.6033 187.612 31.0999 187.85 33.3704 188.783C35.6408 189.716 37.5826 191.303 38.9492 193.343C40.3158 195.382 41.0455 197.781 41.0456 200.236C41.0607 203.503 39.7785 206.642 37.4807 208.964C35.1829 211.286 32.0574 212.601 28.7907 212.62ZM28.7907 188.66C26.4958 188.634 24.2451 189.291 22.3245 190.548C20.4038 191.804 18.9 193.603 18.0039 195.716C17.1079 197.829 16.8601 200.16 17.2921 202.414C17.7241 204.668 18.8163 206.743 20.43 208.375C22.0437 210.007 24.1061 211.122 26.3551 211.58C28.6041 212.037 30.9383 211.815 33.0612 210.943C35.184 210.071 36.9997 208.587 38.2775 206.681C39.5553 204.775 40.2376 202.531 40.2378 200.236C40.2528 197.184 39.0558 194.25 36.9095 192.08C34.7632 189.909 31.8432 188.679 28.7907 188.66Z" fill="#E0E0E0"/>
<path d="M27.3184 200.236L29.5803 200.891L31.4222 192.473L27.3184 200.236Z" fill="#007940"/>
<path d="M34.5574 211.327C34.0937 211.741 33.5408 212.043 32.9417 212.208C31.5418 212.683 30.0633 212.883 28.5875 212.798C27.1132 212.733 25.6591 212.431 24.2817 211.901C23.69 211.718 23.1407 211.418 22.666 211.02C22.666 210.964 23.3123 211.279 24.3625 211.618C25.7283 212.057 27.1463 212.312 28.5794 212.378C30.0082 212.455 31.4401 212.302 32.8205 211.925C33.9273 211.618 34.4927 211.263 34.5574 211.327Z" fill="#263238"/>
<path d="M54.6902 234.594C54.6902 234.707 44.1883 234.715 31.1741 234.594C18.1598 234.472 7.66602 234.311 7.66602 234.198C7.66602 234.085 18.1679 234.068 31.1821 234.198C44.1964 234.327 54.6902 234.448 54.6902 234.594Z" fill="#263238"/>
</g>
</svg>
