<svg width="1728" height="395" viewBox="0 0 1728 395" fill="none" xmlns="http://www.w3.org/2000/svg">
<g opacity="0.4">
<path d="M101 41.4554C101.519 37.6929 96.2176 34.5984 92.2089 34.2819C90.31 34.1237 88.3321 34.4138 86.5299 33.7896C82.6267 32.427 81.0707 27.381 77.2554 25.7811C74.4159 24.5767 71.1017 25.6492 68.3765 27.0382C65.6513 28.4271 62.8821 30.1765 59.8053 30.37C57.1153 30.5458 54.2054 29.5436 51.8934 30.8535C50.1352 31.838 49.2561 33.8512 47.621 35.038C45.9859 36.2248 43.9815 36.4445 42.0299 36.55C40.0783 36.6555 38.0388 36.6819 36.263 37.4994C34.4872 38.317 33.0016 40.1983 33.3796 42.1235L101 41.4554Z" fill="#EBEBEB"/>
<path d="M517.316 33.0252C517.835 29.2626 512.525 26.1682 508.525 25.8429C506.626 25.6935 504.648 25.9836 502.855 25.3594C498.952 23.9968 497.387 18.9508 493.581 17.342C490.732 16.1465 487.427 17.2102 484.693 18.5992C481.959 19.9881 479.207 21.7375 476.122 21.9397C473.484 22.1068 470.522 21.1134 468.21 22.4232C466.452 23.399 465.573 25.421 463.937 26.6078C462.302 27.7945 460.307 28.0143 458.346 28.1198C456.386 28.2253 454.364 28.2517 452.579 29.0604C450.795 29.8692 449.327 31.7681 449.696 33.6845L517.316 33.0252Z" fill="#EBEBEB"/>
<path d="M247.953 132.838C248.304 130.298 244.717 128.197 242.019 127.986C240.726 127.88 239.381 128.073 238.168 127.651C235.531 126.728 234.476 123.318 231.9 122.227C229.966 121.419 227.751 122.14 225.878 123.107C224.006 124.074 222.169 125.234 220.076 125.366C218.265 125.48 216.296 124.803 214.705 125.691C213.518 126.359 212.903 127.722 211.813 128.522C210.676 129.225 209.36 129.583 208.024 129.55C206.695 129.518 205.371 129.733 204.121 130.183C203.501 130.427 202.976 130.864 202.625 131.429C202.273 131.995 202.113 132.658 202.169 133.322L247.953 132.838Z" fill="#F5F5F5"/>
<path d="M610.404 82.1665C610.747 79.6259 607.16 77.5337 604.461 77.3139C603.169 77.2084 601.824 77.4106 600.62 76.9799C597.982 76.1008 596.919 72.6459 594.343 71.5558C592.418 70.747 590.194 71.4679 588.33 72.4349C586.466 73.4019 584.611 74.5623 582.528 74.6942C580.708 74.8085 578.739 74.1404 577.148 75.0283C575.961 75.6876 575.389 77.0502 574.255 77.859C573.117 78.556 571.801 78.9101 570.467 78.8787C569.137 78.8469 567.813 79.0646 566.563 79.5205C565.945 79.7636 565.422 80.1991 565.07 80.7627C564.719 81.3263 564.558 81.988 564.612 82.6501L610.404 82.1665Z" fill="#F5F5F5"/>
<path d="M1729 274.496H343.384C328.462 274.496 314.152 268.569 303.6 258.017C293.049 247.466 287.121 233.156 287.121 218.234V103.907C287.119 100.585 285.799 97.3987 283.45 95.0485C281.102 92.6983 277.917 91.3758 274.594 91.3711H173.823C171.658 91.3735 169.582 92.2346 168.051 93.7657C166.52 95.2968 165.659 97.3727 165.656 99.538V141.831C165.64 155.241 160.303 168.096 150.818 177.575C141.333 187.054 128.474 192.381 115.064 192.388H18.7061V149.998H115.064C117.229 149.996 119.305 149.135 120.836 147.604C122.367 146.073 123.229 143.997 123.231 141.831V99.538C123.247 86.1344 128.579 73.2845 138.057 63.8067C147.535 54.329 160.384 48.9972 173.788 48.981H274.621C289.187 48.9903 303.154 54.7795 313.455 65.0777C323.757 75.3758 329.55 89.341 329.564 103.907V218.269C329.571 221.938 331.033 225.455 333.628 228.049C336.223 230.642 339.741 232.102 343.41 232.106H1729V274.496Z" fill="#EBEBEB"/>
<path d="M188.877 99.494C187.524 99.4916 186.227 98.9525 185.271 97.9949C184.315 97.0373 183.778 95.7395 183.778 94.3864V42.0097C183.778 40.6574 184.316 39.3605 185.272 38.4043C186.228 37.4481 187.525 36.9109 188.877 36.9109C190.23 36.9109 191.528 37.4478 192.486 38.4037C193.443 39.3597 193.982 40.6566 193.985 42.0097V94.4128C193.978 95.7628 193.437 97.0552 192.479 98.0073C191.522 98.9595 190.227 99.494 188.877 99.494Z" fill="#E0E0E0"/>
<path d="M175.092 121.665C175.092 123.017 174.555 124.314 173.598 125.27C172.642 126.226 171.345 126.764 169.993 126.764H117.616C116.263 126.764 114.965 126.227 114.008 125.271C113.05 124.315 112.511 123.018 112.509 121.665C112.509 120.995 112.641 120.331 112.898 119.712C113.155 119.092 113.531 118.53 114.005 118.056C114.48 117.583 115.043 117.207 115.662 116.952C116.282 116.696 116.946 116.565 117.616 116.566H169.993C171.345 116.566 172.642 117.103 173.598 118.06C174.555 119.016 175.092 120.313 175.092 121.665Z" fill="#E0E0E0"/>
<path d="M82.8888 204.854C81.5365 204.854 80.2396 204.317 79.2834 203.361C78.3272 202.404 77.79 201.108 77.79 199.755V147.379C77.79 146.025 78.3269 144.728 79.2829 143.77C80.2389 142.812 81.5357 142.273 82.8888 142.271C83.5591 142.271 84.2229 142.403 84.8421 142.66C85.4613 142.917 86.0237 143.293 86.4973 143.768C86.9709 144.242 87.3463 144.805 87.602 145.425C87.8577 146.044 87.9887 146.708 87.9876 147.379V199.755C87.9876 201.108 87.4504 202.404 86.4942 203.361C85.538 204.317 84.2411 204.854 82.8888 204.854Z" fill="#E0E0E0"/>
<path d="M336.653 125.524C336.653 126.877 336.116 128.175 335.161 129.132C334.205 130.09 332.908 130.629 331.555 130.632H279.178C277.823 130.632 276.524 130.093 275.566 129.136C274.608 128.178 274.07 126.879 274.07 125.524C274.073 124.171 274.612 122.874 275.569 121.918C276.527 120.962 277.825 120.425 279.178 120.425H331.555C332.224 120.425 332.887 120.557 333.506 120.813C334.124 121.07 334.687 121.445 335.16 121.919C335.633 122.392 336.009 122.954 336.265 123.573C336.522 124.191 336.653 124.854 336.653 125.524Z" fill="#E0E0E0"/>
<path d="M336.653 211.561C336.653 212.914 336.116 214.212 335.161 215.17C334.205 216.127 332.908 216.667 331.555 216.669H279.178C277.823 216.669 276.524 216.131 275.566 215.173C274.608 214.215 274.07 212.916 274.07 211.561C274.073 210.208 274.612 208.911 275.569 207.955C276.527 206.999 277.825 206.463 279.178 206.463H331.555C332.224 206.463 332.887 206.594 333.506 206.851C334.124 207.107 334.687 207.482 335.16 207.956C335.633 208.429 336.009 208.991 336.265 209.61C336.522 210.229 336.653 210.892 336.653 211.561Z" fill="#E0E0E0"/>
<path d="M479.515 220.643C480.185 220.642 480.848 220.773 481.467 221.029C482.087 221.284 482.649 221.66 483.123 222.134C483.596 222.607 483.972 223.17 484.228 223.789C484.484 224.408 484.615 225.072 484.614 225.742V278.145C484.615 278.815 484.484 279.478 484.228 280.097C483.972 280.716 483.596 281.279 483.123 281.753C482.649 282.226 482.087 282.602 481.467 282.858C480.848 283.114 480.185 283.245 479.515 283.243C478.163 283.243 476.866 282.706 475.909 281.75C474.953 280.794 474.416 279.497 474.416 278.145V225.742C474.416 224.389 474.953 223.092 475.909 222.136C476.866 221.18 478.163 220.643 479.515 220.643Z" fill="#E0E0E0"/>
<path d="M582.194 220.643C583.547 220.643 584.844 221.18 585.8 222.136C586.756 223.092 587.293 224.389 587.293 225.742V278.145C587.293 279.497 586.756 280.794 585.8 281.75C584.844 282.706 583.547 283.243 582.194 283.243C581.525 283.245 580.861 283.114 580.242 282.858C579.623 282.602 579.06 282.226 578.587 281.753C578.113 281.279 577.737 280.716 577.481 280.097C577.226 279.478 577.095 278.815 577.096 278.145V225.742C577.095 225.072 577.226 224.408 577.481 223.789C577.737 223.17 578.113 222.607 578.587 222.134C579.06 221.66 579.623 221.284 580.242 221.029C580.861 220.773 581.525 220.642 582.194 220.643Z" fill="#E0E0E0"/>
<path d="M268.971 101.445C268.301 101.445 267.638 101.313 267.02 101.057C266.401 100.801 265.839 100.425 265.365 99.9518C264.892 99.4784 264.516 98.9163 264.26 98.2977C264.004 97.6791 263.872 97.016 263.872 96.3464V43.9697C263.871 43.2998 264.002 42.6362 264.258 42.0171C264.514 41.398 264.889 40.8354 265.363 40.3617C265.837 39.888 266.399 39.5125 267.018 39.2567C267.637 39.0009 268.301 38.8698 268.971 38.8709C270.323 38.8709 271.62 39.4081 272.576 40.3643C273.532 41.3205 274.07 42.6174 274.07 43.9697V96.3464C274.07 97.016 273.938 97.6791 273.682 98.2977C273.425 98.9163 273.05 99.4784 272.576 99.9518C272.103 100.425 271.541 100.801 270.922 101.057C270.303 101.313 269.64 101.445 268.971 101.445Z" fill="#E0E0E0"/>
<path d="M572.433 340.815C573.707 341.42 574.846 342.278 575.779 343.335C576.713 344.393 577.423 345.629 577.865 346.969C578.737 349.653 578.984 352.5 578.586 355.294C577.971 360.7 574.903 366.16 571.597 370.476C567.044 366.503 565.997 359.575 565.69 356.024C565.198 350.424 567.712 339.989 572.433 340.824" fill="#007940"/>
<path d="M576.89 379.39C576.578 377.846 576.68 376.247 577.186 374.755C577.693 373.263 578.585 371.933 579.774 370.898C580.981 369.877 582.382 369.109 583.892 368.64C585.402 368.17 586.991 368.008 588.565 368.164C590.015 368.27 591.58 368.692 592.406 369.922C592.763 370.502 592.957 371.167 592.968 371.848C592.979 372.528 592.806 373.199 592.468 373.79C591.778 374.969 590.789 375.946 589.602 376.621C585.655 379.091 581.391 380.762 576.934 379.425" fill="#007940"/>
<path d="M571.053 395.944C571.068 395.57 571.121 395.199 571.211 394.836C571.352 394.053 571.536 393.078 571.765 391.829C572.27 388.489 573.315 385.252 574.859 382.247C576.462 379.24 578.838 376.715 581.743 374.933C582.625 374.411 583.567 373.995 584.547 373.694C584.811 373.605 585.082 373.535 585.356 373.483C585.54 373.483 585.637 373.43 585.646 373.483C584.334 373.938 583.074 374.527 581.883 375.241C579.079 377.059 576.781 379.557 575.202 382.502C573.686 385.482 572.62 388.669 572.037 391.961C571.756 393.218 571.536 394.238 571.36 394.933C571.28 395.276 571.177 395.614 571.053 395.944Z" fill="#263238"/>
<path d="M571.219 348.929C571.259 349.087 571.277 349.25 571.272 349.413C571.272 349.773 571.324 350.23 571.36 350.802C571.421 352.015 571.492 353.764 571.562 355.936C571.703 360.261 571.817 366.247 571.782 372.858C571.746 379.469 571.597 385.456 571.412 389.79C571.324 391.952 571.245 393.702 571.166 394.915C571.166 395.486 571.096 395.943 571.07 396.304C571.069 396.467 571.049 396.629 571.008 396.787C570.995 396.626 570.995 396.465 571.008 396.304C571.008 395.94 571.008 395.474 571.008 394.906C571.008 393.649 571.078 391.908 571.131 389.781C571.237 385.447 571.351 379.469 571.386 372.858C571.421 366.247 571.342 360.269 571.272 355.936C571.272 353.808 571.219 352.067 571.193 350.81C571.193 350.239 571.193 349.773 571.193 349.413C571.19 349.251 571.199 349.089 571.219 348.929Z" fill="#263238"/>
<path d="M569.013 382.678C568.462 379.401 567.137 376.302 565.15 373.639C563.163 370.976 560.569 368.825 557.585 367.364C556.064 366.634 554.068 366.159 552.829 367.293C551.589 368.427 551.862 370.458 552.477 372.032C553.813 375.296 556.085 378.092 559.007 380.066C561.93 382.041 565.372 383.106 568.899 383.126" fill="#007940"/>
<path d="M558.331 372.489C558.664 372.602 558.988 372.743 559.298 372.911C559.674 373.083 560.038 373.28 560.388 373.5C560.867 373.768 561.33 374.061 561.777 374.379C562.33 374.746 562.861 375.146 563.368 375.575C563.964 376.053 564.53 376.567 565.065 377.113C567.56 379.595 569.405 382.654 570.436 386.018C570.657 386.749 570.836 387.491 570.972 388.243C571.1 388.893 571.191 389.551 571.245 390.212C571.324 390.818 571.297 391.372 571.324 391.847C571.338 392.261 571.324 392.675 571.28 393.086C571.278 393.438 571.24 393.789 571.166 394.133C571.078 394.133 571.236 392.629 570.963 390.238C570.893 389.588 570.788 388.943 570.647 388.304C570.504 387.568 570.319 386.84 570.093 386.124C569.56 384.488 568.853 382.914 567.983 381.43C567.084 379.963 566.032 378.595 564.845 377.351C564.324 376.81 563.775 376.296 563.201 375.812C562.71 375.381 562.196 374.976 561.663 374.599C559.667 373.192 558.296 372.568 558.331 372.489Z" fill="#263238"/>
<path d="M271.36 326.143L284.336 339.901V396.787H298.243V339.901L311.773 326.741L271.36 326.143Z" fill="#E0E0E0"/>
<path d="M271.36 326.143L311.799 326.565H312.238L311.922 326.873L298.401 340.059L298.463 339.91C298.463 353.043 298.463 367.891 298.463 383.557C298.463 388.04 298.463 392.471 298.463 396.796V397.025H284.116V396.823C284.116 373.456 284.186 353.448 284.204 339.936V340.024L271.36 326.143L284.433 339.813V339.866C284.433 353.377 284.485 373.386 284.52 396.752L284.301 396.532H298.208L297.979 396.761V383.548C297.979 367.883 297.979 353.035 297.979 339.901V339.813L298.041 339.751L311.597 326.609L311.72 326.925L271.36 326.143Z" fill="#263238"/>
<path d="M298.243 340.086C295.921 340.318 293.587 340.394 291.254 340.315C288.922 340.394 286.588 340.318 284.266 340.086C286.588 339.86 288.922 339.784 291.254 339.858C293.587 339.784 295.921 339.86 298.243 340.086Z" fill="#263238"/>
<path d="M401.239 329.414H400.685L0 325.494L0.62416 254.849L378.795 258.559C380.374 258.573 381.94 258.274 383.403 257.679C384.866 257.085 386.196 256.206 387.317 255.095C388.439 253.983 389.329 252.66 389.936 251.203C390.544 249.745 390.856 248.182 390.856 246.603V192.697C390.856 184.776 392.417 176.933 395.448 169.615C398.479 162.298 402.921 155.649 408.522 150.048C419.833 138.737 435.175 132.382 451.171 132.382L1728 132.381V203.034L473.483 203.035C471.913 203.035 470.359 203.344 468.909 203.945C467.459 204.546 466.142 205.427 465.032 206.537C463.923 207.648 463.043 208.966 462.443 210.416C461.843 211.867 461.535 213.421 461.536 214.991V269.099C461.536 285.093 455.184 300.432 443.876 311.742C432.569 323.053 417.232 329.41 401.239 329.414Z" fill="#455A64"/>
<path d="M95.5147 334.002C94.2557 334.002 93.0482 333.502 92.158 332.612C91.2677 331.722 90.7676 330.514 90.7676 329.255V256.686C90.7676 255.426 91.2674 254.217 92.1574 253.326C93.0475 252.434 94.2549 251.932 95.5147 251.93C96.1393 251.93 96.7577 252.053 97.3347 252.292C97.9117 252.531 98.436 252.881 98.8777 253.323C99.3193 253.764 99.6696 254.289 99.9086 254.866C100.148 255.443 100.271 256.061 100.271 256.686V329.255C100.268 330.515 99.7662 331.723 98.8746 332.613C97.9829 333.503 96.7745 334.002 95.5147 334.002Z" fill="#455A64"/>
<path d="M95.5137 334.002C96.1158 333.974 96.7094 333.849 97.2719 333.633C98.0503 333.314 98.7295 332.793 99.2395 332.124C99.7494 331.455 100.072 330.662 100.173 329.827C100.226 325.431 100.173 318.996 100.173 311.084C100.173 303.172 100.173 293.739 100.173 283.278C100.173 278.048 100.173 272.553 100.173 266.857V258.171C100.193 257.444 100.172 256.716 100.111 255.991C100.008 255.289 99.7369 254.622 99.3202 254.048C98.7975 253.318 98.069 252.76 97.2277 252.445C96.3864 252.131 95.4705 252.074 94.5968 252.283C93.7232 252.491 92.9316 252.955 92.323 253.616C91.7143 254.276 91.3163 255.103 91.1798 255.991C91.1176 256.713 91.1 257.438 91.127 258.162C91.127 261.093 91.127 263.988 91.127 266.848C91.127 272.544 91.127 278.039 91.127 283.278C91.127 293.739 91.127 303.163 91.0743 311.093C91.0215 319.022 90.9864 325.422 91.0743 329.827C91.1746 330.663 91.4975 331.458 92.0092 332.127C92.521 332.797 93.203 333.317 93.9841 333.633C94.5465 333.85 95.1402 333.974 95.7423 334.002H95.2939C94.8478 333.974 94.4088 333.876 93.9929 333.712C93.3204 333.454 92.7181 333.042 92.2347 332.508C91.5498 331.782 91.1101 330.86 90.9776 329.87C90.8721 325.422 90.9072 319.031 90.8633 311.11C90.8193 303.19 90.8633 293.757 90.8633 283.296C90.8633 278.021 90.8633 272.562 90.8633 266.865V258.18C90.8404 257.432 90.861 256.684 90.9248 255.938C91.0382 255.162 91.34 254.426 91.8039 253.793C92.2636 253.151 92.8698 252.627 93.5724 252.266C94.2749 251.905 95.0534 251.716 95.8434 251.716C96.6333 251.716 97.4119 251.905 98.1144 252.266C98.8169 252.627 99.4232 253.151 99.8828 253.793C100.343 254.424 100.644 255.157 100.762 255.929C100.826 256.678 100.846 257.429 100.823 258.18C100.823 261.116 100.823 264.017 100.823 266.865C100.823 272.562 100.823 278.056 100.823 283.287C100.823 293.748 100.823 303.172 100.771 311.093C100.718 319.014 100.771 325.413 100.656 329.862C100.527 330.85 100.09 331.772 99.4081 332.499C98.9247 333.033 98.3224 333.445 97.6499 333.703C97.2335 333.866 96.7948 333.963 96.3489 333.993L95.5137 334.002Z" fill="#263238"/>
<path d="M471.364 223.64C471.055 224.183 470.641 224.659 470.147 225.042C469.653 225.424 469.089 225.705 468.486 225.869C467.883 226.032 467.253 226.075 466.634 225.994C466.014 225.913 465.417 225.711 464.876 225.398L387.586 180.758C387.044 180.448 386.568 180.034 386.186 179.54C385.805 179.046 385.524 178.481 385.361 177.879C385.197 177.276 385.154 176.647 385.235 176.028C385.315 175.408 385.516 174.811 385.828 174.27C386.137 173.728 386.551 173.252 387.045 172.871C387.539 172.489 388.104 172.208 388.707 172.045C389.309 171.881 389.938 171.839 390.557 171.919C391.177 171.999 391.774 172.2 392.315 172.512L469.588 217.126C470.135 217.434 470.615 217.848 471.001 218.344C471.387 218.839 471.671 219.406 471.836 220.012C472.001 220.618 472.045 221.251 471.963 221.874C471.882 222.496 471.679 223.097 471.364 223.64Z" fill="#455A64"/>
<path d="M471.365 223.64C471.685 223.016 471.879 222.335 471.937 221.636C471.989 220.944 471.885 220.248 471.632 219.602C471.38 218.955 470.985 218.373 470.478 217.9C470.017 217.492 469.506 217.147 468.957 216.871L449.617 205.768L420.923 189.259L403.982 179.501L395.024 174.332L392.748 173.013C392.045 172.521 391.228 172.218 390.374 172.134C389.526 172.066 388.677 172.239 387.923 172.634C387.169 173.028 386.543 173.628 386.115 174.363C385.688 175.098 385.477 175.939 385.507 176.789C385.538 177.639 385.808 178.464 386.286 179.167C386.78 179.863 387.442 180.423 388.211 180.793L390.497 182.112L399.455 187.29L416.378 197.074L445.028 213.671L464.368 224.897C464.883 225.233 465.438 225.501 466.02 225.697C466.536 225.854 467.074 225.92 467.612 225.891C468.461 225.844 469.281 225.567 469.985 225.091C470.534 224.7 471.002 224.207 471.365 223.64C471.284 223.801 471.193 223.956 471.093 224.106C470.783 224.539 470.403 224.916 469.968 225.223C469.256 225.729 468.421 226.033 467.55 226.102C466.996 226.145 466.439 226.086 465.906 225.926C465.308 225.736 464.737 225.467 464.21 225.126L444.869 214.032L416.167 197.513L399.227 187.755L390.225 182.551L387.939 181.233C387.112 180.828 386.399 180.223 385.864 179.474C385.327 178.7 385.021 177.789 384.983 176.847C384.944 175.905 385.174 174.972 385.646 174.156C386.118 173.34 386.812 172.676 387.648 172.24C388.484 171.804 389.426 171.615 390.365 171.694C391.28 171.77 392.162 172.072 392.932 172.573L395.209 173.892L404.167 179.061L421.09 188.854L449.731 205.443L469.027 216.669C469.587 216.957 470.108 217.318 470.574 217.742C470.973 218.128 471.303 218.58 471.55 219.078C471.93 219.861 472.091 220.733 472.016 221.601C471.963 222.129 471.826 222.645 471.612 223.13C471.542 223.306 471.459 223.476 471.365 223.64Z" fill="#263238"/>
<path d="M566.641 208.634C565.381 208.634 564.172 208.134 563.281 207.244C562.389 206.354 561.887 205.147 561.885 203.887V131.335C561.885 130.073 562.386 128.864 563.278 127.972C564.17 127.08 565.379 126.579 566.641 126.579C567.9 126.581 569.108 127.083 569.998 127.975C570.888 128.867 571.388 130.075 571.388 131.335V203.904C571.383 205.16 570.881 206.363 569.991 207.25C569.101 208.136 567.897 208.634 566.641 208.634Z" fill="#455A64"/>
<path d="M566.642 208.634C567.244 208.605 567.837 208.481 568.4 208.265C569.181 207.948 569.863 207.428 570.375 206.759C570.887 206.089 571.21 205.295 571.31 204.458C571.31 200.063 571.31 193.628 571.31 185.725C571.31 177.821 571.31 168.371 571.257 157.91C571.257 152.679 571.257 147.185 571.257 141.488C571.257 138.64 571.257 135.739 571.257 132.803C571.284 132.076 571.266 131.348 571.204 130.623C571.095 129.921 570.821 129.255 570.404 128.68C569.986 128.097 569.435 127.623 568.797 127.295C568.158 126.968 567.451 126.797 566.734 126.797C566.017 126.797 565.31 126.968 564.672 127.295C564.033 127.623 563.482 128.097 563.064 128.68C562.646 129.257 562.374 129.926 562.273 130.631C562.208 131.353 562.187 132.078 562.211 132.803C562.211 135.733 562.211 138.631 562.211 141.497C562.211 147.185 562.211 152.688 562.211 157.919C562.211 168.38 562.211 177.813 562.159 185.733C562.106 193.654 562.079 200.072 562.159 204.467C562.26 205.302 562.582 206.095 563.092 206.764C563.602 207.433 564.281 207.954 565.06 208.273C565.622 208.49 566.216 208.614 566.818 208.643H566.361C565.916 208.605 565.478 208.507 565.06 208.353C564.388 208.088 563.787 207.673 563.301 207.139C562.618 206.412 562.179 205.491 562.044 204.502C561.939 200.054 561.974 193.663 561.939 185.742C561.904 177.822 561.939 168.389 561.886 157.927C561.886 152.697 561.886 147.194 561.886 141.506V132.812C561.863 132.064 561.884 131.315 561.948 130.57C562.067 129.795 562.368 129.06 562.827 128.425C563.286 127.782 563.892 127.259 564.595 126.898C565.298 126.537 566.076 126.348 566.866 126.348C567.656 126.348 568.435 126.537 569.137 126.898C569.84 127.259 570.446 127.782 570.906 128.425C571.369 129.054 571.671 129.788 571.785 130.561C571.848 131.309 571.869 132.061 571.846 132.812V141.497C571.846 147.194 571.846 152.688 571.846 157.919C571.846 168.38 571.846 177.804 571.802 185.733C571.758 193.663 571.802 200.045 571.688 204.493C571.551 205.481 571.112 206.403 570.431 207.131C569.945 207.664 569.344 208.079 568.673 208.344C568.254 208.498 567.816 208.596 567.372 208.634H566.642Z" fill="#263238"/>
<path d="M344.854 334.002C343.594 334.002 342.385 333.503 341.494 332.613C340.602 331.723 340.1 330.515 340.098 329.255V256.686C340.098 255.424 340.599 254.215 341.491 253.323C342.383 252.431 343.592 251.93 344.854 251.93C346.113 251.932 347.321 252.434 348.211 253.326C349.101 254.217 349.601 255.426 349.601 256.686V329.255C349.601 330.514 349.101 331.722 348.21 332.612C347.32 333.502 346.113 334.002 344.854 334.002Z" fill="#455A64"/>
<path d="M344.853 334.002C345.44 333.97 346.019 333.845 346.567 333.633C347.348 333.317 348.03 332.797 348.542 332.127C349.054 331.458 349.377 330.663 349.477 329.827C349.53 325.431 349.477 318.996 349.477 311.084C349.477 303.172 349.477 293.74 349.424 283.278C349.424 278.048 349.424 272.553 349.424 266.857V258.171C349.444 257.444 349.424 256.716 349.363 255.991C349.26 255.289 348.988 254.622 348.572 254.048C348.153 253.466 347.602 252.991 346.964 252.664C346.326 252.336 345.619 252.165 344.901 252.165C344.184 252.165 343.477 252.336 342.839 252.664C342.201 252.991 341.65 253.466 341.231 254.048C340.81 254.624 340.536 255.294 340.431 256C340.37 256.722 340.35 257.447 340.37 258.171V266.857C340.37 272.553 340.37 278.048 340.37 283.287C340.37 293.748 340.37 303.172 340.326 311.102C340.282 319.031 340.238 325.431 340.326 329.835C340.427 330.671 340.749 331.464 341.259 332.133C341.769 332.802 342.448 333.323 343.227 333.642C343.789 333.858 344.383 333.983 344.985 334.011H344.528C344.085 333.982 343.649 333.884 343.236 333.721C342.562 333.464 341.96 333.052 341.477 332.517C340.795 331.79 340.359 330.868 340.229 329.879C340.115 325.431 340.15 319.04 340.115 311.119C340.08 303.199 340.115 293.766 340.062 283.305C340.062 278.03 340.062 272.571 340.062 266.874C340.062 264.026 340.062 261.131 340.062 258.189C340.038 257.441 340.061 256.692 340.132 255.947C340.249 255.172 340.551 254.436 341.011 253.802C341.472 253.16 342.079 252.636 342.782 252.275C343.486 251.914 344.265 251.725 345.055 251.725C345.846 251.725 346.625 251.914 347.328 252.275C348.031 252.636 348.639 253.16 349.099 253.802C349.563 254.431 349.865 255.165 349.978 255.938C350.042 256.687 350.062 257.438 350.04 258.189V266.874C350.04 272.571 350.04 278.065 350.04 283.296C350.04 293.757 350.04 303.181 350.04 311.102C350.04 319.022 350.04 325.422 349.925 329.871C349.793 330.86 349.353 331.782 348.668 332.508C348.187 333.043 347.584 333.456 346.91 333.712C346.494 333.876 346.055 333.974 345.609 334.002H344.853Z" fill="#263238"/>
<path d="M243.265 334.002C242.005 334.002 240.797 333.503 239.905 332.613C239.013 331.723 238.511 330.515 238.509 329.255V256.686C238.509 255.424 239.01 254.215 239.902 253.323C240.794 252.431 242.003 251.93 243.265 251.93C244.525 251.932 245.732 252.434 246.622 253.326C247.512 254.217 248.012 255.426 248.012 256.686V329.255C248.012 330.514 247.512 331.722 246.621 332.612C245.731 333.502 244.524 334.002 243.265 334.002Z" fill="#455A64"/>
<path d="M243.265 334.002C243.852 333.969 244.43 333.844 244.979 333.633C245.76 333.317 246.442 332.797 246.954 332.127C247.466 331.458 247.789 330.663 247.889 329.827C247.933 325.431 247.889 318.996 247.889 311.084C247.889 303.172 247.889 293.739 247.836 283.278C247.836 278.048 247.836 272.553 247.836 266.857C247.836 264.008 247.836 261.107 247.836 258.171C247.863 257.444 247.846 256.716 247.784 255.991C247.615 254.926 247.073 253.956 246.255 253.254C245.437 252.552 244.396 252.164 243.318 252.158C242.601 252.161 241.894 252.333 241.256 252.66C240.618 252.987 240.065 253.459 239.643 254.039C239.225 254.616 238.954 255.286 238.852 255.991C238.787 256.713 238.766 257.438 238.79 258.162C238.79 261.093 238.79 263.988 238.79 266.848C238.79 272.544 238.79 278.039 238.79 283.278C238.79 293.739 238.79 303.163 238.738 311.093C238.685 319.022 238.658 325.422 238.738 329.827C238.839 330.662 239.161 331.455 239.671 332.124C240.181 332.793 240.86 333.314 241.639 333.633C242.201 333.849 242.795 333.974 243.397 334.002H242.94C242.494 333.972 242.055 333.874 241.639 333.712C240.966 333.454 240.364 333.042 239.88 332.508C239.199 331.78 238.76 330.858 238.623 329.87C238.518 325.422 238.553 319.031 238.518 311.11C238.483 303.19 238.518 293.757 238.465 283.296C238.465 278.021 238.465 272.562 238.465 266.865V258.18C238.442 257.432 238.463 256.684 238.527 255.938C238.644 255.163 238.946 254.428 239.406 253.793C239.865 253.151 240.472 252.627 241.174 252.266C241.877 251.905 242.655 251.716 243.445 251.716C244.235 251.716 245.014 251.905 245.716 252.266C246.419 252.627 247.025 253.151 247.485 253.793C247.948 254.422 248.25 255.156 248.364 255.929C248.427 256.678 248.448 257.429 248.425 258.18V266.865C248.425 272.562 248.425 278.056 248.425 283.287C248.425 293.748 248.425 303.172 248.381 311.093C248.337 319.014 248.381 325.413 248.267 329.862C248.131 330.85 247.691 331.771 247.01 332.499C246.526 333.033 245.924 333.445 245.252 333.703C244.835 333.866 244.397 333.963 243.951 333.993L243.265 334.002Z" fill="#263238"/>
<g opacity="0.3">
<path d="M405.168 180.74C405.168 180.74 438.372 186.129 467.206 215.649L405.168 180.74Z" fill="black"/>
</g>
<g opacity="0.3">
<path d="M349.602 259.094C349.602 259.094 361.188 290.671 349.602 330.301V259.094Z" fill="black"/>
</g>
<g opacity="0.3">
<path d="M248.161 259.094C248.161 259.094 259.589 288.315 248.012 327.919L248.161 259.094Z" fill="black"/>
</g>
<g opacity="0.3">
<path d="M99.8301 259.094C99.8301 259.094 111.258 288.315 99.6895 327.919L99.8301 259.094Z" fill="black"/>
</g>
<g opacity="0.3">
<path d="M571.391 131.335C571.391 131.335 582.977 162.912 571.391 202.542V131.335Z" fill="black"/>
</g>
<path d="M22.4346 325.44L35.5419 339.338V396.788H49.5812V339.338L63.2512 326.055L22.4346 325.44Z" fill="#E0E0E0"/>
<path d="M22.4346 325.44L63.2512 325.871H63.6907L63.3742 326.178L49.7218 339.488L49.7833 339.338C49.7833 352.604 49.7833 367.593 49.7833 383.416C49.7833 387.953 49.7833 392.418 49.7833 396.788V397.016H35.3134V396.823C35.3134 373.219 35.3837 353.017 35.4101 339.374V339.47L22.4346 325.44L35.6211 339.25V339.303C35.6211 352.947 35.6738 373.149 35.709 396.752L35.4892 396.533H49.5548L49.3262 396.761V383.416C49.3262 367.593 49.3262 352.604 49.3262 339.338V339.25L49.3878 339.189L63.0753 325.923L63.1984 326.231L22.4346 325.44Z" fill="#263238"/>
<path d="M49.5802 339.532C47.2432 339.757 44.8942 339.833 42.5474 339.76C40.2007 339.833 37.8517 339.757 35.5146 339.532C37.8514 339.301 40.2007 339.225 42.5474 339.303C44.8942 339.225 47.2435 339.301 49.5802 339.532Z" fill="#263238"/>
<path d="M491.732 202.498L505.482 217.074V396.788H520.198V217.074L535.186 202.498H491.732Z" fill="#E0E0E0"/>
<path d="M491.732 202.542L535.186 202.41H535.52L535.283 202.638L520.338 217.232V217.117C520.338 258.549 520.382 317.141 520.409 382.019V397.06H505.253V396.823C505.306 316.148 505.358 248.712 505.385 217.108V217.17L491.732 202.542L505.543 217.056C505.543 248.703 505.613 316.095 505.675 396.77L505.446 396.541H520.171L519.943 396.77V381.975C519.943 317.097 519.996 258.505 520.013 217.073V217.003L520.066 216.959L535.072 202.401L535.16 202.63L491.732 202.542Z" fill="#263238"/>
<path d="M520.198 217.267C515.271 217.571 510.329 217.571 505.402 217.267C510.329 216.962 515.271 216.962 520.198 217.267Z" fill="#263238"/>
<path d="M340.115 328.508C340.115 328.631 319.5 328.605 294.077 328.438C268.653 328.27 248.029 328.042 248.029 327.919C248.029 327.796 268.644 327.822 294.077 327.98C319.509 328.139 340.115 328.376 340.115 328.508Z" fill="#263238"/>
<path d="M463.365 73.7274C458.201 85.6103 457.188 98.8858 460.49 111.414C461.438 114.948 462.727 118.381 464.341 121.665C464.477 121.93 464.667 122.165 464.897 122.355C465.127 122.545 465.394 122.686 465.681 122.77C465.968 122.853 466.268 122.878 466.565 122.841C466.861 122.805 467.147 122.708 467.405 122.557C467.663 122.406 467.887 122.205 468.064 121.964C468.241 121.724 468.368 121.45 468.436 121.159C468.504 120.868 468.511 120.567 468.459 120.273C468.406 119.979 468.294 119.699 468.13 119.449C464.89 112.683 463.127 105.305 462.959 97.8055C462.791 90.3057 464.221 82.856 467.154 75.9515C467.431 75.4449 467.504 74.8519 467.358 74.2933C467.213 73.7347 466.86 73.2525 466.372 72.945C465.867 72.6535 465.269 72.573 464.705 72.7212C464.142 72.8694 463.66 73.2343 463.365 73.7362V73.7274Z" fill="#E0E0E0"/>
<path d="M465.616 111.608L474.821 98.1663C475.111 97.6627 475.191 97.0653 475.045 96.5029C474.898 95.9405 474.537 95.4581 474.038 95.1598C473.532 94.8796 472.936 94.8054 472.376 94.9528C471.816 95.1001 471.335 95.4576 471.032 95.9509L461.819 109.357C461.529 109.862 461.45 110.46 461.598 111.023C461.746 111.585 462.11 112.067 462.61 112.364C463.117 112.644 463.712 112.718 464.272 112.571C464.832 112.423 465.313 112.066 465.616 111.573V111.608Z" fill="#E0E0E0"/>
<path d="M461.239 98.1399C465.339 98.4032 469.453 98.3532 473.546 97.9905C474.129 97.9905 474.688 97.7589 475.1 97.3468C475.512 96.9346 475.744 96.3756 475.744 95.7927C475.744 95.2098 475.512 94.6508 475.1 94.2387C474.688 93.8265 474.129 93.595 473.546 93.595C469.453 93.9577 465.339 94.0077 461.239 93.7444C460.657 93.7467 460.099 93.979 459.687 94.3907C459.276 94.8023 459.043 95.36 459.041 95.9422C459.054 96.5208 459.29 97.0721 459.7 97.4814C460.109 97.8906 460.66 98.1265 461.239 98.1399Z" fill="#E0E0E0"/>
<path d="M462.153 81.015C465.279 85.4922 468.133 90.154 470.698 94.9751C470.994 95.4753 471.476 95.8386 472.039 95.9866C472.601 96.1347 473.199 96.0555 473.704 95.7663C474.199 95.4647 474.558 94.983 474.705 94.4225C474.853 93.8619 474.778 93.266 474.495 92.7598C471.927 87.9377 469.074 83.2731 465.95 78.7909C465.646 78.2991 465.164 77.9434 464.604 77.7977C464.044 77.652 463.449 77.7275 462.944 78.0085C462.444 78.3054 462.08 78.7871 461.932 79.3497C461.784 79.9122 461.863 80.5103 462.153 81.015Z" fill="#E0E0E0"/>
<path d="M380.766 355.936L378.392 382.977C378.392 382.977 405.082 394.476 405.17 399.522L352.529 396.823L354.498 354.53L380.766 355.936Z" fill="#455A64"/>
<path d="M362.243 379.856C361.73 379.985 361.283 380.299 360.986 380.736C360.689 381.174 360.564 381.706 360.634 382.23C360.743 382.748 361.045 383.205 361.48 383.508C361.915 383.81 362.449 383.935 362.973 383.856C363.518 383.718 363.994 383.384 364.307 382.916C364.62 382.448 364.749 381.881 364.669 381.324C364.37 380.313 362.999 379.461 362.032 379.918" fill="#E0E0E0"/>
<path d="M352.424 397.904L352.617 393.799L403.183 396.744C403.183 396.744 405.477 397.887 405.126 399.522L352.424 397.904Z" fill="#E0E0E0"/>
<path d="M379.263 382.757C379.263 383.012 377.945 383.065 376.626 383.821C375.307 384.577 374.586 385.632 374.358 385.518C374.129 385.403 374.586 383.935 376.186 383.047C377.786 382.16 379.325 382.52 379.263 382.757Z" fill="#263238"/>
<path d="M384.66 385.324C384.704 385.579 383.57 385.957 382.638 386.994C381.706 388.032 381.399 389.174 381.144 389.148C380.889 389.122 380.801 387.662 381.979 386.388C383.157 385.113 384.669 385.078 384.66 385.324Z" fill="#263238"/>
<path d="M387.447 392.093C387.219 392.093 386.92 390.827 387.658 389.456C388.397 388.084 389.619 387.592 389.715 387.803C389.812 388.014 389.03 388.744 388.45 389.878C387.869 391.012 387.711 392.076 387.447 392.093Z" fill="#263238"/>
<path d="M379.121 376.533C378.998 376.762 377.838 376.348 376.379 376.366C374.919 376.384 373.741 376.797 373.645 376.568C373.548 376.34 374.655 375.478 376.379 375.478C378.102 375.478 379.253 376.34 379.121 376.533Z" fill="#263238"/>
<path d="M372.642 84.083C372.493 87.2654 372.22 90.7378 370.005 93.0586C368.141 95.0454 365.293 95.6959 362.603 96.0915C361.09 96.3534 359.549 96.4008 358.023 96.2322C356.488 96.0598 355.056 95.379 353.953 94.2982C353.412 93.7512 353.025 93.0721 352.829 92.3286C352.633 91.5851 352.635 90.8031 352.836 90.0609C351.982 90.2032 351.104 90.1097 350.299 89.7907C349.493 89.4716 348.79 88.9389 348.265 88.25C347.754 87.5526 347.398 86.7542 347.221 85.9083C347.044 85.0624 347.049 84.1884 347.236 83.3446C347.631 81.6385 348.554 80.1004 349.874 78.9491C349.107 78.3132 348.567 77.447 348.332 76.4792C348.098 75.5114 348.182 74.4938 348.573 73.5778C349.689 70.2812 352.089 69.7361 354.032 70.3251C353.715 69.8725 353.515 69.3484 353.45 68.7997C353.384 68.251 353.456 67.6946 353.658 67.1803C353.86 66.6659 354.186 66.2095 354.607 65.8517C355.028 65.4939 355.531 65.2458 356.071 65.1297L359.456 64.5231L372.642 84.083Z" fill="#263238"/>
<path d="M400.413 61.0067C400.812 60.2434 401.007 59.3893 400.976 58.5283C400.946 57.6673 400.692 56.8289 400.24 56.0956C399.788 55.3623 399.153 54.7592 398.397 54.3456C397.641 53.932 396.791 53.7221 395.929 53.7365L388.211 55.4947L391.534 68.5142C391.74 69.7925 392.307 70.9851 393.169 71.9515C393.644 72.3359 394.192 72.6198 394.78 72.786C395.367 72.9522 395.983 72.9973 396.589 72.9185C397.919 72.8015 399.186 72.2944 400.23 71.4608C401.273 70.6273 402.048 69.5042 402.456 68.2324C402.864 66.9606 402.888 65.5965 402.525 64.3112C402.161 63.0258 401.427 61.8763 400.413 61.0067Z" fill="#263238"/>
<path d="M379.261 115.617C376.122 115.86 373.012 114.864 370.596 112.844C368.181 110.823 366.653 107.937 366.339 104.804L362.435 65.5695C361.055 55.0203 366.013 45.5085 376.554 44.4096L377.529 44.3656C382.285 44.1514 386.947 45.7356 390.588 48.803C394.229 51.8703 396.581 56.1959 397.177 60.9191C398.329 70.0266 399.481 80.1098 399.648 85.024C399.973 95.1864 389.89 97.2171 389.89 97.2171C389.89 97.2171 391.059 103.916 391.323 106.887C391.912 113.568 385.942 115.098 379.261 115.617Z" fill="#B56760"/>
<path d="M389.68 97.0498C384.986 97.2469 380.334 96.097 376.273 93.7356C376.273 93.7356 380.01 100.988 390.102 99.6168L389.68 97.0498Z" fill="#8A4A43"/>
<path d="M395.025 69.6221C395.045 70.0006 394.916 70.372 394.667 70.6575C394.417 70.943 394.067 71.1202 393.689 71.1517C393.505 71.1749 393.318 71.1611 393.14 71.111C392.961 71.0609 392.794 70.9756 392.649 70.86C392.504 70.7445 392.384 70.6011 392.295 70.4383C392.207 70.2755 392.151 70.0966 392.133 69.9121C392.113 69.5336 392.242 69.1622 392.491 68.8767C392.741 68.5912 393.091 68.414 393.469 68.3825C393.653 68.3593 393.84 68.3731 394.018 68.4232C394.197 68.4733 394.363 68.5586 394.508 68.6742C394.653 68.7897 394.774 68.9331 394.863 69.0959C394.951 69.2587 395.007 69.4376 395.025 69.6221Z" fill="#263238"/>
<path d="M394.989 65.0417C394.813 65.2351 393.679 64.4703 392.123 64.5494C390.567 64.6285 389.486 65.4285 389.275 65.2703C389.064 65.112 389.354 64.8395 389.838 64.4527C390.492 63.9555 391.284 63.673 392.106 63.6439C392.917 63.6023 393.721 63.8209 394.4 64.2681C394.892 64.6197 395.077 64.9538 394.989 65.0417Z" fill="#263238"/>
<path d="M380.307 70.5975C380.329 70.9753 380.203 71.3466 379.955 71.6324C379.707 71.9182 379.357 72.0957 378.98 72.1272C378.795 72.1504 378.608 72.1362 378.429 72.0856C378.25 72.035 378.083 71.9489 377.937 71.8324C377.792 71.716 377.672 71.5716 377.584 71.4078C377.496 71.244 377.441 71.0641 377.424 70.8789C377.405 70.4955 377.538 70.1202 377.795 69.8351C378.052 69.55 378.412 69.3785 378.795 69.358C379.16 69.3236 379.523 69.4345 379.806 69.6667C380.089 69.8988 380.269 70.2334 380.307 70.5975Z" fill="#263238"/>
<path d="M379.727 66.3606C379.552 66.554 378.417 65.7979 376.861 65.8683C375.305 65.9386 374.224 66.7474 374.013 66.5891C373.802 66.4309 374.092 66.1584 374.576 65.7716C375.232 65.2779 376.023 64.9958 376.844 64.9628C377.655 64.9242 378.458 65.1426 379.138 65.587C379.675 65.9386 379.815 66.2814 379.727 66.3606Z" fill="#263238"/>
<path d="M385.829 78.1052C386.64 77.8126 387.485 77.6207 388.343 77.5338C388.739 77.4722 389.117 77.3755 389.169 77.103C389.185 76.6902 389.074 76.2825 388.853 75.9338C388.431 74.9844 387.974 73.991 387.534 72.9449C385.706 68.6988 384.361 65.2 384.528 65.1297C384.695 65.0593 386.33 68.4439 388.158 72.6899L389.424 75.6877C389.699 76.1566 389.799 76.708 389.706 77.2437C389.655 77.3881 389.571 77.5188 389.461 77.6255C389.351 77.7323 389.218 77.8122 389.073 77.859C388.856 77.9287 388.632 77.9701 388.405 77.9821C387.555 78.1311 386.689 78.1725 385.829 78.1052Z" fill="#263238"/>
<path d="M385.011 82.2898C384.937 81.9199 384.76 81.5784 384.5 81.3047C384.24 81.031 383.909 80.8361 383.543 80.7426C383.105 80.6605 382.653 80.719 382.251 80.9096C382.054 81.0105 381.88 81.1506 381.739 81.3215C381.598 81.4924 381.494 81.6903 381.433 81.903C381.424 81.9701 381.424 82.0381 381.433 82.1052C381.367 82.2209 381.328 82.3502 381.319 82.4832C381.266 82.8806 381.309 83.2848 381.443 83.6624C381.578 84.04 381.8 84.3801 382.092 84.6546C382.45 84.964 382.912 85.1244 383.385 85.1029C383.833 85.0622 384.248 84.8514 384.545 84.5139C384.789 84.2041 384.958 83.8422 385.039 83.4564C385.119 83.0706 385.11 82.6714 385.011 82.2898Z" fill="#8A4A43"/>
<path d="M381.319 79.3887C381.574 79.3887 381.653 81.059 383.156 82.193C384.66 83.327 386.462 83.0721 386.479 83.3007C386.497 83.5292 386.093 83.6435 385.337 83.7051C384.344 83.7616 383.363 83.4658 382.567 82.8699C381.799 82.3029 381.285 81.4568 381.134 80.5139C381.038 79.8106 381.205 79.3799 381.319 79.3887Z" fill="#263238"/>
<path d="M379.676 60.954C379.535 61.3848 377.97 61.2529 376.16 61.5518C374.349 61.8507 372.88 62.4309 372.643 62.0529C372.529 61.8771 372.766 61.4639 373.346 61.0332C374.116 60.4837 375.005 60.1251 375.94 59.987C376.872 59.8353 377.826 59.9046 378.727 60.1892C379.403 60.4266 379.755 60.7518 379.676 60.954Z" fill="#263238"/>
<path d="M394.12 59.3188C393.856 59.688 392.766 59.3715 391.482 59.4067C390.199 59.4419 389.109 59.7583 388.845 59.4067C388.722 59.2309 388.845 58.8705 389.346 58.5276C389.971 58.0974 390.71 57.8619 391.469 57.851C392.227 57.84 392.972 58.0541 393.61 58.4661C394.067 58.7825 394.234 59.143 394.12 59.3188Z" fill="#263238"/>
<path d="M363.394 72.8656C363.218 72.7953 356.361 71.1074 356.853 78.0523C357.346 84.9972 364.238 83.0192 364.238 82.817C364.238 82.6148 363.394 72.8656 363.394 72.8656Z" fill="#B56760"/>
<path d="M361.916 80.3469C361.916 80.3469 361.802 80.4348 361.609 80.5491C361.337 80.6862 361.023 80.7175 360.73 80.637C359.982 80.426 359.27 79.3096 359.138 78.0613C359.08 77.4668 359.152 76.8667 359.349 76.3031C359.396 76.0817 359.497 75.8753 359.643 75.7021C359.789 75.5289 359.975 75.3941 360.185 75.3097C360.32 75.2617 360.468 75.2627 360.603 75.3124C360.738 75.3622 360.851 75.4577 360.923 75.5822C361.028 75.7668 360.993 75.9163 361.037 75.9251C361.081 75.9338 361.178 75.7932 361.099 75.5119C361.044 75.3443 360.936 75.1992 360.791 75.0987C360.691 75.0325 360.579 74.9875 360.461 74.9663C360.343 74.9452 360.222 74.9483 360.105 74.9756C359.826 75.0541 359.571 75.2026 359.365 75.4073C359.158 75.6119 359.008 75.8658 358.927 76.1448C358.68 76.7699 358.59 77.4459 358.664 78.114C358.813 79.503 359.631 80.7513 360.65 80.9711C360.841 81.012 361.038 81.0087 361.227 80.9614C361.416 80.9142 361.592 80.8243 361.741 80.6986C361.916 80.5227 361.943 80.3469 361.916 80.3469Z" fill="#8A4A43"/>
<path d="M372.643 56.6112C371.696 55.9282 370.549 55.5788 369.382 55.6179C366.348 55.4962 363.341 56.2304 360.705 57.7365C359.274 58.4521 358.1 59.5949 357.347 61.0067C356.991 61.7183 356.864 62.5221 356.982 63.3086C357.1 64.0952 357.458 64.8262 358.006 65.4022C357.045 66.0932 356.368 67.1105 356.103 68.2641C355.837 69.4177 356.001 70.6285 356.563 71.6702C357.125 72.7118 358.048 73.5131 359.158 73.924C360.268 74.335 361.49 74.3276 362.595 73.9031C362.69 74.4296 362.917 74.9234 363.254 75.3384C363.592 75.7534 364.029 76.0761 364.525 76.2763C365.021 76.4765 365.56 76.5476 366.091 76.4831C366.622 76.4186 367.128 76.2206 367.562 75.9075C368.013 75.5692 368.403 75.1559 368.713 74.6855C369.909 72.9273 369.786 69.6395 369.25 67.5472C369.94 67.4683 370.604 67.2344 371.192 66.863C371.779 66.4916 372.275 65.9922 372.643 65.4022C373.366 64.2061 373.8 62.8574 373.909 61.4639C374.111 59.7145 373.944 57.7277 372.643 56.6112Z" fill="#263238"/>
<path d="M368.177 37.403C367.711 37.5348 356.617 41.7985 354.991 50.8005C353.365 59.8024 354.604 62.2287 354.604 62.2287C354.198 62.5803 353.846 62.989 353.558 63.4419C353.162 64.0661 354.261 66.6594 355.712 66.1407C366.199 59.5211 379.403 57.0684 394.26 55.3542L405.557 53.5432C408.783 53.4465 409.776 52.4444 408.317 51.8466C407.201 51.3807 397.671 49.095 397.671 49.095L395.72 48.0665L390.085 42.2732C390.085 42.2732 390.533 41.2886 389.276 40.6996C388.019 40.1106 377.355 34.7217 368.177 37.403Z" fill="#007940"/>
<g opacity="0.3">
<path d="M358.438 43.9873C358.438 43.9873 370.516 40.1633 376.45 42.0182L375.756 41.7896L381.329 43.3192C382.27 43.583 383.369 43.8115 384.16 43.2401C381.507 41.6853 378.589 40.6361 375.554 40.1457C370.121 39.1611 361.796 39.6094 358.438 43.9873Z" fill="black"/>
</g>
<path d="M358.27 44.0756C358.58 43.7569 358.915 43.463 359.272 43.1965C360.232 42.4427 361.276 41.8025 362.384 41.2888C364.029 40.5268 365.776 40.0086 367.57 39.7504C369.771 39.3781 372.026 39.4861 374.181 40.0669C375.282 40.3927 376.362 40.7831 377.416 41.2361C378.427 41.6844 379.429 42.0536 380.353 42.502C381.194 42.9712 382.077 43.3626 382.99 43.6712C383.789 43.9054 384.632 43.9505 385.451 43.803C388.493 43.3987 390.269 42.4932 390.102 42.3262C390.068 42.4377 389.997 42.5341 389.9 42.5987C389.624 42.7832 389.33 42.9366 389.02 43.0558C387.882 43.4708 386.704 43.7654 385.504 43.9349C384.663 44.0924 383.796 44.0533 382.972 43.8206C382.062 43.5084 381.18 43.1202 380.335 42.6602C379.456 42.2119 378.419 41.8426 377.399 41.4031C376.355 40.9493 375.283 40.5617 374.19 40.2427C372.06 39.6762 369.834 39.5654 367.658 39.9174C365.877 40.1703 364.141 40.6703 362.498 41.4031C361.394 41.904 360.348 42.523 359.377 43.2492C359.034 43.5041 358.771 43.7151 358.604 43.8646C358.497 43.9426 358.386 44.0131 358.27 44.0756Z" fill="#263238"/>
<g opacity="0.3">
<path d="M354.446 54.5278C356.498 54.0966 358.494 53.436 360.398 52.5586C362.666 51.6795 364.934 50.9499 367.158 49.9829C368.855 49.2532 370.868 48.5236 371.835 47.0818C371.982 47.5032 372.019 47.9548 371.944 48.3945C371.868 48.8342 371.683 49.2476 371.404 49.5961C370.364 50.5262 369.176 51.2751 367.888 51.8114C362.974 53.974 359.528 55.4333 354.244 56.6113C354.265 55.9218 354.333 55.2346 354.446 54.5542" fill="black"/>
</g>
<path d="M355.218 49.8071C353.909 50.6247 353.1 51.1609 353.24 52.3653C353.355 53.3674 353.733 54.5542 354.744 54.5894C355.047 54.5767 355.345 54.5082 355.623 54.3872L370.488 49.0511C371.015 48.9221 371.479 48.6106 371.798 48.172C371.949 47.7859 371.94 47.3562 371.776 46.976C371.611 46.5958 371.303 46.2959 370.919 46.1412C370.147 45.8495 369.307 45.7884 368.502 45.9654C363.908 46.6318 359.425 47.9151 355.174 49.7807" fill="#007940"/>
<path d="M371.604 48.4532C371.773 48.2432 371.879 47.9906 371.912 47.7235C371.951 47.3658 371.889 47.0043 371.734 46.6798C371.579 46.3552 371.336 46.0804 371.033 45.8862C370.028 45.4549 368.907 45.3744 367.851 45.6577C366.629 45.895 365.292 46.1851 363.903 46.5368C361.518 47.0996 359.187 47.8763 356.941 48.8576C356.062 49.2356 355.403 49.5872 354.937 49.8334L354.4 50.1147C354.34 50.1536 354.275 50.186 354.207 50.2114C354.26 50.1628 354.319 50.1214 354.383 50.0883L354.902 49.763C355.359 49.4993 356.027 49.1301 356.88 48.7345C359.119 47.7111 361.454 46.9102 363.851 46.3433C365.249 45.9917 366.594 45.7192 367.816 45.4642C368.912 45.1783 370.074 45.2808 371.103 45.7544C371.422 45.9654 371.673 46.2626 371.829 46.6113C371.984 46.96 372.038 47.3457 371.982 47.7235C371.951 47.9278 371.87 48.1212 371.745 48.2862C371.666 48.4092 371.604 48.462 371.604 48.4532Z" fill="#263238"/>
<path d="M391.859 44.1368L382.197 45.35L383.41 47.9433L393.854 46.1851L391.859 44.1368Z" fill="white"/>
<path d="M378.541 54.8531C378.541 54.8531 382.734 53.5608 387.939 52.084C393.143 50.6071 397.363 49.4467 397.38 49.4467C397.398 49.4467 393.187 50.7389 387.991 52.2246C382.796 53.7103 378.559 54.8531 378.541 54.8531Z" fill="#263238"/>
<path d="M445.862 77.9733L421.951 103.907L393.301 109.445L401.652 134.324L427.779 125.383C432.598 123.77 436.767 120.644 439.664 116.469C445.818 107.318 456.367 88.2852 456.367 88.2852L445.862 77.9733Z" fill="#007940"/>
<path d="M429.951 95.2301L443.718 110.148L447.727 103.467L435.032 89.7181L429.951 95.2301Z" fill="white"/>
<path d="M451.428 71.7318C451.428 71.7318 462.733 62.5716 465.054 62.3254C467.375 62.0793 468.957 61.4463 470.548 62.8177C472.14 64.1891 475.278 68.0923 475.647 69.3143C476.016 70.5362 475.199 73.235 475.199 73.235C474.497 71.9707 473.56 70.8518 472.438 69.9384C471.559 69.2791 468.21 68.3121 467.726 71.4856C467.426 73.231 467.426 75.0148 467.726 76.7602L469.599 76.4965L470.83 80.3821L458.461 80.9096L455.191 87.0633L445.863 77.9734L451.428 71.7318Z" fill="#B56760"/>
<g opacity="0.3">
<path d="M393.645 109.445C393.645 109.445 400.229 112.434 403.068 119.159C405.908 125.884 404.185 133.454 404.185 133.454L393.645 109.445Z" fill="black"/>
</g>
<path d="M360.606 300.122C356.475 319.383 351.93 378.863 351.93 378.863L380.993 379.83L391.463 319.805C391.463 319.805 396.192 298.706 399.085 287.129C401.66 276.773 410.319 196.898 410.319 196.898L359.982 198.076C359.982 198.076 358.057 202.647 356.756 214.928C355.701 224.897 355.754 230.471 356.536 235.403C357 238.303 358.069 241.074 359.675 243.534L363.411 251.596L360.606 300.122Z" fill="#007940"/>
<path d="M508.376 113.586H499.383V128.609H508.376V113.586Z" fill="#E0E0E0"/>
<path d="M518.502 128.161H490.494V132.257H518.502V128.161Z" fill="#E0E0E0"/>
<path d="M489.38 89.9027H477.652V96.1619H489.38V89.9027Z" fill="#E0E0E0"/>
<path d="M518.511 77.0414H488.473V114.148H518.511V77.0414Z" fill="#E0E0E0"/>
<path d="M509.606 100.948C512.984 97.57 512.984 92.0929 509.606 88.7147C506.228 85.3365 500.751 85.3365 497.373 88.7147C493.994 92.0929 493.994 97.57 497.373 100.948C500.751 104.326 506.228 104.326 509.606 100.948Z" fill="white"/>
<path d="M512.139 94.8346C512.077 94.8346 512.139 94.061 511.769 92.7511C511.257 90.8963 510.144 89.2639 508.605 88.1095C507.476 87.2666 506.155 86.7189 504.761 86.5163C503.367 86.3137 501.944 86.4624 500.622 86.9491C499.062 87.5167 497.709 88.5396 496.737 89.8853C495.681 91.321 495.111 93.0567 495.111 94.839C495.111 96.6213 495.681 98.357 496.737 99.7927C497.713 101.132 499.065 102.152 500.622 102.72C501.944 103.207 503.367 103.356 504.761 103.153C506.155 102.95 507.476 102.403 508.605 101.56C510.144 100.405 511.257 98.7729 511.769 96.9181C512.112 95.6082 512.077 94.8346 512.139 94.8346C512.161 95.0185 512.161 95.2045 512.139 95.3884C512.148 95.615 512.133 95.8419 512.095 96.0653C512.072 96.3623 512.022 96.6566 511.945 96.9444C511.562 98.5865 510.712 100.082 509.496 101.251C508.281 102.42 506.753 103.211 505.097 103.529C503.537 103.829 501.926 103.708 500.429 103.177C499.619 102.892 498.858 102.486 498.17 101.973C497.441 101.45 496.802 100.812 496.28 100.083C495.138 98.5611 494.521 96.7103 494.521 94.8082C494.521 92.9061 495.138 91.0553 496.28 89.5336C496.802 88.8072 497.441 88.1716 498.17 87.6523C498.854 87.1326 499.616 86.726 500.429 86.448C501.924 85.9107 503.537 85.7862 505.097 86.0876C506.753 86.4056 508.281 87.1968 509.496 88.3654C510.712 89.534 511.562 91.0299 511.945 92.672C512.022 92.9598 512.072 93.2541 512.095 93.5511C512.133 93.7746 512.148 94.0015 512.139 94.228C512.167 94.4292 512.167 94.6334 512.139 94.8346Z" fill="#263238"/>
<path d="M488.472 77.0414C488.644 77.0289 488.818 77.0289 488.99 77.0414H490.564L496.621 76.9799L518.502 76.8568H518.73V77.0854C518.73 87.7049 518.73 100.469 518.774 114.192C518.836 114.139 518.256 114.72 518.502 114.473H502.748H488.454H488.199V114.227C488.199 103.168 488.287 93.8762 488.322 87.3093C488.322 84.083 488.322 81.5336 488.384 79.7578C488.384 78.8787 488.384 78.2458 488.384 77.7799C488.362 77.5577 488.362 77.3339 488.384 77.1118C488.384 77.1118 488.384 77.1821 488.384 77.3052C488.384 77.4282 488.384 77.6128 488.384 77.8326C488.384 78.3132 488.384 78.9901 488.384 79.8633C488.384 81.6215 488.384 84.2588 488.445 87.4675C488.445 93.9905 488.524 103.239 488.568 114.227L488.331 113.981H502.625H518.361C518.607 113.744 518.027 114.324 518.089 114.254C518.089 100.531 518.089 87.7664 518.089 77.1469L518.317 77.3755L496.577 77.2612L490.476 77.1997H488.859C488.727 77.1524 488.598 77.0996 488.472 77.0414Z" fill="#263238"/>
<path d="M518.055 128.161C518.055 128.311 511.901 128.434 504.218 128.434C496.535 128.434 490.381 128.311 490.381 128.161C490.381 128.012 496.579 127.889 504.218 127.889C511.857 127.889 518.055 128.012 518.055 128.161Z" fill="#263238"/>
<path d="M502.592 94.5267L505.001 95.2739L505.906 88.8653L502.592 94.5267Z" fill="#007940"/>
<path d="M471.681 118.719C474.318 116.469 475.198 114.64 476.296 110.5C477.599 105.569 478.388 100.517 478.652 95.4233C479.127 84.9532 477.105 77.9644 476.015 74.9843C475.52 73.615 474.755 72.3593 473.765 71.292C472.587 70.0525 470.872 68.8482 469.044 69.6042C465.721 70.9668 468.165 74.8788 469.044 76.004C470.624 79.1287 471.62 82.5163 471.98 85.9994C472.639 94.2629 471.101 107.836 469.835 112.117C468.569 116.399 468.56 117.506 468.56 117.506C468.56 117.506 470.872 119.106 471.127 119.159C471.335 119.044 471.522 118.895 471.681 118.719Z" fill="#E0E0E0"/>
<path d="M471.683 118.72C471.683 118.72 471.63 118.781 471.516 118.895L471.278 119.089C471.227 119.135 471.167 119.171 471.102 119.194C471.018 119.181 470.937 119.151 470.865 119.106C470.302 118.799 469.511 118.227 468.474 117.568C468.604 116.411 468.83 115.267 469.151 114.148C469.485 112.856 469.951 111.432 470.232 109.806C470.906 105.992 471.372 102.145 471.63 98.2805C471.788 96.0916 471.902 93.7708 471.92 91.3532C471.994 88.8444 471.836 86.334 471.445 83.8545C471.201 82.5588 470.869 81.2812 470.452 80.0304C470.057 78.7394 469.548 77.4862 468.931 76.2855C468.043 75.1494 467.44 73.817 467.173 72.3999C467.112 72.015 467.137 71.6215 467.247 71.2476C467.356 70.8736 467.547 70.5286 467.806 70.2373C468.069 69.9546 468.386 69.7274 468.738 69.5692C469.079 69.3856 469.452 69.2692 469.837 69.2263C470.835 69.1519 471.827 69.4458 472.623 70.0527C473.395 70.6036 474.077 71.2709 474.645 72.0306C475.704 73.5307 476.473 75.2152 476.913 76.9975C477.865 80.2905 478.478 83.6721 478.742 87.0896C479.203 92.8702 478.907 98.6862 477.863 104.39C477.432 106.817 476.931 108.997 476.395 110.887C475.967 112.499 475.341 114.053 474.531 115.511C473.988 116.429 473.316 117.263 472.535 117.99L471.911 118.535C471.771 118.649 471.691 118.711 471.683 118.702C471.674 118.693 471.964 118.438 472.465 117.92C473.211 117.178 473.853 116.338 474.373 115.423C475.148 113.939 475.739 112.365 476.131 110.737C476.641 108.856 477.116 106.676 477.529 104.25C478.533 98.5731 478.802 92.7909 478.329 87.0457C478.058 83.66 477.443 80.3108 476.491 77.0503C476.062 75.3199 475.317 73.6837 474.294 72.224C473.751 71.5055 473.102 70.8741 472.368 70.3515C471.664 69.8091 470.785 69.5433 469.898 69.6043C469.566 69.64 469.244 69.7385 468.949 69.8944C468.647 70.0302 468.375 70.2244 468.149 70.4658C467.937 70.7126 467.781 71.0021 467.692 71.3147C467.602 71.6272 467.581 71.9554 467.63 72.2768C467.89 73.6245 468.469 74.8905 469.318 75.969C469.952 77.2006 470.476 78.4862 470.883 79.8107C471.297 81.0832 471.629 82.3811 471.876 83.6963C472.264 86.2025 472.417 88.7395 472.333 91.2741C472.333 93.7092 472.175 96.03 471.999 98.2278C471.72 102.103 471.224 105.96 470.513 109.779C470.215 111.423 469.714 112.856 469.371 114.131C469.039 115.229 468.795 116.352 468.641 117.489V117.419C469.661 118.139 470.399 118.684 470.979 119.019L471.155 119.106C471.214 119.089 471.268 119.059 471.313 119.019L471.56 118.843C471.597 118.798 471.638 118.757 471.683 118.72Z" fill="#263238"/>
<path d="M365.03 100.619L364.195 105.595C361.215 111.019 354.182 121.665 355.114 137.954C356.327 158.174 358.182 196.23 358.182 196.23L358.094 196.757C357.861 198.177 357.986 199.633 358.457 200.993C358.928 202.353 359.731 203.574 360.793 204.546L406.761 205.539C409.485 205.083 411.925 203.584 413.566 201.362C415.206 199.139 415.918 196.366 415.552 193.628L408.308 139.651L394.339 107.784L393.029 105.05L391.456 104.1L365.03 100.619Z" fill="#007940"/>
<path d="M355.438 143.501L356.536 163.835L410.557 163.457L409.397 143.791L355.438 143.501Z" fill="white"/>
<path d="M389.549 103.907C389.545 104.363 389.512 104.818 389.452 105.27C389.345 106.5 389.307 107.736 389.338 108.971V109.182L389.136 109.138C386.437 108.601 382.771 107.96 378.727 107.423C374.446 106.852 370.551 106.448 367.738 106.105C366.332 105.946 365.189 105.797 364.407 105.692C363.996 105.655 363.59 105.581 363.193 105.472C363.602 105.427 364.015 105.427 364.424 105.472L367.765 105.744C370.595 105.999 374.49 106.351 378.789 106.922C382.841 107.467 386.516 108.153 389.206 108.768L389.004 108.935C388.999 107.688 389.087 106.442 389.267 105.208C389.309 104.765 389.403 104.328 389.549 103.907Z" fill="#263238"/>
<path d="M407.605 139C407.372 138.609 407.174 138.197 407.016 137.77C406.646 136.89 406.137 135.739 405.565 134.359C404.343 131.475 402.629 127.502 400.695 123.133L395.666 111.994L394.146 108.61C393.941 108.204 393.773 107.78 393.645 107.344C393.899 107.724 394.122 108.124 394.313 108.54C394.708 109.313 395.28 110.447 395.957 111.863C397.328 114.676 399.174 118.596 401.108 122.974C403.042 127.352 404.712 131.343 405.864 134.262C406.435 135.721 406.884 136.899 407.183 137.726C407.357 138.139 407.498 138.565 407.605 139Z" fill="#263238"/>
<path d="M409.565 203.799C409.4 203.854 409.229 203.886 409.055 203.895L407.587 204.062C406.312 204.203 404.457 204.37 402.163 204.546C397.583 204.906 391.244 205.258 384.238 205.363C377.232 205.469 370.867 205.319 366.278 205.1C363.984 204.994 362.129 204.889 360.854 204.783L359.377 204.66C359.205 204.662 359.033 204.638 358.867 204.59C359.037 204.571 359.208 204.571 359.377 204.59H360.863L366.296 204.766C370.884 204.897 377.223 204.994 384.229 204.889C391.236 204.783 397.565 204.484 402.145 204.203L407.569 203.869L409.046 203.781C409.219 203.775 409.393 203.781 409.565 203.799Z" fill="#263238"/>
<path d="M458.31 120.179L465.053 112.874C465.347 112.556 465.703 112.303 466.099 112.129C466.496 111.955 466.923 111.864 467.356 111.863H469.703C469.703 111.863 468.965 115.695 471.743 116.021C472.519 116.111 473.303 115.947 473.977 115.552C474.651 115.157 475.179 114.553 475.479 113.832C475.479 113.832 479.628 115.695 479.198 118.473C478.767 121.251 477.492 122.306 477.492 122.306C477.492 122.306 478.565 124.653 477.712 126.359C477.125 127.441 476.236 128.33 475.154 128.917C474.309 129.992 473.301 130.926 472.165 131.686C470.89 132.328 461.431 132.803 461.431 132.803L453.185 141.26L447.119 127.95L458.31 120.179Z" fill="#B56760"/>
<g opacity="0.3">
<path d="M364.679 132.267C364.679 132.267 364.16 136.477 369.751 144.855C375.342 153.233 384.344 167.853 396.704 171.052C409.064 174.252 411.42 173.233 411.42 173.233L409.381 158.024L364.679 132.267Z" fill="black"/>
</g>
<path d="M362.524 122.816C362.989 130.458 366.391 137.624 372.019 142.816C380.634 150.895 397.372 168.529 408.211 168.767C423.657 169.101 455.595 141.734 455.595 141.734L448.984 124.443L409.381 143.431L389.038 116.909C387.376 114.703 385.26 112.88 382.834 111.561C380.408 110.242 377.727 109.457 374.973 109.26C371.694 109.067 368.247 109.691 365.61 112.214C362.973 114.737 362.322 118.764 362.524 122.816Z" fill="#007940"/>
<path d="M428.791 134.121L436.835 155.958L443.577 151.193L436.378 130.561L428.791 134.121Z" fill="white"/>
<path d="M362.525 122.816C362.525 122.816 362.472 122.359 362.463 121.48C362.436 120.189 362.542 118.899 362.78 117.629C363.032 115.925 363.736 114.318 364.818 112.977C365.9 111.635 367.321 110.607 368.933 109.999C370.338 109.457 371.824 109.16 373.329 109.12C376.836 109.007 380.304 109.888 383.333 111.66C385.043 112.649 386.595 113.888 387.939 115.335C388.64 116.103 389.301 116.907 389.917 117.744L391.869 120.284L409.565 143.299L409.31 143.238L448.914 124.231L449.134 124.126L449.23 124.355C450.725 128.293 452.325 132.46 453.933 136.662L455.832 141.638L455.894 141.787L455.771 141.893C449.384 147.258 442.714 152.276 435.789 156.925C432.431 159.149 429.064 161.25 425.653 163.079C422.339 164.937 418.861 166.485 415.262 167.703C413.515 168.281 411.711 168.673 409.882 168.872C408.981 168.947 408.075 168.947 407.174 168.872C406.28 168.761 405.397 168.57 404.537 168.301C401.312 167.192 398.265 165.623 395.491 163.641C390.521 160.121 385.82 156.236 381.425 152.02C379.395 150.121 377.496 148.284 375.694 146.543L373.056 144.02C372.177 143.202 371.368 142.429 370.612 141.62C368.03 138.885 365.977 135.696 364.555 132.214C363.652 130.008 363.037 127.694 362.727 125.33C362.613 124.522 362.569 123.906 362.551 123.484C362.533 123.062 362.551 122.86 362.551 122.86C362.551 122.86 362.551 123.071 362.621 123.484C362.692 123.897 362.718 124.513 362.841 125.322C363.191 127.668 363.828 129.962 364.74 132.152C366.194 135.624 368.28 138.796 370.894 141.506C371.65 142.306 372.485 143.071 373.338 143.888L375.975 146.402C377.777 148.161 379.685 149.919 381.724 151.853C386.109 156.035 390.792 159.893 395.737 163.395C398.488 165.347 401.504 166.892 404.695 167.984C405.525 168.239 406.375 168.425 407.236 168.538C408.113 168.609 408.995 168.609 409.873 168.538C411.667 168.339 413.435 167.95 415.148 167.378C418.695 166.143 422.122 164.589 425.389 162.736C428.791 160.899 432.141 158.798 435.49 156.582C442.397 151.938 449.05 146.926 455.419 141.567L455.358 141.822C454.751 140.249 454.109 138.561 453.459 136.855C451.841 132.636 450.25 128.46 448.747 124.548L449.063 124.671L409.469 143.642L409.319 143.712L409.214 143.58L391.57 120.513L389.618 117.972C388.977 117.093 388.361 116.311 387.676 115.572C386.367 114.139 384.857 112.904 383.192 111.906C380.213 110.155 376.801 109.274 373.346 109.366C371.868 109.411 370.408 109.708 369.03 110.245C367.446 110.836 366.049 111.838 364.981 113.148C363.914 114.458 363.214 116.03 362.955 117.7C362.706 118.959 362.577 120.24 362.569 121.524C362.569 121.963 362.569 122.297 362.569 122.517C362.569 122.737 362.525 122.816 362.525 122.816Z" fill="#263238"/>
<path d="M408.774 151.818C408.728 150.461 408.795 149.102 408.976 147.756C408.998 146.399 409.134 145.047 409.38 143.712C409.575 145.065 409.575 146.439 409.38 147.791C409.363 149.155 409.159 150.51 408.774 151.818Z" fill="#263238"/>
<g opacity="0.3">
<path d="M364.458 105.604C364.308 105.656 390.831 110.984 390.831 110.984L389.512 104.654L389.134 108.979C389.134 108.979 366.488 104.962 364.458 105.604Z" fill="black"/>
</g>
<path d="M357.865 189.883C357.837 189.711 357.823 189.538 357.821 189.364C357.821 188.969 357.821 188.485 357.76 187.861C357.76 186.551 357.645 184.67 357.531 182.34C357.303 177.681 356.81 171.246 356.221 164.152C355.632 157.057 355.193 150.605 355.052 145.937C354.973 143.607 354.947 141.717 354.964 140.407C354.964 139.792 354.964 139.299 354.964 138.904C354.96 138.727 354.975 138.55 355.008 138.376C355.048 138.549 355.065 138.726 355.061 138.904C355.061 139.291 355.061 139.783 355.122 140.407C355.122 141.708 355.228 143.598 355.351 145.928C355.58 150.587 356.072 157.013 356.652 164.116C357.232 171.219 357.681 177.655 357.821 182.323C357.9 184.661 357.936 186.551 357.909 187.852C357.909 188.467 357.909 188.969 357.909 189.364C357.919 189.538 357.905 189.713 357.865 189.883Z" fill="#263238"/>
<path d="M190.325 387.153L215.115 378.669C215.115 378.669 232.065 401.025 236.803 399.909L222.087 351.242L182.905 362.863L190.325 387.153Z" fill="#455A64"/>
<path d="M208.461 364.296C208.462 363.786 208.651 363.295 208.991 362.915C209.332 362.536 209.8 362.295 210.307 362.239C210.818 362.221 211.317 362.4 211.701 362.738C212.086 363.076 212.326 363.549 212.373 364.059C212.369 364.601 212.165 365.122 211.8 365.523C211.434 365.924 210.934 366.176 210.395 366.23C209.86 366.19 209.361 365.945 209.001 365.548C208.641 365.15 208.448 364.63 208.461 364.094" fill="#E0E0E0"/>
<path d="M223.098 350.916L219.301 352.033L233.744 398.748C233.744 398.748 235.336 400.629 236.795 399.926L223.098 350.916Z" fill="#E0E0E0"/>
<path d="M215.107 379.557C215.344 379.469 215.107 378.256 215.502 376.85C215.898 375.443 216.724 374.529 216.566 374.336C216.408 374.142 215.142 374.916 214.667 376.621C214.192 378.327 214.904 379.672 215.107 379.557Z" fill="#263238"/>
<path d="M218.8 384.023C219.046 384.023 219.143 382.854 219.899 381.738C220.655 380.621 221.657 380.076 221.569 379.839C221.481 379.601 220.101 379.839 219.178 381.263C218.255 382.687 218.536 384.085 218.8 384.023Z" fill="#263238"/>
<path d="M225.752 385.069C225.752 384.84 224.451 384.867 223.326 385.869C222.201 386.871 222.034 388.146 222.262 388.181C222.491 388.216 222.974 387.302 223.906 386.52C224.838 385.737 225.831 385.315 225.752 385.069Z" fill="#263238"/>
<path d="M209.243 380.858C209.428 380.691 208.769 379.707 208.461 378.335C208.153 376.964 208.25 375.786 208.013 375.698C207.775 375.61 207.221 376.902 207.617 378.511C208.013 380.12 209.129 380.999 209.243 380.858Z" fill="#263238"/>
<path d="M187.309 321.053C186.351 320.79 144.365 365.835 143.407 373.281C142.449 380.727 143.978 387.214 148.945 391.416C153.912 395.619 210.403 381.878 210.403 381.878L205.058 358.213L225.48 351.338L207.23 317.932L187.309 321.053Z" fill="#007940"/>
<g opacity="0.3">
<path d="M177.376 331.04L176.031 332.481C176.031 332.481 200.101 357.729 207.485 357.386L219.301 353.386L179.319 328.851L177.376 331.04Z" fill="black"/>
</g>
<path d="M205.2 358.819C205.2 358.942 196.471 361.624 185.623 364.815C174.775 368.006 165.948 370.485 165.913 370.362C165.878 370.239 174.643 367.557 185.491 364.375C196.339 361.193 205.165 358.696 205.2 358.819Z" fill="#263238"/>
<path d="M152.761 361.421L160.919 387.311C160.919 387.311 137.341 404.304 138.387 409.236L189.155 395.214L178.096 354.353L152.761 361.421Z" fill="#455A64"/>
<path d="M176.014 380.779C176.545 380.793 177.051 381.003 177.436 381.368C177.821 381.733 178.056 382.228 178.098 382.757C178.103 383.286 177.906 383.797 177.546 384.185C177.186 384.572 176.691 384.807 176.164 384.841C175.604 384.827 175.07 384.607 174.664 384.222C174.258 383.837 174.009 383.315 173.966 382.757C174.036 381.702 175.188 380.577 176.216 380.806" fill="#E0E0E0"/>
<path d="M189.49 396.278L188.417 392.313L139.68 406.106C139.68 406.106 137.693 407.715 138.388 409.236L189.49 396.278Z" fill="#E0E0E0"/>
<path d="M160.023 387.284C160.102 387.531 161.377 387.284 162.81 387.759C164.243 388.234 165.192 389.087 165.394 388.92C165.597 388.753 164.832 387.434 163.074 386.906C161.315 386.379 159.9 387.073 160.023 387.284Z" fill="#263238"/>
<path d="M155.31 390.959C155.31 391.214 156.506 391.337 157.64 392.155C158.774 392.972 159.319 394.01 159.565 393.913C159.811 393.816 159.565 392.392 158.15 391.399C156.735 390.405 155.249 390.722 155.31 390.959Z" fill="#263238"/>
<path d="M154.045 398.168C154.283 398.168 154.291 396.823 153.272 395.645C152.252 394.467 150.951 394.238 150.907 394.476C150.863 394.713 151.786 395.24 152.595 396.234C153.403 397.227 153.79 398.212 154.045 398.168Z" fill="#263238"/>
<path d="M158.818 381.175C158.986 381.377 160.032 380.718 161.456 380.428C162.88 380.138 164.093 380.279 164.172 380.024C164.251 379.769 162.941 379.144 161.271 379.549C159.601 379.953 158.643 380.999 158.818 381.175Z" fill="#263238"/>
<g opacity="0.3">
<path d="M189.517 386.581L186.396 374.3L188.725 373.219L174.519 334.556L171.812 336.921L182.976 372.331L186.967 387.117L189.517 386.581Z" fill="black"/>
</g>
<path d="M156.005 290.874C153.25 290.281 150.402 290.279 147.647 290.868C144.892 291.458 142.293 292.625 140.023 294.294C136.207 297.16 132.99 301.748 134.054 308.957C136.348 324.992 156.84 379.725 156.84 379.725L185.182 371.197C185.349 371.145 185.507 370.679 185.419 370.828C185.182 371.197 171.037 325.607 171.354 326.143C171.67 326.68 199.968 349.492 211.696 353.686C216.947 355.591 222.672 355.756 228.024 354.157C233.376 352.558 238.072 349.28 241.418 344.807C244.161 340.965 244.354 324.086 241.418 315.163C241.418 315.163 159.6 291.973 158.071 291.428C157.395 291.199 156.705 291.014 156.005 290.874Z" fill="#007940"/>
<path d="M154.844 307.55C159.374 310.613 163.199 314.605 166.066 319.262C168.932 323.919 170.774 329.132 171.468 334.556" fill="#007940"/>
<path d="M241.858 344.077L241.516 344.613C241.296 344.973 240.9 345.492 240.39 346.116C238.803 347.953 236.965 349.557 234.931 350.881C233.454 351.853 231.892 352.689 230.263 353.378C228.306 354.181 226.261 354.751 224.171 355.074C221.752 355.427 219.294 355.427 216.874 355.074C214.142 354.666 211.493 353.827 209.024 352.586C207.723 351.962 206.387 351.241 205.077 350.521C203.767 349.8 202.44 349 201.068 348.129C199.697 347.259 198.343 346.424 196.972 345.492C195.6 344.56 194.185 343.628 192.77 342.644C187.108 338.714 181.174 334.266 175.021 329.369L172.717 327.497C172.331 327.172 171.952 326.864 171.557 326.512L171.258 326.231C171.39 326.231 170.906 326.231 171.548 326.231C171.61 326.003 171.548 326.17 171.548 326.126V326.214L171.592 326.389L171.803 327.11L173.623 332.974L177.482 345.141C180.119 353.433 182.868 362.06 185.728 371.021L185.798 371.232L185.587 371.294L156.867 379.935L156.665 379.997L156.586 379.803C154.731 374.81 152.788 369.492 150.863 364.094C146.758 352.595 142.854 341.325 139.435 330.336C137.676 324.842 136.103 319.409 134.837 314.012C134.485 312.667 134.248 311.304 134.002 309.95C133.728 308.6 133.607 307.222 133.641 305.845C133.676 303.11 134.497 300.443 136.006 298.161C137.523 296.033 139.467 294.245 141.716 292.913C143.964 291.581 146.466 290.733 149.061 290.425C151.539 290.093 154.056 290.218 156.489 290.795L158.247 291.252L160.006 291.762L163.416 292.781L188.488 300.262L224.786 311.119L234.624 314.1L237.182 314.882L238.061 315.163C238.061 315.163 237.762 315.093 237.182 314.926L234.624 314.187L224.734 311.295L188.383 300.57L163.285 293.142L159.9 292.131L158.142 291.612L156.384 291.173C153.996 290.613 151.526 290.497 149.096 290.83C146.594 291.152 144.18 291.964 141.993 293.221C139.739 294.497 137.803 296.267 136.331 298.399C134.874 300.617 134.083 303.208 134.055 305.862C134.022 307.211 134.143 308.559 134.415 309.88C134.661 311.225 134.89 312.57 135.241 313.915C136.507 319.286 138.125 324.71 139.848 330.196C143.285 341.185 147.197 352.446 151.276 363.944C153.201 369.333 155.144 374.652 156.999 379.636L156.718 379.505L185.438 370.872L185.288 371.153L177.069 345.272C175.756 341.123 174.481 337.07 173.245 333.114L171.434 327.242L171.223 326.512L171.17 326.328V326.222C171.17 326.161 171.126 326.293 171.17 326.029C171.636 326.161 171.487 325.967 171.522 326.029L171.777 326.257L172.911 327.216L175.205 329.088C181.359 333.994 187.266 338.451 192.91 342.389C194.326 343.374 195.715 344.341 197.095 345.246C198.475 346.151 199.838 347.004 201.183 347.883C202.528 348.762 203.873 349.501 205.174 350.283C206.475 351.066 207.811 351.725 209.094 352.349C211.532 353.589 214.153 354.432 216.857 354.846C219.256 355.197 221.693 355.197 224.092 354.846C226.165 354.537 228.195 353.985 230.14 353.202C231.763 352.528 233.32 351.704 234.791 350.74C236.828 349.441 238.674 347.864 240.276 346.055C240.795 345.413 241.199 344.938 241.428 344.578C241.656 344.217 241.858 344.077 241.858 344.077Z" fill="#263238"/>
<path d="M158.44 313.59C159.267 313.937 160.051 314.376 160.779 314.9C162.584 316.081 164.278 317.423 165.842 318.908C167.412 320.397 168.823 322.044 170.053 323.822C170.519 324.508 170.871 325.08 171.091 325.484C171.226 325.686 171.326 325.909 171.39 326.143C171.328 326.143 170.783 325.317 169.79 324.007C168.496 322.309 167.071 320.716 165.526 319.242C163.974 317.775 162.327 316.412 160.594 315.163C159.845 314.683 159.126 314.157 158.44 313.59Z" fill="#263238"/>
<path d="M168.118 310.434C168.535 311.103 168.869 311.82 169.112 312.57C169.797 314.348 170.347 316.176 170.755 318.038C171.17 319.896 171.446 321.783 171.582 323.682C171.682 324.467 171.682 325.261 171.582 326.047C171.42 325.278 171.312 324.5 171.257 323.717C171.081 322.275 170.791 320.297 170.307 318.135C169.898 316.294 169.397 314.475 168.804 312.684C168.514 311.954 168.285 311.201 168.118 310.434Z" fill="#263238"/>
<path d="M191.732 192.872L200.189 231.895C201.631 238.532 202.387 248.598 191.785 250.356C182.475 251.235 178.308 243.095 176.972 236.897C176.339 233.961 175.803 231.517 175.715 231.218C175.715 231.218 165.579 232.44 162.73 222.761C161.35 218.084 159.302 208.221 157.553 199.28C156.648 194.647 157.52 189.842 159.996 185.822C162.472 181.802 166.37 178.861 170.915 177.584L171.847 177.32C182.115 175.114 189.789 182.577 191.732 192.872Z" fill="#FFBE9D"/>
<path d="M175.724 231.253C180.205 229.981 184.229 227.452 187.319 223.966C187.319 223.966 186.273 232.159 176.339 234.014L175.724 231.253Z" fill="#EB996E"/>
<path d="M160.357 203.738C160.586 203.896 161.869 203.201 163.733 203.184C165.597 203.166 167.003 203.79 167.197 203.623C167.39 203.456 167.056 203.272 166.449 202.982C165.575 202.595 164.627 202.406 163.671 202.428C162.754 202.434 161.852 202.654 161.034 203.069C160.436 203.421 160.252 203.676 160.357 203.738Z" fill="#263238"/>
<path d="M175.776 201.153C176.039 201.153 176.883 200.01 178.545 199.166C180.206 198.322 181.718 198.287 181.824 198.023C181.929 197.76 181.551 197.777 180.874 197.786C179.925 197.835 178.998 198.09 178.158 198.533C177.327 198.946 176.604 199.548 176.048 200.291C175.723 200.784 175.653 201.135 175.776 201.153Z" fill="#263238"/>
<path d="M176.259 204.01C176.336 204.289 176.518 204.528 176.767 204.676C177.016 204.824 177.313 204.868 177.595 204.801C177.739 204.778 177.877 204.726 178 204.648C178.122 204.57 178.228 204.468 178.311 204.348C178.393 204.228 178.45 204.093 178.478 203.95C178.506 203.807 178.505 203.66 178.474 203.518C178.396 203.239 178.213 203.002 177.965 202.855C177.716 202.707 177.42 202.661 177.138 202.726C176.994 202.749 176.857 202.801 176.734 202.879C176.611 202.957 176.505 203.059 176.423 203.179C176.341 203.299 176.284 203.435 176.256 203.578C176.227 203.721 176.229 203.868 176.259 204.01Z" fill="#263238"/>
<path d="M162.071 207.298C162.148 207.577 162.33 207.816 162.579 207.964C162.829 208.111 163.126 208.156 163.407 208.089C163.546 208.061 163.678 208.005 163.795 207.926C163.913 207.846 164.013 207.744 164.091 207.626C164.168 207.507 164.222 207.374 164.248 207.235C164.274 207.096 164.272 206.953 164.243 206.814C164.168 206.533 163.986 206.293 163.736 206.145C163.486 205.997 163.188 205.953 162.906 206.023C162.767 206.05 162.634 206.105 162.516 206.184C162.399 206.263 162.298 206.365 162.22 206.484C162.142 206.603 162.089 206.736 162.063 206.876C162.038 207.016 162.04 207.159 162.071 207.298Z" fill="#263238"/>
<path d="M173.421 212.212C172.564 212.183 171.707 212.266 170.871 212.458C170.476 212.52 170.098 212.546 169.992 212.309C169.85 211.923 169.828 211.503 169.931 211.104C170.027 210.085 170.133 209.012 170.238 207.887C170.643 203.316 170.827 199.597 170.643 199.588C170.458 199.579 169.984 203.263 169.579 207.834C169.482 208.959 169.395 210.032 169.315 211.06C169.208 211.586 169.286 212.133 169.535 212.608C169.628 212.726 169.747 212.822 169.882 212.888C170.018 212.953 170.167 212.987 170.318 212.986C170.546 212.988 170.774 212.958 170.995 212.898C171.829 212.772 172.644 212.542 173.421 212.212Z" fill="#263238"/>
<path d="M174.651 193.575C174.88 193.9 176.146 193.364 177.746 193.118C179.346 192.872 180.717 192.96 180.823 192.573C180.875 192.388 180.559 192.098 179.943 191.887C179.156 191.628 178.317 191.564 177.5 191.702C176.681 191.826 175.905 192.149 175.24 192.643C174.748 193.039 174.546 193.408 174.651 193.575Z" fill="#263238"/>
<path d="M159.6 199.826C159.838 200.089 161.051 199.492 162.607 199.122C164.163 198.753 165.49 198.692 165.596 198.349C165.596 198.191 165.323 197.971 164.717 197.848C163.923 197.701 163.106 197.731 162.326 197.936C161.535 198.122 160.792 198.472 160.145 198.964C159.688 199.36 159.495 199.694 159.6 199.826Z" fill="#263238"/>
<path d="M192.953 200.318C193.103 200.194 199.107 196.467 200.724 203.166C202.342 209.865 195.318 210.137 195.256 209.952C195.195 209.768 192.953 200.318 192.953 200.318Z" fill="#FFBE9D"/>
<path d="M196.673 206.937C196.673 206.937 196.814 206.99 197.033 207.025C197.341 207.08 197.657 207.01 197.913 206.832C198.554 206.392 198.871 205.126 198.607 203.913C198.484 203.334 198.232 202.79 197.869 202.322C197.754 202.128 197.595 201.965 197.403 201.847C197.212 201.729 196.994 201.66 196.77 201.645C196.627 201.642 196.488 201.688 196.375 201.776C196.263 201.865 196.185 201.989 196.154 202.128C196.11 202.339 196.154 202.463 196.154 202.489C196.154 202.515 195.987 202.41 195.97 202.12C195.969 201.946 196.025 201.776 196.128 201.636C196.201 201.542 196.293 201.464 196.397 201.407C196.501 201.35 196.616 201.314 196.735 201.302C197.023 201.29 197.31 201.352 197.568 201.481C197.827 201.61 198.048 201.803 198.211 202.041C198.642 202.547 198.944 203.15 199.091 203.799C199.381 205.161 199.003 206.594 198.106 207.113C197.938 207.209 197.75 207.266 197.558 207.281C197.365 207.297 197.171 207.269 196.989 207.201C196.726 207.069 196.655 206.937 196.673 206.937Z" fill="#EB996E"/>
<path d="M175.96 216.607C175.855 216.449 177.094 215.781 177.771 214.357C178.049 213.731 178.244 213.072 178.352 212.396C178.448 211.869 178.536 211.517 178.607 211.517C178.677 211.517 178.73 211.86 178.738 212.396C178.737 213.137 178.575 213.869 178.264 214.541C177.943 215.223 177.441 215.804 176.813 216.221C176.338 216.555 175.996 216.607 175.96 216.607Z" fill="#263238"/>
<path d="M147.873 194.885C147.604 195.072 147.389 195.326 147.25 195.622C147.111 195.919 147.053 196.247 147.081 196.573C147.162 197.048 147.397 197.484 147.749 197.813C148.102 198.142 148.553 198.346 149.033 198.393C149.514 198.419 149.994 198.321 150.427 198.109C150.859 197.896 151.23 197.576 151.503 197.18C151.232 197.48 151.009 197.821 150.844 198.191C150.689 198.581 150.679 199.014 150.816 199.411C150.953 199.808 151.227 200.143 151.589 200.355C151.951 200.567 152.377 200.643 152.79 200.569C153.204 200.494 153.577 200.274 153.842 199.949C154.255 200.406 154.589 200.889 154.941 201.364L155.02 201.452C155.239 201.751 155.459 202.041 155.714 202.331L158.958 206.296C158.536 203.5 157.499 199.623 157.086 196.819C159.156 196.331 161.107 195.429 162.821 194.17C164.536 192.91 165.978 191.318 167.063 189.487C168.241 187.501 168.997 185.154 170.817 183.738C173.173 181.918 176.47 182.226 179.423 182.613L179.283 182.534C180.861 182.905 182.354 183.577 183.678 184.512C184.175 190.117 185.872 195.55 188.654 200.441C189.076 201.171 190.113 202.648 190.94 202.788C192.584 203.07 192.698 201.443 193.419 200.432C194.117 199.71 195.055 199.27 196.056 199.193C196.347 196.742 196.488 194.276 196.478 191.808L196.935 189.224L196.056 186.586C194.166 184.485 196.935 182.648 195.59 180.151C194.245 177.655 192.232 175.193 189.436 174.798H189.384C186.852 174.341 183.968 174.912 182.351 176.925C181.155 173.514 177.516 171.36 173.903 171.158C170.29 170.956 164.91 172.618 161.894 174.613C159.556 176.152 157.499 178.745 155.169 182.428C154.176 183.984 153.771 188.626 153.042 190.34L147.873 194.885Z" fill="#263238"/>
<path d="M177.192 166.64C177.693 166.64 190.018 167.281 194.501 175.615C198.985 183.949 198.58 186.815 198.58 186.815C199.092 187.038 199.568 187.334 199.996 187.694C200.593 188.186 200.347 191.096 198.738 191.052C186.273 187.896 172.453 189.725 157.245 192.81L145.509 194.63C142.291 195.571 140.99 194.894 142.239 193.839C143.188 193.021 151.856 187.685 151.856 187.685L153.456 186.041L157.148 178.516C157.04 178.381 156.962 178.225 156.918 178.058C156.874 177.891 156.865 177.717 156.893 177.547C156.92 177.376 156.983 177.213 157.077 177.068C157.171 176.923 157.294 176.8 157.438 176.705C158.493 175.738 167.275 166.938 177.192 166.64Z" fill="#007940"/>
<path d="M153.455 186.059C153.455 186.059 153.613 186.059 153.912 185.98L155.213 185.734C156.339 185.487 157.982 185.224 160.022 184.925C165.335 184.207 170.7 183.96 176.057 184.186C181.414 184.432 186.753 184.984 192.048 185.839C194.087 186.147 195.731 186.428 196.865 186.613L198.175 186.824L198.632 186.885L198.184 186.78L196.874 186.534C195.749 186.323 194.105 186.024 192.074 185.654C186.777 184.772 181.431 184.214 176.066 183.984C170.696 183.761 165.317 184.028 159.996 184.784C155.925 185.399 153.455 186.059 153.455 186.059Z" fill="#263238"/>
<g opacity="0.3">
<path d="M188.909 170.015C188.909 170.015 175.766 170.129 170.501 173.866L171.116 173.417L166.105 176.723C165.226 177.276 164.259 177.865 163.292 177.549C165.408 175.164 167.948 173.19 170.782 171.729C175.837 168.995 184.206 166.762 188.909 170.015Z" fill="black"/>
</g>
<path d="M189.12 170.015C188.709 169.801 188.283 169.615 187.846 169.461C186.654 169.023 185.415 168.728 184.153 168.582C182.284 168.356 180.391 168.406 178.536 168.732C176.25 169.074 174.064 169.905 172.127 171.167C171.144 171.838 170.204 172.572 169.314 173.364C168.435 174.129 167.556 174.815 166.818 175.562C166.137 176.289 165.396 176.957 164.602 177.558C163.887 178.031 163.071 178.332 162.22 178.437C159.081 179.017 157.042 178.701 157.147 178.481C157.219 178.579 157.321 178.65 157.438 178.683C157.769 178.779 158.112 178.832 158.457 178.841C159.726 178.89 160.996 178.802 162.246 178.578C163.125 178.467 163.965 178.151 164.699 177.654C165.506 177.056 166.259 176.388 166.949 175.659C167.697 174.929 168.576 174.235 169.437 173.479C170.324 172.696 171.258 171.968 172.233 171.299C174.15 170.051 176.311 169.227 178.571 168.881C180.407 168.548 182.281 168.483 184.136 168.688C185.39 168.821 186.625 169.092 187.819 169.496C188.241 169.646 188.558 169.769 188.777 169.857C188.997 169.945 189.12 170.015 189.12 170.015Z" fill="#263238"/>
<g opacity="0.3">
<path d="M196.242 179.114C193.947 179.492 192.101 179.193 189.745 179.114C187.222 179 184.752 178.982 182.238 178.753C180.339 178.569 178.115 178.498 176.699 177.391C176.686 177.853 176.792 178.312 177.008 178.721C177.223 179.131 177.541 179.478 177.93 179.729C179.256 180.312 180.671 180.669 182.115 180.784C187.679 181.329 191.521 181.663 197.059 181.109C196.813 180.433 196.519 179.775 196.18 179.14" fill="black"/>
</g>
<path d="M193.964 174.71C195.52 175.096 196.487 175.369 196.742 176.591C196.953 177.619 196.953 178.912 195.977 179.272C195.669 179.359 195.347 179.389 195.028 179.36L178.65 178.877C178.093 178.921 177.537 178.772 177.077 178.455C176.804 178.126 176.671 177.704 176.706 177.279C176.74 176.853 176.94 176.458 177.261 176.178C177.929 175.641 178.739 175.311 179.591 175.228C184.337 174.41 189.172 174.235 193.964 174.71Z" fill="#007940"/>
<path d="M177.367 178.639C177.13 178.491 176.94 178.278 176.822 178.024C176.67 177.679 176.618 177.298 176.672 176.925C176.727 176.551 176.885 176.201 177.13 175.914C177.979 175.164 179.058 174.724 180.189 174.666C181.473 174.516 182.888 174.358 184.374 174.253C186.908 174.044 189.456 174.062 191.987 174.305C192.954 174.402 193.745 174.534 194.272 174.622L194.888 174.736H195.107C195.042 174.701 194.97 174.677 194.896 174.666L194.29 174.516C193.754 174.402 192.971 174.253 191.995 174.138C189.459 173.852 186.9 173.816 184.356 174.033C182.87 174.138 181.455 174.296 180.172 174.455C178.998 174.521 177.884 174.997 177.024 175.8C176.769 176.106 176.608 176.48 176.559 176.876C176.511 177.272 176.578 177.674 176.752 178.033C176.853 178.222 176.994 178.387 177.165 178.516C177.288 178.613 177.358 178.648 177.367 178.639Z" fill="#263238"/>
<path d="M155.988 180.889L165.913 178.982L165.552 181.936L154.687 183.553L155.988 180.889Z" fill="white"/>
<path d="M172.567 187.158C172.567 187.096 168.013 187.228 162.405 187.43C156.796 187.633 152.251 187.861 152.251 187.914C152.251 187.967 156.805 187.843 162.413 187.633C168.022 187.422 172.567 187.211 172.567 187.158Z" fill="#263238"/>
<path d="M52.6942 255.209H45.0021V238.435C44.9881 236.032 45.9281 233.722 47.6158 232.011C49.3035 230.3 51.601 229.329 54.0041 229.31H62.0478V237.117H54.0041C53.6559 237.119 53.3227 237.259 53.0773 237.506C52.8319 237.753 52.6942 238.087 52.6942 238.435V255.209Z" fill="#E0E0E0"/>
<path d="M56.6931 239.376C56.4463 238.416 56.5838 237.398 57.0763 236.537C57.5688 235.677 58.3775 235.043 59.3304 234.77C63.3039 233.6 69.4664 232.132 71.1455 233.662C73.6861 235.983 79.7518 241.574 79.7518 241.574L92.6746 244.668L93.4482 256.255L70.7059 249.741C70.7059 249.741 64.5522 250.075 65.0709 246.761C65.0709 246.761 61.9852 245.547 62.4336 243.675C62.8819 241.802 65.4137 241.354 65.4137 241.354L64.8599 238.04L56.7282 239.464L56.6931 239.376Z" fill="#FFBE9D"/>
<path d="M60.4724 241.829C64.7692 241.829 68.2524 238.346 68.2524 234.049C68.2524 229.752 64.7692 226.269 60.4724 226.269C56.1756 226.269 52.6924 229.752 52.6924 234.049C52.6924 238.346 56.1756 241.829 60.4724 241.829Z" fill="white"/>
<path d="M60.4735 242.269C58.8478 242.269 57.2586 241.786 55.9069 240.883C54.5552 239.98 53.5017 238.696 52.8796 237.194C52.2575 235.693 52.0947 234.04 52.4118 232.445C52.729 230.851 53.5118 229.386 54.6614 228.237C55.8109 227.087 57.2755 226.304 58.8699 225.987C60.4644 225.67 62.1171 225.833 63.619 226.455C65.1209 227.077 66.4046 228.131 67.3078 229.482C68.211 230.834 68.6931 232.423 68.6931 234.049C68.6931 236.229 67.8271 238.32 66.2856 239.861C64.7441 241.403 62.6535 242.269 60.4735 242.269ZM60.4735 226.708C59.0217 226.708 57.6025 227.139 56.3953 227.946C55.1882 228.752 54.2474 229.899 53.6918 231.24C53.1362 232.581 52.9908 234.057 53.2741 235.481C53.5573 236.905 54.2564 238.213 55.283 239.239C56.3096 240.266 57.6175 240.965 59.0414 241.248C60.4653 241.532 61.9413 241.386 63.2826 240.831C64.6239 240.275 65.7703 239.334 66.5769 238.127C67.3835 236.92 67.814 235.501 67.814 234.049C67.8116 232.103 67.0375 230.237 65.6614 228.861C64.2853 227.485 62.4196 226.711 60.4735 226.708Z" fill="#E0E0E0"/>
<path d="M70.5732 238.629L60.3054 235.992C60.3054 235.992 57.5538 235.218 58.9867 238.198C60.4196 241.178 64.7272 240.51 66.3799 242.277C68.0326 244.044 68.9733 247.024 75.8215 248.132" fill="#FFBE9D"/>
<path d="M75.8228 248.123C75.3671 248.106 74.914 248.047 74.469 247.948C73.2526 247.719 72.0708 247.335 70.9526 246.805C70.1742 246.422 69.4524 245.934 68.8076 245.354C68.0859 244.679 67.4322 243.934 66.856 243.13C66.5612 242.715 66.2021 242.35 65.7923 242.049C65.3449 241.767 64.8594 241.551 64.3506 241.407C63.216 241.123 62.1003 240.767 61.01 240.343C60.4484 240.082 59.9367 239.725 59.498 239.288C59.113 238.834 58.815 238.312 58.6189 237.75C58.5154 237.466 58.4475 237.171 58.4167 236.871C58.4079 236.708 58.4348 236.544 58.4955 236.393C58.5563 236.241 58.6493 236.104 58.7683 235.992C59.0204 235.8 59.3308 235.701 59.6474 235.711C59.9267 235.712 60.2045 235.751 60.4738 235.825L65.7484 237.24L69.2648 238.242C69.709 238.338 70.1421 238.479 70.557 238.664C70.1054 238.616 69.6584 238.531 69.2208 238.409L65.6253 237.53L60.2979 236.203C60.0825 236.124 59.8527 236.092 59.6238 236.108C59.3949 236.125 59.1722 236.19 58.9705 236.299C58.6716 236.537 58.7683 237.117 58.9705 237.601C59.1588 238.11 59.4389 238.581 59.7968 238.99C60.1967 239.379 60.6606 239.698 61.1682 239.93C62.2383 240.352 63.3334 240.707 64.4473 240.994C64.9986 241.148 65.5233 241.385 66.0033 241.697C66.4453 242.028 66.8337 242.426 67.1549 242.875C67.7084 243.668 68.3354 244.407 69.0274 245.082C69.6572 245.642 70.3576 246.118 71.1109 246.497C72.2045 247.04 73.3541 247.461 74.5393 247.754C74.9769 247.84 75.4063 247.964 75.8228 248.123Z" fill="#EB996E"/>
<path d="M60.4204 234.049L61.572 233.38L58.2051 228.836L60.4204 234.049Z" fill="#007940"/>
<path d="M54.3293 228.616C54.382 228.669 53.9512 229.073 53.5117 229.882C52.9391 230.941 52.5975 232.109 52.5095 233.31C52.4027 234.515 52.5402 235.729 52.9139 236.879C53.1225 237.342 53.3016 237.818 53.4502 238.304C53.0588 237.942 52.7577 237.493 52.5711 236.994C52.0853 235.818 51.8923 234.542 52.0084 233.275C52.0956 232.003 52.5006 230.772 53.1864 229.697C53.7754 228.915 54.3029 228.572 54.3293 228.616Z" fill="#263238"/>
<path d="M92.5871 243.288L136.138 248.123L173.227 239.464L173.57 270.162C173.57 270.162 133.052 268.729 130.406 268.509C127.76 268.29 91.6729 263.543 91.6729 263.543L92.5871 243.288Z" fill="#007940"/>
<path d="M101.009 244.22L100.78 264.773L108.534 265.784L108.701 245.072L101.009 244.22Z" fill="white"/>
<path d="M198.097 220.792L201.349 223.526L223.116 230.84L235.678 249.389C235.678 249.389 241.524 304.596 241.208 309.431C240.891 314.266 241.454 315.163 241.454 315.163L175.214 296.341L171.697 266.215L173.227 239.464L176.436 234.453L180.084 240.404L186.51 231.429L198.097 220.792Z" fill="#007940"/>
<path d="M237.683 268.852L171.381 266.329L172.603 277.125L238.913 281.23L237.683 268.852Z" fill="white"/>
<path d="M169.244 253.134C169.309 253.266 169.351 253.409 169.367 253.556C169.437 253.899 169.516 254.303 169.622 254.804C169.842 255.886 170.114 257.442 170.431 259.411C171.055 263.314 171.758 268.729 172.461 274.707C173.165 280.685 173.806 286.135 174.36 290.012C174.624 291.911 174.853 293.476 175.02 294.636C175.081 295.137 175.143 295.515 175.187 295.893C175.21 296.042 175.21 296.193 175.187 296.342C175.135 296.202 175.097 296.058 175.072 295.911C175.002 295.577 174.914 295.164 174.817 294.663C174.598 293.581 174.325 292.025 174.009 290.056C173.384 286.153 172.672 280.747 171.978 274.76C171.283 268.773 170.624 263.332 170.079 259.464C169.807 257.556 169.587 256 169.42 254.839C169.349 254.33 169.297 253.916 169.253 253.574C169.23 253.428 169.227 253.28 169.244 253.134Z" fill="#263238"/>
<path d="M180.118 240.44C180.256 240.217 180.415 240.008 180.593 239.816L182.017 238.163L187.089 232.458L187.23 232.299L187.388 232.44L191.933 236.528L192.311 236.871H191.977C194.711 233.293 197.181 230.084 199.01 227.781L201.164 225.082C201.428 224.737 201.722 224.417 202.043 224.124C201.847 224.5 201.614 224.856 201.348 225.187C200.812 225.908 200.135 226.849 199.309 227.974C197.551 230.33 195.133 233.565 192.399 237.143L192.25 237.345L192.065 237.178C191.951 237.064 191.819 236.95 191.687 236.835L187.169 232.721H187.467L182.272 238.304L180.76 239.886C180.571 240.098 180.356 240.284 180.118 240.44Z" fill="#263238"/>
<path d="M179.283 240.897C178.174 240.024 177.215 238.976 176.443 237.794H176.804C176.557 238.119 176.302 238.48 176.056 238.858C175.452 239.784 174.917 240.753 174.456 241.759L174.325 242.049L174.149 241.803C173.685 241.249 173.295 240.637 172.988 239.983C173.534 240.454 174.019 240.991 174.43 241.583H174.122C174.549 240.531 175.086 239.526 175.722 238.585C175.968 238.207 176.232 237.838 176.487 237.504L176.68 237.267L176.848 237.513C178.166 239.508 179.371 240.818 179.283 240.897Z" fill="#263238"/>
<path d="M129.948 262.628L154.458 282.505L160.374 275.402L136.436 255.191L129.948 262.628Z" fill="#263238"/>
<path d="M133.069 258.927C133.069 258.927 130.678 255.956 125.228 253.539C121.974 252.101 118.303 251.922 114.925 253.038L114.6 252.229C118.194 251 122.121 251.179 125.588 252.73C131.25 255.253 133.658 258.259 133.755 258.391L133.069 258.927Z" fill="#263238"/>
<path d="M149.201 265.969C149.201 265.969 153.94 266.567 155.575 267.411C157.21 268.255 161.948 271.41 161.948 271.41L171.522 273.221L169.236 289.045L162.827 285.863L148.718 287.269C148.718 287.269 145.641 286.566 145.641 284.368C144.908 283.923 144.283 283.321 143.81 282.605C143.337 281.889 143.029 281.077 142.907 280.228C142.907 280.228 139.127 275.27 138.784 274.312C138.441 273.353 140.366 271.094 140.366 271.094C140.366 271.094 144.393 274.505 146.845 275.041C149.298 275.577 151.513 274.61 151.724 273.037C152.146 269.828 149.201 265.969 149.201 265.969Z" fill="#E0E0E0"/>
<g opacity="0.3">
<path d="M174.694 293.238C174.694 293.238 206.825 304.763 217.603 304.078C226.737 303.498 231.229 299.216 231.95 293.238C232.671 287.261 233.708 261.872 233.708 261.872L216.469 291.762L174.519 290.452L174.694 293.238Z" fill="black"/>
</g>
<path d="M226.852 291.629C229.164 285.027 231.705 272.289 231.705 272.289L235.713 251.138C235.849 245.619 233.999 240.235 230.5 235.965C227.863 232.818 224.188 230.119 219.283 230.145C208.883 230.189 209.252 249.354 209.252 249.354L206.422 276.799L165.737 270.232L163.152 289.792L211.002 300.122C213.005 300.619 215.092 300.675 217.119 300.284C219.145 299.894 221.063 299.068 222.738 297.862C224.718 296.257 226.154 294.081 226.852 291.629Z" fill="#007940"/>
<path d="M220.434 231.877C220.434 231.948 219.599 231.974 218.324 232.317C216.662 232.745 215.12 233.552 213.821 234.674C212.522 235.797 211.5 237.204 210.834 238.787C210.316 240 210.175 240.818 210.096 240.809C210.089 240.071 210.239 239.34 210.535 238.664C211.142 236.985 212.171 235.489 213.523 234.322C214.875 233.155 216.504 232.356 218.254 232.001C218.964 231.808 219.707 231.766 220.434 231.877Z" fill="#263238"/>
<path d="M176.135 271.894L174.693 292.254L183.027 294.047L184.311 273.23L176.135 271.894Z" fill="white"/>
<path d="M235.713 251.174C235.713 251.174 235.713 251.341 235.634 251.684C235.555 252.026 235.493 252.563 235.379 253.16C235.142 254.488 234.79 256.404 234.342 258.866C233.894 261.327 233.322 264.369 232.68 267.877C232.346 269.635 232.021 271.516 231.608 273.503C231.195 275.49 230.729 277.582 230.245 279.771C229.762 281.96 229.19 284.263 228.549 286.637C228.232 287.823 227.88 289.028 227.502 290.25C227.135 291.507 226.667 292.733 226.105 293.916C225.517 295.153 224.716 296.277 223.74 297.239C222.7 298.185 221.512 298.954 220.224 299.515C217.499 300.667 214.491 300.974 211.591 300.395L173.789 292.254L163.161 289.96L162.95 289.916V289.705C163.829 282.953 164.708 276.404 165.535 270.145V269.925H165.755L206.492 276.676L206.307 276.817C207.186 268.299 207.951 261.45 208.452 256.703C208.716 254.356 208.918 252.536 209.059 251.279C209.129 250.673 209.182 250.207 209.226 249.873C209.27 249.539 209.296 249.389 209.296 249.389C209.296 249.389 209.296 249.556 209.296 249.873C209.296 250.189 209.226 250.673 209.173 251.288C209.05 252.545 208.874 254.374 208.655 256.721C208.18 261.468 207.494 268.325 206.65 276.843V277.01H206.483L165.79 270.444L166.036 270.25C165.218 276.518 164.357 283.059 163.469 289.819L163.293 289.564L173.921 291.858L211.723 300.025C214.546 300.579 217.47 300.272 220.118 299.146C221.378 298.615 222.537 297.871 223.547 296.948C224.499 296.024 225.279 294.938 225.85 293.74C226.402 292.576 226.864 291.371 227.23 290.135C227.617 288.922 227.968 287.727 228.285 286.54C228.935 284.175 229.498 281.889 230.043 279.7C230.588 277.512 231.019 275.419 231.441 273.441C231.863 271.463 232.197 269.582 232.54 267.833C233.217 264.316 233.806 261.31 234.298 258.831C234.79 256.352 235.177 254.435 235.423 253.143C235.555 252.51 235.652 252.018 235.722 251.675C235.792 251.332 235.713 251.174 235.713 251.174Z" fill="#263238"/>
<path d="M211.151 283.788C210.156 282.669 209.273 281.456 208.513 280.166L206.799 277.529C206.56 277.188 206.218 276.932 205.823 276.799C205.823 276.799 205.946 276.72 206.201 276.799C206.544 276.893 206.851 277.09 207.08 277.362C207.625 278.012 208.223 278.935 208.918 279.999C209.786 281.185 210.534 282.454 211.151 283.788Z" fill="#263238"/>
<g opacity="0.3">
<path d="M181.509 238.875L187.03 235.473L193.104 241.916L201.016 225.389L192.128 237.037L187.214 232.598L181.509 238.875Z" fill="black"/>
</g>
<path d="M41.5549 229.442H31.542V255.068H41.5549V229.442Z" fill="#E0E0E0"/>
<path d="M36.7724 230.937C43.89 230.937 49.66 225.1 49.66 217.9C49.66 210.7 43.89 204.863 36.7724 204.863C29.6547 204.863 23.8848 210.7 23.8848 217.9C23.8848 225.1 29.6547 230.937 36.7724 230.937Z" fill="white"/>
<path d="M36.7725 231.376C34.1013 231.404 31.482 230.637 29.2474 229.174C27.0128 227.71 25.2636 225.615 24.2219 223.155C23.1803 220.695 22.8933 217.981 23.3973 215.358C23.9013 212.734 25.1736 210.32 27.0526 208.421C28.9316 206.522 31.3326 205.225 33.9506 204.693C36.5685 204.162 39.2854 204.42 41.7561 205.436C44.2269 206.452 46.34 208.179 47.8271 210.398C49.3143 212.617 50.1083 215.228 50.1085 217.9C50.1248 221.455 48.7295 224.871 46.2291 227.397C43.7286 229.924 40.3274 231.355 36.7725 231.376ZM36.7725 205.302C34.2752 205.274 31.8259 205.989 29.7358 207.356C27.6458 208.724 26.0092 210.681 25.0342 212.981C24.0591 215.28 23.7895 217.817 24.2595 220.27C24.7296 222.723 25.9182 224.981 27.6742 226.756C29.4303 228.532 31.6746 229.746 34.122 230.244C36.5695 230.741 39.1096 230.5 41.4197 229.551C43.7298 228.602 45.7056 226.987 47.0961 224.913C48.4867 222.838 49.2292 220.397 49.2294 217.9C49.2457 214.578 47.9431 211.385 45.6074 209.023C43.2718 206.661 40.0942 205.323 36.7725 205.302Z" fill="#E0E0E0"/>
<path d="M35.1729 217.9L37.6343 218.612L39.6387 209.452L35.1729 217.9Z" fill="#007940"/>
<path d="M43.0487 229.969C42.5442 230.42 41.9425 230.748 41.2905 230.928C39.7672 231.445 38.1582 231.663 36.5522 231.569C34.9479 231.499 33.3655 231.17 31.8666 230.594C31.2227 230.394 30.625 230.068 30.1084 229.635C30.1084 229.574 30.8117 229.917 31.9545 230.286C33.4408 230.763 34.9839 231.041 36.5434 231.112C38.0983 231.196 39.6565 231.03 41.1587 230.62C42.363 230.286 42.9784 229.899 43.0487 229.969Z" fill="#263238"/>
<path d="M64.9566 255.288C64.9566 255.411 53.5283 255.419 39.366 255.288C25.2037 255.156 13.7842 254.98 13.7842 254.857C13.7842 254.734 25.2125 254.716 39.3748 254.857C53.5371 254.997 64.9566 255.129 64.9566 255.288Z" fill="#263238"/>
</g>
</svg>
