<svg width="834" height="855" viewBox="0 0 834 855" fill="none" xmlns="http://www.w3.org/2000/svg">
<g opacity="0.14">
<path d="M935.582 394.248L930.606 386.898C888.55 324.854 812.515 287.462 732.358 292C722.056 292.577 711.804 293.836 701.669 295.769C628.799 309.739 565.361 359.083 539.086 422.271C523.617 459.435 519.307 502.22 489.951 531.722C451.788 570.114 386.954 571.28 329.97 569.719C272.986 568.157 208.11 569.489 170.114 608.027C146.317 632.158 138.759 666.49 140.674 698.823C145.755 784.393 212.379 860.928 297.095 898.966C381.812 937.004 481.56 940.398 574.293 923.679C704.126 900.236 827.714 835.861 901.916 736.445C976.119 637.03 995.002 501.554 935.582 394.248Z" fill="#EBEBEB"/>
<path d="M174.361 286.837C226.795 286.837 269.3 244.331 269.3 191.898C269.3 139.464 226.795 96.9587 174.361 96.9587C121.928 96.9587 79.4219 139.464 79.4219 191.898C79.4219 244.331 121.928 286.837 174.361 286.837Z" fill="#EBEBEB"/>
<path d="M799.713 119.202L175.465 165.373L234.395 962.143L858.644 915.973L799.713 119.202Z" fill="white"/>
<path d="M233.592 963.237V962.196L174.359 164.478H175.4L800.688 118.029V119.07L859.754 916.871H858.713L233.592 963.237ZM176.587 166.31L235.424 961.01L857.588 914.956L798.751 120.256L176.587 166.31Z" fill="#263238"/>
<path d="M744.628 153.971L576.445 166.41L577.244 177.207L745.426 164.767L744.628 153.971Z" fill="#007940"/>
<path d="M742.621 236.848L741.601 237.036L738.623 237.348L727.714 238.347L691.633 241.345C677.538 242.491 664.796 243.427 655.552 244.01L644.6 244.656L641.623 244.781C641.277 244.817 640.928 244.817 640.582 244.781C640.911 244.668 641.255 244.605 641.602 244.593L644.579 244.26L655.489 243.282L691.633 240.263C705.707 239.097 718.449 238.181 727.693 237.577L738.644 236.932L741.621 236.807C741.955 236.766 742.292 236.78 742.621 236.848Z" fill="#007940"/>
<path d="M752.698 277.551C752.698 277.864 716.055 280.82 670.813 284.172C625.572 287.524 588.845 289.981 588.824 289.689C588.803 289.398 625.467 286.442 670.73 283.09C715.993 279.738 752.678 277.26 752.698 277.551Z" fill="#263238"/>
<path d="M755.465 329.456C755.465 329.768 718.822 332.724 673.58 336.076C628.338 339.428 591.695 341.906 591.695 341.594C591.695 341.281 628.339 338.346 673.601 334.994C718.864 331.642 755.445 329.164 755.465 329.456Z" fill="#263238"/>
<path d="M755.465 303.514C755.465 303.805 718.822 306.762 673.58 310.114C628.338 313.466 591.695 315.943 591.695 315.652C591.695 315.361 628.339 312.383 673.601 309.031C718.864 305.679 755.445 303.222 755.465 303.514Z" fill="#263238"/>
<path d="M411.499 666.948C411.499 667.239 392.511 668.905 369.047 670.633C345.583 672.361 326.533 673.548 326.512 673.235C326.491 672.923 345.5 671.299 368.964 669.55C392.428 667.801 411.478 666.656 411.499 666.948Z" fill="#007940"/>
<path d="M375.979 716.833C375.979 717.145 350.537 719.268 319.099 721.6C287.661 723.932 262.177 725.556 262.156 725.265C262.135 724.973 287.577 722.85 319.036 720.518C350.496 718.186 375.958 716.541 375.979 716.833Z" fill="#007940"/>
<path d="M583.369 721.059C583.369 721.351 511.832 726.889 423.555 733.426C335.278 739.964 263.658 745.023 263.637 744.731C263.616 744.44 335.153 738.881 423.472 732.343C511.79 725.806 583.369 720.768 583.369 721.059Z" fill="#263238"/>
<path d="M379.561 765.239C379.561 765.531 354.119 767.654 322.702 769.986C291.284 772.318 265.759 773.963 265.738 773.65C265.717 773.338 291.18 771.235 322.619 768.903C354.057 766.572 379.54 764.927 379.561 765.239Z" fill="#007940"/>
<path d="M586.909 769.445C586.909 769.757 515.371 775.295 427.094 781.833C338.817 788.37 267.197 793.409 267.176 793.117C267.155 792.826 338.692 787.287 427.011 780.75C515.329 774.212 586.888 769.153 586.909 769.445Z" fill="#263238"/>
<path d="M383.143 813.625C383.143 813.916 357.701 816.04 326.284 818.372C294.866 820.704 269.341 822.348 269.32 822.057C269.3 821.765 294.762 819.621 326.201 817.289C357.639 814.957 383.122 813.312 383.143 813.625Z" fill="#007940"/>
<path d="M590.491 817.83C590.491 818.143 518.953 823.681 430.676 830.218C342.399 836.756 270.779 841.815 270.758 841.503C270.737 841.19 342.274 835.673 430.593 829.136C518.911 822.598 590.47 817.539 590.491 817.83Z" fill="#263238"/>
<path d="M305.156 657.323L266.121 660.21L267.955 685.001L306.99 682.114L305.156 657.323Z" fill="#007940"/>
<path d="M295.293 682.994L279.617 684.153L280.192 691.919L295.868 690.759L295.293 682.994Z" fill="#007940"/>
<path d="M301.902 690.016C297.599 690.95 293.226 691.528 288.828 691.744C284.46 692.322 280.051 692.531 275.648 692.369C279.954 691.449 284.326 690.878 288.723 690.662C293.092 690.096 297.499 689.881 301.902 690.016Z" fill="#007940"/>
<path d="M620.574 629.139L644.975 615.751L669.002 624.871L646.495 639.028L620.574 629.139Z" fill="#007940"/>
<path d="M626.426 634.739L627.404 649.938L665.005 646.628L663.714 631.97L646.351 642.464L626.426 634.739Z" fill="#007940"/>
<path d="M774.913 632.095C774.913 632.407 755.925 634.052 732.461 635.78C708.997 637.508 689.947 638.695 689.926 638.404C689.905 638.112 708.914 636.447 732.378 634.698C755.842 632.949 774.913 631.804 774.913 632.095Z" fill="#007940"/>
<path d="M687.737 684.353C687.737 684.645 674.683 685.852 658.589 687.039C642.495 688.226 629.337 688.975 629.316 688.663C629.296 688.351 642.371 687.164 658.464 685.957C674.558 684.749 687.717 684.041 687.737 684.353Z" fill="#263238"/>
<path d="M794.983 697.47C794.983 697.782 758.278 700.739 712.973 704.091C667.669 707.443 630.88 709.92 630.859 709.629C630.839 709.337 667.565 706.36 712.89 703.008C758.215 699.656 794.963 697.262 794.983 697.47Z" fill="#263238"/>
<path d="M692.112 738.402C692.112 738.714 679.078 739.922 662.964 741.109C646.849 742.295 633.816 743.045 633.712 742.733C633.607 742.42 646.745 741.234 662.86 740.026C678.974 738.819 692.091 738.111 692.112 738.402Z" fill="#263238"/>
<path d="M799.355 751.602C799.355 751.914 762.649 754.871 717.345 758.223C672.04 761.575 635.272 764.052 635.231 763.761C635.189 763.469 671.936 760.492 717.261 757.14C762.586 753.788 799.334 751.331 799.355 751.602Z" fill="#263238"/>
<path d="M695.441 791.826C695.441 792.139 682.387 793.346 666.293 794.533C650.199 795.72 637.145 796.448 637.02 796.157C636.895 795.865 650.075 794.658 666.168 793.45C682.262 792.243 695.421 791.535 695.441 791.826Z" fill="#263238"/>
<path d="M802.687 805.047C802.687 805.359 765.981 808.316 720.677 811.668C675.372 815.02 638.583 817.497 638.563 817.206C638.542 816.914 675.268 813.937 720.593 810.585C765.918 807.233 802.666 804.755 802.687 805.047Z" fill="#263238"/>
<path d="M701.397 848.332C701.397 848.623 688.363 849.831 672.249 851.038C656.134 852.246 643.101 852.954 642.997 852.662C642.893 852.371 656.03 851.142 672.145 849.956C688.259 848.769 701.376 848.04 701.397 848.332Z" fill="#263238"/>
<path d="M607.167 235.266C608.805 234.39 610.151 233.054 611.039 231.423C611.927 229.791 612.318 227.935 612.163 226.084C612.162 224.861 611.909 223.65 611.42 222.528C610.931 221.406 610.217 220.397 609.322 219.562C608.426 218.728 607.369 218.086 606.216 217.677C605.062 217.269 603.837 217.101 602.616 217.185C601.395 217.27 600.205 217.604 599.118 218.168C598.032 218.731 597.073 219.512 596.301 220.462C595.529 221.411 594.961 222.51 594.631 223.688C594.301 224.867 594.217 226.1 594.383 227.313C594.5 229.158 595.153 230.93 596.263 232.409C597.373 233.889 598.89 235.012 600.629 235.641C587.117 238.701 588.845 253.525 588.845 253.525L621.179 251.277C621.179 251.277 620.845 236.328 607.167 235.266Z" fill="#007940"/>
<path d="M659.84 445.173C659.84 445.486 646.702 446.693 630.442 447.901C614.182 449.108 600.982 449.837 600.961 449.545C600.94 449.254 614.098 448.026 630.359 446.818C646.619 445.61 659.819 444.882 659.84 445.173Z" fill="#263238"/>
<path d="M662.066 471.177C662.066 471.469 648.929 472.697 632.669 473.905C616.408 475.112 603.208 475.841 603.188 475.529C603.167 475.216 616.325 474.009 632.585 472.822C648.846 471.635 662.046 470.886 662.066 471.177Z" fill="#263238"/>
<path d="M776.285 439.614L680.513 446.714C679.655 446.777 678.806 446.497 678.154 445.935C677.502 445.372 677.1 444.574 677.036 443.716C676.973 442.857 677.253 442.009 677.816 441.357C678.378 440.705 679.176 440.303 680.034 440.239L775.806 433.139C776.232 433.105 776.66 433.156 777.066 433.289C777.472 433.421 777.847 433.633 778.171 433.912C778.494 434.191 778.759 434.531 778.95 434.913C779.141 435.295 779.254 435.711 779.283 436.137C779.317 436.563 779.266 436.991 779.134 437.397C779.001 437.803 778.789 438.179 778.51 438.502C778.231 438.825 777.891 439.09 777.509 439.281C777.127 439.472 776.711 439.585 776.285 439.614Z" fill="#E0E0E0"/>
<path d="M762.294 440.655L680.451 446.714C679.592 446.777 678.744 446.497 678.092 445.934C677.44 445.372 677.037 444.574 676.974 443.716C676.911 442.857 677.191 442.009 677.753 441.357C678.315 440.705 679.113 440.303 679.972 440.239L761.815 434.18C762.674 434.117 763.522 434.398 764.174 434.96C764.826 435.522 765.228 436.32 765.292 437.178C765.35 438.036 765.067 438.881 764.506 439.532C763.945 440.182 763.15 440.586 762.294 440.655Z" fill="#007940"/>
<path d="M778.096 464.078L682.324 471.157C681.466 471.22 680.617 470.939 679.965 470.377C679.313 469.815 678.911 469.017 678.847 468.158C678.79 467.301 679.072 466.456 679.633 465.805C680.194 465.154 680.989 464.751 681.845 464.682L777.617 457.603C778.043 457.569 778.471 457.619 778.877 457.752C779.283 457.885 779.659 458.097 779.982 458.376C780.305 458.654 780.57 458.995 780.761 459.377C780.952 459.759 781.065 460.175 781.094 460.601C781.157 461.459 780.877 462.308 780.315 462.96C779.753 463.612 778.955 464.014 778.096 464.078Z" fill="#E0E0E0"/>
<path d="M749.51 466.181L682.262 471.157C681.403 471.22 680.555 470.939 679.903 470.377C679.251 469.815 678.849 469.017 678.785 468.158C678.727 467.301 679.009 466.456 679.571 465.805C680.132 465.154 680.926 464.751 681.783 464.682L749.031 459.706C749.89 459.642 750.738 459.923 751.39 460.485C752.042 461.047 752.444 461.845 752.508 462.704C752.571 463.562 752.291 464.411 751.729 465.063C751.167 465.715 750.369 466.117 749.51 466.181Z" fill="#007940"/>
<path d="M664.899 497.723C664.899 498.014 651.761 499.243 635.501 500.429C619.24 501.616 606.04 502.366 606.02 502.074C605.999 501.783 619.157 500.554 635.417 499.347C651.678 498.139 664.878 497.411 664.899 497.723Z" fill="#263238"/>
<path d="M667.129 523.706C667.129 524.019 653.992 525.226 637.731 526.434C621.471 527.641 608.271 528.37 608.25 528.078C608.229 527.787 621.387 526.559 637.648 525.351C653.908 524.143 667.108 523.415 667.129 523.706Z" fill="#263238"/>
<path d="M781.347 492.143L685.575 499.243C684.717 499.306 683.868 499.026 683.217 498.463C682.565 497.901 682.162 497.103 682.099 496.245C682.036 495.386 682.316 494.538 682.878 493.886C683.44 493.234 684.238 492.832 685.097 492.768L780.869 485.668C781.727 485.605 782.576 485.885 783.228 486.448C783.88 487.01 784.282 487.808 784.346 488.666C784.38 489.092 784.329 489.52 784.196 489.926C784.064 490.332 783.852 490.707 783.573 491.031C783.294 491.354 782.954 491.619 782.572 491.81C782.19 492.001 781.774 492.114 781.347 492.143Z" fill="#E0E0E0"/>
<path d="M767.336 493.184L685.513 499.243C684.654 499.306 683.806 499.025 683.154 498.463C682.502 497.901 682.1 497.103 682.036 496.245C681.973 495.386 682.253 494.538 682.815 493.886C683.378 493.234 684.176 492.832 685.034 492.768L766.857 486.709C767.715 486.646 768.564 486.926 769.216 487.489C769.868 488.051 770.27 488.849 770.334 489.707C770.368 490.133 770.317 490.561 770.184 490.967C770.052 491.373 769.84 491.748 769.561 492.072C769.282 492.395 768.942 492.66 768.56 492.851C768.178 493.042 767.762 493.155 767.336 493.184Z" fill="#007940"/>
<path d="M783.242 516.607L687.47 523.706C686.612 523.769 685.763 523.489 685.111 522.927C684.459 522.365 684.057 521.567 683.993 520.708C683.93 519.85 684.21 519.001 684.773 518.349C685.335 517.697 686.133 517.295 686.991 517.231L782.763 510.132C783.622 510.069 784.47 510.349 785.122 510.911C785.774 511.473 786.176 512.271 786.24 513.13C786.303 513.988 786.023 514.837 785.461 515.489C784.899 516.141 784.101 516.543 783.242 516.607Z" fill="#E0E0E0"/>
<path d="M754.57 518.73L687.322 523.706C686.463 523.769 685.615 523.489 684.963 522.927C684.311 522.365 683.909 521.567 683.845 520.708C683.782 519.85 684.062 519.001 684.624 518.349C685.186 517.697 685.984 517.295 686.843 517.231L754.091 512.172C754.95 512.109 755.798 512.389 756.45 512.951C757.102 513.514 757.504 514.312 757.568 515.17C757.611 515.602 757.567 516.038 757.439 516.452C757.31 516.867 757.1 517.251 756.821 517.583C756.541 517.915 756.198 518.187 755.811 518.384C755.425 518.581 755.003 518.699 754.57 518.73Z" fill="#007940"/>
<path d="M670.478 551.418C670.478 551.73 657.32 552.938 641.059 554.145C624.799 555.353 611.599 556.081 611.578 555.79C611.557 555.498 624.716 554.27 640.976 553.063C657.236 551.855 670.457 551.126 670.478 551.418Z" fill="#263238"/>
<path d="M786.927 545.859L691.155 552.938C690.296 553.001 689.448 552.72 688.796 552.158C688.144 551.596 687.742 550.798 687.678 549.94C687.626 549.084 687.91 548.241 688.47 547.592C689.03 546.942 689.822 546.537 690.676 546.463L786.448 539.384C787.309 539.321 788.16 539.6 788.815 540.162C789.47 540.724 789.877 541.522 789.946 542.382C790.003 543.242 789.718 544.091 789.152 544.742C788.587 545.393 787.787 545.795 786.927 545.859Z" fill="#E0E0E0"/>
<path d="M744.243 549.003L691.069 552.938C690.21 553.001 689.362 552.72 688.71 552.158C688.058 551.596 687.656 550.798 687.592 549.94C687.54 549.084 687.824 548.241 688.384 547.592C688.944 546.942 689.736 546.537 690.59 546.463L743.681 542.528C744.538 542.47 745.384 542.752 746.035 543.313C746.685 543.875 747.089 544.669 747.158 545.526C747.222 546.371 746.953 547.208 746.408 547.857C745.864 548.507 745.087 548.918 744.243 549.003Z" fill="#007940"/>
<path d="M627.964 418.69L624.591 412.757C626.722 409.383 627.513 405.334 626.808 401.407C626.103 397.48 623.953 393.959 620.782 391.537C617.611 389.115 613.649 387.968 609.674 388.322C605.7 388.676 602.002 390.505 599.309 393.448C596.615 396.392 595.121 400.237 595.121 404.227C595.121 408.217 596.614 412.063 599.308 415.007C602.001 417.951 605.698 419.78 609.673 420.134C613.647 420.488 617.61 419.342 620.781 416.921L627.964 418.69Z" fill="#007940"/>
<path d="M751.031 396.1C751.031 396.413 728.858 398.307 701.438 400.264C674.018 402.222 651.783 403.7 651.762 403.408C651.741 403.117 673.935 401.222 701.355 399.244C728.775 397.266 751.011 395.809 751.031 396.1Z" fill="#007940"/>
<path d="M187.977 165.269L227.743 635.697L578.622 609.589L540.73 138.328L187.977 165.269Z" fill="#EBEBEB"/>
<path d="M549.714 124.68L201.957 149.023L235.028 621.471L582.785 597.128L549.714 124.68Z" fill="#FAFAFA"/>
<path d="M235.674 620.04V618.999L200.738 146.802H201.758L549.598 120.964V122.005L584.555 594.203H583.514L235.674 620.04ZM202.966 148.717L237.756 617.813L582.473 592.287L547.683 123.213L202.966 148.717Z" fill="#263238"/>
<path d="M478.874 193.418C478.804 193.158 478.756 192.894 478.728 192.627C478.728 192.044 478.541 191.273 478.395 190.295C478.124 188.213 477.729 185.152 477.25 181.301C476.771 177.449 476.167 172.577 475.48 167.039C475.204 164.086 474.752 161.152 474.127 158.253C473.766 156.699 473.124 155.224 472.232 153.901C471.313 152.528 469.967 151.497 468.402 150.966C466.688 150.492 464.88 150.473 463.156 150.911C461.433 151.349 459.854 152.229 458.575 153.464C455.83 156.31 454.065 159.956 453.536 163.874C452.246 172.532 452.5 181.35 454.286 189.92C455.098 194.48 455.972 199.185 457.013 203.932C457.953 208.766 459.676 213.415 462.114 217.694C464.671 222.073 468.688 225.412 473.461 227.125C475.872 227.978 478.468 228.165 480.977 227.667C483.512 227.141 485.849 225.915 487.722 224.127C491.461 220.468 493.797 215.612 494.322 210.407C494.796 205.315 494.664 200.185 493.927 195.125C492.803 185.048 491.72 175.346 490.679 165.977C490.158 161.355 489.659 156.837 489.18 152.465C488.701 148.093 488.264 143.825 487.473 139.785C486.81 135.878 485.612 132.081 483.912 128.501C482.344 125.22 480.06 122.332 477.229 120.048C472.199 116.227 465.962 114.342 459.657 114.739C454.89 114.891 450.304 116.603 446.603 119.611C444.331 121.58 442.609 124.105 441.606 126.94C440.94 128.897 440.794 129.979 440.711 129.979C440.825 128.923 441.055 127.883 441.398 126.877C442.331 123.958 444.028 121.342 446.312 119.299C450.055 116.157 454.733 114.342 459.616 114.135C466.083 113.662 472.503 115.548 477.687 119.444C480.639 121.773 483.024 124.742 484.662 128.126C486.417 131.77 487.664 135.637 488.368 139.619C489.159 143.783 489.617 147.947 490.138 152.361C490.658 156.775 491.137 161.251 491.678 165.873C492.719 175.117 493.76 184.84 494.968 194.896C495.733 200.044 495.873 205.267 495.384 210.449C494.832 215.909 492.378 221.001 488.451 224.835C486.427 226.747 483.911 228.059 481.185 228.624C478.497 229.15 475.717 228.956 473.128 228.062C468.12 226.247 463.901 222.742 461.198 218.152C458.724 213.762 456.974 209.003 456.014 204.057C454.973 199.268 454.119 194.584 453.307 189.983C451.496 181.275 451.249 172.314 452.578 163.52C453.19 159.45 455.07 155.676 457.95 152.736C459.34 151.408 461.054 150.469 462.921 150.012C464.789 149.555 466.743 149.597 468.589 150.133C470.293 150.735 471.754 151.875 472.753 153.381C473.678 154.776 474.341 156.329 474.71 157.961C475.317 160.903 475.749 163.879 476.001 166.872C476.605 172.41 477.146 177.282 477.583 181.134C478.02 184.986 478.312 188.025 478.541 190.149C478.541 191.148 478.707 191.919 478.749 192.502C478.82 192.802 478.862 193.109 478.874 193.418Z" fill="#263238"/>
<path d="M336.071 176.699L308.547 165.269C301.114 169.995 288.976 183.008 285.645 197.54C283.727 205.502 283.025 213.707 283.563 221.879C284.021 230.686 283.23 240.013 278.358 247.362C274.881 252.588 269.28 257.148 269.176 263.435C269.072 270.66 276.546 276.885 275.027 283.964C273.798 289.627 267.49 292.479 264.2 297.247C259.412 304.159 261.723 313.612 264.846 321.419C272.382 340.261 256.351 367.369 270.467 381.943C284.396 370.513 325.577 349.318 339.506 337.888C342.783 335.582 345.494 332.564 347.438 329.06C349.854 323.751 348.542 317.609 347.293 311.925C337.509 267.556 333.735 222.074 336.071 176.699Z" fill="#263238"/>
<path d="M500.672 501.637L487.097 487.896L341.982 528.828C341.982 528.828 334.008 592.62 334.82 596.701C335.632 600.782 334.82 612.441 334.82 612.441L535.087 596.826C535.087 596.826 537.357 542.507 500.672 501.637Z" fill="#263238"/>
<path d="M381.227 557.102C381.036 557.683 380.755 558.231 380.395 558.725C379.791 559.704 378.916 561.141 377.667 562.889C376.223 564.874 374.561 566.69 372.712 568.303C370.365 570.226 367.662 571.669 364.759 572.55C359.558 574.209 354.123 575.018 348.665 574.944C347.023 574.938 345.383 574.841 343.751 574.653C343.14 574.648 342.533 574.536 341.961 574.32C341.961 574.153 344.543 574.32 348.665 574.174C354.016 574.015 359.32 573.118 364.426 571.509C367.203 570.609 369.788 569.196 372.046 567.345C373.875 565.798 375.549 564.075 377.043 562.202C379.645 559.142 381.082 556.997 381.227 557.102Z" fill="#455A64"/>
<path d="M428.967 605.237C428.694 604.606 428.505 603.941 428.405 603.259C428.113 601.989 427.718 600.116 427.301 597.784C426.427 593.141 425.407 586.708 424.616 579.545C423.824 572.383 423.408 565.846 423.241 561.141C423.241 558.788 423.117 556.977 423.137 555.54C423.069 554.844 423.111 554.141 423.262 553.458C423.662 555.974 423.912 558.512 424.012 561.057C424.387 565.742 424.907 572.238 425.698 579.379C426.489 586.52 427.385 592.954 428.051 597.617C428.528 600.134 428.834 602.68 428.967 605.237Z" fill="#455A64"/>
<path d="M442.836 601.906C442.523 601.906 441.295 591.121 440.087 577.776C438.88 564.43 438.005 553.583 438.401 553.541C438.797 553.5 439.942 564.326 441.149 577.672C442.357 591.017 443.127 601.885 442.836 601.906Z" fill="#455A64"/>
<path d="M513.205 527.454C512.821 528.054 512.366 528.606 511.851 529.099C510.935 530.119 509.582 531.555 507.687 533.263C505.611 535.268 503.345 537.067 500.921 538.634C497.908 540.579 494.54 541.909 491.011 542.548C487.443 543.118 483.787 542.708 480.434 541.362C477.745 540.263 475.217 538.807 472.918 537.031C471.373 535.857 469.899 534.592 468.504 533.242C467.955 532.784 467.466 532.259 467.047 531.68C467.172 531.535 469.42 533.596 473.293 536.407C475.583 538.056 478.073 539.406 480.705 540.425C483.906 541.654 487.376 542.013 490.761 541.466C494.147 540.862 497.384 539.61 500.296 537.781C502.708 536.279 504.986 534.573 507.105 532.68C510.915 529.453 513.08 527.329 513.205 527.454Z" fill="#455A64"/>
<path d="M524.303 567.845C523.714 568.299 523.07 568.676 522.387 568.969L517.036 571.759C512.518 574.132 506.335 577.526 499.735 581.607C493.135 585.687 487.243 589.726 483.079 592.704L478.186 596.243C477.619 596.728 476.988 597.134 476.312 597.451C476.792 596.883 477.329 596.367 477.916 595.91C478.998 594.973 480.601 593.661 482.621 592.079C493.23 583.904 504.667 576.863 516.745 571.072C519.056 569.968 520.909 569.115 522.283 568.573C522.919 568.237 523.599 567.992 524.303 567.845Z" fill="#455A64"/>
<path d="M391.928 550.835C391.782 550.835 391.283 549.835 390.616 548.066C389.763 545.74 389.149 543.333 388.784 540.883C388.43 538.395 388.571 535.862 389.201 533.429C389.401 532.4 389.836 531.432 390.471 530.598C389.752 533.927 389.549 537.346 389.867 540.737C390.22 543.13 390.714 545.501 391.345 547.837C391.709 548.796 391.906 549.81 391.928 550.835Z" fill="#455A64"/>
<path d="M400.675 551.355C400.175 550.425 399.831 549.419 399.654 548.378C398.981 545.925 398.528 543.417 398.301 540.883C398.215 539.491 398.285 538.095 398.509 536.719C398.734 535.567 399.119 534.453 399.654 533.408C400.57 531.639 401.507 530.827 401.591 530.91C401.244 531.876 400.826 532.816 400.341 533.721C399.499 536.016 399.172 538.468 399.384 540.904C399.571 543.777 400.133 546.379 400.425 548.295C400.678 549.294 400.762 550.328 400.675 551.355Z" fill="#455A64"/>
<path d="M454.287 546.317C454.262 541.122 453.185 535.987 451.12 531.22C449.056 526.454 446.046 522.155 442.273 518.585C443.647 519.322 444.874 520.302 445.896 521.479C448.522 524.179 450.638 527.332 452.142 530.785C453.64 534.238 454.494 537.935 454.661 541.695C454.811 543.245 454.685 544.811 454.287 546.317Z" fill="#455A64"/>
<path d="M463.925 542.944C462.985 538.263 461.705 533.656 460.095 529.161C458.125 524.837 455.843 520.661 453.266 516.669C454.378 517.56 455.335 518.629 456.097 519.834C460.165 525.418 462.797 531.918 463.759 538.759C464.031 540.137 464.087 541.549 463.925 542.944Z" fill="#455A64"/>
<path d="M427.052 535.761C427.052 535.761 427.427 535.199 428.51 534.699C430.059 534.024 431.806 533.957 433.402 534.512C434.531 534.882 435.538 535.551 436.317 536.448C437.2 537.511 437.705 538.836 437.754 540.217C437.811 541.729 437.412 543.223 436.609 544.505C436.173 545.206 435.603 545.813 434.931 546.292C434.259 546.771 433.499 547.112 432.695 547.295C431.144 547.614 429.532 547.408 428.112 546.711C426.691 546.014 425.542 544.865 424.845 543.444C424.318 542.18 424.187 540.786 424.471 539.446C424.63 538.263 425.113 537.146 425.866 536.219C427.04 535.007 428.617 534.266 430.3 534.137C430.606 534.085 430.919 534.098 431.22 534.173C431.521 534.248 431.804 534.385 432.049 534.574C431.481 534.527 430.91 534.527 430.342 534.574C428.83 534.844 427.456 535.623 426.449 536.781C425.842 537.612 425.469 538.589 425.366 539.613C425.145 540.776 425.276 541.979 425.741 543.069C426.368 544.255 427.361 545.207 428.573 545.784C429.784 546.362 431.149 546.534 432.465 546.275C433.75 545.91 434.873 545.121 435.652 544.035C436.431 542.95 436.819 541.634 436.754 540.3C436.739 539.124 436.345 537.985 435.63 537.052C434.963 536.267 434.112 535.659 433.153 535.282C431.715 534.719 430.127 534.667 428.655 535.136C427.614 535.449 427.219 535.844 427.052 535.761Z" fill="#455A64"/>
<path d="M297.343 333.641C296.198 335.035 262.802 356.313 257.785 370.013C252.767 383.713 260.845 439.593 262.24 449.254C263.635 458.914 282.581 495.391 282.581 495.391C282.581 495.391 278.605 511.131 283.81 520.833C287.192 526.834 292.259 531.713 298.384 534.866L331.946 516.482L311.126 422.25L297.343 333.641Z" fill="#007940"/>
<path d="M300.988 432.619C301.946 431.265 303.237 430.391 304.028 429.371C304.819 428.351 306.526 427.893 307.338 428.871C308.15 429.85 307.338 431.661 306.276 432.744C309.649 432.869 312.21 428.247 315.479 429.163C315.978 429.388 316.428 429.709 316.804 430.108C317.179 430.507 317.471 430.977 317.665 431.489C317.858 432.002 317.948 432.547 317.931 433.095C317.913 433.643 317.787 434.181 317.561 434.68C316.511 436.654 314.854 438.239 312.835 439.198C310.814 440.133 308.996 441.456 307.484 443.091C306.776 444.007 306.318 445.402 307.088 446.277C308.4 447.776 311.44 446.006 312.606 447.609C313.376 448.692 312.439 450.149 311.544 451.149C308.254 454.702 304.979 458.276 301.717 461.871C300.93 462.897 299.889 463.7 298.698 464.203C298.096 464.425 297.433 464.414 296.839 464.171C296.246 463.928 295.765 463.472 295.492 462.891C295.398 462.266 295.505 461.627 295.797 461.066C296.089 460.505 296.55 460.051 297.115 459.768C298.271 459.257 299.379 458.644 300.426 457.936C300.937 457.571 301.286 457.021 301.399 456.403C301.512 455.785 301.379 455.147 301.03 454.626C299.926 453.501 298.052 454.438 296.866 455.417L285.415 464.411C284.629 465.15 283.658 465.661 282.604 465.889C282.078 465.976 281.539 465.859 281.098 465.561C280.656 465.262 280.346 464.806 280.23 464.286C280.243 463.728 280.417 463.186 280.73 462.725C282.804 459.094 285.646 455.96 289.058 453.543C290.441 452.75 291.685 451.737 292.743 450.545C293.258 449.939 293.569 449.187 293.632 448.395C293.696 447.603 293.509 446.811 293.097 446.131C290.847 448.25 288.36 450.101 285.685 451.648C284.748 452.21 283.374 452.668 282.666 451.815C281.959 450.961 282.666 449.733 283.437 448.796L295.283 434.888C295.71 434.239 296.26 433.68 296.903 433.244C297.547 432.808 298.27 432.504 299.031 432.348L300.988 432.619Z" fill="white"/>
<path d="M317.499 303.16L314.793 319.629L290.142 339.366C290.142 339.366 284.312 376.551 289.871 414.318C289.871 414.318 325.994 512.172 326.868 516.336C328.513 524.268 343.087 530.91 343.087 530.91C343.087 530.91 398.114 531.431 417.019 528.703C435.923 525.976 481.561 497.14 485.933 493.309C490.305 489.478 495.24 471.073 495.24 471.073L461.594 376.842L459.7 310.551L409.42 297.643L392.347 284.443L317.499 303.16Z" fill="#007940"/>
<path d="M465.777 371.908C466.735 370.554 468.026 369.68 468.796 368.66C469.566 367.64 471.315 367.182 472.127 368.16C472.939 369.139 472.127 370.95 471.044 372.033C474.438 372.158 476.999 367.535 480.268 368.452C480.767 368.677 481.217 368.998 481.593 369.397C481.968 369.796 482.26 370.266 482.454 370.778C482.647 371.291 482.737 371.836 482.72 372.384C482.702 372.931 482.576 373.47 482.35 373.969C481.3 375.943 479.643 377.527 477.624 378.487C475.603 379.422 473.785 380.745 472.273 382.38C471.565 383.317 471.107 384.691 471.877 385.566C473.168 387.065 476.229 385.295 477.395 386.898C478.165 387.981 477.228 389.438 476.333 390.437C473.043 394.005 469.768 397.579 466.506 401.16C465.719 402.186 464.678 402.989 463.487 403.492C462.886 403.719 462.22 403.711 461.625 403.467C461.03 403.224 460.55 402.764 460.281 402.18C460.185 401.557 460.292 400.921 460.584 400.363C460.876 399.805 461.339 399.354 461.905 399.078C463.057 398.551 464.164 397.931 465.215 397.225C465.722 396.857 466.068 396.307 466.18 395.691C466.293 395.074 466.163 394.438 465.819 393.914C464.715 392.79 462.841 393.727 461.655 394.706L450.12 403.7C449.345 404.442 448.379 404.953 447.331 405.178C446.805 405.265 446.266 405.148 445.824 404.849C445.383 404.551 445.072 404.095 444.957 403.575C444.97 403.017 445.143 402.475 445.457 402.013C447.53 398.383 450.373 395.249 453.785 392.832C455.167 392.039 456.412 391.026 457.47 389.834C457.984 389.228 458.295 388.476 458.359 387.684C458.422 386.892 458.235 386.1 457.824 385.42C455.574 387.538 453.087 389.39 450.412 390.937C449.454 391.499 448.101 391.957 447.393 391.104C446.685 390.25 447.393 389.022 448.163 388.085C452.119 383.435 456.068 378.799 460.01 374.177C460.436 373.527 460.987 372.969 461.63 372.533C462.273 372.097 462.996 371.792 463.757 371.637L465.777 371.908Z" fill="white"/>
<path d="M458.885 310.863C458.885 310.863 486.721 320.628 494.008 337.284C501.295 353.94 529.194 433.056 527.445 447.63C525.696 462.204 521.053 478.86 508.436 479.61C495.819 480.359 481.37 467.513 481.37 467.513L470.044 449.087L470.648 429.787L457.781 378.403L458.885 310.863Z" fill="#007940"/>
<path d="M318.559 311.217C318.559 311.342 376.063 381.672 376.063 381.672L383.871 316.506L394.76 284.422L319.808 302.931L318.559 311.217Z" fill="#967262"/>
<g opacity="0.3">
<path d="M437.234 306.158C433.84 304.451 429.76 305.804 426.324 307.407C406.879 316.589 385.746 327.728 380.042 348.444L379.812 360.936C381.603 368.472 389.39 373.428 397.114 374.094C404.838 374.76 412.437 371.887 419.35 368.389C425.559 365.267 431.481 361.602 437.047 357.438C440.128 355.127 443.293 352.295 443.896 348.485C444.667 343.28 440.295 338.741 439.316 333.578C438.379 328.769 440.44 323.938 441.398 319.129C442.356 314.32 441.627 308.344 437.234 306.158Z" fill="black"/>
</g>
<path d="M289.809 414.422C290.048 414.799 290.237 415.204 290.371 415.63L291.786 419.169C292.973 422.271 294.68 426.748 296.721 432.306C300.885 443.424 306.069 458.935 311.961 476.028C314.938 484.565 317.832 492.684 320.497 500.034C321.83 503.719 323.058 507.238 324.349 510.444C325.542 513.421 327.013 516.279 328.742 518.98C331.282 522.87 334.626 526.171 338.548 528.661C341.359 530.39 343.087 531.056 343.025 531.16C342.593 531.053 342.174 530.899 341.775 530.702C340.589 530.229 339.44 529.665 338.34 529.015C334.247 526.626 330.751 523.337 328.117 519.397C326.306 516.688 324.765 513.808 323.516 510.798C322.163 507.55 320.914 504.052 319.54 500.388C316.833 493.038 313.897 484.939 310.941 476.382C305.111 459.352 299.844 443.924 295.992 432.66C294.077 427.143 292.515 422.667 291.391 419.398L290.163 415.775C290 415.337 289.881 414.884 289.809 414.422Z" fill="#263238"/>
<path d="M375.794 383.9C375.589 383.714 375.407 383.504 375.252 383.275L373.774 381.381C372.483 379.736 370.61 377.217 368.153 374.302C361.458 366.105 354.202 358.384 346.438 351.192L347.27 350.838C347.041 360.373 346.792 371.075 346.521 382.359C346.521 383.359 346.521 384.441 346.521 385.274V387.502L345.563 385.42C336.715 367.286 328.782 350.984 322.994 339.075C320.204 333.245 317.956 328.498 316.311 325.083C315.582 323.501 314.999 322.231 314.562 321.253C314.341 320.816 314.153 320.364 314 319.899C314.298 320.293 314.549 320.719 314.75 321.169C315.249 322.106 315.895 323.251 316.686 324.896L323.681 338.741C329.553 350.609 337.589 366.848 346.583 384.941L345.563 385.17C345.563 384.233 345.563 383.255 345.563 382.255C345.875 370.971 346.146 360.269 346.396 350.734V349.63L347.187 350.38C354.935 357.651 362.124 365.494 368.694 373.844C371.088 376.904 372.858 379.403 374.107 381.11L375.461 383.088C375.607 383.343 375.719 383.616 375.794 383.9Z" fill="#263238"/>
<path d="M457.659 434.763C457.888 434.971 441.003 452.939 420.183 474.883C399.363 496.828 382.124 514.441 381.916 514.254C381.708 514.067 398.468 496.099 419.392 474.134C440.316 452.169 457.451 434.555 457.659 434.763Z" fill="#263238"/>
<path d="M426.448 525.309C425.76 523.177 425.217 520.999 424.824 518.793C423.887 514.754 422.471 509.216 420.535 503.219C418.599 497.223 416.475 491.893 414.851 488.083C413.889 486.053 413.048 483.967 412.332 481.837C413.593 483.701 414.674 485.681 415.559 487.75C417.883 492.653 419.886 497.702 421.555 502.865C423.239 508.018 424.581 513.276 425.574 518.605C426.092 520.805 426.385 523.051 426.448 525.309Z" fill="#263238"/>
<path d="M285.498 410.966C280.652 408.334 275.985 405.385 271.528 402.138C266.857 399.203 262.384 395.962 258.141 392.436C262.995 395.058 267.669 398 272.132 401.243C276.797 404.186 281.262 407.434 285.498 410.966Z" fill="#263238"/>
<path d="M508.418 479.485C508.418 479.485 508.169 479.485 507.69 479.485H505.608C504.464 479.494 503.321 479.403 502.193 479.214C500.655 479.008 499.137 478.674 497.654 478.215C493.68 476.898 490.022 474.771 486.911 471.969C482.941 468.362 479.802 463.936 477.709 458.998C475.752 451.086 473.545 442.342 471.296 433.056C467.132 415.442 463.197 399.515 460.387 387.814L457.18 374.073L456.368 370.325C456.253 369.897 456.183 369.457 456.16 369.014C456.361 369.416 456.508 369.843 456.597 370.284C456.847 371.241 457.18 372.47 457.597 373.969C458.471 377.342 459.679 381.964 461.115 387.627C464.03 399.307 467.986 415.213 472.358 432.806C474.607 442.05 476.751 450.857 478.604 458.769C480.626 463.584 483.642 467.919 487.453 471.49C490.461 474.258 494.004 476.384 497.863 477.736C501.295 478.753 504.841 479.341 508.418 479.485Z" fill="#263238"/>
<path d="M305.069 480.775C303.699 481.158 302.309 481.464 300.905 481.692C294.346 483.321 288.586 487.242 284.665 492.747C283.941 493.952 283.156 495.12 282.312 496.245C282.61 494.837 283.19 493.506 284.02 492.331C285.855 489.369 288.296 486.829 291.182 484.877C294.048 482.895 297.307 481.553 300.738 480.942C302.153 480.573 303.63 480.516 305.069 480.775Z" fill="#263238"/>
<path d="M305.444 478.402C302.424 480.185 299.122 481.438 295.68 482.108C292.311 483.141 288.788 483.578 285.27 483.399C285.27 483.086 289.829 482.441 295.367 481.067C300.905 479.693 305.319 478.111 305.444 478.402Z" fill="#263238"/>
<path d="M298.928 362.747C299.907 361.394 301.198 360.519 301.968 359.499C302.738 358.479 304.466 358 305.299 358.999C306.132 359.999 305.299 361.768 304.216 362.851C307.61 362.997 310.171 358.375 313.44 359.291C313.939 359.516 314.389 359.837 314.764 360.236C315.14 360.635 315.432 361.105 315.626 361.617C315.819 362.13 315.909 362.676 315.892 363.223C315.874 363.771 315.748 364.309 315.522 364.808C314.472 366.783 312.815 368.367 310.796 369.326C308.784 370.267 306.974 371.59 305.466 373.219C304.758 374.135 304.3 375.53 305.07 376.405C306.361 377.904 309.421 376.134 310.567 377.737C311.358 378.82 310.421 380.277 309.505 381.256L299.698 391.999C298.911 393.025 297.871 393.829 296.68 394.331C296.078 394.553 295.415 394.542 294.821 394.299C294.227 394.056 293.746 393.6 293.473 393.019C293.38 392.394 293.487 391.755 293.779 391.194C294.07 390.633 294.532 390.179 295.097 389.896C296.247 389.372 297.353 388.76 298.408 388.064C298.916 387.696 299.261 387.145 299.37 386.527C299.478 385.909 299.342 385.273 298.991 384.754C297.908 383.609 296.034 384.566 294.827 385.524L283.355 394.539C282.58 395.281 281.614 395.793 280.565 396.017C280.039 396.104 279.5 395.987 279.059 395.689C278.617 395.39 278.307 394.934 278.191 394.414C278.2 393.856 278.374 393.312 278.691 392.853C280.789 389.207 283.669 386.071 287.123 383.671C288.495 382.871 289.731 381.859 290.788 380.673C291.305 380.069 291.62 379.319 291.687 378.526C291.754 377.734 291.571 376.941 291.162 376.259C288.903 378.366 286.417 380.217 283.75 381.776C282.793 382.338 281.439 382.776 280.731 381.943C280.024 381.11 280.731 379.861 281.481 378.903L293.348 365.016C294.21 363.701 295.558 362.781 297.096 362.455L298.928 362.747Z" fill="white"/>
<path d="M386.414 391.02C387.372 389.667 388.662 388.793 389.454 387.772C390.245 386.752 391.952 386.273 392.764 387.273C393.576 388.272 392.764 390.042 391.681 391.125C395.075 391.27 397.636 386.648 400.905 387.564C401.404 387.789 401.854 388.111 402.229 388.51C402.604 388.909 402.897 389.378 403.09 389.891C403.284 390.403 403.374 390.949 403.356 391.497C403.339 392.044 403.213 392.583 402.987 393.082C401.934 395.048 400.277 396.625 398.26 397.579C396.243 398.529 394.426 399.858 392.91 401.493C392.202 402.409 391.744 403.804 392.514 404.678C393.826 406.157 396.865 404.408 398.031 406.011C398.802 407.093 397.865 408.551 396.97 409.529L387.143 420.273C386.361 421.314 385.32 422.132 384.124 422.646C383.52 422.867 382.854 422.853 382.26 422.606C381.666 422.359 381.187 421.898 380.917 421.314C380.826 420.691 380.933 420.056 381.225 419.498C381.517 418.941 381.978 418.491 382.541 418.211C383.689 417.684 384.795 417.071 385.852 416.379C386.809 415.567 387.33 413.964 386.455 413.069C385.581 412.174 383.478 412.881 382.291 413.839L370.84 422.854C370.047 423.581 369.078 424.09 368.03 424.332C367.504 424.42 366.965 424.302 366.524 424.004C366.082 423.706 365.772 423.249 365.656 422.729C365.665 422.171 365.839 421.628 366.156 421.168C368.218 417.528 371.062 414.392 374.484 411.986C375.862 411.186 377.105 410.174 378.169 408.988C378.683 408.382 378.994 407.63 379.058 406.838C379.121 406.046 378.934 405.254 378.523 404.574C376.268 406.686 373.781 408.537 371.111 410.092C370.174 410.633 368.8 411.091 368.092 410.258C367.384 409.425 368.092 408.176 368.863 407.218C372.818 402.596 376.767 397.96 380.709 393.311C381.583 392.011 382.926 391.101 384.457 390.771L386.414 391.02Z" fill="white"/>
<path d="M353.08 473.905C354.059 472.552 355.35 471.677 356.12 470.657C356.891 469.637 358.619 469.179 359.451 470.157C360.284 471.136 359.451 472.947 358.369 474.009C361.762 474.155 364.323 469.533 367.592 470.449C368.092 470.674 368.542 470.995 368.917 471.394C369.292 471.793 369.585 472.263 369.778 472.775C369.971 473.288 370.062 473.834 370.044 474.381C370.026 474.929 369.9 475.467 369.674 475.966C368.625 477.941 366.968 479.525 364.948 480.484C362.937 481.425 361.127 482.748 359.618 484.377C358.91 485.293 358.452 486.688 359.222 487.563C360.513 489.062 363.574 487.292 364.719 488.895C365.51 489.978 364.573 491.435 363.657 492.414L353.851 503.157C353.064 504.183 352.023 504.987 350.832 505.489C350.23 505.711 349.567 505.7 348.973 505.457C348.38 505.214 347.899 504.758 347.626 504.177C347.533 503.552 347.639 502.913 347.931 502.352C348.223 501.791 348.684 501.337 349.25 501.054C350.405 500.543 351.513 499.93 352.56 499.222C353.068 498.854 353.413 498.303 353.522 497.685C353.631 497.067 353.495 496.431 353.143 495.912C352.06 494.767 350.187 495.724 348.979 496.682L337.507 505.697C336.732 506.439 335.766 506.951 334.717 507.175C334.192 507.262 333.653 507.145 333.211 506.847C332.77 506.548 332.459 506.092 332.344 505.572C332.353 505.014 332.527 504.47 332.843 504.011C334.917 500.38 337.76 497.246 341.171 494.829C342.551 494.041 343.79 493.027 344.836 491.831C345.353 491.227 345.668 490.477 345.735 489.684C345.803 488.892 345.619 488.099 345.211 487.417C342.957 489.531 340.47 491.382 337.799 492.934C336.841 493.496 335.488 493.955 334.78 493.101C334.072 492.247 334.78 491.019 335.529 490.082L347.397 476.174C348.259 474.859 349.606 473.939 351.144 473.613L353.08 473.905Z" fill="white"/>
<path d="M452.538 466.618C453.495 465.265 454.807 464.39 455.577 463.37C456.348 462.35 458.076 461.871 458.908 462.87C459.741 463.87 458.804 465.639 457.826 466.722C461.219 466.868 463.78 462.246 467.049 463.162C467.549 463.387 467.999 463.708 468.374 464.107C468.749 464.506 469.042 464.976 469.235 465.488C469.428 466.001 469.519 466.547 469.501 467.094C469.483 467.642 469.357 468.18 469.131 468.679C468.078 470.646 466.421 472.222 464.405 473.176C462.397 474.132 460.588 475.46 459.075 477.09C458.367 478.006 457.909 479.401 458.679 480.276C459.97 481.754 463.031 480.005 464.176 481.608C464.967 482.691 464.009 484.148 463.114 485.127L453.287 495.87C452.504 496.9 451.463 497.705 450.268 498.202C449.664 498.418 449 498.401 448.408 498.155C447.815 497.909 447.335 497.45 447.062 496.869C446.968 496.244 447.078 495.606 447.374 495.048C447.67 494.489 448.137 494.041 448.707 493.767C449.849 493.243 450.949 492.63 451.996 491.935C452.954 491.123 453.474 489.52 452.6 488.625C451.726 487.729 449.644 488.437 448.436 489.395L436.985 498.41C436.197 499.145 435.226 499.655 434.174 499.888C433.649 499.975 433.11 499.858 432.668 499.56C432.227 499.261 431.916 498.805 431.801 498.285C431.808 497.723 431.99 497.177 432.321 496.724C434.413 493.073 437.294 489.937 440.753 487.542C442.121 486.736 443.357 485.725 444.418 484.544C444.935 483.94 445.25 483.19 445.317 482.397C445.384 481.605 445.201 480.812 444.792 480.13C442.533 482.237 440.047 484.088 437.381 485.647C436.423 486.209 435.049 486.647 434.341 485.814C433.633 484.981 434.341 483.732 435.111 482.774L446.979 468.887C447.403 468.234 447.953 467.671 448.596 467.231C449.239 466.792 449.963 466.484 450.726 466.326L452.538 466.618Z" fill="white"/>
<path d="M414.56 477.757C414.334 477.499 414.145 477.212 413.998 476.903L412.54 474.342C411.291 472.135 409.542 468.866 407.481 464.807C403.317 456.687 397.883 445.277 392.532 432.431C387.182 419.585 382.934 407.676 380.04 398.995C378.625 394.643 377.542 391.125 376.834 388.585C376.522 387.46 376.272 386.502 376.064 385.753C375.947 385.424 375.877 385.081 375.855 384.733C376.034 385.033 376.174 385.355 376.272 385.691C376.522 386.44 376.855 387.356 377.25 388.46C378.125 391.02 379.332 394.477 380.769 398.661C383.767 407.26 388.118 419.086 393.448 431.973C398.778 444.861 404.087 456.229 408.022 464.411C409.959 468.408 411.562 471.677 412.769 474.113L414.039 476.757C414.262 477.063 414.437 477.399 414.56 477.757Z" fill="#263238"/>
<path d="M527.529 445.839C527.529 447.401 520.325 450.67 518.784 450.503L516.973 449.941C515.807 451.128 514.391 451.794 513.475 452.689C512.559 453.585 510.769 453.772 510.102 452.689C509.436 451.607 510.623 449.962 511.768 449.046C508.437 448.4 505.189 452.564 502.107 451.128C501.185 450.52 500.542 449.571 500.32 448.49C500.097 447.408 500.313 446.283 500.921 445.361C502.265 443.574 504.148 442.267 506.292 441.634C508.425 441.014 510.418 439.989 512.163 438.615C512.996 437.803 513.663 436.533 513.038 435.513C511.997 433.847 508.707 435.117 507.812 433.431C507.208 432.244 508.353 430.953 509.415 430.12C513.184 427.081 518.368 422.854 522.157 419.814C522.157 419.71 527.383 438.719 527.529 445.839Z" fill="white"/>
<g opacity="0.3">
<path d="M382.457 513.088C412.646 496.619 439.587 470.095 454.203 438.969L382.457 513.088Z" fill="black"/>
</g>
<g opacity="0.3">
<path d="M282.375 496.245C288.288 483.545 299.926 480.068 311.232 480.213C311.344 479.554 311.208 478.877 310.851 478.311C310.493 477.746 309.939 477.334 309.295 477.153C307.993 476.799 306.621 476.799 305.319 477.153C299.825 477.945 294.529 479.76 289.704 482.504C287.484 483.935 285.664 485.907 284.415 488.234C283.166 490.561 282.529 493.167 282.562 495.807" fill="black"/>
</g>
<g opacity="0.3">
<path d="M314.229 320.337C321.906 348.476 333.842 375.276 349.623 399.806C355.442 390.775 357.917 379.991 356.619 369.326C360.996 375.018 367.001 379.244 373.837 381.443C365.821 370.429 357.493 359.957 347.083 351.192C347.083 351.192 346.188 386.586 346.209 385.607C335.32 363.725 324.722 342.177 314.188 320.337" fill="black"/>
</g>
<path d="M405.963 222.066C402.861 232.164 398.447 239.93 388.662 243.906C380.105 247.383 370.424 246.717 361.388 244.864C332.011 238.805 301.176 223.149 285.582 197.54L293.91 179.385C302.717 165.54 324.245 149.134 349.229 157.253C355.988 155.321 363.127 155.136 369.976 156.716C376.826 158.297 383.162 161.591 388.391 166.289C407.546 182.591 405.963 222.066 405.963 222.066Z" fill="#263238"/>
<path d="M335.381 171.078C318.225 168.996 296.073 189.816 294.657 207.076C293.074 226.23 291.909 249.673 293.886 264.018C297.905 292.875 319.891 296.956 319.891 296.956L318.829 311.634L384.537 299.017L387.368 196.104L387.722 186.818L335.381 171.078Z" fill="#967262"/>
<path d="M305.338 227.854C305.309 228.814 305.656 229.748 306.306 230.455C306.955 231.163 307.855 231.589 308.815 231.643C309.285 231.692 309.76 231.646 310.212 231.508C310.664 231.37 311.083 231.143 311.446 230.841C311.809 230.538 312.108 230.166 312.324 229.746C312.541 229.326 312.671 228.867 312.708 228.395C312.736 227.435 312.389 226.502 311.74 225.794C311.09 225.086 310.19 224.66 309.231 224.606C308.761 224.557 308.286 224.603 307.834 224.741C307.382 224.879 306.962 225.106 306.599 225.409C306.236 225.712 305.938 226.084 305.721 226.504C305.504 226.924 305.374 227.383 305.338 227.854Z" fill="#263238"/>
<path d="M300.507 219.422C300.944 219.901 303.775 217.902 307.752 217.985C311.729 218.069 314.602 220.067 315.039 219.63C315.476 219.193 314.81 218.548 313.561 217.548C311.858 216.331 309.824 215.663 307.731 215.633C305.666 215.592 303.64 216.204 301.943 217.382C300.715 218.339 300.215 219.193 300.507 219.422Z" fill="#263238"/>
<path d="M342.4 229.291C342.376 230.249 342.725 231.18 343.374 231.887C344.022 232.593 344.919 233.021 345.876 233.08C346.345 233.126 346.818 233.077 347.267 232.938C347.717 232.799 348.134 232.572 348.495 232.269C348.855 231.967 349.152 231.595 349.367 231.177C349.583 230.758 349.712 230.301 349.749 229.832C349.778 228.87 349.431 227.934 348.782 227.223C348.133 226.512 347.233 226.081 346.272 226.022C345.802 225.976 345.328 226.025 344.877 226.166C344.426 226.306 344.008 226.535 343.647 226.84C343.286 227.145 342.99 227.518 342.775 227.939C342.561 228.36 342.433 228.82 342.4 229.291Z" fill="#263238"/>
<path d="M339.504 220.921C339.962 221.4 342.794 219.401 346.77 219.484C350.747 219.568 353.599 221.566 354.037 221.129C354.474 220.692 353.808 220.047 352.558 219.047C350.863 217.831 348.836 217.162 346.75 217.132C344.684 217.086 342.657 217.699 340.962 218.881C339.775 219.838 339.296 220.692 339.504 220.921Z" fill="#263238"/>
<path d="M324.536 250.069C322.449 249.392 320.29 248.966 318.103 248.799C317.103 248.674 316.145 248.445 316.021 247.758C315.954 246.705 316.216 245.658 316.77 244.76C317.769 242.324 318.852 239.763 319.914 237.098C324.286 226.188 327.472 217.215 327.034 217.048C326.597 216.882 322.683 225.564 318.311 236.474C317.249 239.159 316.229 241.741 315.292 244.198C314.62 245.4 314.405 246.805 314.688 248.154C314.824 248.518 315.043 248.846 315.329 249.11C315.615 249.374 315.959 249.567 316.333 249.673C316.889 249.834 317.462 249.925 318.04 249.944C320.191 250.263 322.374 250.305 324.536 250.069Z" fill="#263238"/>
<path d="M319.892 297.039C333.749 297.524 347.476 294.22 359.595 287.483C359.595 287.483 349.081 307.345 319.371 304.139L319.892 297.039Z" fill="#77574A"/>
<path d="M326.034 259.688C326.803 258.748 327.8 258.021 328.93 257.576C330.06 257.131 331.285 256.984 332.488 257.148C333.361 257.24 334.207 257.51 334.973 257.939C335.739 258.369 336.409 258.949 336.944 259.646C337.461 260.32 337.761 261.135 337.802 261.984C337.843 262.832 337.623 263.673 337.173 264.393C336.522 265.093 335.676 265.582 334.745 265.797C333.813 266.012 332.839 265.944 331.947 265.601C330.08 264.91 328.373 263.847 326.929 262.478C326.494 262.151 326.12 261.749 325.826 261.291C325.677 261.073 325.598 260.816 325.598 260.552C325.598 260.288 325.677 260.031 325.826 259.813" fill="#77574A"/>
<path d="M336.152 253.046C335.507 253.046 335.423 257.21 331.676 260.292C327.928 263.373 323.348 262.728 323.348 263.331C323.348 263.581 324.347 264.185 326.283 264.268C328.813 264.356 331.291 263.545 333.279 261.978C335.183 260.48 336.43 258.3 336.756 255.899C336.922 254.108 336.464 253.025 336.152 253.046Z" fill="#263238"/>
<path d="M338.797 205.348C339.151 206.43 343.128 205.993 347.771 206.638C352.414 207.284 356.099 208.72 356.807 207.679C357.098 207.221 356.453 206.201 354.954 205.119C352.957 203.783 350.675 202.934 348.291 202.641C345.916 202.309 343.496 202.552 341.233 203.349C339.505 204.036 338.631 204.827 338.797 205.348Z" fill="#263238"/>
<path d="M302.3 207.95C302.967 208.866 305.736 207.95 309.004 207.95C312.273 207.95 315.084 208.679 315.729 207.742C316.021 207.284 315.604 206.389 314.397 205.493C312.795 204.412 310.895 203.859 308.963 203.911C307.033 203.918 305.152 204.513 303.57 205.618C302.3 206.597 301.884 207.513 302.3 207.95Z" fill="#263238"/>
<path d="M385.059 183.945C382.748 179.094 377.064 177.095 372.025 175.263C364.905 172.681 357.993 169.496 350.727 167.372C343.5 164.965 335.767 164.498 328.303 166.019C320.704 167.851 314.125 172.577 308.316 177.803C300.654 184.694 293.742 193.147 291.785 203.266V206.743C308.295 202.058 324.722 184.798 336.673 172.494C346.979 186.86 364.135 212.364 379.333 218.61C380.353 211.261 385.579 200.601 386.162 193.21C386.574 190.078 386.195 186.892 385.059 183.945Z" fill="#263238"/>
<path d="M440.586 300.12C439.462 294.374 433.778 290.897 428.802 287.816C423.826 284.734 418.496 280.32 418.788 274.47C419.079 268.62 425.596 263.581 425.034 257.481C424.472 251.381 416.914 248.133 412.896 243.115C407.066 235.87 405.942 231.352 405.942 222.066C405.942 203.89 398.676 180.155 382.665 171.494L361.762 189.046C367.841 206.014 374.004 223.753 371.88 241.679C370.61 252.297 366.446 262.623 367.05 273.304C367.695 284.776 373.754 295.228 375.815 306.512C377.772 317.214 376.086 328.227 376.627 339.095C377.169 349.963 380.791 361.706 389.994 367.473L424.742 350.817C428.511 349.006 432.758 346.653 433.299 342.489C433.841 338.325 430.155 334.661 429.135 330.497C426.637 319.608 442.71 311.072 440.586 300.12Z" fill="#263238"/>
<path d="M405.38 211.302C403.731 212.05 402.007 212.622 400.238 213.009C396.007 214.2 391.67 214.974 387.288 215.32C382.881 215.591 378.46 215.112 374.213 213.905C372.432 213.497 370.721 212.83 369.133 211.927C369.237 211.49 377.065 214.925 387.225 214.238C391.545 213.856 395.832 213.16 400.05 212.156C401.797 211.706 403.581 211.42 405.38 211.302Z" fill="#455A64"/>
<path d="M406.045 217.985C404.622 219.07 403.042 219.933 401.361 220.546C397.368 222.228 393.096 223.146 388.765 223.253C384.441 223.29 380.136 222.701 375.981 221.504C374.246 221.111 372.568 220.503 370.984 219.693C372.736 219.918 374.469 220.273 376.169 220.754C380.263 221.712 384.456 222.187 388.661 222.17C392.873 222.05 397.04 221.263 401.007 219.838C402.652 219.131 404.334 218.513 406.045 217.985Z" fill="#455A64"/>
<path d="M283.977 207.221C285.805 206.961 287.647 206.808 289.494 206.763C291.307 206.365 293.143 206.073 294.99 205.889C293.381 206.944 291.55 207.614 289.639 207.845C287.729 208.076 285.791 207.863 283.977 207.221Z" fill="#455A64"/>
<path d="M282.938 210.511C283.125 210.261 285.332 211.781 288.392 212.822C291.453 213.863 294.118 214.05 294.118 214.384C292.087 214.88 289.949 214.69 288.038 213.842C286.012 213.337 284.215 212.163 282.938 210.511Z" fill="#455A64"/>
<path d="M380.271 353.503C379.753 353.429 379.248 353.281 378.772 353.066C377.355 352.469 376.084 351.575 375.045 350.442C373.386 348.641 372.299 346.387 371.922 343.967C371.694 342.441 371.808 340.884 372.255 339.408C372.777 337.791 373.513 336.25 374.441 334.827C375.443 333.315 376.341 331.736 377.127 330.101C377.887 328.323 378.29 326.413 378.314 324.48C378.163 320.156 376.877 315.949 374.587 312.279C371.972 308.22 369.136 304.307 366.092 300.558C362.746 296.439 360.44 291.576 359.368 286.379C358.577 281.14 358.889 275.793 360.284 270.681C361.557 265.974 363.193 261.373 365.176 256.919C366.967 252.651 368.716 248.591 370.027 244.739C371.293 241.157 372.179 237.451 372.672 233.684C373.526 228.243 373.192 222.681 371.693 217.382C371.077 215.461 370.216 213.628 369.132 211.927C369.505 212.297 369.833 212.709 370.111 213.155C370.975 214.451 371.675 215.85 372.193 217.319C373.866 222.661 374.321 228.31 373.525 233.85C373.073 237.678 372.214 241.447 370.964 245.093C369.673 249.028 367.945 253.088 366.176 257.377C364.235 261.792 362.641 266.351 361.408 271.014C360.054 275.977 359.75 281.167 360.513 286.254C361.557 291.289 363.791 296.001 367.029 299.995C370.086 303.782 372.929 307.738 375.545 311.842C377.893 315.678 379.186 320.067 379.292 324.563C379.25 326.608 378.804 328.624 377.981 330.497C377.148 332.125 376.209 333.697 375.17 335.202C374.265 336.564 373.531 338.033 372.984 339.574C372.57 340.921 372.443 342.339 372.609 343.738C372.923 346.052 373.907 348.224 375.441 349.984C376.742 351.531 378.4 352.738 380.271 353.503Z" fill="#263238"/>
<path d="M350.33 156.941C347.239 158.336 344.419 160.267 342.002 162.646C339.842 165.249 338.151 168.208 337.005 171.39C336.885 170.356 337.035 169.309 337.442 168.351C338.215 165.956 339.497 163.758 341.201 161.907C342.904 160.056 344.989 158.596 347.311 157.628C348.242 157.143 349.281 156.907 350.33 156.941Z" fill="#455A64"/>
<path d="M460.657 352.649L446.479 330.309L445.5 308.344L451.059 293.312C451.059 293.312 455.494 292.25 456.222 297.476C456.486 301.448 455.926 305.432 454.578 309.177L457.617 319.837C457.617 319.837 458.617 320.982 459.554 316.547C460.49 312.113 458.866 279.238 458.846 276.989C458.825 274.741 459.012 269.348 462.364 269.848C465.716 270.348 466.778 274.824 466.778 277.093C466.778 279.363 469.235 301.432 469.235 301.432C469.235 301.432 470.026 303.41 470.817 303.118C471.608 302.827 470.109 279.446 469.964 275.761C469.818 272.076 468.985 263.873 473.316 263.873C477.646 263.873 477.646 268.037 477.896 272.492C478.146 276.948 480.956 302.327 480.956 302.327C480.956 302.327 481.623 303.91 482.247 301.786C482.872 299.662 483.642 272.138 484.121 270.847C484.6 269.557 487.14 267.849 489.097 270.972C491.054 274.095 490.596 281.382 490.325 294.187C490.076 305.742 489.722 310.53 491.033 311.446C492.345 312.362 497.279 305.2 497.279 305.2C497.279 305.2 503.192 289.96 508.21 290.501C513.227 291.043 509.855 294.936 509.001 298.476C508.272 301.474 499.507 319.296 499.32 319.525C499.132 319.754 490.513 351.504 490.513 351.504L509.542 387.877C512.912 394.202 514.201 401.429 513.227 408.53C512.082 416.296 508.106 424.957 496.717 428.496C488.389 431.12 482.143 427.372 477.979 422.958C474.454 419.045 472.12 414.205 471.254 409.009C468.818 394.976 460.615 352.608 460.615 352.608L460.657 352.649Z" fill="#967262"/>
<path d="M474.814 336.618C474.627 336.618 474.814 334.911 474.356 332.329C473.739 328.958 472.13 325.848 469.734 323.397C467.841 321.401 465.32 320.115 462.593 319.754C460.891 319.552 459.171 319.941 457.721 320.857L457.513 320.982V320.795C457.242 320.212 457.117 319.879 457.18 319.858C457.242 319.837 457.451 320.066 457.846 320.607H457.555C458.264 319.997 459.088 319.535 459.978 319.249C460.868 318.963 461.807 318.859 462.739 318.942C465.729 319.174 468.527 320.51 470.588 322.689C473.147 325.282 474.772 328.65 475.21 332.266C475.446 333.727 475.31 335.224 474.814 336.618Z" fill="#77574A"/>
<path d="M486.785 319.733C486.972 320.003 485.057 321.648 483.183 324.084C482.171 325.674 481.059 327.197 479.852 328.644C480.286 326.742 481.132 324.959 482.329 323.419C483.527 321.879 485.048 320.621 486.785 319.733Z" fill="#77574A"/>
<path d="M294.41 518.626C294.675 527.907 298.283 536.779 304.57 543.61C309.232 548.664 314.152 553.473 319.311 558.018L355.163 574.091C355.163 574.091 364.511 575.506 373.901 566.366C376.906 563.738 379.38 560.558 381.188 556.997C381.188 556.997 391.931 561.807 396.136 561.62C403.215 561.307 402.091 556.31 402.091 556.31C402.091 556.31 378.419 543.277 372.797 538.239C367.176 533.2 350.978 529.911 339.485 531.389L332.823 530.077L330.408 521.125C330.408 521.125 317.416 501.783 305.424 508.633C293.431 515.482 294.41 518.626 294.41 518.626Z" fill="#967262"/>
</g>
</svg>
